<?xml version="1.0" encoding="utf-8"?>
<!-- Generator: Adobe Illustrator 23.0.1, SVG Export Plug-In . SVG Version: 6.00 Build 0)  -->
<svg version="1.1" id="Layer_1" xmlns="http://www.w3.org/2000/svg" xmlns:xlink="http://www.w3.org/1999/xlink" x="0px" y="0px"
	 viewBox="0 0 98.6 80" style="enable-background:new 0 0 98.6 80;" xml:space="preserve">
<style type="text/css">
	.st0{fill:#124B84;}
</style>
<g>
	<ellipse class="st0" cx="27" cy="73.5" rx="6.5" ry="6.5"/>
	<ellipse class="st0" cx="47.8" cy="73.5" rx="6.5" ry="6.5"/>
	<path class="st0" d="M97.1,0H77.6c-0.6,0-1.3,0.4-1.5,1.1l-2.8,8.6H2.6c-1.7,0-3,1.5-2.6,3.2L9.5,51c0.2,1.1,1.3,1.9,2.6,1.9h46.5
		L56.2,60H20.1c-0.9,0-1.5,0.6-1.5,1.5s0.6,1.5,1.5,1.5h37.2c0.6,0,1.3-0.4,1.5-1.1L78.7,3h18.4c0.9,0,1.5-0.6,1.5-1.5S98,0,97.1,0z
		 M12.6,49.7L3.3,13H72L59.7,49.7H12.6z"/>
	<polygon class="st0" points="23.4,25.3 21.2,18.4 18.8,25.3 11.5,25.5 17.5,29.6 15.2,36.5 21.2,32.4 27,36.5 24.9,29.6 30.7,25.5 
			"/>
	<polygon class="st0" points="38.3,16 36.6,17.7 34.6,16.6 35.7,18.6 34.2,20.3 36.3,19.9 37.4,21.8 37.9,19.7 40,19.2 37.9,18.2 	
		"/>
	<polygon class="st0" points="46.5,33.9 44.1,33.9 43.5,31.8 42.6,33.9 40.5,33.9 42.2,35.2 41.5,37.4 43.5,36.1 45.2,37.4 
		44.6,35.2 	"/>
	<polygon class="st0" points="42.6,26.2 42.8,28.3 44.1,26.4 46.3,26.8 44.8,25.1 45.9,23.1 43.7,24 42.2,22.5 42.4,24.6 40.5,25.5 
			"/>
	<polygon class="st0" points="37.9,38.5 36.6,40.2 34.4,39.6 35.7,41.5 34.2,43.2 36.3,42.6 37.6,44.5 37.9,42.2 40,41.7 37.9,40.9 
			"/>
</g>
</svg>
