<?xml version="1.0" encoding="utf-8"?>
<!-- Generator: Adobe Illustrator 23.0.1, SVG Export Plug-In . SVG Version: 6.00 Build 0)  -->
<svg version="1.1" id="Layer_1" xmlns="http://www.w3.org/2000/svg" xmlns:xlink="http://www.w3.org/1999/xlink" x="0px" y="0px"
	 viewBox="0 0 80 80" style="enable-background:new 0 0 80 80;" xml:space="preserve">
<style type="text/css">
	.st0{fill:#124A85;}
</style>
<g>
	<rect x="33.1" y="57.1" class="st0" width="13.8" height="9.9"/>
	<rect x="49.4" y="57.1" class="st0" width="13.8" height="9.9"/>
	<rect x="16.5" y="57.1" class="st0" width="13.8" height="9.9"/>
	<rect x="16.5" y="45.6" class="st0" width="13.8" height="9.9"/>
	<path class="st0" d="M73.3,77V14.1L40,0L6.7,14.1V77H0v3h80v-3H73.3z M70.2,18.4v2.4H9.8v-2.4H70.2z M69.4,15.5H10.6L40,3.2
		L69.4,15.5z M9.8,23.5h60.5V77h-6.7v-8.5H49.8V77h-2.6v-8.5H33.4V77h-2.6v-8.5H16.6V77H9.8V23.5z"/>
</g>
</svg>
