<?xml version="1.0" encoding="utf-8"?>
<!-- Generator: Adobe Illustrator 23.0.1, SVG Export Plug-In . SVG Version: 6.00 Build 0)  -->
<svg version="1.1" id="Layer_1" xmlns="http://www.w3.org/2000/svg" xmlns:xlink="http://www.w3.org/1999/xlink" x="0px" y="0px"
	 viewBox="0 0 101.6 80" style="enable-background:new 0 0 101.6 80;" xml:space="preserve">
<style type="text/css">
	.st0{fill:#124B84;}
	.st1{fill:#124A85;}
</style>
<g>
	<g>
		<path class="st0" d="M30.9,56.2c0,0,1.7,0.4,1.9,0.6c0.2,0.2,0,0.4,0.2,0.4s1.3,0.4,1.5,0.4c0,0.2,0.2,0.6,0.2,0.6
			c0,0.2-0.4,0.2-0.4,0.4s0.4,0.2,0.4,0.2s1.3-0.2,1.5,0c0,0.2,0,0.4,0.4,0.6c0.2,0,1.1,0,1.1,0.2c0.2,0.2,0.4,0.4,0.4,0.4
			s0.2,0,0.4,0s0.2,0.9,0.2,0.9s-0.9,0.2-1.1,0.4c0,0.2-0.2,2.2-0.2,2.2s-1.5,0.2-1.7,0.4c0,0.2-0.4,1.7-0.4,1.9
			c-0.2,0.2-0.9,0.6-0.9,0.6L33.1,69c0,0-1.1,0.4-1.3,0.4c-0.2,0.2-0.6,1.7-0.6,1.9s-0.4,0.9-0.4,1.3s0.9,1.9,0.6,1.9
			c-0.2,0-1.7-0.9-1.7-1.3c-0.2-0.4-0.2-1.7,0-1.9c0-0.2,0.2-0.6,0.2-0.9c0-0.2,0.6-2.8,0.6-3.5c0-0.6,0.4-3.5,0.2-3.7
			c0-0.2-1.7-1.5-1.7-1.9s-0.2-0.6-0.4-0.9c-0.2-0.2-0.4-1.1-0.2-1.5c0.2-0.4,0.6-1.1,0.6-1.3s-0.2-0.9,0-1.1c0-0.2,0.9-0.6,1.3-0.6
			C30.1,56.2,30.7,55.8,30.9,56.2z M28.1,56.4c0-0.2-0.9-0.2-1.3-0.4c-0.2-0.2-0.2-0.4-0.2-0.6c0-0.2-0.4-0.2-0.9-0.4
			c-0.2,0-0.2-0.4-0.2-0.6c0-0.2-1.5-0.4-1.7-0.4c-0.2-0.2-0.2-1.9,0-2.2s3-0.6,3.2-0.6s0.4,1.1,0.4,1.3s0.2,0.2,0.2,0
			s-0.2-1.5,0-1.7s0.4-0.9,0.6-0.9c0.2-0.2,0.2-0.6,0.2-0.9s1.5-1.5,1.7-1.9c0.2-0.2,0.9-0.9,0.9-1.1s-0.2-0.2-0.4-0.2
			c-0.2,0,0-0.4,0-0.6c0-0.2,2.4-0.9,2.6-0.9c0.2,0-0.2-1.1-0.2-1.3s-0.6-0.4-0.9-0.4s-0.6-1.7-0.6-1.7s-0.4-0.2-0.6-0.2
			c0,0,0,0.6,0,0.9s-0.4,0-0.9,0c-0.2,0-0.4-1.5-0.4-1.7s-1.5-0.4-1.5-0.4s0,0.9,0,1.5c0,0.4,0,0.4,0.2,0.6s0,0.9,0.2,1.3
			c0,0.2-0.2,0.4-0.4,0.4c-0.2,0.2,0,0.6,0,0.9s-0.2,0.4-0.4,0.4c-0.2,0-1.3-1.5-1.7-1.7c-0.2-0.2-0.6-0.2-0.9-0.2
			C24.7,42.5,24,41,24,40.8s1.1-1.5,1.5-1.9s0.4-0.9,0.4-1.1s-0.4-0.4-0.6-0.6c-0.2,0-0.6-0.9-0.6-0.9c-0.2,0-0.9,0.6-1.1,0.9
			c0.4,0.2-3.7,0-3.7,0s-0.6-0.4-0.9-0.9c0-0.2-1.1-0.4-1.5-0.4s-2.2,0.4-2.6,0.4c-0.2,0-0.9,0-1.1-0.2s-2.6-0.2-2.8-0.4
			c-0.2-0.4-0.9-0.6-1.1-0.6c-0.4,0-1.7,1.1-1.9,1.3c-0.2,0.2-0.2,0.9,0,1.1c0.2,0.2,0.9,0.2,1.1,0.2c0,0.2-1.3,0.4-1.5,0.4
			s-0.2,0.6,0,0.9c0,0.2,0.9,0,1.1,0s0.2,0,0.4,0.2c0,0.2-0.9,1.3-0.9,1.5s1.9,1.7,2.2,1.7s0.9-1.5,1.1-1.7c0.2,0,2.8,0.6,3,0.9
			c0,0,2.8,4.3,3,4.8c0.2,0.4-0.2,1.9-0.2,2.4c0,0.4,1.3,1.9,1.5,2.4C19,51,19,51,19,51.2s1.3,1.7,1.3,1.9h0.2c0,0-0.9-1.7-0.9-1.9
			c0.2,0,1.1,1.3,1.5,1.9s0.2,0.6,0.4,0.9c0.2,0.4,2.4,1.3,2.6,1.3c0.4,0,0.4,0,0.6,0.2s0.9,0.2,0.9,0.2c0.2,0,0.2,0.4,0.4,0.6
			c0.2,0.2,1.5,0.4,1.5,0.4C28.3,56.9,28.1,56.6,28.1,56.4z M42.8,24.4c0-0.4,0.2-0.4,0.6-0.4c0.2,0,0.2-0.6,0.4-0.6
			s0.2-0.6,0.2-0.9c0-0.2-0.4-0.2-0.6,0c-0.2,0-0.4,0.6-0.6,0.6c-0.2,0-0.6,0-0.6,0.4c0,0.2-0.4,0.4-0.6,0.4c0,0,0.4-1.1,0.4-1.3
			s0-0.2-0.2-0.2S41.4,23,41.4,23S41,23.2,41,23s0.2-0.4,0.4-0.4s-0.2-0.2-0.6-0.2c-0.2,0-0.2,0.4-0.4,0.4S40,22.7,40,22.5
			s0.4-0.2,0.6-0.4c0-0.2,1.7-0.4,1.7-0.6s-0.2-0.4-0.4-0.6c-0.2,0-0.4-0.4-0.4-0.6s-1.7-0.2-2.2-0.2c-0.2,0-0.2,0.6-0.2,0.6
			L38,20.5c0,0-0.4,0.2-0.2,0.4c0,0.2,0.4,0.2,0.4,0.4c0,0.2-1.1,0-1.1,0s-0.4,0.2-0.4,0.4s0.4,0,0.4,0.2s-0.9,0.2-0.9,0.2
			s-0.4,0-0.4,0.2s-0.6,0.6-0.6,0.6s-0.4-0.2-0.4-0.4c0-0.2-0.6,0-0.9,0s-0.2,0.4-0.4,0.4s-0.6,0.9-0.6,1.1s-0.4,0.2-0.6,0.2
			s-0.2,0.9-0.4,0.9c0,0-0.2,0.2-0.2,0.4l0.4,0.2c0,0,0.2,0.9,0,1.1c0,0.2-0.6,0.2-0.6,0.4c-0.2,0-0.4,0.6-0.6,0.6s-0.4,0.2-0.4,0.4
			c-0.2-0.2,0-0.2,0-0.2c0,0.2,0.4,0.2,0.6,0.2s0.2,0.2,0.2,0.4c0,0.2-0.6,0.2-0.9,0.2c-0.2,0,0.2,0.6,0.4,0.9c0.2,0,2.4,0,2.6,0
			c0.2,0,0.6,1.7,0.6,2.4c0.2,0.6,0.6,1.5,0.9,1.5c0.2,0.2,0.2,2.6,0.2,2.8s-0.2,0.4-0.4,0.6c0,0.2,0.2,1.7,0.4,1.9
			c0,0.2,1.5,1.3,1.7,1.3s0.4-2.4,0.6-2.8c0-0.2,1.1-0.4,1.3-0.4s0.4-0.9,0.4-1.1s1.5-0.6,1.7-0.9c0.2,0,0-0.6,0-0.6
			c0-0.2-0.6,0-0.6-0.2s0.2-0.2,0.2-0.4c0.2,0,0.2-0.4,0.2-0.4c0.2,0,0.2,0.2,0.4,0.4s0.2,0.2,0.4,0.2c0,0-0.2-0.6-0.2-0.9
			c0-0.2-0.4-0.4-0.6-0.4s-0.2-0.2-0.2-0.4s0.4-0.2,0.4-0.4c0.2,0,0.2,0,0.4,0s0.2,0,0.2-0.2s0.2-0.4,0.2-0.4c0.2,0,0-0.6,0.2-0.6
			c0,0,0-0.4,0.2-0.4c0,0-0.2-0.4-0.4-0.4c0,0-0.2-0.4-0.2-0.6l0.9-0.2v-0.4l-0.6-0.2c-0.2,0,0-0.4,0-0.6s0.6-0.9,0.6-1.1
			s0-0.9,0-0.9C42.8,25.7,42.8,24.9,42.8,24.4z M92.3,38.1c0,0.2-0.6,0-0.9,0c-0.2,0-0.4,0-0.4,0.2c-0.2,0.2-1.1,0.2-1.3,0.2
			c-0.2,0-0.4,0.2-0.4,0.2s0.2,0.4,0.6,0.4s0.4,0,0.6,0c0,0.2-0.6,0.4-0.9,0.4c-0.2,0-0.9,0.6-0.9,0.6l-1.3,0.4c0,0-0.9,0.4-0.9,0.6
			c0,0.2-0.4,1.3-0.4,1.5s-0.9,1.7-1.1,1.5c-0.2,0,0-1.7,0-2.2s1.1-0.9,1.3-1.1c0.2-0.2,0.6-1.1,0.6-1.1l-1.3,0.4L85,40.9
			c0,0-0.9,0.6-1.1,0.4c-0.2-0.2-2.4,0-2.4,0s-0.2,0.6-0.2,1.1c0,0.2-0.9,0.4-1.1,0.4s-0.4,0.4-0.4,0.4c0,0.2,0.2,0.4,0.9,0.4
			c0.4,0,0.9,0.4,0.9,0.6c0,0.2,0.4,1.9,0.4,2.2s0,0.2,0.4,0.4c0.2,0.2,0.2,0.2,0.2,0.6c0,0.4-0.6,0.4-0.6,0.4
			c-0.2,0-0.2,1.3-0.2,1.3s0,0.4,0,0.6c0,0.2-1.9,0.6-2.4,0.9c-0.2,0,0,0.9-0.2,1.1c-0.2,0.2,0-0.6-0.2-1.1c0-0.4,0.9-0.4,1.5-0.9
			c0.6-0.4,0.6-0.4,0.6-0.9c0-0.4,0.2-1.1,0.2-1.5s0.4-0.6,0.4-0.6l-0.2-1.3c0-0.2-0.2-0.2-0.2,0l-0.6,1.7l-2.2,1.5v1.3
			c0,0,0,0.4-0.2,0.4s-0.4-0.9-0.4-1.1s-0.6-0.4-0.9-0.4c-0.2,0-0.6,0.4-0.6,0.6c0,0.2,0.4,1.5,0.6,1.9c0.2,0.2-0.2,1.3-0.2,1.7
			s-0.4,0.9-0.9,0.9c-0.4,0.2-2.4,0-2.4,0s-0.2,0.4,0,0.9c0,0.4,0.2,0.6,0.4,0.9s-0.2,0.6-0.2,1.1c-0.2,0.4-0.6,0-0.9-0.2
			S72.2,56,72.2,56s0,1.1,0,1.3s0.4,0.4,0.6,0.4c0.2,0.2,0,1.3,0,1.3s-0.4-0.6-0.4-0.9s-0.4-0.4-0.6-0.6c0-0.2,0-0.4,0-0.6
			c0-0.2-0.2-1.1-0.2-1.3s-0.4-0.2-0.6-0.2s-0.9-1.7-0.9-1.9c0,0-0.9,0.4-0.9,0.6c0,0.2-1.5,0.9-1.7,0.9c-0.2,0.2-0.2,1.3-0.2,1.3
			c0,0.2-0.6,0.6-0.9,0.6S65.9,56,65.9,56c-0.2,0-0.4-1.5-0.4-1.7s-0.2-0.4-0.4-0.2c-0.2,0-0.2-0.9-0.4-1.1c-0.2,0-3.2-0.2-3.5-0.2
			s-1.1-1.1-1.3-1.3c0-0.2-0.4-0.2-0.4,0s0.6,1.5,0.9,1.7c0.2,0.2,1.5,0,1.7,0.2s0.2,0.6,0.2,0.9s-0.6,0.6-0.9,0.6s-0.2,0.2-0.2,0.4
			S59.2,56,59,56s-2.2-3.5-2.4-3.7c0-0.2-0.4,0-0.4,0.2s2.2,4.1,2.4,4.1s1.5-0.2,1.5,0s-0.2,0.6-0.4,0.6c-0.2,0.2-0.2,0.6-0.2,0.9
			c0,0.4-1.3,0.6-1.5,1.1s-0.2,3.2-0.2,3.7s-0.6,0.4-0.9,0.4s-0.2,1.1-0.4,1.3c0,0.4-0.2,0.4-0.4,0.4s-0.4,1.9-0.6,2.2
			c-0.2,0-2.8,0.6-2.8,0.4c-0.2,0,0-0.9,0-1.1s-0.4-0.4-0.4-0.6c-0.2-0.2-0.2-1.5-0.2-1.5s-0.4-0.4-0.4-0.6v-1.1
			c0,0,0.2-0.4,0.2-0.6v-1.7c0-0.2-0.6-0.6-0.9-0.6s0-1.5,0-1.9c-0.2-0.2-4.5-0.2-4.8-0.4c-0.2,0-1.3-1.5-1.3-1.7s0-2.2,0-2.4
			s1.1-1.1,1.3-1.3c0.2,0,0.6-1.1,0.6-1.1c0-0.9,0.9-0.6,1.5-0.9c0.4-0.2,0.6-0.2,0.6-0.4s1.9,0,2.2,0s0,0.9-0.2,0.9s-0.4,0-0.4,0.2
			S51.8,51,52,51c0.4,0,0.2,0.6,0.4,0.9c0.2,0,1.5-0.6,1.9-0.6s0.4,0,0.6,0.4c0,0.2,0.2,0.4,0.4,0.4s0.2-0.4,0.4-0.4
			s0.9-0.2,1.1-0.4c0.4-0.2,0.2-1.1,0.2-1.3s-1.5-0.2-1.7-0.2s-0.4-0.4-0.4-0.9c0-0.4,0.2-0.2,0.6-0.2c0.2,0,0.6-0.2,1.3-0.2
			c0.6,0,0.2-0.2,0.4,0s0.9,0,0.9-0.2s-0.2-0.6-0.6-0.6c-0.4,0-0.4-0.6-0.4-0.9s-1.5,0-1.7,0s-0.6,1.3-0.6,1.3s-0.9,0.6-1.3,0.6
			c-0.2,0,0,0.6-0.2,0.6S53,48,53,48s-0.6-0.4-0.9-0.4S51.7,47,51.5,47s0.2,0.9,0.4,0.9c0,0.2,0,0.4,0,0.4L49.7,47
			c0-0.2-0.4,0-0.6,0.4c0,0.2-1.3,0-1.3,0s-0.4,0.9-0.6,1.1c0,0-0.4,0.6-0.6,0.6c-0.2,0-1.5,0-1.5,0c0-0.2-0.2-1.3,0-1.3
			c0-0.2,1.5-0.2,1.7-0.4c0-0.2,0-1.5,0-1.5l0.6-0.9c0-0.4,1.1-0.6,1.1-0.9c0.2-0.2,3-0.6,3.5-0.6c0.2,0,0.4-0.9,0.4-1.1
			s2.2-1.1,2.2-1.1c0-0.2,0.2-0.4,0.4-0.4s0.4-0.4,0.4-0.4s-0.6-0.2-0.9-0.2s-0.2-0.4-0.4-0.4H53v0.4c0,0.2-0.4,0-0.6,0l-0.2,0.2
			c-0.2,0,0-0.9,0-1.1s0.4-0.6,0.6-0.9c0.2,0,0-0.9,0-1.1s-0.4,0-0.4,0c-0.2,0-1.3,2.4-1.3,2.4s0,1.7,0,2.2s-0.6,0.6-0.9,0.6
			S50,42.4,50,42.2s-0.4-0.6-0.4-0.9s-0.4,0-0.4,0c0,0.2-0.2,0.2-0.4,0c-0.2,0-0.2-1.3-0.2-1.7c0-0.2,0.6-0.6,1.1-0.6
			c0.4-0.2,0.4-0.4,0.6-1.3c0.4-1.1,0.6-1.1,0.9-1.7c0-0.6,1.3-0.6,1.3-1.1c0-0.2,1.3-0.2,1.7-0.4c0.2,0,0.2,0.4,0.4,0.6
			c0,0.2,0.6,0.4,1.1,0.2c0.6,0,0.4,0.6,0.9,0.9c0.2,0,0.2,0.6,0,0.9c0,0.2-1.3,0-1.5,0s-0.2,0.2,0,0.4s0,0.9,0.2,1.1
			c0,0.2,0.4,0,0.9,0c0.4,0,0.6-0.6,0.9-0.9s1.7-1.1,1.7-1.1s0.4-0.4,0.6-0.6c0.2-0.2,1.5-0.2,1.7-0.2s0.2-0.4,0-0.6
			c-0.2-0.2,0.2,0,0.6,0.2c0.4,0.2,0.6,0.2,1.1,0.2c0.2,0,0.2,0.4,0.4,0.4s0.2-1.3,0-1.9c0-0.4,0.2-0.9,0.2-1.1s0-0.4,0.2-0.4
			s0,0.6,0.2,0.6C64,33.4,64,36,64,36s0,0.6,0,0.9S63.6,37,63.8,37c0,0.2,0.6,0.2,0.9,0s0-1.9,0-1.9s-0.2-1.1,0-1.3
			c0-0.2,0.9,0,0.9-0.2c0.2-0.2,0.2-0.4,0.4-0.4s0.2,0.6,0.2,0.6s0.4,0,0.6-0.2s-0.2-0.6-0.2-1.1c0-0.4-0.2-0.4-0.4-0.4
			s-0.2-0.2,0-0.4c0-0.2,1.1-0.2,1.5-0.2s0.2-0.6,0.2-1.1s0.2,0,0.2,0s0.4-0.4,0.6-0.6s1.5,0,1.7-0.2s0-0.4,0.4-0.4
			c0.4-0.2,0.4-0.4,0.4-0.6s0.2-0.2,0.4-0.4c0.2,0,0.2,0.9,0.2,0.9h1.7l0.2,1.1c0,0,0,0.4-0.2,0.6s-0.4,0.2-0.4,0.4
			c0,0.2-0.4,0.4-0.6,0.4c-0.4,0-0.4,0.4-0.4,0.6s0.4,0.2,0.6,0c0.2,0,0-0.2,0.2-0.2c0-0.2,1.9,0,2.2,0s0.6,0.6,0.6,0.6
			s0.4,0,0.4-0.2c0.2-0.2,0.2-0.4,0.6-0.4s0.6,1.3,0.6,1.5s0.2,0.4,0.2,0.4c0.2,0,0.2-0.2,0.4-0.4c0.2-0.2,1.3,0.2,1.5,0.2
			s0.4-0.2,0.4-0.6c0-0.2,0-0.4,0.2-0.6c0.2,0,0.6,0,0.6,0s1.3,0,1.5,0s0,0.6,0.2,0.6s0.2,0.4,0.4,0.6s1.3,0,1.7,0s0.2,0.4,0.4,0.6
			s1.7,0.4,1.9,0.4c0.2,0,0.4,0.4,0.6,0.4s0.2-0.4,0.4-0.6c0.2-0.2,1.3,0.2,1.5,0.2s0.9,1.3,0.9,1.3s0.6,0.2,0.9,0.2
			C92.1,37.2,92.3,37.8,92.3,38.1z M60.3,47.6c-0.2-0.2-0.4-0.2-0.6-0.4c-0.2-0.2,0-0.4,0-0.6c0-0.2,0.2-0.4,0-0.6
			c-0.2-0.2-0.4,0-0.6,0.2c-0.2,0.2-0.9,0.4-0.6,0.6l0,0c0.2,0.2,0.4,0.9,0.4,1.1s-0.2,0.2,0,0.6c0,0.2,0.2,0.9,0.6,0.9
			c0.2,0,0.9,0.2,0.9-0.2c-0.2-0.2-0.4-0.9-0.2-1.1C60.3,48,60.3,48,60.3,47.6z M58.6,62.1l-0.2,0.6c-0.2,0-0.4,0.2-0.6,0.4
			c0,0.2-0.2,1.7-0.2,1.7s0.6,0.4,0.6,0c0-0.2,0.2-0.9,0.2-1.1s0.4-0.4,0.4-0.6c0-0.2,0-1.1,0-1.1S58.8,61.8,58.6,62.1z M70.9,58.8
			c0,0,0.2,0.6,0.4,0.6c0.2,0.2,0.4,0.4,0.4,0.4c0,0.2,0.2,0.2,0.4,0.4c0.2,0,0.9,0.2,0.6,0.2c0-0.2-0.4-0.2-0.4-0.6
			c0-0.2,0-0.6-0.4-0.9s-0.4-0.6-0.9-0.6C71.1,58.6,70.9,58.6,70.9,58.8C70.9,58.6,70.9,58.8,70.9,58.8z M70.5,57.7
			c0,0,0,0.4,0.2,0.4s0.2,0,0.4,0c0.2,0,0.2-0.2,0-0.2C70.7,57.7,70.5,57.7,70.5,57.7z M73.5,60.8l0.2,0.2c0,0,0.4,0,0.6,0
			s0.4,0,0.6,0s0.2-0.2,0.2-0.2c-0.2,0-0.4,0-0.6,0s-0.6,0-0.6,0C73.7,60.5,73.5,60.5,73.5,60.8z M74.8,57.7c0,0-0.2,0.4-0.4,0.4
			c-0.2,0-1.1,0.2-1.1,0.2c0,0.2,0,0.2,0.2,0.2c0,0,0,0.4,0.2,0.6c0.2,0,0.4,0.4,0.4,0.2c0.2,0,0.9,0,0.9-0.2s0.2-0.4,0.2-0.4
			l0.4-0.2c0-0.2-0.2-0.2-0.2-0.4s0-0.4,0-0.4s-0.2-0.2-0.4-0.2C74.8,57.5,74.8,57.7,74.8,57.7z M76.1,54.7v0.9l0.4,0.4
			c0,0,0,0.4,0,0.6v0.2c0,0,0.4,0,0.6,0.2s0.2,0,0.4,0.2c0.2,0.2,0.2-0.4,0-0.4s-0.4-0.2-0.4-0.4s-0.2-0.4,0-0.6c0-0.2,0-0.4,0-0.4
			c-0.2,0-0.2-0.6-0.2-0.6s0-0.2-0.2-0.2C76.1,54.5,76.1,54.7,76.1,54.7z M76.1,59.2c0,0.2-0.2,0.4-0.2,0.6c0,0.2,0,0.2,0,0.2
			c0.2,0,0.2-0.2,0.4-0.4c0.2-0.2,0,0,0.2,0.2c0,0.2,0.2,0.2,0.4,0.2c0,0,0-0.2,0-0.4s-0.2-0.2,0-0.4c0-0.2,0.4-0.2,0.4-0.2
			s-0.2-0.2-0.4-0.2c-0.2,0,0-0.2,0-0.2s0.2-0.2,0.4,0c0.2,0,0.2,0,0.2-0.2c0,0,0-0.2-0.2-0.2s-0.2,0-0.4,0c-0.2,0-0.4,0-0.4,0
			C76.1,58.6,76.1,59,76.1,59.2z"/>
	</g>
	<path class="st1" d="M92.3,12.3v-0.4c0-1.7-1.5-3.2-3.2-3.2h-9.9c-1.7,0-3.2,1.5-3.2,3.2v0.4h-9.7V0H35.5v12.3h-9.7v-0.4
		c0-1.7-1.5-3.2-3.2-3.2h-9.9c-1.7,0-3.2,1.5-3.2,3.2v0.6H0V80h101.6V12.3H92.3z M39.1,3.7h23.4v8.6H39.1V3.7z M97.9,76.3H3.7V16.2
		h9.1v-3.9h9.3v3.9h57.3v-3.9h9.3V16H98v60.3H97.9z"/>
</g>
</svg>
