<?xml version="1.0" encoding="utf-8"?>
<!-- Generator: Adobe Illustrator 23.0.1, SVG Export Plug-In . SVG Version: 6.00 Build 0)  -->
<svg version="1.1" id="Layer_1" xmlns="http://www.w3.org/2000/svg" xmlns:xlink="http://www.w3.org/1999/xlink" x="0px" y="0px"
	 viewBox="0 0 69.4 80" style="enable-background:new 0 0 69.4 80;" xml:space="preserve">
<style type="text/css">
	.st0{fill:#124B84;}
	.st1{fill:#FFFFFF;}
</style>
<g>
	<path class="st0" d="M43.5,6.8V0H-0.1v62.4h10.6v6.7h43.6V6.8H43.5z M3,2.9h37.5v56.4H3V2.9z M51.2,65.9H13.6v-3.7h30V9.5h7.7V65.9
		z"/>
	<g>
		<g>
			<ellipse class="st0" cx="33.1" cy="51.7" rx="3.2" ry="3.2"/>
		</g>
	</g>
	<g>
		<g>
			<rect x="11.2" y="32.1" class="st0" width="21" height="1.4"/>
		</g>
	</g>
	<g>
		<g>
			<rect x="7.3" y="26.5" class="st0" width="28.9" height="1.4"/>
		</g>
	</g>
	<g>
		<g>
			<rect x="7.3" y="21.1" class="st0" width="28.9" height="1.4"/>
		</g>
	</g>
	<g>
		<g>
			<circle class="st0" cx="55.4" cy="65.9" r="13.3"/>
			<path class="st1" d="M55.4,80c-7.9,0-14.1-6.3-14.1-14.1s6.3-14.1,14.1-14.1s14.1,6.3,14.1,14.1S63.1,80,55.4,80z M55.4,53.4
				c-6.9,0-12.7,5.6-12.7,12.7c0,6.9,5.6,12.7,12.7,12.7c7.1,0,12.7-5.6,12.7-12.7S62.3,53.4,55.4,53.4z"/>
		</g>
		<g>
			<path class="st1" d="M54.9,71.7c-0.5,0-0.6-0.2-0.8-0.5l-4.2-5c-0.5-0.5-0.2-1.1,0.2-1.4c0.3-0.3,1.1-0.2,1.4,0.2l3,3.7l5.3-8.2
				c0.2-0.5,1.1-0.6,1.4-0.5c0.3,0.2,0.6,1.1,0.5,1.4l-6.1,9.8C55.6,71.4,55.4,71.7,54.9,71.7L54.9,71.7z"/>
		</g>
	</g>
</g>
</svg>
