<?xml version="1.0" encoding="utf-8"?>
<!-- Generator: Adobe Illustrator 21.0.0, SVG Export Plug-In . SVG Version: 6.00 Build 0)  -->
<svg version="1.1" id="Layer_1" xmlns="http://www.w3.org/2000/svg" xmlns:xlink="http://www.w3.org/1999/xlink" x="0px" y="0px"
	 width="105.7px" height="80px" viewBox="0 0 105.7 80" style="enable-background:new 0 0 105.7 80;" xml:space="preserve">
<style type="text/css">
	.st0{fill:#124A85;}
	.st1{fill:#FFFFFF;}
</style>
<g>
	<g>
		<g>
			<polygon class="st0" points="42.4,0 31.8,0 22.1,6.7 22.1,19.2 30.5,13.4 30.5,49.1 42.4,47.1 			"/>
		</g>
		<g>
			<polygon class="st0" points="71.4,0 60.8,0 51,6.7 51,19.2 59.5,13.4 59.5,49.1 71.4,47.1 			"/>
		</g>
	</g>
	<g>
		<polygon class="st1" points="77.4,40.9 64.9,42.8 55.1,44.5 43,46.5 38.1,47.1 26.2,49.1 0.9,53.2 0.9,78.9 104.9,62.3 
			104.9,36.5 		"/>
		<path class="st0" d="M0,80V52.3l105.7-16.9v27.7L0,80z M1.7,53.8V78L104,61.6V37.4L1.7,53.8z"/>
	</g>
	<g>
		<g>
			<path class="st0" d="M41.5,53.6v12.5L38,66.7v-9.5l-2.6,0.4V60c0,1.1,0,1.9-0.2,2.8s-0.4,1.7-0.9,2.4c-0.4,0.6-0.9,1.3-1.5,1.7
				c-0.6,0.4-1.5,0.9-2.6,0.9l-0.4-2.4c0.6-0.2,1.1-0.4,1.3-0.6c0.4-0.2,0.6-0.6,0.6-1.1c0.2-0.4,0.2-0.9,0.2-1.3s0-1.1,0-1.7v-5.6
				L41.5,53.6z"/>
		</g>
		<g>
			<path class="st0" d="M47.4,59.9c0,0.9,0.2,1.3,0.6,1.5c0.4,0.2,0.9,0.4,1.5,0.2c0.2,0,0.6-0.2,1.3-0.4c0.4-0.2,1.1-0.6,1.5-1.3
				l2.2,2.2c-0.9,0.9-1.7,1.5-2.6,1.9c-0.9,0.4-1.7,0.6-2.6,0.9c-0.6,0.2-1.3,0.2-1.9,0c-0.6,0-1.3-0.4-1.7-0.6
				c-0.6-0.4-1.1-1.1-1.3-1.7c-0.4-0.9-0.4-1.7-0.4-3s0.2-2.2,0.4-3s0.6-1.5,1.3-2.2c0.4-0.6,1.1-1.1,1.7-1.5s1.3-0.6,2.2-0.6
				c1.1-0.2,1.9-0.2,2.6,0c0.6,0.2,1.3,0.6,1.7,1.1c0.4,0.4,0.9,1.1,1.1,1.9s0.4,1.7,0.4,2.6v0.9L47.4,59.9z M51.2,57.1
				c0-0.6-0.2-1.1-0.6-1.3c-0.4-0.2-0.6-0.4-1.3-0.2c-0.4,0-0.9,0.2-1.3,0.6c-0.4,0.4-0.6,0.9-0.6,1.5L51.2,57.1z"/>
		</g>
		<g>
			<path class="st0" d="M64,53v9.7l-3.7,0.6v-9.7l-3.7,0.6V51l11.2-1.9v3.2L64,53z"/>
		</g>
	</g>
</g>
</svg>
