<svg xmlns="http://www.w3.org/2000/svg" xmlns:xlink="http://www.w3.org/1999/xlink" width="0" height="0" style="position:absolute">
	
		<symbol id=":UTEC_L_icon5" viewBox="0 0 101.6 80">
			<style>.st0{fill:#124b84}.st1{fill:#124a85}</style><path class="st0" d="M30.9 56.2s1.7.4 1.9.6c.2.2 0 .4.2.4s1.3.4 1.5.4c0 .2.2.6.2.6 0 .2-.4.2-.4.4s.4.2.4.2 1.3-.2 1.5 0c0 .2 0 .4.4.6.2 0 1.1 0 1.1.2l.4.4h.4c.2 0 .2.9.2.9s-.9.2-1.1.4c0 .2-.2 2.2-.2 2.2s-1.5.2-1.7.4c0 .2-.4 1.7-.4 1.9-.2.2-.9.6-.9.6L33.1 69s-1.1.4-1.3.4c-.2.2-.6 1.7-.6 1.9s-.4.9-.4 1.3.9 1.9.6 1.9c-.2 0-1.7-.9-1.7-1.3-.2-.4-.2-1.7 0-1.9 0-.2.2-.6.2-.9 0-.2.6-2.8.6-3.5 0-.6.4-3.5.2-3.7 0-.2-1.7-1.5-1.7-1.9s-.2-.6-.4-.9c-.2-.2-.4-1.1-.2-1.5.2-.4.6-1.1.6-1.3s-.2-.9 0-1.1c0-.2.9-.6 1.3-.6-.2.3.4-.1.6.3zm-2.8.2c0-.2-.9-.2-1.3-.4-.2-.2-.2-.4-.2-.6 0-.2-.4-.2-.9-.4-.2 0-.2-.4-.2-.6 0-.2-1.5-.4-1.7-.4-.2-.2-.2-1.9 0-2.2s3-.6 3.2-.6.4 1.1.4 1.3.2.2.2 0-.2-1.5 0-1.7.4-.9.6-.9c.2-.2.2-.6.2-.9s1.5-1.5 1.7-1.9c.2-.2.9-.9.9-1.1s-.2-.2-.4-.2 0-.4 0-.6c0-.2 2.4-.9 2.6-.9.2 0-.2-1.1-.2-1.3s-.6-.4-.9-.4-.6-1.7-.6-1.7-.4-.2-.6-.2v.9c0 .3-.4 0-.9 0-.2 0-.4-1.5-.4-1.7s-1.5-.4-1.5-.4V41c0 .4 0 .4.2.6s0 .9.2 1.3c0 .2-.2.4-.4.4-.2.2 0 .6 0 .9s-.2.4-.4.4-1.3-1.5-1.7-1.7c-.2-.2-.6-.2-.9-.2-.4-.2-1.1-1.7-1.1-1.9s1.1-1.5 1.5-1.9.4-.9.4-1.1-.4-.4-.6-.6c-.2 0-.6-.9-.6-.9-.2 0-.9.6-1.1.9.4.2-3.7 0-3.7 0s-.6-.4-.9-.9c0-.2-1.1-.4-1.5-.4s-2.2.4-2.6.4c-.2 0-.9 0-1.1-.2s-2.6-.2-2.8-.4c-.2-.4-.9-.6-1.1-.6-.4 0-1.7 1.1-1.9 1.3-.2.2-.2.9 0 1.1.2.2.9.2 1.1.2 0 .2-1.3.4-1.5.4s-.2.6 0 .9c0 .2.9 0 1.1 0s.2 0 .4.2c0 .2-.9 1.3-.9 1.5s1.9 1.7 2.2 1.7.9-1.5 1.1-1.7c.2 0 2.8.6 3 .9 0 0 2.8 4.3 3 4.8.2.4-.2 1.9-.2 2.4 0 .4 1.3 1.9 1.5 2.4.2-.2.2-.2.2 0s1.3 1.7 1.3 1.9h.2s-.9-1.7-.9-1.9c.2 0 1.1 1.3 1.5 1.9s.2.6.4.9c.2.4 2.4 1.3 2.6 1.3.4 0 .4 0 .6.2s.9.2.9.2c.2 0 .2.4.4.6.2.2 1.5.4 1.5.4.8.2.6-.1.6-.3zm14.7-32c0-.4.2-.4.6-.4.2 0 .2-.6.4-.6s.2-.6.2-.9c0-.2-.4-.2-.6 0-.2 0-.4.6-.6.6-.2 0-.6 0-.6.4 0 .2-.4.4-.6.4 0 0 .4-1.1.4-1.3s0-.2-.2-.2-.4.6-.4.6-.4.2-.4 0 .2-.4.4-.4-.2-.2-.6-.2c-.2 0-.2.4-.4.4s-.4-.1-.4-.3.4-.2.6-.4c0-.2 1.7-.4 1.7-.6s-.2-.4-.4-.6c-.2 0-.4-.4-.4-.6s-1.7-.2-2.2-.2c-.2 0-.2.6-.2.6l-1.1-.2s-.4.2-.2.4c0 .2.4.2.4.4s-1.1 0-1.1 0-.4.2-.4.4.4 0 .4.2-.9.2-.9.2-.4 0-.4.2-.6.6-.6.6-.4-.2-.4-.4-.6 0-.9 0-.2.4-.4.4-.6.9-.6 1.1-.4.2-.6.2-.2.9-.4.9c0 0-.2.2-.2.4l.4.2s.2.9 0 1.1c0 .2-.6.2-.6.4-.2 0-.4.6-.6.6s-.4.2-.4.4c-.2-.2 0-.2 0-.2 0 .2.4.2.6.2s.2.2.2.4-.6.2-.9.2c-.2 0 .2.6.4.9h2.6c.2 0 .6 1.7.6 2.4.2.6.6 1.5.9 1.5.2.2.2 2.6.2 2.8s-.2.4-.4.6c0 .2.2 1.7.4 1.9 0 .2 1.5 1.3 1.7 1.3s.4-2.4.6-2.8c0-.2 1.1-.4 1.3-.4s.4-.9.4-1.1 1.5-.6 1.7-.9c.2 0 0-.6 0-.6 0-.2-.6 0-.6-.2s.2-.2.2-.4c.2 0 .2-.4.2-.4.2 0 .2.2.4.4s.2.2.4.2c0 0-.2-.6-.2-.9 0-.2-.4-.4-.6-.4s-.2-.2-.2-.4.4-.2.4-.4h.4c.2 0 .2 0 .2-.2s.2-.4.2-.4c.2 0 0-.6.2-.6 0 0 0-.4.2-.4 0 0-.2-.4-.4-.4 0 0-.2-.4-.2-.6l.9-.2v-.4l-.6-.2c-.2 0 0-.4 0-.6s.6-.9.6-1.1v-.9c.5-.2.5-1 .5-1.5zm49.5 13.7c0 .2-.6 0-.9 0-.2 0-.4 0-.4.2-.2.2-1.1.2-1.3.2-.2 0-.4.2-.4.2s.2.4.6.4h.6c0 .2-.6.4-.9.4-.2 0-.9.6-.9.6l-1.3.4s-.9.4-.9.6c0 .2-.4 1.3-.4 1.5s-.9 1.7-1.1 1.5c-.2 0 0-1.7 0-2.2s1.1-.9 1.3-1.1c.2-.2.6-1.1.6-1.1l-1.3.4-.6.8s-.9.6-1.1.4c-.2-.2-2.4 0-2.4 0s-.2.6-.2 1.1c0 .2-.9.4-1.1.4s-.4.4-.4.4c0 .2.2.4.9.4.4 0 .9.4.9.6 0 .2.4 1.9.4 2.2s0 .2.4.4c.2.2.2.2.2.6 0 .4-.6.4-.6.4-.2 0-.2 1.3-.2 1.3v.6c0 .2-1.9.6-2.4.9-.2 0 0 .9-.2 1.1-.2.2 0-.6-.2-1.1 0-.4.9-.4 1.5-.9.6-.4.6-.4.6-.9 0-.4.2-1.1.2-1.5s.4-.6.4-.6l-.2-1.3c0-.2-.2-.2-.2 0l-.6 1.7-2.2 1.5v1.3s0 .4-.2.4-.4-.9-.4-1.1-.6-.4-.9-.4c-.2 0-.6.4-.6.6 0 .2.4 1.5.6 1.9.2.2-.2 1.3-.2 1.7s-.4.9-.9.9c-.4.2-2.4 0-2.4 0s-.2.4 0 .9c0 .4.2.6.4.9s-.2.6-.2 1.1c-.2.4-.6 0-.9-.2s-.6-.6-.6-.6v1.3c0 .2.4.4.6.4.2.2 0 1.3 0 1.3s-.4-.6-.4-.9-.4-.4-.6-.6v-.6c0-.2-.2-1.1-.2-1.3s-.4-.2-.6-.2-.9-1.7-.9-1.9c0 0-.9.4-.9.6 0 .2-1.5.9-1.7.9-.2.2-.2 1.3-.2 1.3 0 .2-.6.6-.9.6s-.5-.9-.5-.9c-.2 0-.4-1.5-.4-1.7s-.2-.4-.4-.2c-.2 0-.2-.9-.4-1.1-.2 0-3.2-.2-3.5-.2s-1.1-1.1-1.3-1.3c0-.2-.4-.2-.4 0s.6 1.5.9 1.7c.2.2 1.5 0 1.7.2s.2.6.2.9-.6.6-.9.6-.2.2-.2.4-2 .7-2.2.7-2.2-3.5-2.4-3.7c0-.2-.4 0-.4.2s2.2 4.1 2.4 4.1 1.5-.2 1.5 0-.2.6-.4.6c-.2.2-.2.6-.2.9 0 .4-1.3.6-1.5 1.1s-.2 3.2-.2 3.7-.6.4-.9.4-.2 1.1-.4 1.3c0 .4-.2.4-.4.4s-.4 1.9-.6 2.2c-.2 0-2.8.6-2.8.4-.2 0 0-.9 0-1.1s-.4-.4-.4-.6c-.2-.2-.2-1.5-.2-1.5s-.4-.4-.4-.6v-1.1s.2-.4.2-.6v-1.7c0-.2-.6-.6-.9-.6s0-1.5 0-1.9c-.2-.2-4.5-.2-4.8-.4-.2 0-1.3-1.5-1.3-1.7v-2.4c0-.2 1.1-1.1 1.3-1.3.2 0 .6-1.1.6-1.1 0-.9.9-.6 1.5-.9.4-.2.6-.2.6-.4s1.9 0 2.2 0 0 .9-.2.9-.4 0-.4.2 1.3.2 1.5.2c.4 0 .2.6.4.9.2 0 1.5-.6 1.9-.6s.4 0 .6.4c0 .2.2.4.4.4s.2-.4.4-.4.9-.2 1.1-.4c.4-.2.2-1.1.2-1.3s-1.5-.2-1.7-.2-.4-.4-.4-.9c0-.4.2-.2.6-.2.2 0 .6-.2 1.3-.2.6 0 .2-.2.4 0s.9 0 .9-.2-.2-.6-.6-.6c-.4 0-.4-.6-.4-.9s-1.5 0-1.7 0-.6 1.3-.6 1.3-.9.6-1.3.6c-.2 0 0 .6-.2.6S53 48 53 48s-.6-.4-.9-.4-.4-.6-.6-.6.2.9.4.9v.4L49.7 47c0-.2-.4 0-.6.4 0 .2-1.3 0-1.3 0s-.4.9-.6 1.1c0 0-.4.6-.6.6h-1.5c0-.2-.2-1.3 0-1.3 0-.2 1.5-.2 1.7-.4v-1.5l.6-.9c0-.4 1.1-.6 1.1-.9.2-.2 3-.6 3.5-.6.2 0 .4-.9.4-1.1s2.2-1.1 2.2-1.1c0-.2.2-.4.4-.4s.4-.4.4-.4-.6-.2-.9-.2-.2-.4-.4-.4H53v.4c0 .2-.4 0-.6 0l-.2.2c-.2 0 0-.9 0-1.1s.4-.6.6-.9c.2 0 0-.9 0-1.1s-.4 0-.4 0c-.2 0-1.3 2.4-1.3 2.4V42c0 .5-.6.6-.9.6s-.2-.2-.2-.4-.4-.6-.4-.9-.4 0-.4 0c0 .2-.2.2-.4 0-.2 0-.2-1.3-.2-1.7 0-.2.6-.6 1.1-.6.4-.2.4-.4.6-1.3.4-1.1.6-1.1.9-1.7 0-.6 1.3-.6 1.3-1.1 0-.2 1.3-.2 1.7-.4.2 0 .2.4.4.6 0 .2.6.4 1.1.2.6 0 .4.6.9.9.2 0 .2.6 0 .9 0 .2-1.3 0-1.5 0s-.2.2 0 .4 0 .9.2 1.1c0 .2.4 0 .9 0 .4 0 .6-.6.9-.9s1.7-1.1 1.7-1.1l.6-.6c.2-.2 1.5-.2 1.7-.2s.2-.4 0-.6c-.2-.2.2 0 .6.2.4.2.6.2 1.1.2.2 0 .2.4.4.4s.2-1.3 0-1.9c0-.4.2-.9.2-1.1s0-.4.2-.4 0 .6.2.6c.2.2.2 2.8.2 2.8v.9c0 .3-.4.1-.2.1 0 .2.6.2.9 0s0-1.9 0-1.9-.2-1.1 0-1.3c0-.2.9 0 .9-.2.2-.2.2-.4.4-.4s.2.6.2.6.4 0 .6-.2-.2-.6-.2-1.1c0-.4-.2-.4-.4-.4s-.2-.2 0-.4c0-.2 1.1-.2 1.5-.2s.2-.6.2-1.1.2 0 .2 0l.6-.6c.2-.2 1.5 0 1.7-.2s0-.4.4-.4c.4-.2.4-.4.4-.6s.2-.2.4-.4c.2 0 .2.9.2.9h1.7l.2 1.1s0 .4-.2.6-.4.2-.4.4-.4.4-.6.4c-.4 0-.4.4-.4.6s.4.2.6 0c.2 0 0-.2.2-.2 0-.2 1.9 0 2.2 0s.6.6.6.6.4 0 .4-.2c.2-.2.2-.4.6-.4s.6 1.3.6 1.5.2.4.2.4c.2 0 .2-.2.4-.4s1.3.2 1.5.2.4-.2.4-.6c0-.2 0-.4.2-.6h2.1c.2 0 0 .6.2.6s.2.4.4.6 1.3 0 1.7 0 .2.4.4.6 1.7.4 1.9.4c.2 0 .4.4.6.4s.2-.4.4-.6c.2-.2 1.3.2 1.5.2s.9 1.3.9 1.3.6.2.9.2c1.1 1 1.3 1.6 1.3 1.9zm-32 9.5c-.2-.2-.4-.2-.6-.4-.2-.2 0-.4 0-.6 0-.2.2-.4 0-.6-.2-.2-.4 0-.6.2-.2.2-.9.4-.6.6.2.2.4.9.4 1.1s-.2.2 0 .6c0 .2.2.9.6.9.2 0 .9.2.9-.2-.2-.2-.4-.9-.2-1.1.1-.1.1-.1.1-.5zm-1.7 14.5l-.2.6c-.2 0-.4.2-.6.4 0 .2-.2 1.7-.2 1.7s.6.4.6 0c0-.2.2-.9.2-1.1s.4-.4.4-.6V62s0-.2-.2.1zm12.3-3.3s.2.6.4.6l.4.4c0 .2.2.2.4.4.2 0 .9.2.6.2 0-.2-.4-.2-.4-.6 0-.2 0-.6-.4-.9s-.4-.6-.9-.6c.1.3-.1.3-.1.5 0-.2 0 0 0 0zm-.4-1.1s0 .4.2.4h.4c.2 0 .2-.2 0-.2-.4-.2-.6-.2-.6-.2zm3 3.1l.2.2h1.2c.2 0 .2-.2.2-.2h-1.2c-.2-.3-.4-.3-.4 0zm1.3-3.1s-.2.4-.4.4-1.1.2-1.1.2c0 .2 0 .2.2.2 0 0 0 .4.2.6.2 0 .4.4.4.2.2 0 .9 0 .9-.2s.2-.4.2-.4l.4-.2c0-.2-.2-.2-.2-.4v-.4s-.2-.2-.4-.2-.2.2-.2.2zm1.3-3v.9l.4.4v.8s.4 0 .6.2.2 0 .4.2.2-.4 0-.4-.4-.2-.4-.4-.2-.4 0-.6v-.4c-.2 0-.2-.6-.2-.6s0-.2-.2-.2c-.6-.1-.6.1-.6.1zm0 4.5c0 .2-.2.4-.2.6v.2c.2 0 .2-.2.4-.4s0 0 .2.2c0 .2.2.2.4.2v-.4c0-.2-.2-.2 0-.4 0-.2.4-.2.4-.2s-.2-.2-.4-.2 0-.2 0-.2.2-.2.4 0c.2 0 .2 0 .2-.2 0 0 0-.2-.2-.2h-.8c-.4.4-.4.8-.4 1z"></path><path class="st1" d="M92.3 12.3v-.4c0-1.7-1.5-3.2-3.2-3.2h-9.9c-1.7 0-3.2 1.5-3.2 3.2v.4h-9.7V0H35.5v12.3h-9.7v-.4c0-1.7-1.5-3.2-3.2-3.2h-9.9c-1.7 0-3.2 1.5-3.2 3.2v.6H0V80h101.6V12.3h-9.3zM39.1 3.7h23.4v8.6H39.1V3.7zm58.8 72.6H3.7V16.2h9.1v-3.9h9.3v3.9h57.3v-3.9h9.3V16H98v60.3h-.1z"></path>
		</symbol>
	
		<symbol id=":UTEC_L_icon6" viewBox="0 0 80.1 80">
			<style>.st0{fill:#124b84}</style><path class="st0" d="M55.2 15.9c-1.3-1.3-3.3-3-6.1-4.6C45 9 40.3 7.9 35.5 7.9c-7.2 0-14.3 2.6-19.7 8-.2.4 0 .9.2 1.3.4.2.9.4 1.3 0 1.3-1.3 3-2.8 5.6-4.1 3.9-2.2 8.2-3.3 12.6-3.3 6.5 0 13.2 2.6 18.2 7.6.4.4 1.1.2 1.5 0 .2-.6.2-1.3 0-1.5z"></path><path class="st0" d="M79.3 74.2L63 58c6.5-8 9.3-18.2 7.6-28.8-.9-4.6-2.6-8.9-5-12.8C52-4.7 22.3-5.3 7.3 14c-9.8 12.6-9.8 30.6 0 43.1C14.5 66.4 25.1 71 35.5 71c8 0 16-2.6 22.5-8l16.3 16.3c1.1 1.1 3 1.1 4.1 0l.7-.7c1.3-1.3 1.3-3.1.2-4.4zm-66.6-16C.1 45.6.1 25.3 12.7 12.7 19 6.4 27.3 3.3 35.5 3.3s16.5 3 22.8 9.3c6.1 6.1 9.3 14.1 9.3 22.8s-3.3 16.7-9.3 22.8c-12.6 12.6-33 12.6-45.6 0z"></path>
		</symbol>
	
		<symbol id=":UTEC_L_icon7" viewBox="0 0 98.6 80">
			<style>.st0{fill:#124b84}</style><ellipse class="st0" cx="27" cy="73.5" rx="6.5" ry="6.5"></ellipse><ellipse class="st0" cx="47.8" cy="73.5" rx="6.5" ry="6.5"></ellipse><path class="st0" d="M97.1 0H77.6c-.6 0-1.3.4-1.5 1.1l-2.8 8.6H2.6c-1.7 0-3 1.5-2.6 3.2L9.5 51c.2 1.1 1.3 1.9 2.6 1.9h46.5L56.2 60H20.1c-.9 0-1.5.6-1.5 1.5s.6 1.5 1.5 1.5h37.2c.6 0 1.3-.4 1.5-1.1L78.7 3h18.4c.9 0 1.5-.6 1.5-1.5S98 0 97.1 0zM12.6 49.7L3.3 13H72L59.7 49.7H12.6z"></path><path class="st0" d="M23.4 25.3l-2.2-6.9-2.4 6.9-7.3.2 6 4.1-2.3 6.9 6-4.1 5.8 4.1-2.1-6.9 5.8-4.1zM38.3 16l-1.7 1.7-2-1.1 1.1 2-1.5 1.7 2.1-.4 1.1 1.9.5-2.1 2.1-.5-2.1-1zM46.5 33.9h-2.4l-.6-2.1-.9 2.1h-2.1l1.7 1.3-.7 2.2 2-1.3 1.7 1.3-.6-2.2zM42.6 26.2l.2 2.1 1.3-1.9 2.2.4-1.5-1.7 1.1-2-2.2.9-1.5-1.5.2 2.1-1.9.9zM37.9 38.5l-1.3 1.7-2.2-.6 1.3 1.9-1.5 1.7 2.1-.6 1.3 1.9.3-2.3 2.1-.5-2.1-.8z"></path>
		</symbol>
	
		<symbol id=":UTEC_L_icon8" viewBox="0 0 69.4 80">
			<style>.st0{fill:#124b84}.st1{fill:#fff}</style><path class="st0" d="M43.5 6.8V0H-.1v62.4h10.6v6.7h43.6V6.8H43.5zM3 2.9h37.5v56.4H3V2.9zm48.2 63H13.6v-3.7h30V9.5h7.7v56.4z"></path><ellipse class="st0" cx="33.1" cy="51.7" rx="3.2" ry="3.2"></ellipse><path class="st0" d="M11.2 32.1h21v1.4h-21zM7.3 26.5h28.9v1.4H7.3zM7.3 21.1h28.9v1.4H7.3z"></path><circle class="st0" cx="55.4" cy="65.9" r="13.3"></circle><path class="st1" d="M55.4 80c-7.9 0-14.1-6.3-14.1-14.1s6.3-14.1 14.1-14.1 14.1 6.3 14.1 14.1S63.1 80 55.4 80zm0-26.6c-6.9 0-12.7 5.6-12.7 12.7 0 6.9 5.6 12.7 12.7 12.7s12.7-5.6 12.7-12.7-5.8-12.7-12.7-12.7z"></path><g><path class="st1" d="M54.9 71.7c-.5 0-.6-.2-.8-.5l-4.2-5c-.5-.5-.2-1.1.2-1.4.3-.3 1.1-.2 1.4.2l3 3.7 5.3-8.2c.2-.5 1.1-.6 1.4-.5.3.2.6 1.1.5 1.4l-6.1 9.8c0 .2-.2.5-.7.5z"></path></g>
		</symbol>
	
		<symbol id=":UTEC_L_icon9" viewBox="0 0 80 80">
			<style>.st0{fill:#124a85}</style><path class="st0" d="M33.1 57.1h13.8V67H33.1zM49.4 57.1h13.8V67H49.4zM16.5 57.1h13.8V67H16.5zM16.5 45.6h13.8v9.9H16.5z"></path><path class="st0" d="M73.3 77V14.1L40 0 6.7 14.1V77H0v3h80v-3h-6.7zm-3.1-58.6v2.4H9.8v-2.4h60.4zm-.8-2.9H10.6L40 3.2l29.4 12.3zm-59.6 8h60.5V77h-6.7v-8.5H49.8V77h-2.6v-8.5H33.4V77h-2.6v-8.5H16.6V77H9.8V23.5z"></path>
		</symbol>
	
</svg>
