<svg xmlns="http://www.w3.org/2000/svg" xmlns:xlink="http://www.w3.org/1999/xlink" width="0" height="0" style="position:absolute">
	
		<symbol id=":cabinet_blue" viewBox="0 0 20.7 26">
			<style>.st0{fill:#8ed9ff}</style><path class="st" d="M13.8 17.5c-1 1.2-1.9 2.1-2.6 2.8-.5.5-1.2.5-1.7 0-.7-.5-1.7-1.6-2.6-2.8-.4-.3-.9-.5-1.3-.2-2.3 1.2-4 3.1-5.2 4.5-.9 1-.3 2.6.9 2.9 2.1.5 5.4 1.2 9 1.2s6.9-.7 9-1.2c1.4-.3 1.7-1.9.9-2.9-1.2-1.4-3.1-3.3-5.2-4.5-.5-.3-.9-.1-1.2.2z"></path><path class="st0" d="M17.2 7.8c0 5.2-3.8 9.5-6.9 9.5-2.8 0-6.9-4.3-6.9-9.5S6.5 0 10.3 0s6.9 2.6 6.9 7.8z"></path>
		</symbol>
	
		<symbol id=":icon_11_years" viewBox="0 0 105.7 80">
			<style>.st0{fill:#124a85}.st1{fill:#fff}</style><path class="st0" d="M42.4 0H31.8l-9.7 6.7v12.5l8.4-5.8v35.7l11.9-2zM71.4 0H60.8L51 6.7v12.5l8.5-5.8v35.7l11.9-2z"></path><path class="st1" d="M77.4 40.9l-12.5 1.9-9.8 1.7-12.1 2-4.9.6-11.9 2L.9 53.2v25.7l104-16.6V36.5z"></path><path class="st0" d="M0 80V52.3l105.7-16.9v27.7L0 80zm1.7-26.2V78L104 61.6V37.4L1.7 53.8z"></path><g><path class="st0" d="M41.5 53.6v12.5l-3.5.6v-9.5l-2.6.4V60c0 1.1 0 1.9-.2 2.8s-.4 1.7-.9 2.4c-.4.6-.9 1.3-1.5 1.7-.6.4-1.5.9-2.6.9l-.4-2.4c.6-.2 1.1-.4 1.3-.6.4-.2.6-.6.6-1.1.2-.4.2-.9.2-1.3v-7.3l9.6-1.5zM47.4 59.9c0 .9.2 1.3.6 1.5.4.2.9.4 1.5.2.2 0 .6-.2 1.3-.4.4-.2 1.1-.6 1.5-1.3l2.2 2.2c-.9.9-1.7 1.5-2.6 1.9-.9.4-1.7.6-2.6.9-.6.2-1.3.2-1.9 0-.6 0-1.3-.4-1.7-.6-.6-.4-1.1-1.1-1.3-1.7-.4-.9-.4-1.7-.4-3s.2-2.2.4-3 .6-1.5 1.3-2.2c.4-.6 1.1-1.1 1.7-1.5s1.3-.6 2.2-.6c1.1-.2 1.9-.2 2.6 0 .6.2 1.3.6 1.7 1.1.4.4.9 1.1 1.1 1.9s.4 1.7.4 2.6v.9l-8 1.1zm3.8-2.8c0-.6-.2-1.1-.6-1.3-.4-.2-.6-.4-1.3-.2-.4 0-.9.2-1.3.6-.4.4-.6.9-.6 1.5l3.8-.6zM64 53v9.7l-3.7.6v-9.7l-3.7.6V51l11.2-1.9v3.2L64 53z"></path></g>
		</symbol>
	
</svg>
