<?xml version="1.0" encoding="utf-8"?>
<!-- Generator: Adobe Illustrator 21.0.0, SVG Export Plug-In . SVG Version: 6.00 Build 0)  -->
<svg version="1.1" id="Layer_1" xmlns="http://www.w3.org/2000/svg" xmlns:xlink="http://www.w3.org/1999/xlink" x="0px" y="0px"
	 width="49.7px" height="33px" viewBox="0 0 49.7 33" style="enable-background:new 0 0 49.7 33;" xml:space="preserve">
<style type="text/css">
	.Drop_x0020_Shadow{fill:none;}
	.Round_x0020_Corners_x0020_2_x0020_pt{fill:#FFFFFF;stroke:#231F20;stroke-miterlimit:10;}
	.Live_x0020_Reflect_x0020_X{fill:none;}
	.Bevel_x0020_Soft{fill:url(#SVGID_1_);}
	.Dusk{fill:#FFFFFF;}
	.Foliage_GS{fill:#FFDD00;}
	.Pompadour_GS{fill-rule:evenodd;clip-rule:evenodd;fill:#44ADE2;}
	.st0{fill:#FFFFFF;}
	.st1{fill:#00589F;}
	.st2{fill:#F9A51A;}
</style>
<linearGradient id="SVGID_1_" gradientUnits="userSpaceOnUse" x1="7.8347" y1="16" x2="8.5418" y2="16.7071">
	<stop  offset="0" style="stop-color:#DEDFE3"/>
	<stop  offset="0.1783" style="stop-color:#DADBDF"/>
	<stop  offset="0.3611" style="stop-color:#CECFD3"/>
	<stop  offset="0.546" style="stop-color:#B9BCBF"/>
	<stop  offset="0.7324" style="stop-color:#9CA0A2"/>
	<stop  offset="0.9181" style="stop-color:#787D7E"/>
	<stop  offset="1" style="stop-color:#656B6C"/>
</linearGradient>
<path class="st0" d="M49.7,27.1c0,3.2-2.6,5.9-5.9,5.9h-38C2.6,33,0,30.4,0,27.1V5.9C0,2.6,2.6,0,5.9,0h38c3.2,0,5.9,2.6,5.9,5.9
	V27.1z"/>
<g>
	<polygon class="st1" points="18.5,22.9 20.7,10.1 24.2,10.1 22,22.9 18.5,22.9 	"/>
	<path class="st1" d="M34.6,10.4c-0.7-0.3-1.8-0.5-3.1-0.5c-3.4,0-5.9,1.7-5.9,4.2c0,1.8,1.7,2.9,3.1,3.5c1.4,0.6,1.8,1,1.8,1.6
		c0,0.9-1.1,1.3-2.1,1.3c-1.4,0-2.1-0.2-3.3-0.7l-0.4-0.2l-0.5,2.9c0.8,0.4,2.3,0.7,3.9,0.7c3.7,0,6.1-1.7,6.1-4.4
		c0-1.5-0.9-2.6-2.9-3.5c-1.2-0.6-2-1-2-1.6c0-0.5,0.6-1.1,2-1.1c1.1,0,2,0.2,2.6,0.5l0.3,0.1L34.6,10.4L34.6,10.4z"/>
	<path class="st1" d="M43.6,10.1h-2.7c-0.8,0-1.5,0.2-1.8,1.1l-5.2,11.7h3.7c0,0,0.6-1.6,0.7-1.9c0.4,0,4,0,4.5,0
		c0.1,0.4,0.4,1.9,0.4,1.9h3.2L43.6,10.1L43.6,10.1z M39.3,18.4c0.3-0.7,1.4-3.6,1.4-3.6c0,0,0.3-0.7,0.5-1.2l0.2,1.1
		c0,0,0.7,3.1,0.8,3.7H39.3L39.3,18.4z"/>
	<path class="st1" d="M15.5,10.1l-3.4,8.7l-0.4-1.8c-0.6-2-2.6-4.3-4.8-5.4l3.1,11.2l3.7,0l5.5-12.8H15.5L15.5,10.1z"/>
	<path class="st2" d="M9,10.1H3.3l0,0.3c4.4,1.1,7.3,3.6,8.5,6.7l-1.2-5.9C10.3,10.4,9.7,10.1,9,10.1L9,10.1z"/>
</g>
</svg>
