<?xml version="1.0" encoding="utf-8"?>
<!-- Generator: Adobe Illustrator 21.0.0, SVG Export Plug-In . SVG Version: 6.00 Build 0)  -->
<svg version="1.1" id="Layer_1" xmlns="http://www.w3.org/2000/svg" xmlns:xlink="http://www.w3.org/1999/xlink" x="0px" y="0px"
	 width="49.7px" height="33px" viewBox="0 0 49.7 33" style="enable-background:new 0 0 49.7 33;" xml:space="preserve">
<style type="text/css">
	.Drop_x0020_Shadow{fill:none;}
	.Round_x0020_Corners_x0020_2_x0020_pt{fill:#FFFFFF;stroke:#231F20;stroke-miterlimit:10;}
	.Live_x0020_Reflect_x0020_X{fill:none;}
	.Bevel_x0020_Soft{fill:url(#SVGID_1_);}
	.Dusk{fill:#FFFFFF;}
	.Foliage_GS{fill:#FFDD00;}
	.Pompadour_GS{fill-rule:evenodd;clip-rule:evenodd;fill:#44ADE2;}
	.st0{fill:#FFFFFF;}
	.st1{fill:#231F20;}
	.st2{fill:#FF5F00;}
	.st3{fill:#EB001B;}
	.st4{fill:#F79E1B;}
</style>
<linearGradient id="SVGID_1_" gradientUnits="userSpaceOnUse" x1="7.8347" y1="16" x2="8.5418" y2="16.7071">
	<stop  offset="0" style="stop-color:#DEDFE3"/>
	<stop  offset="0.1783" style="stop-color:#DADBDF"/>
	<stop  offset="0.3611" style="stop-color:#CECFD3"/>
	<stop  offset="0.546" style="stop-color:#B9BCBF"/>
	<stop  offset="0.7324" style="stop-color:#9CA0A2"/>
	<stop  offset="0.9181" style="stop-color:#787D7E"/>
	<stop  offset="1" style="stop-color:#656B6C"/>
</linearGradient>
<g>
	<path class="st0" d="M49.7,27.1c0,3.2-2.6,5.9-5.9,5.9h-38C2.6,33,0,30.4,0,27.1V5.9C0,2.6,2.6,0,5.9,0h38c3.2,0,5.9,2.6,5.9,5.9
		V27.1z"/>
	<path class="st1" d="M14.2,29.6v-1.6c0-0.5-0.4-1-0.9-1c0,0-0.1,0-0.1,0c-0.4,0-0.7,0.2-0.9,0.5c-0.2-0.3-0.5-0.5-0.9-0.5
		c-0.3,0-0.6,0.1-0.8,0.4V27h-0.6v2.6h0.6v-1.4c0-0.3,0.2-0.6,0.5-0.7c0,0,0.1,0,0.1,0c0.4,0,0.6,0.2,0.6,0.7v1.4h0.6v-1.4
		c0-0.3,0.2-0.6,0.5-0.7c0,0,0.1,0,0.1,0c0.4,0,0.6,0.2,0.6,0.7v1.4L14.2,29.6z M22.6,27h-0.9v-0.8h-0.6V27h-0.5v0.5h0.5v1.2
		c0,0.6,0.2,1,0.9,1c0.2,0,0.5-0.1,0.7-0.2l-0.2-0.5c-0.2,0.1-0.3,0.1-0.5,0.1c-0.3,0-0.4-0.2-0.4-0.4v-1.2h0.9L22.6,27z M27.4,26.9
		c-0.3,0-0.5,0.1-0.7,0.4V27h-0.6v2.6h0.6v-1.4c0-0.4,0.2-0.7,0.5-0.7c0.1,0,0.2,0,0.4,0.1l0.2-0.5C27.6,26.9,27.5,26.9,27.4,26.9
		L27.4,26.9z M20.1,27.2c-0.3-0.2-0.7-0.3-1.1-0.3c-0.7,0-1.1,0.3-1.1,0.8c0,0.4,0.3,0.7,0.9,0.8l0.3,0c0.3,0,0.5,0.1,0.5,0.3
		c0,0.2-0.2,0.3-0.6,0.3c-0.3,0-0.6-0.1-0.9-0.3l-0.3,0.4c0.3,0.2,0.7,0.3,1.1,0.3c0.7,0,1.2-0.4,1.2-0.8c0-0.5-0.3-0.7-0.9-0.8
		L19,28c-0.2,0-0.4-0.1-0.4-0.3c0-0.2,0.2-0.3,0.5-0.3c0.3,0,0.6,0.1,0.8,0.2L20.1,27.2z M35.2,26.9c-0.3,0-0.5,0.1-0.7,0.4V27h-0.6
		v2.6h0.6v-1.4c0-0.4,0.2-0.7,0.5-0.7c0.1,0,0.2,0,0.4,0.1l0.2-0.5C35.4,26.9,35.3,26.9,35.2,26.9L35.2,26.9z M27.9,28.3
		c0,0.7,0.5,1.3,1.3,1.4c0,0,0.1,0,0.1,0c0.3,0,0.7-0.1,0.9-0.3L30,28.8c-0.2,0.1-0.4,0.2-0.7,0.2c-0.5,0-0.8-0.4-0.8-0.9
		c0-0.4,0.4-0.7,0.8-0.8c0.2,0,0.5,0.1,0.7,0.2l0.3-0.5c-0.3-0.2-0.6-0.3-0.9-0.3c-0.7,0-1.3,0.5-1.4,1.2
		C27.9,28.2,27.9,28.2,27.9,28.3L27.9,28.3z M33.2,28.3V27h-0.6v0.3c-0.2-0.2-0.5-0.4-0.8-0.4c-0.7,0-1.3,0.6-1.3,1.3
		c0,0.7,0.6,1.3,1.3,1.3c0.3,0,0.6-0.1,0.8-0.4v0.3h0.6V28.3z M31.1,28.3c0-0.4,0.4-0.8,0.8-0.7s0.8,0.4,0.7,0.8
		c0,0.4-0.4,0.7-0.8,0.7C31.5,29.1,31.1,28.7,31.1,28.3C31.1,28.3,31.1,28.3,31.1,28.3z M24.3,26.9c-0.7,0-1.3,0.6-1.3,1.4
		c0,0.7,0.6,1.3,1.4,1.3l0,0c0.4,0,0.8-0.1,1.1-0.4l-0.3-0.4c-0.2,0.2-0.5,0.3-0.8,0.3c-0.4,0-0.7-0.2-0.8-0.6h1.9
		c0-0.1,0-0.1,0-0.2C25.6,27.5,25.1,26.9,24.3,26.9L24.3,26.9z M24.3,27.4c0.4,0,0.6,0.3,0.7,0.6l0,0h-1.3
		C23.6,27.7,24,27.4,24.3,27.4L24.3,27.4z M38.4,28.3v-2.3h-0.5v1.3c-0.2-0.2-0.5-0.4-0.8-0.4c-0.7,0-1.3,0.6-1.3,1.3
		c0,0.7,0.6,1.3,1.3,1.3c0.3,0,0.6-0.1,0.8-0.4v0.3h0.5V28.3z M39.3,29.2c0,0,0.1,0,0.1,0c0,0,0.1,0,0.1,0.1c0,0,0,0.1,0.1,0.1
		c0,0.1,0,0.1,0,0.2c0,0,0,0.1-0.1,0.1c0,0-0.1,0-0.1,0.1c0,0-0.1,0-0.1,0c-0.1,0-0.2-0.1-0.2-0.2c0-0.1,0-0.1,0-0.2
		c0,0,0-0.1,0.1-0.1c0,0,0.1,0,0.1-0.1C39.3,29.2,39.3,29.2,39.3,29.2L39.3,29.2z M39.3,29.6C39.4,29.6,39.4,29.6,39.3,29.6
		c0.1,0,0.1,0,0.1-0.1c0.1-0.1,0.1-0.2,0-0.3c0,0,0,0-0.1,0c0,0-0.1,0-0.1,0c0,0-0.1,0-0.1,0c0,0,0,0-0.1,0c-0.1,0.1-0.1,0.2,0,0.3
		C39.2,29.6,39.2,29.6,39.3,29.6C39.3,29.6,39.3,29.6,39.3,29.6L39.3,29.6z M39.3,29.3C39.4,29.3,39.4,29.3,39.3,29.3
		C39.4,29.3,39.4,29.4,39.3,29.3c0.1,0.1,0.1,0.1,0.1,0.1c0,0,0,0-0.1,0l0.1,0.1h-0.1l-0.1-0.1h0v0.1h-0.1v-0.2L39.3,29.3z
		 M39.3,29.4L39.3,29.4L39.3,29.4C39.4,29.4,39.4,29.4,39.3,29.4C39.4,29.4,39.4,29.4,39.3,29.4C39.4,29.4,39.4,29.4,39.3,29.4
		C39.4,29.4,39.4,29.4,39.3,29.4L39.3,29.4z M36.3,28.3c0-0.4,0.4-0.8,0.8-0.7c0.4,0,0.8,0.4,0.7,0.8c0,0.4-0.4,0.7-0.8,0.7
		C36.7,29.1,36.3,28.8,36.3,28.3C36.3,28.3,36.3,28.3,36.3,28.3z M17.4,28.3V27h-0.6v0.3c-0.2-0.2-0.5-0.4-0.8-0.4
		c-0.7,0-1.3,0.6-1.3,1.3c0,0.7,0.6,1.3,1.3,1.3c0.3,0,0.6-0.1,0.8-0.4v0.3h0.6L17.4,28.3z M15.3,28.3c0-0.4,0.4-0.8,0.8-0.7
		c0.4,0,0.8,0.4,0.7,0.8c0,0.4-0.4,0.7-0.8,0.7C15.6,29.1,15.3,28.8,15.3,28.3C15.3,28.3,15.3,28.3,15.3,28.3L15.3,28.3z"/>
	<g id="_Group_">
		<rect x="19.9" y="7.3" class="st2" width="8.5" height="15.3"/>
		<path id="_Path_" class="st3" d="M20.5,14.9c0-3,1.4-5.8,3.7-7.6C20,4,13.9,4.7,10.5,8.9S8,19.3,12.2,22.6c3.5,2.8,8.5,2.8,12,0
			C21.8,20.7,20.5,17.9,20.5,14.9z"/>
		<path class="st4" d="M39.9,14.9c0,5.4-4.4,9.7-9.7,9.7c-2.2,0-4.3-0.7-6-2.1c4.2-3.3,5-9.4,1.6-13.6c-0.5-0.6-1-1.2-1.6-1.6
			C28.4,4,34.5,4.7,37.8,8.9C39.2,10.7,39.9,12.8,39.9,14.9L39.9,14.9z"/>
		<path class="st4" d="M39,21v-0.3h0.1v-0.1h-0.3v0.1h0.1L39,21L39,21z M39.6,21v-0.4h-0.1l-0.1,0.3l-0.1-0.3h-0.1V21h0.1v-0.3
			l0.1,0.2h0.1l0.1-0.2L39.6,21L39.6,21z"/>
	</g>
</g>
</svg>
