<?xml version="1.0" encoding="utf-8"?>
<!-- Generator: Adobe Illustrator 23.0.1, SVG Export Plug-In . SVG Version: 6.00 Build 0)  -->
<svg version="1.1" id="Layer_1" xmlns="http://www.w3.org/2000/svg" xmlns:xlink="http://www.w3.org/1999/xlink" x="0px" y="0px"
	 viewBox="0 0 100 44" style="enable-background:new 0 0 100 44;" xml:space="preserve">
<style type="text/css">
	.st0{fill:#124A85;}
</style>
<g>
	<path class="st0" d="M98,20.6c0,0-16.4,0-21.8,0c-1.3,0-1.8,0.7-2.1,1.3c-0.8,1.8-2.4,4.8-3.3,6.3c-1.3,2-5.6,1.6-27.5,1.9
		c-12.7,0.1-17.7,0.3-21,0.2c-1.8,0-2.7-0.2-3-0.8c-0.3-0.5-0.3-1-0.4-1.7c-0.2-1.9-0.3-2.5-0.3-2.5C18.4,24,17.3,23,16.1,23H2.2
		c-1.2,0-2.4,0.7-2.3,1.9c0,0.8,0.1,1.4,1.1,3.2c1.5,2.7,3.1,2.7,3.6,9c0.2,2,0.3,3.4,0.4,4.3c0.2,1.9,1.3,2.2,2,2.3
		C7.7,43.9,8.5,44,9.2,44c0,0,55.2,0,64.4,0c9.2,0,11.7-0.8,17.5-5.9c3.8-3.4,6.2-8,7.5-11.4h-8.3v-2.1h9.1c0.4-1.1,0.5-1.8,0.5-1.8
		C100.1,21.5,99.3,20.6,98,20.6z M30.1,34.9c-0.7,0-1.3-0.5-1.3-1.2c0-0.7,0.6-1.3,1.3-1.3c0.7,0,1.3,0.6,1.3,1.3
		C31.4,34.4,30.8,34.9,30.1,34.9z M37.3,34.9c-0.7,0-1.2-0.5-1.2-1.2c0-0.7,0.6-1.3,1.2-1.3c0.7,0,1.3,0.6,1.3,1.3
		C38.6,34.4,38,34.9,37.3,34.9z M44.5,34.9c-0.7,0-1.3-0.5-1.3-1.2c0-0.7,0.6-1.3,1.3-1.3c0.7,0,1.2,0.6,1.2,1.3
		C45.8,34.4,45.2,34.9,44.5,34.9z M51.8,34.9c-0.7,0-1.2-0.5-1.2-1.2c0-0.7,0.6-1.3,1.2-1.3c0.7,0,1.3,0.6,1.3,1.3
		C53,34.4,52.5,34.9,51.8,34.9z M59,34.9c-0.7,0-1.3-0.5-1.3-1.2c0-0.7,0.6-1.3,1.3-1.3c0.7,0,1.3,0.6,1.3,1.3
		C60.2,34.4,59.7,34.9,59,34.9z M66.2,34.9c-0.7,0-1.3-0.5-1.3-1.2c0-0.7,0.6-1.3,1.3-1.3c0.7,0,1.3,0.6,1.3,1.3
		C67.4,34.4,66.9,34.9,66.2,34.9z"/>
	<path class="st0" d="M73.4,19.7l-0.1-1.1h8.4v-2.7H70.4v7.1h1.4C72.7,21.6,73.3,20.2,73.4,19.7z"/>
	<rect x="57.8" y="7.4" class="st0" width="11.3" height="7.1"/>
	<path class="st0" d="M70.4,24.5v1.2c0.2-0.4,0.4-0.8,0.7-1.2H70.4z"/>
	<rect x="83" y="15.9" class="st0" width="11.3" height="2.7"/>
	<rect x="70.4" y="7.4" class="st0" width="11.3" height="7.1"/>
	<rect x="45.3" y="15.9" class="st0" width="11.3" height="7.1"/>
	<path class="st0" d="M56.5,27.9v-3.4H45.3V28l4.7,0C52.4,28,54.6,27.9,56.5,27.9z"/>
	<path class="st0" d="M69.1,24.5H57.8v3.4c6.4-0.1,9.9-0.3,11.3-0.7V24.5z"/>
	<rect x="57.8" y="15.9" class="st0" width="11.3" height="7.1"/>
	<path class="st0" d="M27.4,5.4h-3.7v-3h3.7V2.2c0-1.2-1-2.2-2.2-2.2H12.6c-1.2,0-2.2,1-2.2,2.2v0.2h2.3V4h-2.3v6.6h17V5.4z M17.4,4
		h-3V2.4h3V4z M22.1,4H19V2.4h3.1V4z"/>
	<path class="st0" d="M8.1,21h9.7c1.7,0,2.2,0.3,2.3,1.1c0.1,0.5,0.1,0.9,0.2,2.1c0,0,0.1,0.9,0.2,1.8c0.1,0.9,0.6,1.7,1.3,1.8
		c1.3,0.1,2.4,0.2,3.6,0.2h7.3c1.2,0,2.2-1,2.2-2.2v-7.5h-4.4v-3.8H35c0-1.2-1-2.2-2.2-2.2H8.1c-1.2,0-2.2,1-2.2,2.2h4.8v2.1H5.9
		v2.2C5.9,20.1,6.9,21,8.1,21z M24.6,14.5h3.8v2.1h-3.8V14.5z M18.8,14.5h3.8v2.1h-3.8V14.5z M13,14.5h3.8v2.1H13V14.5z"/>
</g>
</svg>
