<?xml version="1.0" encoding="utf-8"?>
<!-- Generator: Adobe Illustrator 23.0.1, SVG Export Plug-In . SVG Version: 6.00 Build 0)  -->
<svg version="1.1" id="Layer_1" xmlns="http://www.w3.org/2000/svg" xmlns:xlink="http://www.w3.org/1999/xlink" x="0px" y="0px"
	 viewBox="0 0 121 121" style="enable-background:new 0 0 121 121;" xml:space="preserve">
<style type="text/css">
	.st0{fill:#49C8F5;}
	.st1{fill:#FFFFFF;}
</style>
<g>
	<path class="st0" d="M111.9,121H9.1c-5,0-9.1-4.1-9.1-9.1V9.1C0,4.1,4.1,0,9.1,0h102.9c5,0,9.1,4.1,9.1,9.1v102.9
		C121,116.9,116.9,121,111.9,121z"/>
	<path class="st1" d="M111.9,3c3.3,0,6.1,2.7,6.1,6.1v102.8c0,3.3-2.7,6.1-6.1,6.1H9.1c-3.3,0-6.1-2.7-6.1-6.1V9.1
		C3,5.7,5.7,3,9.1,3H111.9 M111.9,1.5H9.1c-4.2,0-7.6,3.4-7.6,7.6v102.8c0,4.2,3.4,7.6,7.6,7.6h102.8c4.2,0,7.6-3.4,7.6-7.6V9.1
		C119.5,4.9,116.1,1.5,111.9,1.5L111.9,1.5z"/>
</g>
<g>
	<path class="st1" d="M66.5,15.9c-0.3,0-0.6,0.1-0.9,0.1c0,0.1,0,0.1,0,0.2c0.9,0.1,1.8,0.4,2.3,1.3c-0.1-0.1-0.2-0.1-0.3-0.2
		c-1.1-1-2.4-1.1-3.6-0.6c-1.8,0.8-3.5,1.6-5.3,2.6c0.7-0.2,1.4-0.5,2.1-0.7c0,0.1,0,0.1,0.1,0.2c-0.8,0.5-1.5,1-2.3,1.3
		c-1.4,0.7-2.8,1.2-4.2,1.9c-1,0.4-1.7,1-2.1,2.2c-0.7,1.8-1.6,3.4-2.5,5.1c-0.1,0.2-0.2,0.4-0.4,0.8c0.9-0.3,1.7-0.6,2.5-0.8
		c0.8-0.2,1.6-0.5,2.4-0.7c0.4-0.1,0.6-0.2,0.7-0.6c0.2-0.5,0.5-1.1,0.9-1.5c0.8-0.9,0.6-2,0.6-3c0-0.1,0-0.2,0-0.3c0,0,0,0,0-0.1
		c0.4-0.1,0.6,0,0.7,0.5c0.1,0.4,0.3,0.8,0.5,1.1c0.1,0,0.1,0,0.2-0.1c0-0.3-0.1-0.6-0.1-0.9c0.1,0,0.1-0.1,0.2-0.1
		c0.2,0.2,0.4,0.5,0.5,0.7c0.5,0.8,0.5,0.8,1.5,0.7c1.1-0.2,2.3-0.4,3.4-0.6c0.4-0.1,0.5-0.2,0.4-0.6c-0.1-0.9-0.1-1.8-0.1-2.7
		c0-0.1,0.1-0.3,0.2-0.5c0.1,0.3,0.2,0.5,0.3,0.7c0.2,0,0.5-0.2,0.6-0.1c0.1,0.1,0.1,0.4,0.2,0.6c1,0,0.4,1.1,0.9,1.5
		c0.1-0.1,0.3-0.2,0.3-0.1c0.4,0.4,0.6,0.9,1,1.2c0.9,0.7,1.9,1.4,3.1,1.2c0.3,0,0.6,0.1,1,0.1c0,0.1,0,0.1,0,0.2
		c-0.3,0-0.6,0-1,0.1c0,0,0,0.1,0,0.1c0.6,0,1.2,0.1,1.8,0.1c0.2-0.8,0.3-1.6,1.1-2.1c0.1,0.2,0.1,0.3,0.2,0.4
		c0.1-0.1,0.3-0.1,0.5-0.3c-0.1,0.3-0.1,0.5-0.1,0.8c-0.2,0.7,0.3,1.1,1,1.1c3,0.3,5.8-1.1,8.7-1.5c3.3-0.4,6.5-0.9,9.7-1.4
		c2.5-0.4,4.9-0.9,7.4-1.3c1.3-0.2,2.6-0.2,3.9-0.2c0.1,0,0.1,0,0.2,0c0.5-0.1,1.1-0.5,1.3,0.5c0.1,0.5,0.4,1,0,1.5
		c-0.1,0.2-0.1,0.5-0.1,0.8c0.1,0.9-0.2,1.5-0.9,2.1c-1.2,1-2.7,1-4,1.3c-0.4,0.1-0.7,0.1-1.1,0.3c0.3,0,0.6,0,0.8,0
		c0,0.1,0,0.1,0,0.2c-3,0.7-6.2,0.9-9.1,1.5c-0.6,1.2,0.2,2.1,0.4,3.2c0.2,1,0.4,2.1,0.6,3.1c0.1,0.2,0.3,0.4,0.4,0.6
		c0.1,0.1,0.2,0.3,0.2,0.5c0.2,1.7,0.4,3.4,0.6,5c0.3,1.8,0.7,3.6,0.9,5.4c0.2,2.2,0.2,4.4,0.3,6.5c0,0.7,0,1.3,0.1,2
		c0,0.1,0,0.3,0.1,0.3c0.7,0.4,0.7,1.2,1.1,1.7c0.9,1.3,1.8,2.7,2.8,4c0.1,0.1,0.4,0.2,0.6,0.1c1.2-0.3,2.4-0.6,3.7-0.9
		c0.2-0.1,0.5,0,0.8,0c0,0.1,0,0.1,0,0.2c-0.2,0.1-0.5,0.2-0.9,0.4c0.8,0.1,1.2,0.3,1.2,1c0,0.1,0,0.1,0.1,0.2
		c1.1,1.1,1.7,2.5,2.5,3.8c0.1,0.1,0.2,0.2,0.4,0.3c0.1,0.1,0.3,0.2,0.4,0.3c1,1.8,2.5,3.2,3.8,4.6c0.5,0.5,1,1.1,1.5,1.7
		c0.2,0.2,0.3,0.5,0.5,0.9c-0.3-0.1-0.5-0.1-0.8-0.1c0.2,0.3,0.4,0.6,0.6,0.8c0,0.1,0,0.1-0.1,0.2c-0.3-0.1-0.6-0.1-0.8-0.3
		c-1.4-1-2.8-2-4.2-3c-0.3-0.2-0.8-0.5-0.2-0.9c-0.8-0.8-1.3-0.8-2.3,0.1c0.1,0.1,0.2,0.3,0.3,0.5c-0.4,0.2-0.8,0.4-1.2,0.6
		c0.3,0.1,0.5,0.1,0.7,0.2c0,0,0,0.1,0,0.1c-0.3,0.1-0.6,0.3-0.9,0.4c-1.2,0.4-2.4,0.7-3.5,1.2c-2.6,1.2-5.4,1.6-7.8,2.9
		c-0.1,0.3-0.1,0.5-0.2,0.6c0,0.1-0.2,0.1-0.3,0.2c-2.9,1.2-5.3,3.1-7.9,4.8c-1,0.6-1.9,1.3-2.9,1.8c-0.6,0.3-1.2,0.3-1.9,0.4
		c-0.3,0.1-0.6,0.1-0.9,0.2c0,0.1-0.1,0.2-0.1,0.2c0.2,0.2,0.4,0.4,0.6,0.5c0.6,0.2,0.8,0.7,1,1.1c0.3,0.7,0.5,1.4,0.8,2.1
		c-0.5,0.1-1.2-0.1-1.6-0.7c-0.3-0.5-0.5-1-0.8-1.5c-0.1-0.2-0.3-0.4-0.5-0.7c-0.7,1-1.3,2-1.9,2.9c-1.2,1.9-2.6,3.6-4.1,5.1
		c-5.5,5.4-12.3,8.3-19.6,10.4c-2.1,0.6-4.3,1-6.4,1.3c-5,0.6-9.9-0.1-14.8-1.6c-4-1.3-7.8-3-11.4-5.3c-2.9-1.9-5.4-4.2-7.6-6.9
		c-1.4-1.7-2.7-3.5-3.6-5.6c-0.8-1.9-1.4-3.9-1.5-6c-0.2-2.1-0.3-4.2-0.3-6.3c0-4.7,1-9.2,3-13.5c1.2-2.6,2.6-5.1,4.3-7.3
		c1.1-1.5,2.2-3,3.4-4.4c2.4-2.7,5-5.1,8-7.2c3.7-2.5,7.7-4.4,11.7-6.2c0.4-0.2,0.7-0.3,1.1-0.5c-0.2-0.7-0.1-0.9,0.6-1
		c0.3-0.1,0.6-0.2,0.9-0.2c0.5-0.1,0.8-0.4,0.9-0.9c-0.1-0.1-0.2-0.2-0.5-0.3c0.3-0.2,0.4-0.3,0.6-0.4c1.8-0.7,3.5-1.3,5.3-2
		c0.5-0.2,0.9-0.4,0.8-1c0-0.1,0.1-0.3,0.2-0.4c1.2-1.4,2.2-2.9,2.6-4.7c0.3-1.4,1.4-2.3,2.4-3.2c1.9-1.7,4.4-2.4,6.7-3.4
		c1-0.4,2-0.7,3-1.1c0.8-0.4,1.6-0.8,2.5-1.2c0.5-0.2,1-0.3,1.5-0.4c0.1,0,0.3,0,0.3,0c0.2,0.5,0.7,0.3,1,0.4c1,0.2,2,0.3,2.8,1.1
		c0.1,0.1,0.4,0.2,0.6,0.2c3.3,1.1,6.6,2.1,9.9,3.3c2.1,0.7,4.1,1.7,6.1,2.6c0.4,0.2,0.6,0.5,1,0.7c-0.1,0.1-0.1,0.2-0.2,0.2
		c-0.9-0.1-1.8-0.2-2.7-0.3c-0.4-0.1-0.7-0.4-1.1-0.6c-0.8-0.4-1.6-0.7-2.4-1.1c-0.2-0.1-0.3-0.3-0.5-0.5c0-0.1,0.1-0.1,0.1-0.2
		c-1.8-0.6-3.6-1.2-5.4-1.9c-1.5-0.5-3.1-1.1-4.6-1.7c-0.4-0.2-0.9-0.2-1.4-0.3l0,0c-1.2-0.5-2.2-1.5-3.7-1.4
		C66.3,15.7,66.4,15.8,66.5,15.9L66.5,15.9z M50.7,38.4c-0.8,0.1-1.7-0.6-2-1.6c-0.1-0.5-0.3-0.6-0.8-0.5c-1.3,0.2-2.7,0.4-4.1,0.5
		c-0.4,0-0.8,0.1-1.1-0.4c-0.1-0.2-0.5-0.4-0.8-0.3c-0.7,0-1.4,0.2-2,0.3c-0.3,0-0.6,0-0.9,0.2c-4.5,2-8.9,4.1-13,7.1
		c-2.3,1.7-4.4,3.6-6.3,5.7c-1.3,1.4-2.4,2.9-3.6,4.5c-2.2,3.1-4.1,6.3-5.4,9.9c-1.3,3.9-2.1,7.8-2.1,11.9c0,1.3,0.1,2.7,0.2,4
		c0.1,2.4,0.6,4.8,1.6,7c2.3,5,6,8.8,10.5,11.8c4.1,2.7,8.6,4.6,13.3,5.8c4.6,1.2,9.2,1.3,13.9,0.5c5.8-1.1,11.2-3.2,16.3-6
		c7-3.8,11.6-9.7,14.6-17c0.1-0.2,0.1-0.5,0-0.7c-0.7-1.4-1.4-2.7-2.2-4.1c-0.4,0.6-0.6,0.4-0.8,0c-0.1-0.2-0.1-0.5-0.1-0.8
		c0-0.8,0.4-1.1,1.1-0.8c0.3,0.1,0.6,0.2,0.8,0.4c0.4-1,0.7-2,1.1-3.1c-0.3,0.1-0.4,0.2-0.6,0.3c-0.9,0.7-1.7,1.4-2.6,2.1
		c-0.1,0.1-0.4,0.1-0.6,0.1c0.1-0.2,0.1-0.4,0.3-0.6c0.6-0.5,1.2-1.1,1.8-1.6c0.3-0.2,0.4-0.4,0.2-0.8c-0.3-0.6-0.6-1.2-0.6-1.8
		c-0.1-1-0.6-1.8-1-2.7c-0.1-0.3-0.3-0.7-0.5-0.8c-0.6-0.1-0.7-0.4-0.9-0.9c-0.2-0.5-0.7-0.9-1.1-1.4c-0.4,0.5-0.5,0.1-0.6-0.2
		c-0.7-1-1.4-2-2.1-3c-0.7-1-1.4-2.1-1.9-3.1c-0.6-1.2-1.2-2.4-1.7-3.7c-0.6,0.2-0.7,0.2-0.7-0.5c0-0.3,0-0.7-0.1-1
		c-0.2-0.6-0.5-1.2-0.7-1.8c-0.2-0.8-0.4-1.6-0.7-2.5c0,0.7,0.1,1.2,0,1.7c0,0.3-0.2,0.8-0.4,0.9c-0.6,0.3-1.4,0.5-2.1,0.6
		c-0.6,0-1.3-0.4-1.9-0.3c-0.7,0-0.9-0.4-1.1-0.9c-0.1-0.2-0.1-0.4-0.2-0.6c-0.5,0.2-1,0.4-1.5,0.5c-0.9,0.2-1.6-0.2-2.4-0.4
		c-1-0.3-1.4-1-1.5-1.9c-0.1-0.6-0.1-1.3-0.1-2c-0.4-0.1-0.7-0.1-1.1-0.2c-1-0.1-1.8-0.5-2.5-1.3c-0.3-0.4-0.7-0.9-1-1.3
		c0,0,0-0.1,0-0.1c0.1,0,0.3,0,0.6-0.1c-0.6-0.7-0.2-1.4,0.1-2c0.3-0.8,0.6-1.5,1-2.3c0.1-0.3,0.2-0.6,0.3-0.9
		c-0.2-0.1-0.3-0.2-0.5-0.3C50.6,38,50.6,38.2,50.7,38.4z M70.4,37.6c-1-0.7-2-1.3-3-2c0.1,0.9-0.3,0.7-0.6,0.5
		c-1.2-0.7-2.4-1.3-3.5-2.1c-1.7-1.3-3.4-2.5-4.9-4c-1.2-1.1-2.3-0.6-3.7-0.5c0.7,0.6,1.7,0.5,2.1,1.2c-0.6,0.6-1.1,1.3-1.7,1.8
		c-1.2,0.9-1.8,2.2-2.6,3.5c-0.2,0.3-0.2,0.7-0.4,1.1c-0.8-0.2-1.2-1.1-2.1-1.5c0,0.3,0.1,0.6,0.2,0.7c0.6,0.4,1.2,0.8,1.8,1.2
		c0.5,0.3,1,0.6,1.5,0.8c0,0.1-0.1,0.1-0.1,0.2c-0.1,0-0.3,0-0.5,0c1.4,0.8,2.6,1.5,3.9,2.1c0.2,0.1,0.4,0,0.6,0
		c0.2,0,0.3,0,0.5,0.1C57.7,41,58,40.9,58.2,41c0.1,0,0.2,0.1,0.2,0.2c0.1,0.4,0.6,0.7,1,0.7c0.2,0,0.4,0,0.6,0.1
		c0.9,0.4,1.5,1.2,2.6,1.2c0.1,0,0.2,0.1,0.3,0.2c0.7,0.6,1.3,1.1,2,1.7c0.1,0.1,0.2,0.2,0.3,0.4c0.2,0.5,0.3,0.9,0.4,1.4
		c0.3-0.2,0.4-0.3,0.6-0.4c0,0.2,0.1,0.4,0,0.6c-0.5,1.4,0.1,2.6,0.5,3.9c0.1-0.8,0.1-1.6,0.2-2.4c0-0.1,0.2-0.3,0.3-0.4
		c0.1,0.1,0.2,0.3,0.2,0.4c0,1.2,0,2.4,0.1,3.6c0.1,1.4,0.4,2.8,1.4,3.9c0.5,0.5,0.8,1.1,1.2,1.7c0.9,1.4,1.8,2.8,2.6,4.3
		c0.5,0.9,1.1,1.7,1.8,2.5c0.2,0.2,0.4,0.5,0.6,0.8c0.4,0.5,0.7,1,1.1,1.5c0-0.1,0.1-0.2,0.1-0.3c0.5-0.1,1-0.2,1.4-0.2
		c0.4-0.1,0.8-0.1,1.2-0.1c1-0.1,2-0.2,3-0.3c0.2,0,0.5,0.1,0.7,0.2c0,0.1,0,0.2,0,0.3c-1.8,0.2-3.6,0.4-5.3,0.6
		c0.6,0.1,1.1,0.1,1.7,0.1c0.7,0,1.3-0.1,2-0.1c0.2,0,0.5,0.1,0.7,0.2c0,0.1,0,0.1,0,0.2c-0.2,0.1-0.5,0.2-0.7,0.3
		c-0.5,0.1-1.1,0.1-1.7,0.2c-0.1,0-0.3,0.2-0.4,0.3c0.1,0.1,0.2,0.2,0.4,0.3c0.2,0.1,0.3,0.2,0.5,0.3c0,0.1,0,0.1,0,0.2
		c-0.3,0.1-0.5,0.1-1,0.2c0.2,0.8,0.4,1.6,0.6,2.3c1.1-0.7,2.1-1.5,3.2-2.2c1.1-0.7,2.2-1.3,3.3-2c-0.3-0.5,0.1-0.6,0.4-0.8
		c2.3-0.8,4.6-1.6,7-2.3c0.9-0.3,1.8-0.6,2.7-0.9c-1.1-1.4-0.4-3.2-1-4.7c-0.2,0.5-0.3,0.9-0.4,1.4c-0.1,0.2-0.2,0.3-0.4,0.5
		c-0.1-0.2-0.2-0.4-0.2-0.6c0-0.2,0.1-0.5,0.1-0.7c0-0.5,0.1-1,0.1-1.5c-0.1-1.3-0.4-2.5-0.5-3.8c-0.3-2.9-0.6-5.8-0.9-8.7
		c0-0.4-0.4-0.9,0.2-1.2c0,0,0-0.2,0-0.2c-0.2-1.1-0.4-2.1-0.6-3.2c-0.2-0.8-0.5-1.6-0.6-2.4c-0.3-1.7-0.6-3.3-0.9-5
		c-0.1-0.4-0.1-0.9-0.1-1.3c0-0.9-0.2-1.1-1.1-1.1c-0.3,0-0.6,0.1-0.9,0.1c-1.6,0-3.2,0.2-4.8,0.6c-1.5,0.3-3,0.6-4.4,0.8
		c-0.2,0-0.5-0.1-0.8-0.2c0-0.1,0-0.2,0-0.3c0.6-0.2,1.2-0.4,1.8-0.5c0.8-0.2,1.6-0.3,2.4-0.4c0.6-0.1,1.3-0.1,1.9,0
		c0.6,0,1.2-0.2,1.3-0.7c-1,0.2-1.9,0.3-2.9,0.5c-2.2,0.5-4.5,0.1-6.5,1.4c-0.5,0.3-1.1,0.5-1.6,0.7c-0.1,0.1-0.3,0.2-0.3,0.3
		c-0.2,0.9-0.3,1.8-0.5,2.7c0.2,0,0.5-0.1,0.8-0.1c-0.2-0.1-0.4-0.2-0.7-0.4c0.2-0.1,0.3-0.1,0.4-0.2c1.1-0.6,2.1-1.2,3.2-1.8
		c0.4-0.2,0.9-0.1,1.3-0.1c0,0.1,0,0.1,0,0.2c-1.2,0.7-2.5,1.3-3.7,2c0,0,0.1,0.1,0.1,0.1c1.2-0.5,2.4-1.1,3.6-1.6
		c0.2-0.1,0.4-0.1,0.7-0.2c0,0.1,0,0.2,0.1,0.3c-2,0.7-3.6,2.4-5.9,2.3c-0.1,0-0.2,0.1-0.3,0.1c-0.3,0.1-0.6,0.3-0.9,0.3
		c-1.1,0-2.2,0-3.2,0c0.3,0.4,0.7,0.7,1.7,0.9c1.2,0.2,2.4,0.3,3.6,0.4c0.4,0,0.8,0.1,1.4,0.2c-0.6,0.3-4.4,0.8-5.6,0.4
		c-0.3-0.1-0.7-0.2-1-0.3c0-0.1,0-0.1,0-0.2C70,37.8,70.1,37.7,70.4,37.6z M83.1,81.9c2.9-2.7,6.6-3.9,9.8-6.1c-0.1,0-0.2,0-0.2,0
		c-1.8,0.9-3.8,1.5-5.3,2.8c-0.4,0.3-0.7,0.4-1.1-0.2c0.3-0.2,0.6-0.5,0.9-0.6c1.6-0.8,3.3-1.7,4.9-2.4c3.2-1.3,6.4-2.6,9.7-3.8
		c0.7-0.3,1.5-0.4,2.3-0.6c0.9-0.3,1.8-0.7,2.6-1.1c-0.4-0.5-0.7-0.9-1.1-1.4c-0.2-0.3-0.3-0.6-0.5-0.8c-0.8-1.1-1.7-2.1-2.5-3.2
		c-0.1-0.2-0.1-0.4-0.1-0.6c0.2,0,0.5-0.1,0.7,0c0.4,0.2,0.7,0.5,1.2,0.9c-0.2-0.4-0.3-0.7-0.5-1c-0.5-1.1-0.8-1.2-2-0.9
		c-2.2,0.6-4.3,1.3-6.5,1.9c-0.5,0.1-1,0.4-1.5-0.1c-0.1-0.1-0.2,0-0.4,0c-1.9,0.6-3.9,0.9-5.6,2.3c-1.9,1.5-4,2.8-6,4.2
		c-1.3,0.9-2.3,1.9-2.6,3.5c-0.1,0.4-0.1,0.6,0.1,1c0.5,0.7,1.1,1.4,1.6,2.2C81.7,79.1,82.4,80.4,83.1,81.9z M91.3,26.3
		C91.3,26.4,91.3,26.4,91.3,26.3c0.2,0.1,0.4,0,0.6,0c1.9-0.5,3.8-0.9,5.6-1.4c1.2-0.3,1.2-0.3,1.1-1.5c0,0,0-0.1,0-0.1
		c-0.2-0.1-0.4-0.1-0.7-0.2c0.3-0.3,0.5-0.4,0.7-0.6c-1.2,0.3-2.3,0.6-3.5,0.8c-2.7,0.4-5.4,0.8-8,1.2c-0.9,0.1-1.7,0.4-2.6,0.5
		c-1.4,0.2-2.8,0.4-4.1,0.6c-1.2,0.2-2.4,0.5-3.7,0.8c0.2,0.2,0.3,0.4,0.5,0.5C77,27,77,27,77,27.1c-0.7-0.1-1.3-0.3-2-0.4
		c-0.4-0.1-0.9-0.2-1.3-0.1c-0.9,0.2-1.8,0.4-2.8,0.6c-0.7,0.1-1.5,0.2-2.3,0.4c-1.1,0.2-2.3,0.6-3.4,0.8c-2,0.3-4.1,0.5-6.1,0.8
		c0.1,0.1,0.1,0.1,0.2,0.2c0.1,0.5,0.2,0.9,0.8,0.5c0.1-0.1,0.4,0,0.5,0.1c0.3,0.2,0.6,0.3,0.9,0.6c0.5,0.4,1,0.4,1.5,0.3
		c2.9-0.6,5.9-1.2,8.8-1.7c1.6-0.3,3.3-0.4,4.9-0.7c2.4-0.5,4.9-1.1,7.3-1.6c2-0.4,4-0.6,5.9-0.9c2-0.3,4-0.7,6-1
		c0.3,0,0.5-0.1,0.8-0.1c0,0.1,0,0.1,0,0.2C95,25.4,93.1,25.9,91.3,26.3z M63,31.4c0,0.1,0,0.1,0,0.2c0.4,0.2,0.9,0.4,1.2,0.7
		c0.4,0.4,0.7,0.4,1.2,0.3c1.4-0.5,2.7-0.8,4.2-0.9c3.6-0.1,7.3-0.6,10.8-1.5c1.9-0.5,3.9-0.9,5.9-1.1c2.3-0.3,4.6-0.8,7-1.3
		c1.3-0.2,2.6-0.5,3.9-0.7c0.8-0.1,1.6-0.3,2.4-0.4c-0.1-0.4-0.1-0.7-0.2-1c-0.2-0.7-0.4-0.8-1.1-0.6c-2.1,0.5-4.1,1.2-6.2,1.6
		c-3,0.6-6.1,1.1-9.2,1.6c-0.2,0-0.3,0-0.6,0c0.1-0.2,0.1-0.3,0.2-0.5c-0.5,0.2-1,0.3-1.4,0.4c-1.5,0.3-3,0.6-4.5,0.9
		c-2.2,0.4-4.4,1-6.7,1.1C67.6,30.3,65.3,30.9,63,31.4z M57.5,49.7c0.8,0.1,0.8,0.1,1-0.6c0-0.1,0.1-0.3,0.2-0.4
		c0.5-1.2,1-2.5,1.5-3.7c0.2-0.5,0.1-0.7-0.3-1c-0.6-0.4-1.2-1-1.8-1.5c0-0.1,0.1-0.1,0.1-0.2c0.6,0.3,1.2,0.7,1.8,1
		c0.2-0.5,0.3-0.6,0.8-0.2c0.4,0.3,0.8,0.5,1.1,0.8c0.1,0.1,0.2,0,0.5,0.1c-0.3-0.2-0.5-0.4-0.6-0.5c-1.1-0.9-2.5-0.9-3.7-1.6
		c-0.1,0-0.3,0.2-0.4,0.3c-0.4,0.7-0.8,1.5-1.2,2.2c-0.3,0.5-0.9,1-0.5,1.7c0.1,0.1,0,0.3,0,0.4c0,0.9,0,1.7,0,2.6
		C57.6,49.3,57.6,49.3,57.5,49.7z M49.1,34.2c0.9,0.6,1.7,1.2,2.5,1.7c-0.4-0.6,0-1,0.3-1.4c0.8-0.9,1.6-1.8,2.5-2.6
		c0.5-0.5,1-0.9,1.6-1.4c-0.7-0.3-1.4-0.6-2.1-0.9c-0.3-0.1-0.5-0.2-0.8-0.3c-0.6-0.2-0.7,0.2-1,0.6c-0.6,0.7-1.5,1.2-2.2,1.7
		c-0.2,0.1-0.4,0.3-0.4,0.5C49.3,32.9,49.2,33.6,49.1,34.2z M52,38.6c-0.1,0.5-0.1,1-0.3,1.4c-0.2,0.9-0.5,1.8-0.8,2.7
		c-0.1,0.3-0.1,0.6,0.3,0.7c0.8,0.4,1.7,0.7,2.5,1.1c0.1,0,0.4-0.1,0.5-0.3c0.6-1,1.2-2,1.9-3.1C54.8,40.2,53.4,39.4,52,38.6z
		 M60,49.2c-0.1,0-0.2,0.1-0.2,0.1c0.3,0.3,0.5,0.8,0.8,0.9c0.9,0.2,1.8,0.2,2.7,0.3c0.4,0,0.7-0.2,0.8-0.6c0.1-0.8,0.2-1.6,0.3-2.4
		c0-0.1-0.1-0.3-0.2-0.4c-0.6-0.5-1.3-0.9-1.9-1.3c-0.5-0.4-0.7-0.3-0.9,0.3c-0.3,0.9-0.5,1.8-0.8,2.7C60.4,48.8,60.1,49,60,49.2z
		 M50,30.5c-0.1-0.1-0.1-0.1-0.2-0.2c-0.8,0.3-1.5,0.6-2.3,0.9c-1.4,0.5-2.8,1.1-4.1,1.6c-0.3,0.1-0.7,0.2-1,0.2
		c-0.7,0.4-0.2,0.9,0,1.3c1.9-0.4,3.8-0.8,5.7-1.2c0.2,0,0.4-0.3,0.4-0.4c0.2-0.7,0.5-1.3,1.2-1.6C49.8,31.1,49.9,30.7,50,30.5z
		 M72.2,33.9c-0.4-0.2-0.9-0.6-1.3-0.5c-0.8,0-1.7,0.3-2.5,0.5c-0.1,0-0.2,0.2-0.2,0.3c0,0.1,0.2,0.2,0.3,0.2c0.3,0,0.5,0,0.8-0.1
		c0.2,0,0.4,0,0.5,0c0,0.1,0,0.1,0,0.2c-0.5,0.1-1,0.3-1.5,0.4c0.2,0.9,0.9,1.2,2,1c-0.1-0.1-0.2-0.3-0.5-0.5
		C70.7,34.9,71.5,34.4,72.2,33.9z M48.1,34.1c-0.2,0-0.4,0-0.6,0.1c-0.9,0.2-1.8,0.5-2.7,0.7c-0.3,0.1-0.6,0-0.9,0
		c-0.3,0-0.6-0.2-1-0.3c0.2,0.9,0.8,1,1.4,1c0.7,0,1.5,0,2.2,0c0.6,0,1.2-0.1,1.7-0.2C48.1,34.9,48.1,34.5,48.1,34.1z M72.8,33.5
		c0,0,0,0.1-0.1,0.1c0.3,0,0.7,0.1,1.1,0.1c-1.1,0.6-2.1,1.2-3.2,1.8c0,0.1,0.1,0.2,0.1,0.3c1-0.1,1.9-0.2,2.9-0.3
		c0.1,0,0.2-0.1,0.3-0.2c0.3-0.7,0.5-1.5,0.7-2.2c-0.1,0-0.1-0.1-0.2-0.1C73.9,33.1,73.3,33.3,72.8,33.5z M59.8,18.1
		c0,0-0.1-0.1-0.1-0.1c-1.7,0.7-3.3,1.4-5,2.2c-0.7,0.3-1.5,0.8-2.1,1.3c-0.4,0.4-0.7,1-1,1.5c0.1,0.1,0.1,0.1,0.2,0.2
		c0.2-0.2,0.4-0.3,0.5-0.5c0.3-0.5,0.7-1,1.3-1.1c0.1,0,0.4-0.2,0.4-0.2c-0.2-0.4,0.2-0.4,0.4-0.5c1.6-0.7,3.2-1.5,4.8-2.2
		C59.4,18.3,59.6,18.2,59.8,18.1z M101.6,23.7c0.9-0.2,1.8,0.2,2.5-0.7c0.1-0.1,0.3-0.1,0.4-0.2c0.1-0.1,0.2-0.3,0.3-0.5
		c0-0.1-0.2-0.3-0.4-0.3c-0.4,0-0.9,0.1-1.3,0.1C102,22.3,101.8,22.5,101.6,23.7z M82.1,82.6c-0.3-0.4-0.6-0.7-0.9-1
		c-0.3-0.4-0.5-0.9-0.8-1.4c-0.9-1.3-1.8-2.6-2.7-3.9c-0.1,0-0.1,0.1-0.2,0.1c1.1,2.3,3.1,4.1,3.9,6.6C81.7,82.9,82,82.7,82.1,82.6z
		 M94.2,53c0.2-3.2-0.4-6.3-1-9.4c-0.1,0-0.1,0-0.2,0C93.4,46.8,93.8,49.9,94.2,53z M66.9,25.6c-0.3,0.3-0.5,0.5-0.8,0.8
		c0.7,0.1,1.3,0.2,1.9,0.3c0.2,0.1,0.5,0.3,0.7,0.3c0.5,0,1-0.1,1.5-0.2c-0.8-0.2-1.4-0.5-2.2-0.7c-0.2,0.2-0.5,0-0.8-0.4
		c-0.2-0.3-0.4-0.5-0.6-0.7c0,0-0.1,0.1-0.1,0.1C66.7,25.3,66.8,25.5,66.9,25.6z M98.3,62.4c-0.7-0.9-1.4-1.8-2.2-2.8
		C96,61.1,97.3,62.8,98.3,62.4z M94.2,75.9c0,0,0.1,0.1,0.1,0.1c1.3-0.5,2.6-0.9,3.8-1.4c0.5-0.2,0.9-0.6,1.4-0.8
		c0-0.1-0.1-0.2-0.1-0.3C97.7,74.3,96,75.1,94.2,75.9z M55.4,28c0,0.1,0.1,0.1,0.1,0.2c1.1,0.2,2.2,0.4,3.3,0.7
		c-0.4-1-1.3-0.4-1.8-0.8c-0.2,0.1-0.5,0.2-0.7,0.1c-0.4-0.2-0.1-0.4,0-0.7c0.1-0.2,0.2-0.4,0.3-0.6c0,0-0.1-0.1-0.1-0.1
		C56.1,27.2,55.8,27.6,55.4,28z M59.5,28.3c0,0.1,0,0.2,0,0.4c1.5,0,3-0.4,4.5-0.7c0-0.1,0-0.1,0-0.2C62.5,27.9,61,28.1,59.5,28.3z
		 M58.1,24.6c-0.1,0-0.1,0.1-0.2,0.1c0.3,0.4,0.6,1,1,1.2c0.8,0.4,2.1,0,2.6-0.7c-0.6,0.1-1,0.3-1.5,0.4c-0.6,0.1-1.2,0.2-1.5-0.6
		C58.4,24.9,58.2,24.7,58.1,24.6z M60.3,26.8c0,0,0-0.1-0.1-0.1c-0.6-0.1-1.2-0.2-1.8-0.3c0.1,0.3,0.2,0.5,0.3,0.6
		c-0.2,0.2-0.3,0.4-0.5,0.6c0,0,0.1,0.1,0.1,0.1C58.9,27.3,59.6,27,60.3,26.8z M79.7,84.3c0.6-0.4,1.1-0.7,1.5-0.9
		c-0.2-0.4-0.4-0.7-0.7-1C80.2,83,80,83.6,79.7,84.3z M101.4,24.9c0.9,0.1,1.3-0.2,1.6-0.9C101.7,24,101.6,24,101.4,24.9z
		 M104.5,71.4c0-0.1-0.1-0.1-0.1-0.2c-1.1,0.5-2.2,1-3.3,1.5c0,0,0,0.1,0.1,0.1C102.3,72.4,103.6,72.2,104.5,71.4z M100.5,22.8
		c-0.2,0.1-0.6,0.2-0.7,0.4c-0.1,0.3,0,0.7,0,1.1C100.2,23.8,100.9,23.6,100.5,22.8z M87.8,79.2c0.6,0.4,1.4,0.1,1.8-0.9
		C89,78.6,88.4,78.9,87.8,79.2z M100.4,24.4c-0.6,0-0.8,0.3-0.4,0.8c0.1,0.2,0.2,0.4,0.4,0.6c0.1,0.1,0.3,0.2,0.3,0.3
		C100.6,25.5,100.5,25,100.4,24.4z M96.5,61.7c-0.1,0-0.2,0-0.2,0c0,0.4,0,0.8,0.1,1.3c0.4-0.1,0.6-0.2,0.9-0.2
		C96.9,62.4,96.7,62,96.5,61.7z M49.2,28.6c-0.5,0.5-0.9,1-1.3,1.5C48.7,30.1,49,29.8,49.2,28.6z M66.1,25.5
		C66.1,25.5,66.1,25.5,66.1,25.5c-0.1-0.4-0.3-0.8-0.5-1.2c-0.3,0.2-0.5,0.3-0.8,0.4c0,0.1,0,0.1,0,0.2c0.2,0,0.5,0,0.7,0.1
		C65.8,25.1,65.9,25.4,66.1,25.5z M107.6,70.2c0.4,0.3,0.7,0.5,1,0.8c0,0,0,0,0.1-0.1c-0.2-0.3-0.3-0.6-0.5-0.9
		C108,70.1,107.8,70.1,107.6,70.2z M61.7,31.7c0,0.1-0.1,0.2-0.1,0.3c0.5,0.2,1.1,0.3,1.6,0.5c0,0,0-0.1,0.1-0.1
		C62.7,32.1,62.2,31.9,61.7,31.7z M67.4,27.3c0-0.1,0-0.2-0.1-0.3c-0.5,0.1-1,0.3-1.5,0.4c0,0,0,0.1,0,0.1
		C66.4,27.5,66.9,27.4,67.4,27.3z M77.1,18.7c0,0.1-0.1,0.2-0.1,0.3c0.4,0.1,0.9,0.3,1.3,0.4c0-0.1,0.1-0.2,0.1-0.2
		C77.9,19,77.5,18.9,77.1,18.7z"/>
	<path class="st1" d="M65.8,21.8c0.9,0.9,1.7,1.9,2.6,2.8C67.7,24.4,66.1,22.8,65.8,21.8z"/>
	<path class="st1" d="M69.8,16.9c0.2,0.1,0.4,0.2,0.5,0.4c0,0.1,0,0.1-0.1,0.2c-1.3-0.5-2.5-1-3.8-1.5l0,0c0.2,0.1,0.5,0.1,0.7,0.2
		C68.1,16.4,69,16.6,69.8,16.9L69.8,16.9z"/>
	<path class="st1" d="M21,87.7c-0.1,0.1-0.2,0.4-0.3,0.6c-0.2,0.2-0.4,0.3-0.6,0.5c-0.1-0.2-0.2-0.5-0.2-0.7c0-0.5,0.1-0.9,0.2-1.3
		c0.3-1.4,0.8-2.7,2-3.7c0.2-0.2,0.5-0.4,0.7-0.4c0.2-0.1,0.5,0.1,0.7,0.1c0,0.2-0.1,0.4-0.1,0.6c-0.2,0.8-0.5,1.6-0.7,2.4
		c0,0.2,0,0.4,0.1,0.6c0.3,0.6,0.7,1.1,1,1.7c0.3,0.4,0.5,0.9,1.1,1.1c0.3,0.1,0.5,0.6,0.8,0.8c1.2,1.4,2.7,2.5,4.4,3.1
		c2.3,0.9,4.7,1.6,7.1,2.5c0.2,0.1,0.4,0.1,0.6,0.2c1.5,0.9,3.1,0.7,4.8,0.6c3.4-0.4,6.6-1.2,9.7-2.6c1.6-0.7,3-1.7,4.3-2.9
		c0.5-0.4,1.1-0.9,1.6-1.3c0.4-0.3,0.9-0.6,1.5-0.4c0.1,0,0.3,0,0.4-0.1c0.9-0.6,1.7-1.2,2.5-1.8c0.5-0.4,1-0.8,1.6-1.1
		c0.4-0.2,0.7-0.2,1,0.1c-1.7,1.5-3.4,3-5,4.6c-1.8,1.8-4,2.9-6.3,3.9c-1.1,0.5-2.3,1.1-3.4,1.6c-0.2,0.1-0.5,0.2-0.8,0.3
		c-0.3,0.1-0.6,0-0.6,0.5c0,0.1-0.3,0.3-0.5,0.3c-0.6,0.1-1.3,0.2-2,0.2c-1.8,0-3.6-0.3-5.4,0c-1.9,0.3-3.5-0.5-5.2-0.9
		c-0.4-0.1-0.8-0.2-1.3-0.3c-0.2,0-0.4-0.1-0.5-0.2c-1.6-1.2-3.4-2-5.3-2.4c-1-0.3-1.8-0.7-2.5-1.4c-0.6-0.5-1.2-0.9-1.8-1.3
		c-0.5-0.4-1.1-0.8-1.6-1.3C22.3,89.2,21.7,88.4,21,87.7z"/>
	<path class="st1" d="M36.6,64.4c0.2,3.2,0.4,6.3,0.6,9.5c0,0.8-0.1,1.7-0.2,2.6c0,0.2,0.1,0.4,0.1,0.6c0,0.2,0,0.5-0.1,0.6
		c-0.6,0.4-1.8-0.1-1.8-0.8c-0.1-2.8-0.2-5.6-0.2-8.4c0-2.9,0.1-5.8,0.2-8.7c0.1-2.3,0.1-4.5,0.2-6.8c0-0.2,0.2-0.3,0.3-0.5
		c0.3,0.1,0.5,0.3,0.7,0.5c0.1,0.1,0,0.3,0,0.4c0,3.2,0.1,6.4,0.1,9.6C36.7,63.4,36.7,63.9,36.6,64.4C36.6,64.4,36.6,64.4,36.6,64.4
		z"/>
	<path class="st1" d="M49.6,75.7c-0.1,0.2-0.1,0.3-0.2,0.5c-0.5-0.1-0.6-0.4-0.6-0.8c-0.6-4.9-0.1-9.8-0.1-14.7c0-2,0-4.1,0-6.1
		c0-0.5,0.1-1,0.2-1.7c0.2,0.2,0.4,0.3,0.4,0.4c0.1,0.5,0.3,0.9,0.3,1.4c0,2.3-0.2,4.6-0.1,6.9c0,2,0.2,4,0.3,6
		c0.1,2.4,0.2,4.7,0.3,7.1c0,0.1,0,0.2,0,0.3C50.4,75.6,50.4,75.7,49.6,75.7z"/>
	<path class="st1" d="M19.6,82.1c-0.1-0.1-0.2-0.1-0.3-0.2c-0.4,0.4-0.7,0.8-1,1.2c-0.1,0-0.1-0.1-0.2-0.1c0.1-0.9,0.7-1.5,1.3-2.2
		c0.1-0.1,0.3-0.1,0.3,0c0.1,0.1,0.1,0.2,0.1,0.3C19.8,81.5,19.7,81.8,19.6,82.1z"/>
	<path class="st1" d="M65.8,82.2c0.4,0.4,0.7,0.8,1,1.2c0.1,0,0.1-0.1,0.2-0.1c-0.1-0.9-0.7-1.5-1.3-2.2c-0.1-0.1-0.3-0.1-0.3,0
		c-0.1,0.1-0.1,0.2-0.1,0.3C65.4,81.8,65.6,82.1,65.8,82.2z"/>
	<path class="st1" d="M60.4,35.5c0.2-0.2,0.5-0.4,0.8-0.6c0.2-0.1,0.5-0.3,0.7-0.3c-0.8,1.9-1.9,3.5-3.4,4.9
		c-0.1,0.1-0.4,0.2-0.5,0.1c-0.1-0.1-0.2-0.4-0.1-0.5c0.1-0.4,0.3-0.8,0.4-1.3c-0.4,0.5-0.9,1-1.3,1.6c-0.8-1.4,0.2-2.3,0.5-3.4
		c-0.5,0.4-0.9,0.7-1.4,1.1c-0.2,0.1-0.4,0.3-0.6,0.3c-0.4,0-0.6-0.3-0.3-0.6c0.9-1.2,1.7-2.3,2.6-3.4c0.5-0.7,1.2-1.3,2.2-1
		c-0.8,1-1.6,2-2.5,3c0.8,0.4,0.7,0.9,0.3,1.5c-0.2,0.3-0.3,0.7-0.5,1c0,0,0.1,0.1,0.1,0.1c0.2-0.4,0.5-0.7,0.7-1.1
		c0.7-0.9,1.4-1.9,2.1-2.8c0.1-0.1,0.3-0.2,0.5-0.2c0,0.2,0.1,0.5,0.1,0.7c-0.1,0.3-0.3,0.6-0.4,0.9C60.3,35.4,60.4,35.4,60.4,35.5z
		"/>
	<path class="st1" d="M70.8,47.5c0.8-0.6,1.5-1.2,2.5-1.6C72.9,46.8,71.6,47.7,70.8,47.5z"/>
	<path class="st1" d="M63,88.2c0.4-0.3,0.8-0.6,1.2-1c0.3-0.3,0.5-0.5,0.7-0.8c0,0.1,0.1,0.3,0.2,0.5c0.1,0.1,0.3,0.3,0.4,0.4
		c0.1-0.2,0.1-0.3,0.1-0.5c0-0.3,0-0.6-0.1-1c-0.2-1-0.5-2-1.3-2.7c-0.1-0.1-0.3-0.3-0.5-0.3c-0.1,0-0.3,0-0.5,0
		c0,0.1,0.1,0.3,0.1,0.4c0.1,0.4,0.2,0.9,0.3,1.3c0,0.1,0.1,0.4,0.1,0.5c0.1,0.3,0,1.1-1.4,2.4"/>
</g>
</svg>
