<?xml version="1.0" encoding="utf-8"?>
<!-- Generator: Adobe Illustrator 23.0.1, SVG Export Plug-In . SVG Version: 6.00 Build 0)  -->
<svg version="1.1" id="Layer_1" xmlns="http://www.w3.org/2000/svg" xmlns:xlink="http://www.w3.org/1999/xlink" x="0px" y="0px"
	 viewBox="0 0 121 121" style="enable-background:new 0 0 121 121;" xml:space="preserve">
<style type="text/css">
	.st0{fill:#49C8F5;}
	.st1{fill:#FFFFFF;}
</style>
<g>
	<g>
		<path class="st0" d="M111.9,121H9.1c-5,0-9.1-4.1-9.1-9.1V9.1C0,4.1,4.1,0,9.1,0h102.9c5,0,9.1,4.1,9.1,9.1v102.9
			C121,116.9,116.9,121,111.9,121z"/>
		<path class="st1" d="M111.9,3c3.3,0,6.1,2.7,6.1,6.1v102.8c0,3.3-2.7,6.1-6.1,6.1H9.1c-3.3,0-6.1-2.7-6.1-6.1V9.1
			C3,5.7,5.7,3,9.1,3H111.9 M111.9,1.5H9.1c-4.2,0-7.6,3.4-7.6,7.6v102.8c0,4.2,3.4,7.6,7.6,7.6h102.8c4.2,0,7.6-3.4,7.6-7.6V9.1
			C119.5,4.9,116.1,1.5,111.9,1.5L111.9,1.5z"/>
	</g>
	<g>
		<path class="st1" d="M71,74.6c0.2-0.2,0.6-1,0.6-1.2c0.5-0.6,1.2-1.5,2-2.6c0.5-0.8,0.9-1.5,0.9-1.5c0.1,0-0.7,1.7-1.1,2.7
			c-0.6,1.2-1,2.2-1.6,3.1c-1.1,1.9-1.9,3.9-2.5,5.9c-0.1,0.3-0.3,0.6-0.3,0.9c-0.1,0.2,0,0.4,0,0.6c1.2-3.1,2.5-6.1,4.1-9
			c0.1-0.2,0.3-0.4,0.4-0.6c0.1-0.2,0.2-0.4,0.3-0.5c0.1-0.2,0.2-0.4,0.4-0.7c0.9-1.4,1.7-2.2,2.6-3.2c0.5-0.6,1.3-1.5,2.1-2.6
			c0.1,0.2,0.3,0.5,0.3,0.8c0,0.8-0.7,1.3-1.5,2.3c-0.1,0.1-0.5,0.8-1.4,2.2c-1.1,1.8-1.7,2.7-2.1,3.4c-0.9,1.6-1.2,2.4-1.6,3.3
			c-0.5,1.1-0.6,2.3-0.6,3.5c0,1.4-0.3,2.7-0.8,3.9c-0.9,1.9-2.2,3.3-4.2,4c-0.6,0.2-1.1,0.7-1.6,1c-0.4,0.2-0.8,0.4-1.3,0.6
			c0.3,0,0.5,0,0.7,0c1.4-0.1,2.7-0.2,4.1,0.1c0.7,0.2,1.1,0.5,1.1,1c0,0.4-0.4,0.9-1,1.1c-0.2,0.1-0.3,0.1-0.6,0.2
			c0.6,0.1,1.1,0.2,1.5,0.3c0.4,0.1,0.8,0.4,0.7,0.8c0,0.3-0.3,0.7-0.5,0.8c-0.9,0.4-1.8,0.8-2.8,1c-1.8,0.3-3.7,0.6-5.5,0.8
			c-1.9,0.2-3.9,0.1-5.9,0.2c-0.2,0-0.5,0-0.7,0c-0.9-0.3-1.7,0.2-2.4,0.7c-0.5,0.3-0.5,0.6,0,1c0.8,0.6,1.6,0.6,2.6,0.2
			c1.8-0.8,3.8-1.2,5.8-1.5c1.8-0.2,3.7-0.4,5.5-0.5c1-0.1,2,0.1,3.1,0.2c0.2,0,0.5,0.3,0.6,0.5c0,0.2-0.1,0.6-0.3,0.7
			c-0.6,0.3-1.2,0.7-1.8,0.8c-4,1-8,1.4-12.1,1.2c-0.4,0-0.8-0.1-1.2-0.1c-0.8-0.1-2.2,0.8-2.5,1.5c-0.1,0.3-0.1,0.6,0.2,0.8
			c0.3,0.2,0.5,0.3,0.8,0.1c1.2-0.7,2.5-1.1,3.8-1.3c1.7-0.3,3.5-0.6,5.2-0.8c2.5-0.3,4.9-0.5,7.4-0.2c0.3,0,0.6,0,0.9,0.2
			c0.2,0.1,0.5,0.4,0.6,0.6c0,0.2-0.2,0.5-0.4,0.6c-0.8,0.4-1.6,0.7-2.5,1c-0.9,0.3-1.8,0.5-2.8,0.7c0.2,0.1,0.3,0.1,0.4,0.2
			c0.2,0.2,0.6,0.4,0.7,0.7c0.5,1,0.1,1.7-1,2.1c-1.3,0.4-2.7,0.6-4.1,0.7c-0.7,0.1-0.7,0-0.7,0.8c0,1.9,0,3.8,0,5.8
			c0,0.4-0.1,0.9-0.2,1.3c0,0.1-0.2,0.2-0.3,0.2c-0.1,0-0.2-0.2-0.2-0.3c0-0.4,0.1-0.8,0.1-1.3c0-0.5-0.1-1-0.1-1.6
			c0-1.5,0-2.9,0-4.4c0-0.4-0.1-0.4-0.5-0.5c-1.5-0.2-2.9-0.3-4.4-0.5c-1.1-0.2-2.1-0.7-2.7-1.8c-0.1-0.1-0.2-0.3-0.1-0.4
			c0.1-0.7-0.3-1.2-0.7-1.7c-0.4-0.5-0.3-1.3,0.2-1.8c0.3-0.4,0.8-0.7,1.2-1.1c-0.7-0.4-1.4-0.7-1.6-1.5c-0.2-1,0.6-1.3,1.2-1.7
			c-0.3-0.2-0.7-0.4-0.9-0.7c-0.4-0.5-0.3-1.3,0.3-1.8c0.5-0.4,1.1-0.8,1.6-1.1c-0.5-0.2-1.1-0.4-1.7-0.7c-0.7-0.4-0.7-1.1,0-1.5
			c0.4-0.2,0.9-0.4,1.4-0.6c0.1-0.1,0.3-0.1,0.5-0.2c-1.3-1-2.3-2.3-3.1-3.8c-0.3-0.6-0.8-1-1.2-1.6c-0.8-1.3-1.1-2.7-1.4-4.1
			c-0.4-2.2-0.8-4.4-1.4-6.5c-0.3-1.2-0.8-2.4-1.2-3.5c-0.3-0.9-0.7-1.8-1.1-2.8c-0.1-0.2-0.2-0.3-0.3-0.4c-1.3-1.2-2.6-2.6-3.5-4.2
			c-0.8-1.5-1.3-3.2-1.7-4.9c-0.1-0.8-0.4-1.6-0.7-2.3c-0.8-2.3-1.2-4.7-1.1-7.1c0.2-2.9,1.2-5.5,2.8-7.9c2.5-3.7,5.8-6.5,9.7-8.7
			c2.8-1.6,5.9-2.3,9.1-2.3c2.5,0,4.8,0.6,7.1,1.5c0.8,0.3,1.7,0.5,2.5,0.7c2,0.6,3.9,1.4,5.6,2.5c2.8,1.8,5.2,4.1,7.1,6.9
			c1.5,2.2,2.3,4.7,2.6,7.4c0.1,1.7,0.1,3.3-0.3,5c-0.1,0.3,0,0.7,0,1c0.1,1.8-0.3,5.9-2.8,9.7c-0.2,0.3-0.5,0.7-0.9,1.2
			c-0.2,0.4-0.4,0.7-0.6,1.1c-0.1,0.1-0.2,0.2-0.3,0.3c-0.1,0.1-0.2,0.3-0.3,0.4c-0.2-0.1-0.4-0.2-0.5-0.4c-0.2-0.4,0.2-0.9,0.3-1
			c1.1-1.6,2.5-3.8,2.7-4.3c0.8-1.4,0.9-2.5,1.2-3.6c0-0.1,0-0.2,0-0.4c-0.4,1.1-1,2.2-1.6,3.4c-1.7,3.1-3.6,5.6-5.4,7.5
			c-0.3,0.4-0.8,0.9-1.2,1.5c-0.2,0.2-1.1,1.5-1.5,2.2c-0.1,0.2-0.2,0.4-0.2,0.5c-0.1,0.1-0.2,0.3-0.2,0.4c0-0.2,0-0.5,0-0.7
			c0-0.4,0.1-0.7,0.2-0.8c0.1-0.1,0.1-0.2,0.3-0.5c0.1-0.2,0.1-0.3,0.2-0.3c1.5-2.2,2.7-4.2,4.1-6.4c1.4-2.2,2.6-4.4,3.4-6.9
			c0.6-1.9,0.7-3.8,0.4-5.7c-0.4-2.9-1.5-5.4-3.3-7.6c-0.1-0.1-0.2-0.2-0.3-0.2c0.1,0.3,0.2,0.6,0.3,0.9c1.4,3.4,1.7,6.9,1.4,10.5
			c-0.2,2.2-0.8,4.4-1.6,6.5c-1,2.6-3.3,5.4-4.7,7.9c-0.1,0.2-0.3,0.6-0.7,1.2c-0.6,0.9-0.7,1.1-1.3,2c-0.6,1-0.9,1.5-1.1,1.9
			c-0.4,0.9-0.5,1.6-0.6,2.1C69,78.1,69,78.5,68.9,79c0.1,0,0.1,0,0.2,0c0.3-1,0.7-2,1-2.9c0.2-0.7,0.5-1,0.7-1.2
			C70.8,74.9,70.9,74.7,71,74.6z M59.4,62c-0.3-0.5-0.7-0.9-0.9-1.4c-1-1.8,0-3.2,1.2-3.8c0.2-0.1,0.4-0.1,0.5-0.1
			c0.4,0,0.7,0.4,0.8,0.5c0.1,0.1,0.2,0.2,0.3,0.6c0.3,1.3,0.1,2.6-0.5,3.8c-0.2,0.3-0.2,0.6,0.2,0.7c1,0.5,2,1,3.1,1.5
			c0.2,0.1,0.4,0.1,0.5-0.2c0.3-0.7,0.5-1.3,0.9-2c0.9-1.5,2.2-2.4,4.1-2.3c1.2,0.1,1.9,1.1,1.7,2.2c-0.2,1.1-0.9,1.9-1.8,2.6
			c-1.2,0.8-2.6,1-4,0.8c-0.3,0-0.5-0.1-0.6,0.3c-0.4,1.8-0.9,3.6-1.2,5.4c-0.3,1.9-0.6,3.8-0.5,5.7c0,2.6,0.4,5.2,0.6,7.8
			c0,0.5,0.2,0.9,0.3,1.4c1.5-0.5,2.9-1.1,3.5-2.7c0.2-0.5,0.5-1,0.4-1.4c-0.1-3.3,0.9-6.3,2.6-9c0.5-0.8,1.1-1.6,1.5-2.4
			c1.2-2.7,2.2-5.5,3.3-8.3c0.7-1.8,1.3-3.7,1.6-5.7c0.4-2.7,0.1-5.3-0.5-7.9c-0.6-2.5-1.7-4.6-3.5-6.4c-0.4-0.4-0.8-0.8-1.3-1.1
			c-2.5-1.1-5.2-1.6-8-1.7c-2.8-0.1-5.6,0.2-8.3,1c-2.1,0.6-4,1.5-5.7,2.9c-3.2,2.5-4.6,5.9-4.9,9.8c-0.2,2.4,0.2,4.8,0.7,7.2
			c0.7,3.2,1.8,6.1,3.8,8.7c1,1.3,2,2.6,2.6,4.1c0.5,1.1,0.9,2.3,1.3,3.4c0.3,0.7,0.6,1.4,0.9,2.1c0.5,1.6,1,3.3,1.5,4.9
			c0.6,1.6,1.7,2.7,3.6,2.9c0.1-1.2,0.1-2.3,0.2-3.5c0.1-2.7-0.1-5.4-0.7-8c-0.3-1.4-0.7-2.7-1.1-4.1c-0.5-1.9-1.3-3.7-2.5-5.3
			c-0.2-0.2-0.4-0.3-0.7-0.3c-0.8,0.1-1.6,0.2-2.4,0.2c-1.1,0-1.8-0.6-1.9-1.7c-0.1-0.8,0-1.6,0.7-2.2c0.7-0.5,1.4-0.2,2,0.3
			c0.8,0.6,1.5,1.4,2.2,2.1c0.2,0.2,0.3,0.3,0.6,0.2c0.7-0.3,1.5-0.5,2.3-0.9C58.4,62.6,58.9,62.3,59.4,62z M63.1,85.7
			c0-0.3,0-0.4,0-0.6c-0.2-1.8-0.4-3.5-0.6-5.3c-0.3-2.6-0.3-5.2,0.1-7.8c0.4-2.4,1-4.7,1.5-7.1c0.1-0.3,0-0.4-0.3-0.5
			c-1.3-0.4-2.4-1-3.5-1.8c-0.1-0.1-0.3-0.1-0.4,0c-1.2,0.5-2.4,1.1-3.7,1.7c-0.3,0.1-0.3,0.2-0.2,0.5c1,1.5,1.8,3.1,2.3,4.9
			c0.8,2.6,1.5,5.3,1.8,8.1c0.2,2.2,0.2,4.4,0,6.5c-0.1,0.5,0,1.1,0,1.8C61.1,86,62.1,85.8,63.1,85.7z M68.8,38.6
			c0,0-0.1-0.1-0.2-0.2c-2.5-1.2-5.2-2.1-8-2.4c-2.9-0.3-5.8-0.2-8.7,0.6c-0.4,0.1-0.7,0.3-1,0.5c-1.9,1.5-3.4,3.3-4.8,5.2
			c-1.8,2.4-2.9,5.2-3.4,8.2c-0.4,2.7-0.3,5.4,0.2,8c0.1,0.8,0.2,1.7,0.7,2.4c0.7,0.9,1.2,1.9,1.8,2.8c0,0.1,0.1,0.1,0.3,0.2
			c-0.1-0.3-0.2-0.5-0.3-0.7c-0.8-2.5-1.4-5-1.6-7.6c-0.2-2.4,0-4.8,0.7-7.1c1.4-4.1,4.2-6.8,8.2-8.5c1.8-0.8,3.6-1.2,5.5-1.5
			c2.1-0.3,4.3-0.5,6.4-0.3C66.1,38.2,67.4,38.4,68.8,38.6z M38.7,53.6c0-0.3,0-0.5,0-0.8c0.1-1.6,0.3-3.3,0.7-4.8
			c0.4-1.4,1-2.7,1.6-4c1.1-2.6,2.7-4.8,5-6.6c2.1-1.6,4.4-2.8,7-3.5c1-0.3,2-0.4,2.9-0.7c1.9-0.7,3.9-1.3,6-1.5c0.1,0,0.2,0,0.3,0
			c0.1,0,0.2,0,0.3-0.1c-1.9-0.4-3.8-0.6-5.8-0.3c-2.2,0.3-4.3,1-6.2,2c-1.9,1-3.7,2.3-5.3,3.7c-3.2,2.9-5.8,6.1-6.6,10.5
			C38.1,49.5,38.2,51.5,38.7,53.6z M81.3,58.9c0,0,0.1,0,0.1,0c0.2-0.6,0.5-1.2,0.7-1.8c0.4-1.3,1-2.6,0.6-4
			c-0.1-0.2-0.1-0.4-0.1-0.6c-0.5-2.6-1.4-5.1-2.6-7.4c-1-2-2.4-3.7-3.9-5.4c-2.1-2.2-4.4-4.2-7-5.7c-0.9-0.5-1.8-1-2.7-1.3
			c-1.5-0.5-3.1-0.3-4.6-0.3c-0.6,0-1.3,0.2-1.9,0.3c0.2,0.1,0.4,0.1,0.5,0.1c2.1,0.1,4.1,0.4,6.1,1.1c3.7,1.3,6.8,3.5,9,6.9
			c0.3,0.5,0.6,1,1,1.4c2.7,2.3,4.5,5.1,5.3,8.6c0.5,2.2,0.5,4.4,0,6.6C81.5,58,81.4,58.5,81.3,58.9z M74,40.8c0,0,0.1-0.1,0.1-0.1
			c0-0.1,0-0.1,0-0.2c-1.8-2.4-4.1-4.2-6.9-5.4c-3.1-1.3-6.3-1.7-9.7-1.4c-1,0.1-1.9,0.2-2.7,0.8c-0.4,0.3-0.9,0.5-1.3,0.8
			c0.1,0.1,0.2,0.1,0.3,0.1c0.1,0,0.2,0,0.2,0c3.4-0.6,6.8-0.4,10.1,0.5c2.4,0.6,4.6,1.5,6.6,2.9C71.8,39.4,72.9,40.1,74,40.8z
			 M41.7,56.9c0.1,0,0.2,0,0.2,0c-1-7.5,1.4-13.9,6.9-19.1c-2,0.9-3.7,2.1-5.1,3.7c-1.2,1.3-2.1,2.7-2.4,4.5
			c-0.3,2.6-0.5,5.1-0.1,7.7C41.3,54.8,41.5,55.9,41.7,56.9z M83.2,51.4c0-0.1,0-0.3,0-0.4c0-0.7-0.1-1.5-0.2-2.2
			c-0.2-2.1-0.9-4-2-5.8c-1.7-2.7-3.9-4.9-6.5-6.8c-1.3-0.9-2.6-1.6-4-2.2c0.1,0.1,0.2,0.2,0.4,0.3c2.8,1.9,5.3,4.3,7.4,7
			c1.3,1.6,2.4,3.3,3.1,5.2C82.1,48.1,82.6,49.8,83.2,51.4z M50.3,73.1c0,0.1,0,0.1,0,0.2c0.5,1.4,0.7,2.8,0.8,4.3
			c0.1,1.2-0.1,2.4,0.4,3.6c0.6,1.5,1.1,3,2.2,4.3c1.9,2.4,4.7,3.1,7.6,3.5c0.6,0.1,1.2-0.3,1.8-0.9c-0.5,0-0.8,0.1-1.2,0.1
			c-2,0.1-4-0.2-5.8-1.1c-1.7-0.8-2.8-2.1-2.9-4.1c-0.1-1.7-0.4-3.4-0.5-5.1C52.3,76,51.6,74.4,50.3,73.1z M70.1,101.6
			c-2.1-0.8-14.3,0.6-15.6,2C59.7,103.6,64.9,103.3,70.1,101.6z M53.1,104.2c0.1,0.4,0.2,0.7,0.3,0.9c0.4,0.6,1,0.9,1.7,1.1
			c1.5,0.5,3,0.6,4.6,0.6c0.4,0,0.5-0.1,0.6-0.4c0.3-0.7,0.7-1.3,1.4-1.7c0.1-0.1,0.3-0.2,0.4-0.2c0.1-0.1,0.2-0.1,0.4-0.3
			C59.3,104.3,56.3,104.8,53.1,104.2z M73.7,67.5C73.7,67.5,73.8,67.5,73.7,67.5c0.1,0,0.2-0.1,0.3-0.2c0.8-1.5,1.8-3,2.5-4.5
			c1.1-2.3,1.7-4.8,1.9-7.4c0.2-2.1,0-4.1-0.4-6.2c-0.4-2-1.1-3.9-2.1-5.7c-0.4-0.8-0.7-1.1-1.1-1.2c0.5,1,1.2,2.1,1.7,3.2
			c0.7,1.8,1.1,3.7,1.3,5.6c0.3,2.3,0.1,4.5-0.4,6.7c-0.6,2.4-1.5,4.7-2.5,6.9C74.5,65.6,74.1,66.5,73.7,67.5z M69.7,94.7
			c-1.5-1.1-12.1,1-13.3,1.8c0.2,0,0.3,0,0.4,0c3.7,0,7.5-0.3,11.1-1.2C68.5,95.2,69,95,69.7,94.7z M65.3,63.9
			c0,0.1,0.1,0.1,0.1,0.2c0.8-0.1,1.6-0.1,2.4-0.2c1.3-0.3,2.1-1.1,2.6-2.3c0.3-0.7,0-1.4-0.6-1.4c-0.6,0-1.2,0-1.8,0.2
			C66.4,61,65.9,62.5,65.3,63.9z M69.2,98.3C68,97.5,57.5,98.8,56,99.9C60.5,100.1,64.8,99.7,69.2,98.3z M62.3,94
			c-0.1,0-0.3,0-0.4,0c-2-0.1-4-0.3-6-0.4c-0.1,0-0.3,0-0.4,0c-0.5,0.2-1.1,0.4-1.6,0.6c-0.4,0.2-0.9,0.5-1.3,0.8
			c-0.2,0.2-0.4,0.5,0,0.7c0.5,0.3,1.1,0.6,1.8,0.4c0.6-0.2,1.2-0.5,1.8-0.6C58.2,95.1,60.3,94.6,62.3,94z M43,63.1
			c-0.3-1.3-0.5-2.5-1.1-3.6c-1.1-2-1.5-4.3-1.7-6.6c-0.1-1.4-0.1-2.7-0.2-4c0,0.1-0.1,0.2-0.1,0.4c-0.4,2.2-0.5,4.3-0.3,6.5
			c0.1,0.6,0.1,1.3,0.4,1.9c0.5,1.1,1,2.1,1.6,3.2C42,61.7,42.5,62.4,43,63.1z M46.1,69C46,69,46,69.1,46.1,69
			c0.6,2,1.3,3.9,1.9,5.8c0.4,1.1,0.6,2.3,0.8,3.5c0.3,1.6,0.6,3.1,0.9,4.7c0.1,0.4,0.3,0.7,0.5,1c0-1-0.1-2,0-2.9
			c0.1-0.9-0.1-1.7-0.4-2.6C49,76,48.2,73.3,47,70.7C46.7,70.1,46.4,69.6,46.1,69z M68.9,92.2c-1.4-0.9-8.7,0.1-10.7,0.8
			c0.3,0,0.6,0.1,0.9,0.1c2.7,0.2,5.4,0.2,8.1-0.2C67.8,92.7,68.4,92.7,68.9,92.2z M63.2,86.5c-0.2,0-0.4,0.1-0.6,0.1
			c-1,0.1-2,0.2-3,0.2c-1.8,0-3.3-0.8-4.2-2.3c-0.7-1.1-1-2.3-1.3-3.5c-0.1-0.5-0.3-1.1-0.5-1.6c0,1.1,0.1,2.2,0.2,3.2
			c0.1,1.6,0.8,2.8,2.2,3.5c2.2,1.1,4.5,1.4,6.8,1C63.3,87.1,63.3,86.9,63.2,86.5z M58.4,89.4c-3.7-0.9-6-3.2-7.3-6.7
			C51,82.7,51,82.8,51,82.8c0,0.2,0,0.5,0,0.7c0.1,1.5,0.5,2.9,1.9,3.7c0.5,0.3,0.9,0.6,1.3,0.9C55.4,89,56.8,89.5,58.4,89.4z
			 M61.2,106.6c0.1,0,0.2,0.1,0.2,0.1c1.4-0.1,2.8-0.2,4.1-0.8c0.2-0.1,0.5-0.3,0.5-0.5c0-0.4-0.2-0.7-0.6-0.8c-1-0.2-1.9,0-2.8,0.5
			C61.9,105.3,61.4,105.8,61.2,106.6z M71.2,79.6c-0.4,1.1-0.8,2.1-1.2,3.1c-0.3,0.9-0.8,1.8-0.7,2.8c0,0.2-0.1,0.5-0.2,0.7
			c-0.2,0.5-0.4,0.9-0.6,1.4c0.2-0.1,0.4-0.2,0.5-0.4C71,85,71.2,82.4,71.2,79.6z M52.5,91.8c1.2,1.1,4.4,1,5.9,0.1
			c-0.9-0.2-1.9-0.5-2.9-0.7c-0.2,0-0.4-0.2-0.5-0.1C54.2,91.3,53.3,91.5,52.5,91.8z M54.3,64.1c0,0,0-0.1,0.1-0.1
			c-0.8-0.9-1.5-1.8-2.6-2.2c-0.1,0-0.4,0-0.4,0.1c-0.1,0.5-0.3,0.9-0.3,1.4c0,0.4,0.4,0.7,0.8,0.8C52.6,64.1,53.4,64.1,54.3,64.1z
			 M60.1,61.3c0.2-0.9,0.4-1.7,0.5-2.4c0-0.4-0.1-0.7-0.2-1.1c-0.1-0.3-0.3-0.3-0.6-0.1C58.4,58.5,58.8,60.2,60.1,61.3z M43.9,63
			c0.5,2.7,2.1,4.6,3.8,6.4C47.7,68.5,45,64,43.9,63z M56.9,90.6c1.3,0.7,5.6,0.3,7-0.6C61.6,89.8,59.3,90.3,56.9,90.6z M46.4,38.1
			c0.1,0,0.2,0,0.2-0.1c1.2-0.8,2.5-1.3,3.8-1.8c0.7-0.3,1.4-0.9,2.1-1.3c0,0-0.1-0.1-0.1-0.1C50.2,35.5,48.2,36.6,46.4,38.1z
			 M50.1,76.4c0-0.1,0-0.3,0-0.5c-0.4-1.4-0.8-2.8-1.2-4.2c-0.1-0.4-0.5-0.7-0.8-1.1c0,0,0,0-0.1,0.1C48.7,72.6,49.4,74.5,50.1,76.4
			z M68.1,86.6c-1.2,0.8-2.4,1.7-3.5,2.5C66.1,89.1,67.3,88.3,68.1,86.6z M68.2,83.3c-0.5,1.1-1,2.1-1.5,3.1
			C67.8,85.9,68.6,84.3,68.2,83.3z M41.1,61.7c0.6,1.6,1.5,3,2.8,4.2C42.9,64.5,42,63.1,41.1,61.7z M64.1,86.8
			c0.1,0,0.1,0.1,0.2,0.1c0.8-0.3,1.6-0.5,2-1.4c-0.7,0.3-1.3,0.5-1.9,0.8C64.2,86.3,64.1,86.6,64.1,86.8z M53.3,88.6
			c0.7,1,1.8,1.6,2.4,1.4C54.9,89.5,54.1,89,53.3,88.6z M49.2,69.7c0,0.8,0.7,1.8,1.4,2.1C50.1,71.1,49.6,70.4,49.2,69.7z
			 M63.8,88.2c0,0.1,0.1,0.1,0.1,0.2c0.5-0.3,1.1-0.6,1.6-0.9c0-0.1-0.1-0.1-0.1-0.2C65,87.8,64.1,87.5,63.8,88.2z"/>
		<path class="st1" d="M94.5,33.1c-0.1,0.1-0.2,0.2-0.3,0.3c-1.6,0.9-3.1,1.7-4.7,2.6c-1.8,1.1-3.7,2.2-5.5,3.4
			c-0.3,0.2-0.5,0.3-0.7,0c-0.3-0.3,0-0.5,0.2-0.7c1.6-1,3.1-2.1,4.7-3c1.7-1,3.5-2,5.3-2.9c0.1-0.1,0.3-0.2,0.4-0.2
			C94.2,32.5,94.5,32.7,94.5,33.1z"/>
		<path class="st1" d="M39,38.1c-1.1-0.2-2-0.3-2.9-0.5c-1.7-0.4-3.3-0.8-5-1.3c-0.9-0.3-1.8-0.8-2.7-1.3c-0.3-0.1-0.5-0.3-0.3-0.7
			c0.2-0.3,0.5-0.2,0.7,0c2,1.3,4.3,1.9,6.7,2.4c1.1,0.2,2.2,0.4,3.4,0.6c0.2,0,0.4,0.3,0.4,0.4C39.3,37.8,39.1,38,39,38.1z"/>
		<path class="st1" d="M44.3,29.6C44.2,29.8,44.1,30,44,30c-0.2,0-0.4-0.1-0.5-0.2c-0.7-0.8-1.4-1.6-2-2.4c-1.3-1.5-2.6-3-3.9-4.6
			c-0.1-0.1-0.1-0.2-0.2-0.2c-0.2-0.2-0.2-0.5,0-0.6c0.2-0.1,0.4-0.1,0.6,0c0.2,0.1,0.3,0.4,0.5,0.6c1.8,2.2,3.7,4.3,5.5,6.5
			C44.1,29.3,44.2,29.5,44.3,29.6z"/>
		<path class="st1" d="M24.2,40.8c0.6,0.1,1,0.3,1.5,0.4c2.4,0.5,4.8,1,7.2,1.4c0.3,0.1,0.5,0.2,0.4,0.5c0,0.3-0.3,0.4-0.5,0.3
			c-1.4-0.2-2.8-0.4-4.2-0.7c-1.4-0.3-2.8-0.6-4.2-1c-0.3-0.1-0.6-0.2-0.5-0.5C23.9,41,24.1,40.9,24.2,40.8z"/>
		<path class="st1" d="M94.7,48.6c0.2,0,0.4,0,0.5,0c0.3,0,0.6,0.1,0.6,0.4c0,0.3-0.3,0.4-0.6,0.4c-0.8,0-1.6,0.1-2.4,0.1
			c-1.5,0.1-2.9,0.2-4.4,0.3c-0.5,0-1,0.1-1.5,0.1c-0.2,0-0.3-0.2-0.5-0.3c0.1-0.2,0.2-0.4,0.4-0.5c0.4-0.1,0.9-0.1,1.4-0.2
			C90.4,48.9,92.6,48.7,94.7,48.6z"/>
		<path class="st1" d="M61.8,18.2c0.1-0.8,0.2-1.8,0.4-2.8c0-0.2,0.1-0.4,0.2-0.4c0.1-0.1,0.3-0.2,0.5-0.1c0.1,0,0.2,0.2,0.2,0.3
			c0,0.1,0,0.3,0,0.4c-0.6,2.1-0.3,4.2-0.1,6.3c0.1,0.4,0.1,0.9,0.1,1.3c0,0.2-0.2,0.3-0.3,0.5c-0.2-0.1-0.4-0.2-0.5-0.4
			c-0.1-0.6-0.2-1.3-0.3-2C62,20.3,61.9,19.4,61.8,18.2z"/>
		<path class="st1" d="M26.4,50.1c1.6-0.1,3.3-0.1,4.9-0.2c0.2,0,0.4,0,0.5,0c0.1,0,0.3,0.2,0.3,0.3c0,0.1-0.1,0.2-0.2,0.3
			c-0.1,0.1-0.3,0.2-0.5,0.2c-2.6,0.1-5.1,0.2-7.7,0.2c-0.2,0-0.5-0.1-0.6-0.3c-0.2-0.3,0.1-0.6,0.5-0.6
			C24.6,50.1,25.5,50.1,26.4,50.1C26.4,50.1,26.4,50.1,26.4,50.1z"/>
		<path class="st1" d="M86.7,44.1c-0.1-0.1-0.3-0.3-0.4-0.4c-0.1-0.3,0.2-0.5,0.5-0.5c2.4-0.3,4.7-0.8,7.1-1.5c0,0,0.1,0,0.1,0
			c0.3,0,0.6-0.1,0.7,0.3c0.1,0.4-0.2,0.5-0.5,0.5c-1.2,0.3-2.3,0.6-3.5,0.8C89.4,43.7,88.1,43.9,86.7,44.1z"/>
		<path class="st1" d="M93.7,62.2c-1.4-0.3-2.8-0.5-4.2-0.8c-0.6-0.1-1.1-0.4-1.6-0.6c-0.1-0.1-0.2-0.4-0.2-0.6
			c0.2-0.1,0.4-0.2,0.5-0.2c1.9,1,4,1.2,6.1,1.3c0.3,0,0.6,0,0.8,0c0.2,0.1,0.5,0.2,0.6,0.4c0.1,0.3-0.2,0.4-0.5,0.4
			C94.8,62.1,94.3,62.1,93.7,62.2C93.8,62.1,93.8,62.1,93.7,62.2z"/>
		<path class="st1" d="M36.3,63.9c-0.2,0.2-0.3,0.4-0.4,0.5c-1.2,0.7-2.4,1.4-3.7,2.1c-0.8,0.4-1.7,0.8-2.5,1.3
			c-0.3,0.1-0.5,0.2-0.7-0.1c-0.2-0.3,0-0.5,0.3-0.6c1.3-0.7,2.6-1.3,3.9-2c0.8-0.4,1.5-0.9,2.2-1.3c0.2-0.1,0.4-0.1,0.5-0.1
			C36.1,63.5,36.2,63.7,36.3,63.9z"/>
		<path class="st1" d="M26.5,57.3c-0.2,0.1-0.4,0-0.5-0.2c-0.1-0.1,0-0.3,0.1-0.4c0.1,0,0.4-0.1,0.7-0.2c1.8-0.3,3.7-0.7,5.5-1
			c0.5-0.1,0.9-0.2,1.4-0.2c0.2,0,0.4,0.1,0.5,0.3c0.1,0.3-0.1,0.4-0.4,0.5c-1,0.2-2,0.3-2.9,0.5C29.4,56.8,28,57.1,26.5,57.3z"/>
		<path class="st1" d="M75.8,29.9c0.1-0.2,0.1-0.3,0.2-0.4c1.5-1.8,3-3.5,4.5-5.3c0.2-0.2,0.4-0.4,0.7-0.1c0.2,0.2,0.1,0.5-0.1,0.7
			c-1.2,1.4-2.4,2.8-3.6,4.2c-0.3,0.4-0.6,0.8-0.9,1.2c-0.1,0.1-0.3,0.2-0.5,0.1C76,30.2,75.9,30,75.8,29.9z"/>
		<path class="st1" d="M52.8,16.9c0-0.3,0.1-0.8,0.2-1.3c0-0.2,0.3-0.4,0.5-0.4c0.3,0,0.4,0.3,0.3,0.6c-0.5,1.5,0,3,0.5,4.5
			c0.2,0.7,0.6,1.4,0.8,2.1c0.1,0.1-0.1,0.4-0.2,0.5c-0.2-0.1-0.5-0.1-0.6-0.2C53.5,20.9,52.8,19.2,52.8,16.9z"/>
		<path class="st1" d="M78.3,18.8c0,0.1-0.1,0.2-0.1,0.3c-1.5,1.5-2.4,3.5-3.4,5.3c-0.2,0.3-0.4,0.5-0.7,0.3
			c-0.3-0.2-0.3-0.4-0.1-0.7c0.9-1.5,1.8-3,2.7-4.5c0.2-0.3,0.5-0.6,0.8-0.9c0.1-0.1,0.3-0.1,0.5-0.1c0.2,0,0.3,0.1,0.4,0.2
			C78.4,18.6,78.3,18.7,78.3,18.8z"/>
		<path class="st1" d="M72.1,17.6c-0.1,0.1-0.1,0.3-0.2,0.3c-1.1,0.9-1.5,2.1-1.9,3.3c-0.3,0.7-0.5,1.5-0.8,2.2
			c-0.1,0.3-0.4,0.4-0.6,0.3c-0.1-0.1-0.2-0.4-0.1-0.6c0.5-1.4,0.9-2.8,1.5-4.1c0.3-0.6,0.8-1.1,1.3-1.7c0.1-0.1,0.4-0.1,0.5-0.1
			C71.9,17.3,72,17.5,72.1,17.6z"/>
		<path class="st1" d="M37.6,30.8c-0.3-0.1-0.5-0.3-0.8-0.4c-1.7-0.9-3.4-1.7-4.9-2.9c-0.2-0.2-0.4-0.4-0.2-0.7
			c0.2-0.3,0.4-0.1,0.7,0c1.7,1,3.4,2,5.1,3c0.1,0.1,0.3,0.1,0.4,0.2c0.1,0.1,0.2,0.3,0.1,0.5C37.9,30.6,37.7,30.6,37.6,30.8z"/>
		<path class="st1" d="M93.1,56.3c-1.5-0.2-2.9-0.4-4.3-0.6c-0.3,0-0.6,0-0.9-0.1c-0.2-0.1-0.4-0.3-0.4-0.5c0-0.3,0.3-0.4,0.5-0.3
			c1.6,0.2,3.1,0.4,4.7,0.6c0.4,0,0.8,0.1,1.1,0.2c0.2,0,0.3,0.3,0.4,0.4c-0.1,0.1-0.3,0.2-0.4,0.3C93.5,56.3,93.3,56.3,93.1,56.3z"
			/>
		<path class="st1" d="M86.1,30.4c-1.2,0.9-2.3,1.8-3.5,2.7c-0.2,0.2-0.4,0.4-0.7,0.5c-0.2,0.1-0.5,0.1-0.6-0.1
			c-0.2-0.2-0.1-0.4,0.1-0.6c1.2-1,2.5-1.9,3.7-2.9c0.3-0.2,0.6-0.5,0.9-0.7c0.1-0.1,0.4,0,0.6,0c0,0.2,0,0.3-0.1,0.5
			C86.4,30.1,86.2,30.3,86.1,30.4z"/>
		<path class="st1" d="M48.3,24.1c-0.1,0.1-0.2,0.3-0.3,0.3c-0.2,0-0.4-0.1-0.5-0.2c-0.4-0.5-0.7-1.1-1-1.6c-0.5-1-0.9-2.1-1.4-3.1
			C45,19.3,44.9,19.1,45,19c0-0.2,0.2-0.4,0.3-0.4c0.1,0,0.4,0.1,0.4,0.3c0.5,1.8,1.4,3.3,2.3,4.8C48.2,23.8,48.2,23.9,48.3,24.1z"
			/>
	</g>
</g>
</svg>
