<?xml version="1.0" encoding="utf-8"?>
<!-- Generator: Adobe Illustrator 23.0.1, SVG Export Plug-In . SVG Version: 6.00 Build 0)  -->
<svg version="1.1" id="Layer_1" xmlns="http://www.w3.org/2000/svg" xmlns:xlink="http://www.w3.org/1999/xlink" x="0px" y="0px"
	 viewBox="0 0 121 121" style="enable-background:new 0 0 121 121;" xml:space="preserve">
<style type="text/css">
	.st0{fill:#49C8F5;}
	.st1{fill:#FFFFFF;}
</style>
<g>
	<g>
		<path class="st0" d="M111.9,121.5H9.1c-5,0-9.1-4.1-9.1-9.1V9.6c0-5,4.1-9.1,9.1-9.1h102.9c5,0,9.1,4.1,9.1,9.1v102.9
			C121,117.4,116.9,121.5,111.9,121.5z"/>
		<path class="st1" d="M111.9,3.5c3.3,0,6.1,2.7,6.1,6.1v102.8c0,3.3-2.7,6.1-6.1,6.1H9.1c-3.3,0-6.1-2.7-6.1-6.1V9.6
			c0-3.3,2.7-6.1,6.1-6.1H111.9 M111.9,2H9.1C4.9,2,1.5,5.4,1.5,9.6v102.8c0,4.2,3.4,7.6,7.6,7.6h102.8c4.2,0,7.6-3.4,7.6-7.6V9.6
			C119.5,5.4,116.1,2,111.9,2L111.9,2z"/>
	</g>
	<g>
		<path class="st1" d="M48.8,85.4c-0.4-0.1-0.7-0.1-1.1-0.2c-1.2-0.6-2.4-1.3-3.2-2.5c-0.2-0.2-0.4-0.4-0.6-0.7
			c-0.1,0.1-0.1,0.1-0.2,0.2c1.3,1.3,2.3,2.8,4,3.6c0,0.1-0.1,0.1-0.1,0.2c-0.2,0-0.5,0-0.7-0.2c-0.7-0.5-1.5-0.9-2.2-1.5
			c-0.8-0.7-1.7-1.3-2.3-2.2c-0.8-1.1-1.4-2.4-2-3.7c-0.4-0.9-0.7-1.8-1-2.7c-0.3-1-0.6-2.1-0.8-3.1c0-0.2,0-0.4-0.4-0.4
			c-0.1,0-0.2-0.2-0.2-0.3c-0.2-1.2-0.5-2.4-0.7-3.6c0.1,0,0.2,0,0.4,0c0-1.3,0-2.5,0-3.8c0-0.5-0.1-0.9,0-1.4
			c0.1-0.6,0.2-1.1,0.3-1.6c0,0,0.1,0,0.1,0c0.1,0.1,0.1,0.2,0.1,0.3c0.6-0.2,1.3-0.4,1.9-0.7c0.1-0.1,0.3-0.2,0.3-0.4
			c-0.1-1.2,0.5-2.2,0.7-3.3c0.3-1.2,0.5-2.4,0.7-3.5c0-0.1-0.2-0.3-0.3-0.3c-0.5-0.1-1.1-0.2-1.6-0.3c-0.1,0-0.3,0.1-0.4,0.2
			c-0.4,0.5-0.7,1.1-1.1,1.5c-0.9,0.8-1.3,1.8-1.9,2.7c-1.4,2-3.2,3.4-5.6,3.8c-1.1,0.2-2.1,0.2-3.2,0.3c-0.9,0.1-1.8,0.1-2.7,0.2
			c0.5,0.4,1,0.8,1.4,1.1c-0.4,0.5-0.6,0.9-1,1.3c-0.2,0.3-0.5,0.5-0.7,0.7c-0.1,0.1-0.1,0.2-0.1,0.3c-0.9,0.1-1.5-0.5-2.1-1
			c-0.3-0.2-0.6-0.4-0.9-0.6c0.4-0.5,0.9-1.2,1.5-1.7c0.1-0.1,0.3-0.1,0.5-0.1c0.1,0,0.2,0,0.4-0.1c0,0,0-0.1,0-0.1
			c-0.4,0-0.8,0-1.2,0c-2.3,0.3-4.5,1-6.4,2.3c-0.6,0.4-1.1,1-1.6,1.6c-0.8,0.9-1.3,2-1.6,3.3c-0.2,0.8,0,1.4,0.7,1.9
			c0.2,0.2,0.4,0.5,0.6,0.8c0.1,0.1-0.1,0.4-0.2,0.5c-0.1,0-0.1,0-0.2,0c0.2,0.2,0.4,0.4,0.7,0.7c0,0.1-0.1,0.2-0.2,0.4
			c-1.1,0.2-2.3,0.6-3.3,1.2c-0.6,0.3-0.6,0.3-0.7-0.3c-0.2-1.1-0.5-2.2-0.8-3.4c0.9-0.3,1.9-0.6,2.9-0.9c0.1-2.8,1.7-4.6,3.7-6.3
			c-0.1-0.1-0.2-0.1-0.3-0.2c-0.9-0.4-1.7-0.7-2.5-1.1c-0.1-0.1-0.2-0.3-0.2-0.5c0.2-0.6,0.3-1.1,0.6-1.7c0.1-0.3,0.4-0.5,0.6-0.7
			c0-0.1,0-0.1,0-0.2c0.8,0.3,1.7,0.7,2.5,1.1c0.1,0,0.1,0.3,0.1,0.5c0,0.3,0.1,0.5,0,0.7c-0.1,0.6-0.3,1.1-0.4,1.7
			c0,0.1,0,0.2,0,0.3c0.8-0.4,1.5-0.8,2.3-1c1.9-0.7,3.8-0.9,5.8-0.9c1.7,0,3.4-0.2,5.2-0.3c-0.1-0.2-0.2-0.3-0.2-0.3
			c-0.3-0.3-0.6-0.6-0.9-1c-0.3-0.3-0.5-0.6-1.1-0.3c0.3-0.8,1-1,1.4-1.5c0.4-0.5,0.9-0.9,1.4-1.4c0,0,0.1,0.1,0.2,0.2
			c0.8,0.5,1.6,1,2.3,1.5c0.1,0.1,0.1,0.3,0.2,0.4c-0.9,0.4-0.9,1.5-1.6,2.1c0.4-0.1,0.8-0.3,1.2-0.4c1.9-0.9,3.2-2.4,4.3-4.2
			c0.5-0.8,1.1-1.6,1.7-2.5c0.2-0.2,0.5-0.4,0.7-0.6c-0.2-0.2-0.3-0.4-0.5-0.6c-0.4-0.6-0.1-1.5,0.6-1.7c0.5-0.1,0.9-0.3,1.5,0.2
			c0.4,0.3,1.2,0.3,1.8,0.3c0.4,0,0.8-0.1,1.2,0.4c-0.6,0-1.1,0-1.6,0c-0.4,0-0.8-0.2-1.3-0.2c-0.1,0-0.3,0-0.4,0.1
			c-0.3,0.4-0.5,0.8-0.9,1.3c0.6,0.1,1.1,0.2,1.5,0.2c0.2,0,0.4,0,0.6,0.2c0.7,0.5,1.3,0.4,2,0c0.3-0.1,0.7-0.2,1-0.4
			c0.1,0,0.2-0.1,0.3-0.2c0.1-0.2,0.3-0.3,0.4-0.5c0.1,0.1,0.2,0.2,0.2,0.3c0.1,1.2,0.2,2.4,0.3,3.6c0.1,0.7,0.2,1.3,0.3,2
			c0.1,0.4,0.3,0.5,0.6,0.4c0.6-0.1,1.2-0.2,1.8-0.3c0.2,0,0.5,0,0.6,0.2c0.1,0.1,0,0.4,0,0.4c-0.5,0.1-1,0.1-1.4,0.3
			c-0.7,0.2-1.5,0.4-2.2,0.7c0.5-0.3,1-0.5,1.5-0.8c-0.1,0-0.1,0-0.2,0c-0.8,0-1.1-0.2-1.3-1c-0.1-0.6-0.3-1.2-0.4-1.8
			c-0.1-0.9-0.1-1.7-0.1-2.7c-0.3,0-0.6-0.1-0.9,0.1c-0.7,0.4-1.5,0.7-2.4,0.3c0,0.3-0.1,0.5-0.1,0.8c0,0.3,0,0.7,0,1
			c-0.3,1.2-0.5,2.3-0.8,3.5C41,59.8,40.9,60.3,41,61c1.4-0.4,2.7-0.8,4-1.2c0.3-0.1,0.6,0,0.9,0c-1.5,0.6-3,1.2-4.6,1.8
			c-0.3,0.1-0.4,0.3-0.3,0.6c0.3,0.6,0.7,1.2,1.4,1.5c0.3,0.2,0.7,0.4,1,0.6c-0.8,0.1-2.1-0.9-3-2.4c-0.6,0.3-1.3,0.6-1.9,0.9
			c-0.1,0-0.1,0.3-0.1,0.4c0.2,1.6,0.4,3.3,0.6,4.9c0,0.4,0,0.8,0,1.2c0.1,1.7,0.7,3.3,1.2,4.9c0.4,1.2,0.9,2.4,1.4,3.6
			c0.1,0.1,0.1,0.3,0.3,0.5c0.1-0.2,0.2-0.3,0.3-0.4c0,0.3-0.1,0.6,0,0.9c0.1,0.4,0.4,0.7,0.6,1c0.1-0.5,0.3-1,0.5-1.6
			c-0.2-0.2-0.4-0.5-0.7-0.7c-0.2-0.2-0.3-0.1-0.4,0.2c0-0.2-0.1-0.5-0.1-0.6c1.3,0.6,2.7,1.3,4.1,1.9c1.1,0.4,2.2,0.5,3.4,0.8
			c0.2,0,0.4-0.1,0.7,0c0.2,0,0.4,0.1,0.7,0.2c-0.3,0.3-0.5,0.5-0.1,0.7c1-0.9,1-0.9,1.4-0.7c-0.3,0.5-0.6,0.9-0.9,1.4
			c0,0,0.1,0.1,0.1,0.1c0.1-0.1,0.2-0.1,0.3-0.2c0.4-0.4,0.7-0.8,1.1-1.2c0.1-0.1,0.3-0.1,0.5-0.1c0,0.2,0,0.3-0.1,0.5
			c-0.5,0.7-1.1,1.5-1.5,2.3c0.1-0.1,0.2-0.1,0.3-0.2c0.7-0.8,1.4-1.6,2.1-2.4c0.1-0.1,0.3-0.1,0.5-0.2c0,0.2,0,0.3-0.1,0.5
			c-0.5,0.7-1,1.4-1.6,2c0,0,0.1,0.1,0.1,0.1c0.2-0.3,0.5-0.6,0.7-0.9c0.4-0.5,0.8-1,1.1-1.5c0.2-0.3,0.4-0.4,0.7,0
			c0.3-0.4,0.5-0.8,0.8-1.2c0,0,0-0.1,0-0.1c-0.7,0.2-1.5,0.5-2.2,0.7c0-0.1-0.1-0.1-0.1-0.2c0.2-0.1,0.3-0.2,0.5-0.3
			c1.1-0.4,2.2-0.7,3.3-1.1c0.4-0.1,0.8-0.6,1.2-0.6c0.4,0,0.9,0,1.3-0.1c1.6-0.4,3.1-0.8,4.7-1.3c1.6-0.5,3.1-1,4.7-1.5
			c0.1,0,0.2-0.1,0.3-0.1c0.3,0.5-0.2,0.8-0.4,1.1c-0.2,0.4-0.4,0.7-0.6,1.1c0,0,0.1,0.1,0.1,0.1c0.1-0.1,0.2-0.3,0.3-0.4
			c0.7-0.9,1.5-1.9,2.2-2.8c0.1-0.1,0.1-0.2,0.2-0.2c0.1-0.1,0.3-0.1,0.5-0.1c0,0.1,0.1,0.3,0,0.4c-0.2,0.5-0.5,0.9-0.7,1.4
			c-0.1,0.1-0.1,0.2-0.1,0.4c0.1-0.1,0.2-0.2,0.3-0.3c0.6-0.7,1.1-1.4,1.7-2.1c0.1-0.1,0.2-0.2,0.3-0.3c0.7-0.3,1.4-0.7,2.1-0.9
			c1.1-0.4,2.1-0.8,3.2-1.1c3.2-1,6.4-2.1,9.6-3.1c0.4-0.1,0.7-0.2,1.1-0.3c0.2-0.1,0.4-0.2,0.5-0.3c0.1-0.1,0.2-0.1,0.4-0.1
			c0.5,0,1,0,1.5,0c-0.1,0.1-0.2,0.1-0.2,0.1c-2.2,0.7-4.4,1.3-6.6,2c-0.3,0.1-0.5,0.1-0.5,0.5c0,0.3-0.3,0.6-0.5,1
			c-0.2,0.3-0.3,0.6-0.4,1c0.1,0,0.1,0.1,0.2,0.1c0.2-0.2,0.3-0.4,0.5-0.6c0.6-0.6,1.2-1.2,1.8-1.8c0.1-0.1,0.3-0.1,0.5-0.1
			c0,0.2,0,0.4,0,0.5c-0.1,0.3-0.3,0.5-0.4,0.9c0.1-0.1,0.2-0.1,0.3-0.2c0.6-0.5,1.1-1,1.7-1.4c0.1-0.1,0.3-0.1,0.5-0.1
			c0,0.2,0,0.3,0,0.5c-0.1,0.2-0.3,0.5-0.4,0.7c0,0,0.1,0.1,0.1,0.1c0.5-0.5,0.9-1,1.3-1.5c0.1-0.1,0.2-0.2,0.3-0.3
			c0.1-0.1,0.3-0.1,0.4-0.1c0,0.2,0.2,0.3,0.1,0.5c0,0.2-0.1,0.4-0.2,0.8c0.9-0.3,1.4-0.9,2-1.4c0.2-0.2,0.4-0.3,0.7-0.5
			c0,0,0,0.1,0.1,0.1c0.1-0.4,0.3-0.7,0.4-1.1c0.1-0.1,0.2-0.2,0.3-0.2c0,0.1,0.2,0.3,0.1,0.4c-0.3,0.9-0.6,1.8-0.8,2.7
			c-0.2,0.5-0.4,1-0.5,1.5c-0.1,0.2,0,0.4,0.1,0.6c0.1,0,0.1,0,0.2,0c0.5-1.5,1.1-3.1,1.6-4.6c0,0,0.1,0,0.1,0c0,0.2,0,0.4-0.1,0.6
			c-0.4,1.4-0.8,2.7-1.2,4c-0.1,0.4,0,0.7,0.3,0.8c0.6-1.7,1.1-3.4,1.7-5.1c0.1,0,0.1,0,0.2,0.1c0,0.2-0.1,0.4-0.1,0.6
			c0,0,0.1,0,0.1,0c0.2-0.3,0.4-0.7,0.6-1c0.3-0.4,0.4-0.9,1-0.8c0.1,0,0.2-0.2,0.2-0.3c0.2-0.4,0.3-0.7,0.5-1.1
			c0.2-0.3,0.4-0.5,0.6-0.7c0,0,0.1-0.1,0.1-0.2c0.2-0.5,0.4-1.1,0.5-1.7c-0.7,0.9-1.4,1.7-2.1,2.6c-0.1,0-0.1-0.1-0.2-0.1
			c0.1-0.2,0.2-0.3,0.3-0.5c1.4-1.9,2.9-3.8,4.3-5.8c0.9-1.4,1.6-2.9,2.4-4.3c0-0.1,0.1-0.2,0.1-0.3c-0.4-0.4,0-0.6,0.2-0.8
			c0.5-0.9,1-1.9,1.5-2.8c0.1-0.1,0.1-0.2,0.2-0.3c-0.3,1.7-1.3,3.2-2,4.8c0.1,0,0.1,0.1,0.2,0.1c0.6-0.9,1.2-1.7,1.7-2.6
			c0.3-0.6,0.9-1,1-1.7c0,0,0.3-0.1,0.3-0.1c0.1,0.1,0.2,0.2,0.2,0.3c0,0.2-0.1,0.4-0.1,0.6c0,0,0.1,0,0.1,0.1c0.3-0.5,0.6-1,1-1.7
			c-2.1-0.6-4.2-1.1-6.2-1.7c0,0,0,0,0-0.1c0.2,0,0.3,0,0.7,0c-1.8-0.6-3.4-1.1-5-1.6c0,0,0,0.1,0,0.1c1,0.4,2,0.8,3,1.2
			c0,0,0,0.1,0,0.1c-1.3-0.5-2.7-0.9-4-1.4c-3.3-1.2-6.6-2.1-10-2.9c-0.6-0.1-1.3,0.2-1.5,0.7c0.4,0,0.8-0.1,1.1-0.1
			c0.4,0,0.9,0,1.3,0c0.4,0,0.6,0.3,0.6,0.6c0,0.3-0.1,0.8-0.3,0.9c-0.8,0.4-1.7,0.7-2.5,1c-0.3,0.1-0.7,0-1,0.2
			c-0.3,0.1-0.4,0.5-0.6,0.7c0,0.1,0.1,0.3,0.2,0.4c0.2,0.2,0.4,0.4,0.6,0.6c0.2,0.4,0.1,0.8-0.1,1.3c0,0.3,0.1,0.5,0,0.8
			c0,0.3-0.1,0.6-0.2,1c-0.2,1.2-1,2-1.5,3.1c-0.3,0.6-0.8,0.7-1.4,0.5c0-0.1,0.1-0.2,0.1-0.2c-0.4-0.2-0.8-0.3-1.2-0.5
			C80.2,54.3,80,54,80,53.8c0.1-1.3,0.6-2.4,1.2-3.5c0.1,0,0.1,0,0.2,0c0,0.1,0.1,0.3,0.1,0.4c-0.2,0.6-0.5,1.1-0.7,1.7
			c-0.2,0.5-0.3,1-0.3,1.5c0,0.2,0.3,0.5,0.5,0.5c0.4,0,0.8-0.2,1.2-0.2c0.5,0,0.6-0.4,0.8-0.8c0.4-1,0.8-2,1.2-3
			c0.1-0.1,0-0.3,0-0.4c0-0.3-0.1-0.6,0-0.8c0.1-0.4,0-0.6-0.3-0.9c-0.6-0.8-1.4-0.4-2.2-0.4c-0.2,0-0.5,0.1-0.7,0.1
			c-0.4,0.1-0.5,0-0.8-0.5c0.9-0.3,0.6-1,0.5-1.6c0-0.1,0-0.2,0-0.3c0-0.2,0.1-0.4,0.2-0.5c0.1-0.1,0.3,0.1,0.5,0.1
			c0.6,0.3,1.2,0.8,1.9,1c0.5,0.2,1.1,0.2,1.7,0.1c0.8-0.2,1.6-0.5,2.4-0.8c0.5-0.2,0.6-0.8,0.3-1.2c-0.1-0.1-0.3-0.1-0.4-0.1
			c-0.7,0-1.5,0.1-2.2,0.2c-1.4,0.2-2-0.8-2.7-1.7c-0.1-0.2-0.3-0.3-0.5-0.4c-0.4-0.2-0.8-0.4-1.2-0.5c-0.2-0.1-0.4-0.1-0.5,0
			c-1.3,0.7-2.3,1.7-2.9,3.1c-0.6,1.4-0.8,2.8-1,4.2c-0.1,0.8,0.2,1.4,0.7,2c0.2,0.2,0.6,0.3,0.9,0.3c0.6,0,1.1-0.2,1.7-0.3
			c0.4-0.1,0.9-0.3,1.3-0.4c0,0,0,0.1,0.1,0.1c0,0.1-0.1,0.2-0.2,0.2c-0.7,0.3-1.4,0.7-2.1,0.9c-1.2,0.3-2.4,0.6-3.7,0.8
			c-0.3,0.1-0.5,0.2-0.5,0.6c0,0.6,0,1.2-0.1,1.7c-0.2,1-0.5,2-0.8,3c-0.1,0.2-1,0.4-1.3,0.3c-0.7-0.3-1-0.9-0.8-1.6
			c0.2-0.9,0.3-1.8,0.4-2.7c0-0.3-0.1-0.6-0.2-0.9c-0.5,0.1-0.9,0.2-1.3,0.3c-1.6,0.4-3.2,0.7-4.8,1.1c-1.8,0.4-1.8,0.5-2.3,2.4
			c-0.2,0.8-0.5,1.6-0.8,2.3c-0.1,0.1-0.3,0.2-0.4,0.3c0-0.2,0-0.3,0-0.5c0.4-1.1,0.8-2.2,1.1-3.3c0.3-0.9,0.3-0.9-0.5-1.5
			c-0.6-0.4-1.3-0.9-1.9-1.3c-0.2-0.2-0.4-0.4-0.5-0.7c0,0,0.1-0.1,0.1-0.1c0.1,0.1,0.2,0.1,0.3,0.2c0.6,0.4,1.2,0.9,1.8,1.3
			c0.4,0.3,0.7,0.6,1.1,0.9c0.1,0.1,0.3,0.1,0.4,0.1c1.1-0.3,2.2-0.5,3.4-0.8C66.4,53,66.3,52,66.3,51c-0.7,0.3-1.3,0.5-1.9,0.8
			c-0.4,0.2-0.8,0.1-1.1-0.2c-0.4-0.3-0.8-0.6-1.3-0.9c0.1,0.2,0.2,0.3,0.3,0.5c0.1,0.1,0.2,0.2,0.2,0.3c0,0.8,0.6,1,1,1.4
			c0.4,0.4,0.8,0.8,1.2,1.2c0,0.1-0.1,0.1-0.1,0.2c-0.2-0.1-0.3-0.2-0.5-0.3c-0.6-0.5-1.1-1-1.7-1.5c-0.1,0-0.1-0.1-0.1-0.2
			c0.1-0.5-0.3-0.8-0.5-1.3c-0.4-0.9-0.6-1.8-0.4-2.9c0.4,0.2,0.7,0.4,1.1,0.6c0.5,0.2,1,0.4,1.5,0.6c0.1,0,0.2-0.1,0.3-0.2
			c0.5-0.6,1.1-0.8,1.9-0.7c0.4,0.1,0.6-0.1,0.6-0.5c0-1.2,0.2-2.3,0.8-3.3c-0.5-0.3-1-0.6-1.5-0.8c-0.5-0.3-0.8-0.7-0.7-1.4
			c0-0.2,0-0.5,0-0.7c0.1-1.3,0.9-2.2,2-2.6c1.1-0.4,2.3-0.4,3.4,0.4c0.2,0.1,0.5,0.3,0.2,0.6c0,0,0.1,0.2,0.1,0.2
			c0.6,0.8,0.6,1.7,0.1,2.5c-0.2,0.3-0.5,0.7-0.7,1.1c0.3,0.3,0.6,0.8,0.9,1.2c0,0-0.1,0.1-0.1,0.1c-0.3-0.4-0.7-0.7-0.9-1
			c-0.8,0.1-1.5,0.2-2.1,0.3c-0.1,0-0.2,0.1-0.3,0.3c-0.4,0.8-0.6,1.6-0.6,2.5c0,0.6,0.1,1.2,0.1,1.7c0,0.2,0.1,0.5-0.3,0.5
			c0,0-0.1,0.1-0.1,0.1c0,0.9-0.1,1.9,0,2.8c0.1,0.7,0.5,0.9,1.2,0.8c0.7-0.1,1.4-0.4,2.2-0.5c0.2-0.1,0.5-0.1,0.7-0.2
			c0.6-0.1,0.9,0.3,1,0.9c0.1,1.1,0,2.2-0.3,3.3c0,0.2-0.1,0.4,0,0.5c0.1,0.2,0.5,0.6,0.6,0.5c0.3-0.2,0.8,0,0.9-0.5
			c0.2-0.8,0.4-1.5,0.5-2.3c0.2-1,0.2-2,0.3-3c0.1-0.7-0.6-1.5-1.3-1.5c-0.3,0-0.6,0.1-0.8,0.1c-0.4,0-0.8,0-1.2,0
			c1.6-0.8,3.5,0,3.6,1.2c0.7-0.2,1.4-0.3,2.1-0.4c-0.2-0.5-0.5-1-0.7-1.5c-0.3-0.9-0.1-1.7,0-2.6c0-0.2-0.1-0.4-0.1-0.6
			c0-0.2,0-0.4,0.1-0.5c0.6-1.1,1.2-2.2,1.9-3.2c0.5-0.6,1.3-0.9,1.9-1.4c0.1-0.1,0.2-0.1,0.2-0.1c-0.3-0.5-0.8-1-0.8-1.4
			c0-0.8,0.1-1.6,0.8-2.2c0,0,0,0,0.1,0c0,0.1,0,0.1,0,0.3c0.8-1.3,1.8-1.9,3.2-1.3c1,0.5,1.6,1.1,1.7,2.1c0.2-0.2,0.2-0.7,0.6-0.5
			c-0.1,0.2-0.3,0.5-0.3,0.7c-0.1,0.2-0.2,0.5,0.2,0.7c0,0,0,0.3-0.1,0.4c-0.4,0.7-1,1-1.7,1.2c-0.3,0.1-0.6,0.2-0.9,0.3
			c-0.3,0.1-0.6,0.1-0.9-0.3c1.1,0,1.8-0.7,2.2-1.6c0.2-0.4,0.3-0.9,0.3-1.3c-0.1-0.8-1.4-1.7-2.1-1.6c0.3,0.1,0.4,0.1,0.7,0.1
			c-0.1,0-0.1,0.1-0.2,0.1c-1.4-0.2-2.7,0.8-3,2.2c-0.1,0.5,0.5,1.4,1.1,1.7c0.2,0.1,0.4,0.1,0.5,0.3c-0.2,0-0.4-0.1-0.7-0.1
			c0.1,0.1,0.1,0.1,0.1,0.1c1.2,0.3,1.9,1.4,2.7,2.2c0.1,0.1,0.3,0.3,0.5,0.4c0.5,0.3,0.6,0.2,0.7-0.3c0.1-0.5,0.4-0.7,0.8-0.7
			c0.9,0.1,1.8,0.1,2.7,0.3c1.2,0.2,2.4,0.6,3.7,0.9c0.5,0.1,1,0.2,1.4,0.4c2.3,1,4.8,1.4,7.2,2.1c2,0.6,4,1.2,6,1.9
			c0.8,0.2,1.5,0.6,2.3,0.8c0.1,0,0.3,0,0.4,0c0.2,0.1,0.5,0.2,0.7,0.4c-0.4,0.2-0.5,0.4-0.5,0.8c0.1,0.6-0.4,0.8-1.1,0.5
			c0,0-0.1,0.1-0.1,0.1c-0.1,1.1-0.8,1.9-1.3,2.8c-0.7,1.4-1.5,2.7-2.2,4.1c1.1-1.2,1.7-2.9,3-3.9c0.1,0,0.1,0.1,0.2,0.1
			c-1,1.9-1.9,3.8-2.9,5.8c-0.1,0-0.1,0-0.2-0.1c0.2-0.4,0.3-0.9,0.5-1.3c0.2-0.5,0.4-0.9,0.7-1.3c0.2-0.4,0.4-0.8,0.5-1.3
			c-0.1,0.1-0.2,0.2-0.3,0.4c-1.3,2.2-2.6,4.4-3.9,6.6c-1.2,2-2.3,3.9-3.4,5.9c-0.6,0.9-1.2,1.8-1.9,2.6c-0.2,0.2-0.4,0.7-0.9,0.4
			c0,0-0.2,0.1-0.2,0.1c0,0.6-0.4,0.4-0.6,0.4c-0.3,0-0.5-0.1-0.5,0.4c-0.8-0.2-1.4-0.6-1.9-1.2c-0.5-0.6-1-1.2-1.5-1.8
			c-0.1-0.1-0.2-0.1-0.4-0.1c-0.3,0-0.6-0.1-1.1-0.1c-0.2,0.2-0.5,0.5-0.8,0.7c-0.3,0.2-0.6,0.3-0.9,0.1c-0.2-0.1-0.4,0-0.6,0
			c-1.1,0.5-2.2,1.2-3.4,1.6c-3.1,1.1-6,2.8-9.2,3.8c-2.6,0.8-5.1,1.8-7.7,2.7c-2.8,1-5.6,2.1-8.4,3.1c-2,0.8-4.1,1.5-6.1,2.3
			c-0.7,0.2-1.3,0.4-2,0.6c1.3-0.7,2.6-1.3,3.9-2c0.1-0.1,0.2-0.2,0.2-0.3c0.3-0.1,0.5-0.1,0.8-0.2c0.7-0.2,1.3-0.5,2-0.8
			c0,0,0,0.1,0,0.1c-0.2,0.1-0.4,0.2-0.6,0.3c0.2,0,0.4-0.1,0.6-0.1c3.5-1.2,7-2.5,10.5-3.7c2.9-1.1,5.9-2.2,8.8-3.3
			c0.9-0.4,1.9-0.8,2.8-1.1c-0.2-0.2-0.3-0.4-0.4-0.6c-0.4,0.3-0.7,0.7-1.1,0.9c-0.2,0.2-0.6,0.3-0.9,0.2c-0.2,0-0.3-0.4-0.5-0.6
			c-0.4,0.3-0.7,0.7-1.1,1c-0.2,0.1-0.5,0.3-0.7,0.2c-0.2,0-0.3-0.3-0.5-0.4c-0.3,0.3-0.6,0.7-1,1c-0.5,0.5-0.7,0.5-1.2-0.1
			c-0.1,0.2-0.3,0.3-0.4,0.5c-0.3,0.2-0.5,0.6-0.9,0.4c-0.2-0.1-0.2-0.5-0.3-0.8c-0.3,0.3-0.6,0.7-0.9,1.1c-0.4,0.4-0.7,0.8-1.1,1.1
			c-0.1,0.1-0.4,0.1-0.5,0c-0.1,0-0.1-0.3-0.1-0.5c0-0.1,0-0.1,0-0.3c-0.4,0.3-0.7,0.6-1,0.8c-0.2,0.1-0.5,0.2-0.7,0.2
			c-0.1,0-0.2-0.3-0.3-0.6c-0.1,0.1-0.2,0.2-0.3,0.4c-0.4,0.4-0.8,0.8-1.2,1.1c-0.1,0.1-0.4,0.1-0.5,0.1c0-0.2,0-0.3,0-0.5
			c0-0.2,0.1-0.3,0.2-0.5c-0.5,0.5-0.9,1-1.4,1.5c-0.1,0.1-0.4,0.2-0.6,0.3c-0.1-0.2-0.1-0.4-0.2-0.6c-0.5,0.1-0.8,1.3-1.6,0.5
			c-0.3,0.2-0.6,0.5-0.9,0.7c-0.1,0.1-0.3,0-0.5,0c0,0,0-0.3,0-0.4c0.1-0.2,0.2-0.4,0.3-0.7c-0.2,0.1-0.3,0.2-0.4,0.3
			c-0.4,0.4-0.9,0.8-1.3,1.3c-0.3,0.3-0.7,0.4-1,0.1c-0.6,0.6-1.2,1.1-1.8,1.7c-0.2-0.1-0.4-0.1-0.7-0.2c-0.1,0.2-0.3,0.4-0.5,0.6
			c-0.3,0.3-0.5,0.3-0.7,0c-0.5,0.1-0.6,1.1-1.3,0.4c-0.3,0.3-0.7,0.7-1,1.1c-0.1,0.1-0.3,0-0.4,0.1c0-0.1,0-0.3,0-0.4
			c0-0.1,0.1-0.2,0.1-0.3c0,0-0.1-0.1-0.1-0.1c-0.3,0.3-0.5,0.6-0.8,0.8c-0.1,0.1-0.3,0.1-0.4,0.1c0-0.1-0.1-0.3-0.1-0.4
			c0-0.1,0-0.1,0.1-0.2c0,0,0,0-0.1,0c-0.2,0.2-0.4,0.5-0.6,0.7c0.1,0,0.1,0,0.2,0C48.7,84.8,48.7,85.1,48.8,85.4z M82.7,69.8
			c-0.5,0.1-1,0.3-1.3,0.4c-0.5,0.9-0.9,1.6-1.3,2.4c0.1,0,0.1,0.1,0.2,0.1C81.1,71.7,81.9,70.8,82.7,69.8c0.6,0.2,0.6,0.2,0.2,0.8
			c-0.2,0.3-0.4,0.6-0.6,0.9c0,0,0.1,0.1,0.1,0.1c0.6-0.7,1.2-1.5,1.8-2.2c0,0,0-0.1-0.1-0.1C83.7,69.5,83.2,69.6,82.7,69.8z
			 M66.9,40c0,0,0.1,0.1,0.1,0.1c-0.1,0.2-0.1,0.4-0.2,0.6c-0.2,0.3-0.4,0.6-0.6,0.9c-0.6,1.2,0,2.4,1.3,2.7
			c0.7,0.1,1.2-0.3,1.7-0.7c1.2-0.9,1.4-1.8,0.8-3.2c0-0.1-0.1-0.2-0.1-0.3c-0.1-0.1-0.2-0.4-0.4-0.4c-0.4-0.1-0.9,0-1.3-0.2
			C67.7,39.4,67.3,39.6,66.9,40z M61.7,49.9c0.8,0.6,1.5,1.2,2.1,1.6c0.8-0.3,1.6-0.6,2.3-0.8c0.1,0,0.2-0.1,0.2-0.2
			c0.1-0.5,0.1-1.1,0.2-1.8c-0.9,0.3-1.6,0.6-2.3,0.9c-0.1,0-0.2,0.1-0.3,0.1c-0.7-0.2-1.4-0.2-1.9-0.8c-0.1-0.1-0.2-0.1-0.3-0.2
			C61.7,49.2,61.7,49.7,61.7,49.9z M10.8,73.9c1-0.3,1.9-0.6,2.9-1c-0.4-0.7-0.9-1.5-1.2-2.2c-1,0.2-1.9,0.3-2.7,0.5
			C10.2,72.2,10.5,73.1,10.8,73.9z M97.9,68.9c0,0,0.1,0,0.1,0c0.2-0.2,0.3-0.5,0.5-0.7c0.1-0.1,0.2-0.1,0.3-0.2
			C98.8,68,99,68,99,67.9c1.2-2,2.4-4,3.7-6c0.2-0.3,0.3-0.6,0.3-0.9c0-0.3-0.2-0.5-0.4-0.9c-0.1,0.3-0.1,0.4-0.2,0.6
			c-0.3,0.9-0.6,1.8-0.9,2.6c-0.1,0.1-0.3,0.2-0.4,0.3c-0.1-0.2-0.2-0.3-0.3-0.5c0-0.3,0-0.5,0.1-0.8c-0.2,0.1-0.2,0.3-0.3,0.5
			c-0.3,1-0.5,2-0.8,3c-0.1,0.2,0,0.7-0.4,0.6c-0.4-0.1-0.2-0.4-0.2-0.7c0-0.4,0.1-0.8,0.2-1.1c0,0-0.1,0-0.1,0
			C98.8,65.9,98.3,67.4,97.9,68.9z M98,66.6C97.9,66.6,97.9,66.5,98,66.6c-0.2,0.2-0.3,0.5-0.4,0.7c-0.4,0.9-0.7,1.8-1.1,2.8
			c-0.1,0.2-0.3,0.2-0.4,0.4c0-0.2-0.1-0.4-0.1-0.6c0.3-0.9,0.7-1.8,1.1-2.8c0.1-0.2,0.1-0.4,0.2-0.5c0,0-0.1,0-0.1-0.1
			c-1.2,1.6-1.7,3.5-2.4,5.5c0.8-0.2,1.6-0.1,2.1-0.8c0.4-0.6,0.7-1.3,1.1-2c-0.7,0-0.5-0.4-0.4-0.8C97.6,67.8,97.8,67.2,98,66.6z
			 M32.5,58.9c-0.3-0.1-0.5-0.3-0.6-0.3c-0.4,0.1-0.6-0.1-0.8-0.3c-0.3-0.3-0.7-0.5-1-0.7c-0.2,0.3-0.5,0.6-0.7,0.9
			c-0.2,0.2-0.3,0.4-0.5,0.6c-0.2,0.3-0.2,0.5,0.1,0.7c0.6,0.3,1.1,0.6,1.8,0.9C31.4,60.1,31.9,59.5,32.5,58.9z M13.4,62.3
			c0.9,0.4,1.6,0.8,2.5,1.2c0.2-0.9,0.3-1.7,0.5-2.6c-0.6-0.2-1.3-0.4-2-0.7C14,60.9,13.7,61.6,13.4,62.3z M22.6,64.2
			c0.6,0.2,1.2,0.4,1.7,0.6c0.1,0,0.2,0,0.2-0.1c0.4-0.4,0.7-0.9,1.1-1.4c-0.5-0.3-0.9-0.6-1.3-0.8c-0.1-0.1-0.4-0.1-0.5,0
			C23.4,63.1,23,63.6,22.6,64.2z M48.2,80.8c0.3-0.3,0.5-0.6,0.8-0.9c-2.2-0.4-4.1-1-5.8-2.3c0.3,0.4,0.7,0.9,1.1,1.1
			c0.4,0.2,0.6,0.3,0.5,0.7c0.2-0.1,0.3-0.2,0.5-0.3c0.1,0.2,0.1,0.4,0.1,0.5c0,0.3,0,0.7,0,1c0.1-0.2,0.2-0.5,0.3-0.7
			c0.1-0.2,0.3-0.4,0.5-0.5c0.1,0.2,0.1,0.4,0.2,0.7c0,0,0,0,0.1,0.1c0.1-0.2,0.3-0.3,0.4-0.5c0.1-0.1,0.2-0.1,0.3-0.2
			c0,0.1,0.1,0.2,0.1,0.3c0,0.2,0,0.4,0,0.6c0.2-0.1,0.4-0.2,0.7-0.3C48,80.3,48.1,80.5,48.2,80.8z M83.7,46.8
			c-0.9-0.5-1.8-1-2.6-1.4c0.1,0.6,0.1,1.2,0.2,1.9c0.7,0,1.4,0,2.2,0C83.5,47.2,83.6,47,83.7,46.8z M102.7,57.7
			c-0.1,0-0.1-0.1-0.2-0.1c-0.9,1.3-1.8,2.6-2.7,3.9c0.2,0.1,0.4,0.2,0.6,0.3c0.2-0.6,0.4-1.2,0.7-1.7c0-0.1,0.2-0.2,0.3-0.3
			c0.1,0.1,0.2,0.2,0.2,0.4c0,0.3,0,0.6,0,0.9c0,0,0.1,0,0.1,0C102,60,102.4,58.9,102.7,57.7z M107.3,53.2c-0.4-0.1-0.6-0.1-0.8,0.2
			c-1,1.1-1.2,2.5-1.6,3.9C105.7,55.9,106.5,54.6,107.3,53.2z M78,71.4c-0.3,0.1-1.1,0.2-1.5,0.7c-0.5,0.5-0.7,1.3-1.1,1.9
			c0.1,0,0.1,0.1,0.2,0.1C76.5,73.1,77.3,72.1,78,71.4z M79,71.5c-0.4,0.6-0.8,1.2-1.2,1.9c0.1,0,0.1,0.1,0.2,0.1
			c0.8-0.9,1.6-1.9,2.5-2.8c0,0-0.1-0.1-0.1-0.1c-0.6,0.2-1.1,0.4-1.7,0.6C78.8,71.3,78.9,71.4,79,71.5z M40.1,76
			C40.1,76,40,76,40.1,76c0.2,0.7,0.5,1.3,0.7,2c0.3,0.8,0.6,1.5,1,2.3c0.2,0.3,0.5,0.6,0.8,0.9c0,0,0.1-0.1,0.1-0.1
			C41.9,79.4,41,77.7,40.1,76z M40.6,51.6c-0.4-0.5-0.7-0.5-1.3,0c-0.3,0.2-0.3,0.7,0,1.1c0.2,0.3,0.4,0.3,0.6,0
			C40.1,52.4,40.3,52,40.6,51.6z M65,78c0.8-0.8,1.6-1.7,2.4-2.6C66.2,75.4,65.4,76.3,65,78z M69.5,74.7c0-0.1-0.1-0.1-0.1-0.2
			c-0.5,0.3-1.1,0.2-1.4,0.9c-0.2,0.5-0.6,1-0.9,1.5c0.1,0,0.1,0.1,0.2,0.1C68,76.3,68.8,75.5,69.5,74.7z M55.5,81.1
			c0,0,0.1,0.1,0.1,0.1c0.8-1,1.6-2.1,2.5-3.1c0,0-0.1-0.1-0.1-0.1c-0.4,0.1-0.7,0.2-1,0.3c-0.1,0.3-0.1,0.5-0.2,0.7
			C56.4,79.8,56,80.4,55.5,81.1z M92.6,70.4c0.2-0.7,0.4-1.3,0.6-1.9c0,0-0.1-0.1-0.1-0.1c-0.5,0.3-0.9,0.7-1.4,1.1
			C92,69.8,92.3,70.1,92.6,70.4z M58.1,79.5c0.6-0.6,1.4-1.3,2.2-2c-0.3,0-0.7,0.1-0.9,0.3C58.8,78.3,58.4,79,58.1,79.5z M75.2,72.7
			c0-0.1,0-0.1-0.1-0.2c-0.2,0-0.6,0-0.6,0.2c-0.4,0.6-0.7,1.3-1,1.9c0,0,0.1,0,0.1,0.1C74.2,74,74.7,73.3,75.2,72.7z M39,71.9
			c-0.3-1.3-0.6-2.6-0.9-3.8C38,69.4,38.4,70.7,39,71.9z M62.1,77c-0.1,0-0.1-0.1-0.2-0.1c-0.9,0.3-1.1,1.2-1.6,1.9
			c0,0,0.1,0.1,0.1,0.1C61,78.2,61.6,77.6,62.1,77z M74.5,52.4c0,0.1,0.1,0.2,0.1,0.3c0.7-0.3,1.4-0.6,2.1-0.8
			C75.9,52,75.1,52,74.5,52.4z M63.5,77.9c0,0,0.1,0.1,0.1,0.1c0.4-0.6,0.9-1.1,1.4-1.8c-0.5,0.1-0.7,0.1-0.8,0.5
			C64.1,77.1,63.7,77.5,63.5,77.9z M38.1,63.6c-0.1,0-0.1,0-0.2,0c0.1,1.2,0.3,2.4,0.4,3.5c0,0,0.1,0,0.1,0
			C38.3,66,38.2,64.8,38.1,63.6z M80.8,73.1C80.8,73.1,80.8,73.1,80.8,73.1c0.4-0.1,0.8-0.2,1.3-0.4c-0.2-0.2-0.4-0.3-0.4-0.3
			C81.3,72.6,81,72.9,80.8,73.1z M85,39.6c-0.3,0.4-0.5,0.8-0.8,1.3C84.9,40.5,85.1,40.3,85,39.6z M62.2,78c0,0,0.1,0.1,0.1,0.1
			c0.4-0.5,0.8-0.9,1.2-1.4c-0.1,0-0.1-0.1-0.2-0.1C62.9,77.1,62.6,77.6,62.2,78z M45.8,81.2c0,0-0.1,0-0.1-0.1
			c-0.2,0.3-0.3,0.7-0.5,1c0,0.1,0,0.2,0,0.3c0.1,0,0.2-0.1,0.3-0.1C45.6,81.9,45.7,81.6,45.8,81.2z M46.4,82
			c-0.2,0.3-0.4,0.5-0.6,0.8C46.1,83,46.3,82.9,46.4,82z M104.1,58.8c0.2-0.3,0.3-0.6,0.5-0.9C104.1,57.8,104,58,104.1,58.8z
			 M82.7,72.3C82.7,72.3,82.7,72.3,82.7,72.3c0.3,0,0.6-0.1,0.8-0.3c0-0.2-0.1-0.3-0.1-0.6C83.2,71.7,82.9,72,82.7,72.3z
			 M103.1,57.2c0,0,0.1,0.1,0.1,0.1c0.3-0.5,0.6-0.9,0.9-1.4c0,0-0.1,0-0.1-0.1C103.7,56.3,103.4,56.8,103.1,57.2z M46.9,80.5
			c-0.1,0-0.1,0-0.2-0.1c-0.2,0.4-0.3,0.8-0.5,1.2c0.1,0,0.1,0.1,0.2,0.1C46.6,81.3,46.8,80.9,46.9,80.5z M50,80.2
			c0-0.1-0.1-0.2-0.1-0.3c-0.2,0.1-0.4,0.2-0.7,0.3c0,0.1,0.1,0.2,0.1,0.2C49.5,80.4,49.7,80.3,50,80.2z"/>
		<path class="st1" d="M48.7,55.8c0.1,0,0.1,0,0.1,0c0.4,0.7,1.2,0.5,1.8,0.8c0.3,0.1,0.7,0.4,0.9,0.7c0.2,0.2,0.3,0.3,0.6,0.2
			c0.5-0.2,1.1-0.3,1.7-0.5c-0.4-0.4-0.8-0.7-1.2-0.9c-0.6-0.2-0.8-0.7-1.2-1.1c-0.6-0.6-0.9-1.3-1-2.2c0-0.4-0.6-0.8-0.9-1.3
			c0.2-0.2,0.4-0.1,0.7,0.1c0.5,0.5,1.1,0.8,1.7,1.2c0.1,0.1,0.2,0,0.3,0c0.2,0,0.4-0.1,0.6-0.1c0.4-0.1,1,0,1.2-0.2
			c0.4-0.5,0.5-1.2,0.8-1.9c-0.9,0-1.7,0-2.4,0c0.1,0.1,0.4,0.3,0.6,0.5c0,0-0.1,0.1-0.1,0.1c-0.2-0.1-0.3-0.1-0.5-0.2
			c-0.9-0.5-1.7-1-2.6-1.6c-0.6-0.4-1.2-0.5-1.8-0.1c-0.1,0.1-0.3,0.1-0.5,0.2c-0.5,0.1-0.9,0.1-1.4,0.2c-0.1,0-0.2,0.2-0.3,0.3
			c-0.4,0.5-0.7,1-1.1,1.4c-0.1,0.1-0.4,0.2-0.6,0.3c0,0-0.1-0.1-0.1-0.1c0.1-0.1,0.2-0.3,0.3-0.4c0.4-0.5,0.7-0.9,1.1-1.4
			c0.3-0.3,0.2-0.5,0-0.8c-0.7-0.7-0.9-1.6-0.9-2.5c0-0.4,0.3-0.8,0.4-1.2c0.4-1,1.3-0.9,2.2-0.9c0.1,0,0.2,0,0.3,0
			c1-0.3,2.1,0.3,2.4,1.3c0.1,0.3,0.2,0.6,0.2,0.9c0,0.2-0.2,0.4-0.2,0.6c-0.1,0.1-0.1,0.2-0.2,0.3c-0.1,0.4-0.2,0.9-0.3,1.4
			c0.7,0.4,1.5,0.8,2.2,1.2c0.1,0.1,0.4,0.1,0.5,0c0.6-0.1,1.3-0.2,1.9-0.3c0.3,0,0.6,0.1,1,0.1c0.5-1.1,1.3-2.2,2.3-2.9
			c-0.5-0.6-1-1.1-1.4-1.7c-0.2-0.3-0.3-0.9-0.2-1.2c0.5-1.6,1.4-2.7,3.3-2.4c0.8,0.1,1.3,0.5,1.8,1c0.8,0.7,0.8,1.6,0.7,2.5
			c0,0.2-0.3,0.4-0.4,0.5c-0.4,0.4-0.7,0.8-1.1,1.2c0.2,0.3,0.4,0.7,0.6,1.2c-0.1,0-0.2,0.1-0.2,0.1c-0.2-0.3-0.4-0.5-0.5-0.8
			C60.1,47,60,46.9,59.6,47c-0.4,0.1-0.8,0-1.3,0.1c-0.2,0-0.4,0.2-0.5,0.3c-0.2,0.1-0.2,0.4-0.4,0.4c-0.7,0.3-0.9,1-1.3,1.6
			c-0.4,0.7-0.7,1.4-1.1,2.1c-0.1,0.2-0.2,0.4-0.2,0.6c0,0.8-0.4,0.9-1.1,0.9c-0.4,0-0.8,0.2-1.3,0.2c-0.4,0-0.8-0.1-1.3-0.2
			c-0.2,0.8-0.1,0.9,0.5,1.3c0.3,0.2,0.5,0.3,0.9,0.5c-0.2,0-0.3,0-0.5,0.1c0.6,0.5,1.2,0.9,1.8,1.2c0.1,0.1,0.3,0.1,0.4,0.2
			c0.4,0.3,0.4,0.3,0.9,0.1c-0.2-1-0.3-2.1-0.5-3.1c0.1,0,0.1,0,0.2,0c0.1,0.4,0.3,0.7,0.4,1.1c0.1,0.6,0.2,1.1,0.4,1.7
			c0.2,0.5,1,0.7,1.3,0.3c0.1-0.1,0.1-0.4,0.1-0.5c-0.1-0.4-0.3-0.9-0.4-1.3c-0.1-0.6-0.1-1.2-0.2-1.8c0.1,0,0.1,0,0.2-0.1
			c0.1,0.1,0.2,0.2,0.2,0.4c0.1,0.8,0.3,1.6,0.4,2.4c0.1,0.5,0.3,0.5,0.7,0.3c-0.1-0.3-0.3-0.5-0.4-0.8c0,0,0.1-0.1,0.1-0.1
			c0.1,0.1,0.3,0.2,0.4,0.3c0.3,0.4,0.6,0.4,1,0.2c0.2-0.1,0.3-0.2,0.5-0.3c0.6-0.4,1.1-0.2,1.2,0.6c-0.3,0-0.6,0.1-0.9,0.1
			c0,0,0,0,0-0.1c0.1,0,0.2-0.1,0.3-0.1c0.1-0.1,0.1-0.2,0.1-0.3c-0.1,0-0.2-0.1-0.3-0.1c0,0-0.1,0-0.1,0.1
			c-0.4,0.7-1.2,0.7-1.9,0.9c-0.1,0-0.3,0.1-0.3,0.1c-0.2,0.8-1,0.4-1.4,0.8c0,0-0.1,0-0.2,0c-0.6-0.4-1.1-0.1-1.6,0.1
			c-0.7,0.2-1.4,0.5-2.1,0.7C52,58,51.9,58.1,52,58.5c0.3,1.3,0,2.6-0.2,3.9c-0.1,0.6-1.2,0.8-1.8,0.3c0.3,0,0.5,0,0.8,0
			c0.4,0,0.6-0.2,0.7-0.6c0.1-1.3,0.2-2.6,0.2-3.9c0-0.7-0.6-1.5-1.6-1.4C49.3,56.7,48.9,56.5,48.7,55.8z M60.8,42.9
			c0,0,0.1-0.1,0.1-0.1c-0.2-0.1-0.4-0.4-0.7-0.4c-1.2-0.2-2.4-0.1-3.3,0.8c-0.4,0.4-0.7,1-0.4,1.5c0.5,0.8,0.9,1.6,2,1.8
			c0.9,0.1,1.6,0,2.2-0.7c0,0,0.1-0.1,0.1-0.1c0.6-0.7,0.9-1.5,0.1-2.2c-0.3-0.2-0.5-0.4-0.8-0.7c0,0,0,0,0,0
			C60.4,42.8,60.6,42.8,60.8,42.9z M45.9,48.2c0,0,0.1-0.1,0.1-0.1c0.1,0.1,0.2,0.2,0.3,0.3c0.4,0.2,0.9,0.5,1.3,0.5
			c0.5,0,1.1-0.3,1.6-0.6c0.2-0.2,0.2-0.7,0.3-1c0.1-0.3,0.2-0.6,0.3-0.8c0-0.1,0-0.2,0-0.2c-0.3-0.3-0.5-0.8-0.9-1
			c-0.5-0.3-1-0.4-1.6-0.5c-0.8-0.2-1.9,0.6-2,1.5c0,0.9,0.2,1.7,0.7,2.5c0.1,0.1,0.2,0.2,0.3,0.3c0,0,0-0.1,0.1-0.1
			C46.2,48.6,46,48.4,45.9,48.2z M57.4,42.3c0.9-0.7,1.8-0.3,2.7-0.3C59.6,41.6,57.8,41.8,57.4,42.3z"/>
		<path class="st1" d="M31.4,86.8c-0.2-1.1-0.3-1.2-1.4-0.8c-1.9,0.8-3.8,1.5-5.8,2.3c-0.2,0.1-0.3,0.1-0.5,0.1
			c-0.4,0.1-0.7,0.2-1-0.2c-0.3-0.4-0.4-0.8-0.2-1.2c0.3-0.6,0.6-1.3,1-1.9c0.7-1.2,1.4-2.4,2.1-3.6c0-0.1,0.1-0.1,0.1-0.3
			c-0.1-0.1-0.3-0.2-0.4-0.3c-0.5-0.3-0.7-0.7-0.8-1.2c0-0.8-0.1-0.8,0.7-1.1c0.1,0,0.3-0.2,0.3-0.3c0.5-1.2,1.6-1.8,2.5-2.6
			c0.9-0.8,2-1.3,3.2-1.6c-0.4-0.3-0.8-0.6-1.2-0.8c0,0.1-0.1,0.2-0.2,0.4c-0.2-0.2-0.3-0.3-0.3-0.5c-0.3-0.5-0.5-1-0.8-1.4
			c-0.1-0.1-0.3-0.2-0.5-0.4c0.6-0.3,1.1-0.6,1.7-0.9c0.2-0.1,0.5-0.1,0.7-0.2c0.2-0.1,0.4-0.3,0.6-0.4c0.2-0.1,0.3-0.2,0.5-0.2
			c1.1-0.1,2.2-0.2,3.3-0.4c0.4,0,0.7-0.1,1.1-0.1c0,0.1,0.1,0.1,0.1,0.2c-0.1,0-0.2,0.1-0.2,0.1c-0.9,0.3-1.7,0.5-2.6,0.7
			c-0.1,0-0.3-0.2-0.6-0.3c-0.8,0.2-1.7,0.7-2.5,1.4c0,0-0.1,0.1-0.1,0.1c-0.2,0.1-0.5-0.1-0.5,0.3c0.1,0.4,0.2,0.7,0.7,0.9
			c0.4,0.1,0.7,0.4,1,0.7c0.1,0.1,0.1,0.3,0,0.5c0,0,0,0.1,0.1,0.1c0.7,0.7,0.7,0.8-0.3,1.1c-0.6,0.2-1.1,0.3-1.7,0.4
			c-0.1,0-0.2-0.1-0.3-0.1c-0.7,0.5-1.5,0.9-2.2,1.6c-0.4,0.4-0.6,1-0.9,1.6c-0.9-0.3-0.5,0.8-1.1,1c0.4,0.3,0.8,0.5,1.1,0.8
			c0.3,0.2,0.5,0.4,0.1,0.7c-0.1,0.1-0.2,0.2-0.3,0.3c-1,1.7-1.9,3.4-2.9,5c-0.2,0.3-0.3,0.6-0.4,0.9c-0.1,0.6,0.2,0.9,0.8,0.7
			c0.7-0.2,1.3-0.5,2-0.8c1.4-0.6,2.9-1.2,4.3-1.7c0.4-0.1,0.9-0.1,1.3,0c0.2,0.1,0.4,0.4,0.5,0.7c0.3,0.9,1,1.2,1.9,1
			c0.7-0.2,1.1-0.6,1.5-1.1c0.1-0.1,0.3-0.1,0.4-0.2c0.2-0.1,0.3-0.1,0.4-0.2c0.6-0.6,1.2-1.2,1.7-1.8c0.7,0.2,1.2,0.4,1.8,0.5
			c0.3,0.1,0.4,0,0.4-0.4c0-0.2,0-0.4,0.1-0.5c0.3-0.4,0.6-0.8,0.9-1.1c0.1-0.1,0.2-0.2,0.3-0.5c-0.6,0.2-0.8-0.2-1-0.5
			c-1-1.4-2-2.9-2.9-4.3c-0.2-0.2-0.4-0.5-0.2-0.8c0-0.1,0-0.2-0.1-0.3c-0.8-1.6-0.9-3.3-1-5c0-0.4,0-0.7,0.1-1.2
			c0,0.2,0.1,0.4,0.1,0.5c0.1,0.3,0.2,0.7,0.4,1c0,0.1,0,0.1,0,0.2c-0.2,1.8,0.4,3.5,1.1,5.1c0.6,1.3,1.4,2.5,2.3,3.6
			c0.5,0.6,1,1.2,1.4,1.8c-0.1,1-0.7,1.6-1.3,2.2c-0.1,0.1-0.2,0.4-0.3,0.6c-0.3-0.1-0.7-0.2-1.1-0.4c-0.7-0.4-0.8-0.4-1.4,0.2
			c-0.7,0.7-1.3,1.4-2,2c-0.6,0.6-1.2,1.1-1.8,1.6c-0.5,0.4-1,0.4-1.5,0.2c-0.4-0.2-0.8-0.5-1.2-0.7c-0.2-0.2-0.3-0.4-0.4-0.7
			c0,0,0.1,0,0.1-0.1c0.4,0.3,0.8,0.7,1.1,1c-0.5-0.6-0.9-1.3-0.9-2.2C31,86.3,31.2,86.6,31.4,86.8c0.1,0.6,0.4,1,1,1.2
			c0.5,0.1,1,0.1,1.4-0.3c-0.4,0-0.8,0-1.2-0.1C32.1,87.5,31.8,87.1,31.4,86.8z"/>
		<path class="st1" d="M74.1,36c0,0-0.1-0.1-0.1-0.1c-1,0.1-1.9-0.3-2.9-0.3c-1.1,0-1.9,0.5-2.6,1.3c-0.2,0.2-0.4,0.5-0.7,0.6
			c-1.9,1-4,1.6-6.2,1.7c-0.7,0-1.4,0.2-2.2,0.2c-0.3,0-0.7-0.1-1.2-0.1c0.5-0.4,0.9-0.8,1.3-1.1c0.5-0.3,0.8-0.8,0.9-1.4
			c-0.8-0.5-1.7-1-2.5-1.5c0.1-0.3,0.1-0.5,0.2-0.7c0.1,0,0.2,0,0.3,0.1c0.7,0.1,1.4,0.4,2.1,0.4c1.1-0.1,2.3-0.5,3.4-0.8
			c1.4-0.4,2.4-1.4,3.5-2.3c0.2-0.2,0.4-0.5,0.8-0.3c0.1,0,0.3-0.1,0.4-0.2c1.7-1.2,3.6-1.4,5.6-1.4c0.1,0,0.1,0.1,0.2,0.2
			c-0.4,0-0.8,0.1-1.3,0.1c-1.5,0.1-2.9,0.4-4.2,1.3c-0.2,0.2-0.4,0.4-0.6,0.7c-0.2,0.2-0.3,0.3-0.5,0.4c-0.8,0.5-1.6,0.9-2.4,1.4
			c-1.2,0.7-2.6,1-4,1.2c-0.8,0.1-1.6,0-2.5,0c0.4,0.2,0.9,0.5,1.3,0.7c1.1,0.5,1.2,0.9,0.4,1.7c-0.3,0.3-0.7,0.6-1.1,1
			c0.3,0,0.5,0,0.8,0c1.1-0.1,2.3-0.2,3.4-0.4c2-0.4,3.9-1.1,5.3-2.7c0.2-0.3,0.7-0.4,0.7-0.9c0,0,0.1-0.1,0.2-0.1
			c0,0.2,0,0.5,0,0.8c1.5-0.5,3-0.3,4.5-0.2c0.2-1.1,0.3-2.3,0.5-3.4c0.3,1.1-0.1,2.3,0,3.4c0.2,0.1,0.4,0.2,0.6,0.3
			c-0.1,0.1-0.1,0.1-0.1,0.1c-0.8,0.1-0.7,0.1-0.9,0.9c-0.4,1.5-0.2,3-0.1,4.6c0,0.1,0,0.3-0.1,0.4c-0.5-0.9-0.4-1.9-0.4-2.9
			C73.7,38,73.9,37,74.1,36z"/>
		<path class="st1" d="M82.5,77.2c-3.3,1.5-6.6,2.9-9.9,4.3c0,0,0,0.1,0.1,0.1c1.1-0.3,2.2-0.6,3.3-0.9c0,0,0,0.1,0,0.1
			c-0.2,0.1-0.4,0.2-0.6,0.3c-3.1,1-6.1,2-9.2,3.1c-1,0.3-1.8,0.8-2.8,1.2c-0.2,0.1-0.5,0.3-0.7-0.1c0-0.1-0.2,0-0.3,0
			c-0.4,0.1-0.9,0.3-1.3,0.4c-0.2,0-0.3,0-0.5,0c0-0.1,0-0.1,0-0.2c2.3-1,4.7-2.1,7-3.1c2.6-1,5.2-2.1,7.9-2.9
			c2.3-0.7,4.4-1.7,6.7-2.3C82.3,77.3,82.4,77.3,82.5,77.2z M73,81c-3.1,1-6.3,2.1-9.3,3.6C66.9,83.5,70,82.4,73,81z"/>
		<path class="st1" d="M68.4,47.9c0.2,0.1,0.5,0.1,0.6,0.3c0.4,0.3,0.7,0.7,1.1,1c0.2,0.1,0.4,0.2,0.6,0.2c0.5,0,1,0,1.4-0.1
			c0.3-0.1,0.6-0.3,0.7-0.5c0.4-1.1,0.7-2.2,1-3.4c0-0.1,0-0.2,0-0.2c0-0.2,0-0.5-0.1-0.7c0.1,0,0.1-0.1,0.2-0.1
			c-0.3-0.1-0.6-0.5-0.7-0.4c-0.3,0.2-0.7,0.5-0.8,0.9c-0.2,1-0.7,1.7-1.2,2.4c0,0-0.1,0-0.1,0.1c-0.4,0.1-1.2-0.3-1.5-0.7
			c0.2,0,0.3,0.1,0.4,0.1c1.1,0.1,1.2,0,1.6-0.9c0.2-0.5,0.4-1.1,0.7-1.6c0.1-0.2,0.4-0.3,0.6-0.5c0.1-0.1,0.3-0.3,0.3-0.4
			c0.1-0.8,1-1.3,1.7-0.8c0.2,0.2,0.3,0.5,0.3,0.8c0.1,0.5,0,1.1,0.1,1.6c0,0.3,0.1,0.5,0.2,0.8c0,0.1,0.1,0.2,0.1,0.2
			c-0.2,0.8-0.4,1.6-1.1,2c-0.2,0.1-0.5,0.1-0.7,0.2c-0.2,0.1-0.4,0.1-0.5,0.3c-0.1,0.2-0.2,0.6,0,0.8c0.3,0.4,0.7,0.7,1.1,1.1
			c0.4,0.4,0.9,0.7,1,1.4c0,0-0.1,0.1-0.1,0.1c-0.4-0.4-0.7-0.8-1.1-1.2c-0.4-0.4-0.8-0.8-1.3-1.2c-0.7,0.7-1.6,0.4-2.4,0.3
			c-0.7-0.1-1.6-0.8-2.2-1.5C68.4,48,68.4,47.9,68.4,47.9z M73.9,42.5c0,0.5-0.3,1.1,0.4,1.5c0.1,0,0.1,0.2,0.1,0.3
			c-0.1,0.7-0.2,1.5-0.3,2.2c-0.1,0.4-0.1,0.7-0.2,1.1c0.7,0,1.4-1.1,1.3-1.8C75.1,45,75,44.2,75,43.4C75,42.5,74.8,42.4,73.9,42.5z
			"/>
		<path class="st1" d="M32,90.7c0.2,0,0.4-0.1,0.6-0.1c0.5-0.1,0.5-0.1,0.3-0.5c0.4,0,0.8-0.1,1.1,0c0.8,0.1,1.4-0.2,1.8-0.8
			c0.2-0.3,0.3-0.6,0.6-0.8c0.2-0.1,0.5-0.1,0.7-0.2c0,0.2,0.1,0.5,0,0.6c-0.7,1.1-1.7,1.7-2.9,1.9c-0.6,0.1-1.2,0.1-1.8,0.2
			c-0.1,0-0.3-0.1-0.4-0.1C32,90.8,32,90.7,32,90.7z"/>
		<path class="st1" d="M24.8,75.7c0,0.1,0,0.1,0,0.2c-0.4,0.4-0.8,0.8-1.2,1.3c-0.3,0.3-0.5,0.7-0.7,1.1c-0.2,0.3-0.2,0.3-0.5,0.1
			c-0.6,0.7-0.9,1.5-0.9,2.5c-0.3,0.1-0.5-0.1-0.5-0.4c0.1-0.5,0.2-1,0.3-1.4c0.6-1.5,1.8-2.4,3.1-3.3c0.1,0,0.1-0.1,0.2-0.1
			C24.7,75.6,24.7,75.7,24.8,75.7z"/>
		<path class="st1" d="M72.4,85.4c-2.5,0.9-5,1.9-7.4,2.8c0,0,0-0.1-0.1-0.1c0.1-0.1,0.3-0.2,0.5-0.4c-0.3,0-0.5,0-0.7,0.1
			c0,0,0-0.1,0-0.1C67.2,87.1,69.6,85.5,72.4,85.4z"/>
		<path class="st1" d="M67,34.2c-0.1,0.2-0.2,0.4-0.3,0.5c-0.5,0.4-1.1,0.7-1.7,1c-0.2,0.1-0.3,0.2-0.4,0.3c0.1,0.4,0.3,0.8,0.3,1.2
			c0,0.1-0.1,0.3-0.2,0.4c-0.2-0.1-0.4-0.1-0.5-0.2c-0.1-0.3-0.2-0.7-0.2-1.1c-0.3,0.1-0.6,0.1-1,0.2c0.1-0.7,0.7-0.6,1-0.9
			c0.6-0.4,1.3-0.8,2-1.2c0.2-0.1,0.5-0.2,0.8-0.3C66.9,34.1,67,34.1,67,34.2z"/>
		<path class="st1" d="M83.1,55.9c0.8-0.7,1.6-1.4,2.3-2.1c0,0-0.1-0.1-0.1-0.1c-0.1,0.1-0.2,0.1-0.3,0.2c0,0,0-0.1,0-0.1
			c0.8-0.7,0.9-0.8,1.4-0.5C86,54.7,84,56.3,83.1,55.9z"/>
		<path class="st1" d="M60.7,55.9c-0.2,0.9-0.3,1.9-0.5,2.8c-0.2,1.1-0.2,1.1,0.9,1c0.3,0,0.7,0,1,0.1c-0.4,0.5-1,0.4-1.5,0.4
			c-0.9-0.1-1-0.3-0.9-1.1c0.1-0.9,0.4-1.9,0.6-2.8c0-0.1,0.2-0.3,0.2-0.4C60.6,55.9,60.7,55.9,60.7,55.9z"/>
		<path class="st1" d="M8.7,67.8c-0.7,0.6-1.2,1.4-1.1,2.4c0.1,0.9,0.8,1.6,1.3,2.3c-0.2-0.1-0.4-0.1-0.5-0.2
			c-1.5-1.2-1.9-3.1-0.4-4.5c0.1-0.1,0.4-0.1,0.5-0.2C8.6,67.7,8.6,67.8,8.7,67.8z"/>
		<path class="st1" d="M49,59.2c0.1,0.4,0.2,0.8,0.3,1.1c0.1,0.5,0.1,1,0.1,1.5c0,0.8,0.2,1,0.9,1.2c0.1,0,0.1,0.1,0.2,0.2
			c-0.5,0.3-1,0.2-1.2-0.3c-0.2-0.3-0.3-0.6-0.3-0.9c-0.1-0.9-0.1-1.7-0.2-2.6c0-0.1,0-0.2,0.1-0.3C48.8,59.3,48.9,59.3,49,59.2z"/>
		<path class="st1" d="M69.5,32.9c-0.7,0.5-1.3,0.9-1.8,1.3c0.2,0.3,0.3,0.5,0.5,0.8c0.5-0.2,1-0.5,1.4-0.7c0,0.1,0.1,0.1,0.1,0.2
			c-0.5,0.5-1.2,0.7-1.7,1.1c-0.2-0.1-0.3-0.2-0.5-0.3c-0.4-0.2-0.4-1.1,0-1.4c0.5-0.4,1.1-0.6,1.6-0.9
			C69.2,32.9,69.3,32.9,69.5,32.9z"/>
		<path class="st1" d="M61.8,35.8c0.1,0.5,0.2,0.9,0.3,1.4c0,0.4,0.3,0.5,0.6,0.4c0.3-0.1,0.6-0.1,0.5-0.6c0,0,0-0.1,0-0.2
			c0.2-0.1,0.4-0.1,0.6-0.2c0.1,0.8,0,1.1-0.6,1.3c-0.6,0.2-1.1,0.1-1.3-0.3C61.3,36.9,61.4,36.1,61.8,35.8z"/>
		<path class="st1" d="M109.9,56.8c0.4-1,0.8-2.1,1.2-3.1c0,0,0,0-0.1-0.1c-0.2,0.3-0.4,0.5-0.6,0.8c0,0-0.1,0-0.1-0.1
			c0.5-0.8,1-1.5,1.5-2.3C111.9,52.7,110.6,56.1,109.9,56.8z"/>
		<path class="st1" d="M65.3,37c-0.2-1.3,0.9-1.5,1.7-2.1c0.3,0.4-0.1,0.5-0.3,0.7c-0.2,0.2-0.6,0.3-0.8,0.5
			c-0.1,0.1-0.1,0.2-0.1,0.4c0.1,0,0.3-0.1,0.4-0.1c0.3-0.2,0.7-0.4,1-0.6C66.9,36.4,65.9,37,65.3,37z"/>
		<path class="st1" d="M70.5,33.8c0.7-0.7,1.1-0.2,1.6-0.1c0.1-0.1,0.1-0.3,0.2-0.3c0.1,0,0.4-0.1,0.5,0c0.2,0.2-0.3,1-0.5,0.9
			C71.7,34.3,71.2,34.1,70.5,33.8z"/>
		<path class="st1" d="M27.9,63.8c-0.1,1.4-1.7,2.8-2.5,2.3C26.6,65.8,27.2,64.8,27.9,63.8z"/>
		<path class="st1" d="M72.3,32.1c-0.7,0.1-1.3,0.2-1.9,0.8c-0.1-0.5,0.4-1.2,0.7-1.2c0.4,0,0.7,0.2,1.1,0.3
			C72.3,31.9,72.3,32,72.3,32.1z"/>
		<path class="st1" d="M55.9,33.6c0.4-0.8,1-1.3,1.9-1.3c0.8,0,1.5,0.1,2.3,0.1c0,0.1,0,0.1,0,0.2c-0.3,0-0.7,0-1-0.1
			C57.8,32.3,56.8,32.5,55.9,33.6z"/>
		<path class="st1" d="M72.3,32.2c0.4,0.1,0.8,0.2,1.1,0.3c-0.1,0.2-0.1,0.4-0.1,0.6c0,0.1-0.2,0.2-0.3,0.1c-0.1,0-0.3-0.1-0.4-0.2
			C73,32.6,72.4,32.6,72.3,32.2z"/>
		<path class="st1" d="M73.3,31c-0.9,0.2-1.9,0.3-2.9,0.5C71.3,30.9,72.3,30.9,73.3,31z"/>
		<path class="st1" d="M56.9,52.1c0.1-0.3,0.2-0.7,0.4-1c0,0,0.3,0,0.3,0.1C57.7,51.3,57.3,52,56.9,52.1z"/>
		<path class="st1" d="M48.8,85.4c0.3-0.1,0.6-0.1,0.9-0.2c0.2,0,0.3-0.1,0.5-0.2c-0.4,0.2-0.7,0.4-1.1,0.6
			C48.9,85.7,48.7,85.7,48.8,85.4z"/>
		<path class="st1" d="M69.5,53.7c0.6-0.1,1.1-0.2,1.7-0.4c0,0,0,0,0,0.1C70.7,53.6,70.1,53.7,69.5,53.7
			C69.6,53.8,69.6,53.8,69.5,53.7z"/>
	</g>
</g>
</svg>
