<?xml version="1.0" encoding="utf-8"?>
<!-- Generator: Adobe Illustrator 23.0.1, SVG Export Plug-In . SVG Version: 6.00 Build 0)  -->
<svg version="1.1" id="Layer_1" xmlns="http://www.w3.org/2000/svg" xmlns:xlink="http://www.w3.org/1999/xlink" x="0px" y="0px"
	 viewBox="0 0 100 53" style="enable-background:new 0 0 100 53;" xml:space="preserve">
<style type="text/css">
	.st0{fill:#124A85;}
</style>
<g>
	<path class="st0" d="M84.8,29.6l-0.9-1.4c-0.4-0.6-1.2-0.8-1.9-0.4l-0.4,0.3c0.9,1.6,1.5,3.1,1.9,4.5l0.9-1.2
		C85.1,31.1,85.2,30.2,84.8,29.6z"/>
	<path class="st0" d="M78.3,25.1c-4.2,2.6-8.5,5.1-13,7.5c8.3,4.4,17.4,9.3,17.4,9.3S85.7,35.7,78.3,25.1
		C78.3,25.1,78.3,25.1,78.3,25.1z"/>
	<path class="st0" d="M98.4,0c-1.2-0.2-2.9,0.2-4.7,0.8h0c-0.1,0-4.6,1.8-7.8,3.3C82.7,5.7,84.2,3,84.2,3s2.2-1.5,5.4-2.1
		c-0.6,0-1.2,0.1-1.7,0.2C83.1,2,81.8,2.6,70,10.6c-0.6,0.4-1.2,0.8-1.9,1.2c2-0.1,3.9-0.1,5.7-0.2l2.2-0.1l-1.1,1.9
		c-0.2,0.3-4.3,6.9-10,11.6c-5.7,4.6-10.3,5.6-10.8,5.7l-0.3,0.1L43,27.6c-9.9,6.1-18.3,11.1-18.3,11.1L5.8,38.6L0,41
		c0,0,8.9,6.9,14.6,9l1.2,2c0.7,1.1,2.2,1.4,3.3,0.7l4.9-3.2c5.1-1.6,11.8-4.7,20.1-8.6c12.1-5.7,27.7-13.3,40.5-21.7c0,0,0,0,0,0
		C99.2,11.3,102.4,0.7,98.4,0z"/>
	<path class="st0" d="M48.6,11.8C48.6,11.8,48.5,11.8,48.6,11.8l-1.8-2.3c-0.8-1-2.3-1.2-3.3-0.4l-3.7,2.8
		C42.4,11.8,45.4,11.8,48.6,11.8z"/>
	<path class="st0" d="M73.9,12.8c0,0-4.1,6.7-9.8,11.3c-5.7,4.6-10.3,5.5-10.3,5.5l-32.5-9.3c0,0,2.6-4.3,11.3-6.3
		C41.3,11.9,62.7,13.3,73.9,12.8z"/>
</g>
</svg>
