<?xml version="1.0" encoding="utf-8"?>
<!-- Generator: Adobe Illustrator 23.0.1, SVG Export Plug-In . SVG Version: 6.00 Build 0)  -->
<svg version="1.1" id="Layer_1" xmlns="http://www.w3.org/2000/svg" xmlns:xlink="http://www.w3.org/1999/xlink" x="0px" y="0px"
	 viewBox="0 0 100 53" style="enable-background:new 0 0 100 53;" xml:space="preserve">
<style type="text/css">
	.st0{fill:#124A85;}
</style>
<g>
	<path class="st0" d="M31.1,37.5c-4.3,0-7.8,3.5-7.8,7.7c0,4.3,3.5,7.8,7.8,7.8c4.3,0,7.8-3.5,7.8-7.8C39,41,35.5,37.5,31.1,37.5z
		 M31.1,50.7c-3,0-5.5-2.4-5.5-5.4c0-3,2.4-5.4,5.5-5.4c3,0,5.5,2.4,5.5,5.4C36.6,48.2,34.2,50.7,31.1,50.7z"/>
	<path class="st0" d="M84.1,37.5c-4.3,0-7.8,3.5-7.8,7.7c0,4.3,3.5,7.8,7.8,7.8c4.3,0,7.8-3.5,7.8-7.8C91.9,41,88.4,37.5,84.1,37.5z
		 M84.1,50.7c-3,0-5.5-2.4-5.5-5.4c0-3,2.4-5.4,5.5-5.4c3,0,5.5,2.4,5.5,5.4C89.6,48.2,87.1,50.7,84.1,50.7z"/>
	<path class="st0" d="M12.9,37.5c-4.3,0-7.8,3.5-7.8,7.7c0,4.3,3.5,7.8,7.8,7.8c4.3,0,7.8-3.5,7.8-7.8C20.7,41,17.2,37.5,12.9,37.5z
		 M12.9,50.7c-3,0-5.5-2.4-5.5-5.4c0-3,2.4-5.4,5.5-5.4c3,0,5.5,2.4,5.5,5.4C18.4,48.2,15.9,50.7,12.9,50.7z"/>
	<path class="st0" d="M59.6,0H3.7C1.7,0,0,1.7,0,3.7v37.8c0,1,0.3,2.1,1.1,2.6c1.7,1.1,2.1-1,2.4-1.9c1.3-4,5-6.8,9.4-6.8
		c2.9,0,5.5,1.2,7.3,3.2c0.8,0.8,2.8,1,3.5,0.2c1.8-2.1,4.5-3.3,7.4-3.3c4.5,0,8.1,2.9,9.4,6.9c0.6,1.7,2.1,2.8,3.2,2.8
		c4.2,0,15.9,0,15.9,0c2.1,0,3.7-1.7,3.7-3.7V3.7C63.3,1.7,61.6,0,59.6,0z"/>
	<path class="st0" d="M99,38.5c-0.3-9.1-4.4-8.1-6.9-14.3C86.9,11.3,81.9,9.6,74.9,9.6c-3.9,0-6.1,0-6.1,0c-1.8,0-2.7,1.8-2.7,3.8
		v28.2c0,2,1.7,3.7,3.7,3.6c0,0,0.9-0.1,2.2,0c1.4,0,2.3-1.5,2.4-2.2c1-4.3,4.9-7.5,9.6-7.5c4.4,0,8,2.9,9.4,6.8
		c0.6,1.7,1.8,2.2,2.4,2.2c1.2-0.1,1.7-0.9,2.2-1.6c1.1-0.2,1.9-1.2,1.9-2.4C100,39.6,99.6,38.9,99,38.5z M85,25.6H73.1
		c-2.1,0-3.7-1.7-3.7-3.7v-5.1c0-2.1,1.2-3.7,3.3-3.7h1.2c2.1,0,3.5,0,5.7,0.4c1.7,0.3,3.3,1.2,5.9,5c1.5,2.2,2.1,3.6,2.3,5.1
		C87.9,24.8,87.1,25.6,85,25.6z"/>
</g>
</svg>
