<?xml version="1.0" encoding="utf-8"?>
<!-- Generator: Adobe Illustrator 23.0.1, SVG Export Plug-In . SVG Version: 6.00 Build 0)  -->
<svg version="1.1" id="Layer_1" xmlns="http://www.w3.org/2000/svg" xmlns:xlink="http://www.w3.org/1999/xlink" x="0px" y="0px"
	 viewBox="0 0 121 121" style="enable-background:new 0 0 121 121;" xml:space="preserve">
<style type="text/css">
	.st0{fill:#49C8F5;}
	.st1{fill:#FFFFFF;}
</style>
<g>
	<g>
		<path class="st0" d="M111.9,121H9.1c-5,0-9.1-4.1-9.1-9.1V9.1C0,4.1,4.1,0,9.1,0h102.9c5,0,9.1,4.1,9.1,9.1v102.9
			C121,116.9,116.9,121,111.9,121z"/>
		<path class="st1" d="M111.9,3c3.3,0,6.1,2.7,6.1,6.1v102.8c0,3.3-2.7,6.1-6.1,6.1H9.1c-3.3,0-6.1-2.7-6.1-6.1V9.1
			C3,5.7,5.7,3,9.1,3H111.9 M111.9,1.5H9.1c-4.2,0-7.6,3.4-7.6,7.6v102.8c0,4.2,3.4,7.6,7.6,7.6h102.8c4.2,0,7.6-3.4,7.6-7.6V9.1
			C119.5,4.9,116.1,1.5,111.9,1.5L111.9,1.5z"/>
	</g>
	<g>
		<path class="st1" d="M70.6,67.4c-2.1,1.3-4.1,2.5-6.2,3.8c0.1,0,0.2,0,0.2,0c0.8-0.2,1.5-0.4,2.2-0.7c0.6-0.2,1.2-0.6,1.8-0.9
			c0.2-0.1,0.4-0.1,0.6,0c0.1,0.1,0.2,0.2,0,0.3c-0.4,0.3-0.9,0.5-1.3,0.8c-0.8,0.4-1.5,0.8-2.3,1.3c0,0,0,0,0,0.1
			c0.1,0,0.2-0.1,0.3-0.1c1.1-0.4,2.3-0.8,3.4-1.2c0.3-0.1,0.6-0.1,0.9,0.1c0.2,0.2,0.2,0.3,0,0.4c-0.3,0.2-0.5,0.3-0.8,0.5
			c-1.4,0.9-2.9,1.7-4.3,2.6c0,0-0.1,0.1-0.1,0.1c0.1-0.1,0.2-0.1,0.3-0.2c1.3-0.7,2.5-1.4,4-1.6c0.3-0.1,0.6,0,0.9,0.1
			c0.4,0.1,0.4,0.4,0.1,0.6c-0.9,0.5-1.7,1-2.6,1.5c-1.4,0.8-2.7,1.7-4.1,2.5c-0.1,0.1-0.2,0.1-0.2,0.2c0,0,0,0,0,0.1
			c0.4-0.2,0.8-0.4,1.2-0.6c1.2-0.6,2.3-1.2,3.5-1.8c0.2-0.1,0.4-0.2,0.6-0.2c0.2,0,0.3,0,0.5,0c0.4,0.2,0.4,0.4,0.2,0.7
			c-0.4,0.4-0.8,0.7-1.2,1c-0.1,0.1-0.2,0.1-0.3,0.2c0.5-0.1,0.9-0.1,1.3-0.2c0.2,0,0.5-0.1,0.7,0c0.2,0,0.3,0.1,0.5,0.2
			c0.2,0.1,0.2,0.3,0,0.5c-0.2,0.2-0.4,0.3-0.6,0.5c-1.1,0.7-2.3,1.4-3.4,2.1c-0.1,0.1-0.2,0.1-0.2,0.2c0.1,0,0.2-0.1,0.2-0.1
			c0.8-0.3,1.6-0.6,2.4-0.9c0.2-0.1,0.5,0,0.7,0.1c0.3,0.1,0.3,0.3,0,0.5c-0.5,0.3-1,0.6-1.6,0.9c-1.1,0.7-2.2,1.3-3.3,2
			c-0.1,0.1-0.2,0.1-0.2,0.2c0.1-0.1,0.2-0.1,0.3-0.2c1.4-0.7,2.8-1.4,4.2-2.1c0.2-0.1,0.5-0.2,0.8,0c0.3,0.2,0.3,0.3,0,0.5
			c-1.4,0.9-2.7,1.8-4.1,2.8c-0.1,0.1-0.2,0.1-0.2,0.3c0.2-0.1,0.4-0.2,0.5-0.3c0.8-0.4,1.7-0.9,2.5-1.3c0.3-0.1,0.5-0.1,0.8,0
			c0.2,0.2,0.2,0.3,0.1,0.5c-0.3,0.3-0.6,0.6-1,0.9c-0.7,0.6-1.3,1.1-2,1.7c-0.1,0.1-0.1,0.1-0.2,0.2c0.4-0.1,0.9-0.3,1.4-0.1
			c-0.1,0.1-0.2,0.3-0.3,0.3c-0.5,0.2-0.9,0.4-1.4,0.6c-0.5,0.1-0.8,0-1-0.4c-0.5-0.7-0.9-1.4-1.4-2.1c0-0.1-0.1-0.1-0.2-0.1
			C63,84,62.9,84,62.7,83.9c-0.3-0.2-0.3-0.4-0.1-0.6c0.1-0.2,0.1-0.3,0-0.4c-0.9-1.6-1.7-3.1-2.5-4.7c-0.3-0.6-0.5-1.4-0.7-2.1
			c0-0.1-0.1-0.3,0-0.5c0-0.1,0.1-0.1,0.1-0.2c0.1,0,0.1,0.1,0.2,0.1c0,0,0,0.1,0,0.1c0.1,0.8,0.5,1.6,0.8,2.3
			c0.8,1.6,1.7,3.2,2.6,4.7c0,0,0,0,0,0c1-0.6,1.9-1.3,2.9-1.9c0,0,0,0,0,0c-0.4,0.2-0.9,0.4-1.3,0.5c-0.3,0.1-0.7,0.3-1,0.4
			c-0.2,0-0.4,0-0.6-0.1c-0.3-0.1-0.3-0.3,0-0.4c0.7-0.5,1.5-1,2.2-1.4c1.3-0.8,2.6-1.6,3.9-2.4c0.1-0.1,0.2-0.1,0.3-0.2
			c0,0,0,0,0-0.1c-0.2,0-0.4,0.1-0.5,0.1c-0.2,0.1-0.5,0.1-0.7,0.2c-0.3,0.1-0.6,0.1-0.8-0.2c-0.5,0.4-1.1,0.7-1.6,1.1
			c-0.5,0.3-0.9,0.6-1.4,0.8c-0.1,0.1-0.2,0.1-0.3,0.1c-0.1,0-0.2,0-0.3-0.1c0-0.1,0-0.2,0.1-0.3c0.3-0.3,0.6-0.5,0.9-0.7
			c0.9-0.6,1.8-1.2,2.8-1.8c0.1-0.1,0.2-0.1,0.3-0.2c0,0,0,0,0-0.1c-0.4,0.2-0.8,0.3-1.1,0.5c-0.9,0.5-1.7,0.9-2.6,1.4
			c-0.3,0.2-0.7,0.3-1,0.5c-0.1,0.1-0.3,0.1-0.5,0c-0.5-0.1-0.7-0.5-0.3-0.8c0.5-0.4,1-0.9,1.6-1.2c1.5-0.9,3-1.8,4.5-2.7
			c0.1-0.1,0.2-0.1,0.3-0.2c0,0,0-0.1,0-0.1c-0.6,0.2-1.1,0.4-1.7,0.7c-1.3,0.6-2.5,1.4-3.6,2.2c-0.3,0.2-0.7,0.5-1,0.7
			C62.2,77,62,77.1,61.9,77c-0.2-0.1-0.4-0.2-0.5-0.3c-0.1-0.1,0.1-0.4,0.2-0.5c0.8-0.7,1.6-1.4,2.4-2c0.8-0.6,1.6-1.1,2.4-1.6
			c0.1,0,0.1-0.1,0.1-0.2c-0.1,0-0.2,0.1-0.3,0.1c-1.7,0.7-3.4,1.5-5.1,2.2c-0.2,0.1-0.5,0.2-0.7,0.3c-0.3,0.1-0.5,0-0.7-0.1
			c-0.2-0.2-0.2-0.3,0-0.5c0.4-0.3,0.9-0.6,1.3-0.8c1-0.5,2-1.1,2.9-1.6c0.1,0,0.2-0.1,0.2-0.2c-0.5,0.2-1,0.4-1.5,0.6
			c-0.3,0.1-0.6,0.3-1,0.3c-0.2,0-0.4-0.1-0.6-0.2c-0.2-0.1-0.2-0.3,0-0.4c0.1-0.1,0.2-0.1,0.3-0.2c2.1-1.2,4.1-2.4,6.2-3.7
			c0.1-0.1,0.2-0.1,0.3-0.3c-0.3,0.1-0.5,0.2-0.8,0.3c-1.4,0.6-2.8,1.2-4.3,1.8c-0.2,0.1-0.5,0.2-0.7,0c-0.1,0-0.1-0.1-0.2-0.2
			c0,0,0.1-0.1,0.2-0.1c2.3-0.9,4.5-1.9,6.8-2.8c0.2-0.1,0.4-0.1,0.5-0.2c0.2-0.1,0.5-0.1,0.7-0.1c0-0.8-0.4-1.6-1.4-1.9
			c-0.1,0.1-0.1,0.2-0.2,0.2c0.1,0.1,0.2,0.1,0.3,0.2c0.1,0.1,0.1,0.2,0.2,0.3c-0.1,0-0.2,0.1-0.3,0.1c-0.6,0-1.3,0.1-1.9,0.1
			c-0.8,0-1.5,0.1-2.3,0.1c-0.2,0-0.2,0.1-0.2,0.2c-0.3,1.4-1.1,2.5-2.4,3.1c-0.1,0.1-0.3,0.2-0.4,0.3c0,0-0.1,0.1-0.1,0.1
			c-0.5,0-0.9,0.1-1.4,0.1c-0.7,0-1.3-0.2-2-0.2c0.1,0.1,0.2,0.1,0.3,0.3c-0.1,0-0.2,0-0.3,0c-0.3-0.1-0.6-0.1-0.8-0.3
			c-0.2-0.1-0.4-0.1-0.7,0c-1.7,0.8-3.1,1.9-4.6,3c0.1,0,0.2-0.1,0.3-0.1c1.2-0.5,2.3-1,3.6-1.2c0.2,0,0.4,0,0.6,0
			c0.1,0,0.1,0.1,0.2,0.1c0,0.1-0.1,0.1-0.1,0.2c-0.1,0.1-0.1,0.1-0.2,0.1c-1.7,0.7-3.4,1.3-5.1,2c-0.2,0.1-0.4,0.2-0.6,0.2
			c-0.1,0-0.3,0-0.4,0c-0.5-0.2-0.5-0.4-0.1-0.7c0.5-0.4,1-0.8,1.5-1.2c0.1-0.1,0.2-0.2,0.3-0.3c0,0,0-0.1-0.1-0.1
			c-0.3,0.1-0.6,0.3-0.9,0.4c-0.2,0.1-0.5,0.1-0.7,0c-0.2-0.1-0.2-0.3,0-0.4c0.7-0.4,1.3-0.7,2-1.1c0.1,0,0.2-0.1,0.2-0.2
			c-0.3,0.1-0.6,0.2-1,0.3c-0.1,0-0.2,0.1-0.3,0.1c-0.1,0-0.1-0.1-0.2-0.1c0-0.1,0.1-0.2,0.1-0.2c0.4-0.3,0.8-0.6,1.1-0.9
			c-0.6,0.3-1.2,0.6-1.7,1c0,0,0-0.1-0.1-0.1c0,0,0.1-0.1,0.1-0.1c1.2-0.7,2.4-1.4,3.7-2c0.1,0,0.2,0,0.3-0.1c0,0,0,0,0,0.1
			c-1.1,0.7-2.1,1.4-3.2,2.2c0,0,0,0.1,0.1,0.1c0.1,0,0.3-0.1,0.4-0.1c0.6-0.2,1.2-0.5,1.8-0.7c0.1,0,0.3,0,0.4,0c0.1,0,0.1,0,0.2,0
			c0.6-0.2,1.1-0.4,1.7-0.7C55.6,68,54.9,67.2,55,66c-0.9,0.3-1.7,0.5-2.5,0.8c0.1,0.3-0.1,0.3-0.3,0.4c-0.4,0.1-0.8,0.2-1.2,0.4
			c-0.3,0.1-0.6,0.3-0.8,0.4c-0.1,0-0.1,0.2-0.1,0.3c-0.2,1.4-0.4,2.9-0.6,4.3c-0.2,1.4-0.4,2.8-0.6,4.2c-0.2,1.6-0.3,3.2-0.3,4.9
			c0,1.8-0.1,3.6-0.1,5.3c0,0.3,0,0.5-0.1,0.8c0,0.1-0.1,0.2-0.1,0.4c0,0-0.1,0-0.1,0c-0.1-0.2-0.1-0.4-0.2-0.6c0-0.5,0-1.1-0.1-1.6
			c0-0.3-0.1-0.6-0.1-0.9c0-0.2-0.1-0.4-0.1-0.6c0.1-1.6,0.2-3.2,0.3-4.8c0-1,0-1.9,0.1-2.9c0-0.3,0.1-0.7,0.1-1
			c0-0.2,0.1-0.5,0.3-0.6c0,0,0.1-0.1,0.1-0.1c0.1-0.5,0.2-1,0.3-1.5c0-0.3,0-0.5,0-0.8c0-0.3,0.1-0.7,0.1-1
			c-0.2,0.5-0.2,1.1-0.6,1.6c0,0-0.1,0-0.1,0c0-0.1-0.1-0.3-0.1-0.4c0-0.3,0.1-0.6,0.2-0.9c0.3-1.3,0.7-2.6,1-3.9
			c0.3-1.1,0.4-2.3,0.7-3.4c0.1-0.7,0.3-1.4,0.5-2.1c0.1-0.3,0-0.6,0.3-0.8c0.1-0.1,0-0.3,0-0.4c-0.1,0-0.2,0-0.3-0.1
			c-0.2-0.1-0.3-0.2-0.3-0.4c0-0.5,0.1-0.9,0.1-1.4c0-0.1,0.1-0.3,0.2-0.3c0.2,0,0.3,0.1,0.4,0.3c0.1,0.2,0.2,0.4,0.2,0.7
			c0,0.2,0,0.5,0,0.7c0,0,0,0,0.1,0.1c0.6-0.8,1.2-1.5,1.9-2.3c-0.4,0-0.8,0.5-1.2,0.1c0.1-0.1,0.2-0.1,0.3-0.2
			c1.3-0.7,2.7-1.2,4.1-1.7c2.3-0.7,4.6-1.5,7-2.2c0.3-0.1,0.5-0.1,0.8-0.2c0.1,0,0.2,0,0.3,0c0,0,0,0,0,0.1
			c-0.1,0.1-0.2,0.2-0.4,0.3c0,0,0,0,0,0.1c0.3,0,0.5,0,0.8,0c0,0,0,0.1,0,0.1c-0.1,0.1-0.2,0.1-0.4,0.2c-1.3,0.4-2.7,0.7-4,1.1
			c-2.1,0.6-4.1,1.3-6.1,2.1c-0.2,0.1-0.5,0.1-0.7,0.2c-0.1,0-0.3,0.1-0.4,0.2c-0.6,0.8-1.3,1.6-1.9,2.4c-0.1,0.2-0.2,0.3-0.1,0.6
			c1-0.8,2.1-1.6,3.1-2.4c-0.2,0-0.3,0.1-0.4,0.1c0,0,0,0,0-0.1c0.2-0.2,0.5-0.3,0.7-0.5c0.4-0.2,0.8-0.3,1.2-0.5
			c0.2-0.1,0.3-0.1,0.4,0.1c-1.7,1-3.3,2.3-4.8,3.5c-0.1,0.3-0.3,0.5-0.3,0.7c0,0.1,0,0.2-0.1,0.3c0.5,0,0.9,0.1,1.3,0.1
			c0.5,0,1,0.1,1.5,0.1c0,0,0.1,0,0.1,0c0.2,0.3,0.4,0.2,0.6,0.2c0.5,0,1,0.1,1.5,0.1c0-0.1,0.4-0.2,0.2-0.5c0,0,0.1-0.1,0.1-0.2
			c0.7-0.4,1.4-0.8,2.1-1.1c0.2-0.1,0.5-0.1,0.7-0.1c0.1,0,0.2,0,0.3-0.1c0.8-0.6,1.6-1.2,2.4-1.8c0.1-0.1,0.1-0.1,0.2-0.2
			c-0.1,0.1-0.2,0.1-0.3,0.2c-1.3,0.9-2.6,1.6-4,2.2C57.3,62,57.1,62,57,61.7c-0.4,0.2-0.8,0.4-1.3,0.6c-0.4,0.2-0.7,0.6-1.1,0.6
			c0,0-0.1-0.1-0.1-0.1c0.3-0.4,0.6-0.7,0.9-1.1c0,0,0,0-0.1-0.1c-0.5,0.3-0.9,0.6-1.4,0.9c0,0-0.1,0.1-0.1,0.1
			c-0.3,0.3-0.3,0.3-0.6-0.1c0.6-0.5,1.1-1,1.7-1.5c0,0,0-0.1-0.1-0.1c-0.1,0-0.1,0-0.2,0c-0.3,0.2-0.6,0.5-0.9,0.7
			c-0.3,0.2-0.5,0.5-0.7,0.7c-0.1,0.1-0.2,0.1-0.3,0.1c0-0.4,0.5-0.5,0.3-0.9c0.3-0.3,0.6-0.6,1-0.7c0.6-0.2,0.9-0.6,1.3-1
			c0.4-0.3,0.8-0.7,1.2-1c0.1,0,0.1-0.1,0.2-0.1c0,0,0,0,0,0.1c-0.3,0.3-0.5,0.7-0.8,1c0,0,0,0,0,0c0.2-0.1,0.5-0.3,0.7-0.4
			c0.3-0.2,0.6-0.4,0.9-0.6c0.1,0,0.2,0,0.3,0c0,0.1,0,0.2-0.1,0.3c-0.3,0.4-0.7,0.7-1,1.1c0,0-0.1,0.1,0,0.2c0.1,0,0.2-0.1,0.2-0.1
			c0.6-0.4,1.2-0.8,1.8-1.2c0.2-0.1,0.4-0.3,0.6-0.5c0.1,0,0.2-0.1,0.2,0c-0.3,0.2-0.5,0.3-0.8,0.5c0,0,0,0.1,0,0.1
			c0.5-0.2,0.9-0.6,1.4-0.6c0,0,0,0.1,0,0.1c-0.1,0.1-0.2,0.1-0.2,0.2c-0.5,0.4-1.1,0.8-1.6,1.2c-0.2,0.1-0.4,0.2-0.5,0.3
			c-0.4,0.3-0.8,0.6-1.2,0.9c-0.1,0.1-0.1,0.1-0.2,0.2c0,0,0,0,0,0.1c0.3-0.2,0.7-0.4,1-0.6c0.4-0.2,0.7-0.5,1.1-0.7
			c0.8-0.5,1.5-0.9,2.3-1.4c0.1-0.1,0.3-0.1,0.4,0.1c-1.2,0.8-2.4,1.6-3.6,2.4c0,0,0,0,0,0.1c0.1,0,0.2-0.1,0.3-0.1
			c0.4-0.3,0.9-0.4,1.3-0.7c0.9-0.5,1.7-1,2.6-1.5c0.2-0.1,0.5-0.3,0.7-0.4c0.1,0,0.2,0,0.3,0c0,0,0,0.1,0,0.1
			c-1.1,0.9-2.2,1.7-3.3,2.6c0,0,0,0.1,0,0.1c0.9-0.3,1.8-0.9,2.7-1.2c0,0,0,0.1,0,0.1c-0.5,0.3-1.1,0.6-1.6,0.9c0.4,0,0.8,0,1.2,0
			c0.1-0.5,0.6-0.6,0.8-0.8c0,0,0.1,0.1,0.1,0.1c-0.2,0.2-0.4,0.3-0.6,0.5c0,0,0,0.1,0.1,0.1c1.4-0.6,2.6-1.5,4-2.1
			c-0.9,0.7-1.8,1.5-2.7,2.2c0,0,0,0.1,0.1,0.1c0.1,0,0.3-0.1,0.4-0.1c0.7-0.3,1.4-0.7,2.1-1.1c0.8-0.4,1.7-0.8,2.4-1.4
			c0.1-0.1,0.4-0.1,0.5-0.2c0.1,0,0.2,0.1,0.2,0.2c0,0.3,0.1,0.5,0.4,0.6c-0.4,0.2-0.3,0.4-0.3,0.7c0,0.8,0,1.5-0.1,2.3
			c0,0.1-0.1,0.3-0.2,0.4c-0.1-0.1-0.2-0.2-0.2-0.4c0-0.5-0.1-1-0.1-1.5c0-0.3-0.1-0.5-0.1-0.9c-0.6,0.4-1.1,0.8-1.6,1.2
			c0,0,0,0.1,0,0.1c0.3,0,0.5,0,0.8,0c0,0,0,0.1,0,0.1c-0.3,0.2-0.6,0.2-1,0.1c-0.2-0.1-0.3-0.2-0.2-0.4c-0.2,0.1-0.5,0.2-0.7,0.3
			c-0.2,0.1-0.3,0.1-0.5,0.1c-0.1,0-0.2-0.1-0.3-0.1c0-0.1,0.1-0.2,0.1-0.3c0.3-0.3,0.6-0.5,0.8-0.8c-0.1,0.1-0.2,0.1-0.3,0.2
			c-0.6,0.3-1.3,0.6-1.9,0.9c-0.2,0.1-0.3,0.1-0.5,0.1c-0.1,0-0.2-0.1-0.3-0.1c0-0.1,0.1-0.2,0.1-0.2c0.3-0.3,0.6-0.5,0.8-0.8
			c-0.6,0.3-1.3,0.6-1.9,1c0,0,0.1,0.1,0.1,0.1c0.4,0.2,0.6,0.4,0.8,0.8c0.1,0.2,0.1,0.4-0.2,0.4c0.6,0.7,1.3,1,1.5,0.6
			c-0.2,0-0.3-0.1-0.5-0.1c0,0,0-0.1,0-0.1c0.1,0,0.1,0,0.2,0c0.6,0,1.2,0,1.7,0c0.6,0.1,1.2,0.1,1.7,0c0.1,0,0.2,0.1,0.3,0.1
			c0,0,0,0.1,0,0.1c-0.3,0-0.5,0.1-0.8,0.1c0,0,0,0,0,0c0.7,0,1.4,0,2.2,0c0.1,0,0.3,0.1,0.4,0.2c0.6,1.9,1.1,3.9,1.5,5.9
			c0.2,1.1,0.3,2.3,0.4,3.4c0,0.3-0.1,0.6-0.2,0.8c0,0.1,0,0.2,0,0.3c0,1.6,0.1,3.2,0.1,4.8c0,0.8-0.2,1.5-0.3,2.2
			c-0.1,0.3-0.2,0.6-0.4,0.9c-0.1,0.4-0.3,0.7-0.4,1.1c0,0.1-0.2,0.1-0.2,0.1c0-0.1-0.1-0.2-0.1-0.3c0.7-1.6,0.9-3.3,0.9-5.1
			c0-1.8-0.1-3.6-0.1-5.5c0-0.4,0-0.7,0-1.1C71.3,69.9,70.8,68.7,70.6,67.4z M56.5,65.2c-0.1-0.1-0.2-0.1-0.2-0.2
			c-0.1-0.2-0.3-0.1-0.4-0.1C56,65.2,56.3,65.3,56.5,65.2c0.1,0.1,0.1,0.1,0.2,0.2c-0.2,0.1-0.3,0.1-0.5,0.2c-0.2,0-0.3,0.1-0.3,0.3
			c-0.1,1,0.6,2.4,1.7,2.6c0.8,0.2,1.6,0.3,2.3,0.4c0.3,0.1,0.7,0.1,0.9-0.2c0.1-0.1,0.3-0.2,0.4-0.2c1-0.6,1.8-1.4,2.3-2.5
			c0.1-0.3,0.2-0.7,0.3-1c-0.2,0-0.3-0.1-0.4-0.1c-0.3-0.1-0.3-0.2-0.1-0.5c0.1-0.1,0.2-0.2,0.3-0.4c-0.3-0.5-0.8-0.8-1.3-1
			c-1.2-0.4-2.4-0.6-3.7-0.4c-0.5,0.1-1,0.2-1.4,0.6c-0.2,0.3-0.5,0.6-0.7,0.9c-0.2,0.2-0.1,0.3,0,0.5c0,0.1,0.1,0.1,0.2,0.1
			c0.1,0.1,0.1,0.3,0.1,0.4C56.8,65.2,56.7,65.2,56.5,65.2z M69.1,58.8c-1,0.8-2,1.6-3,2.3c0,0,0,0,0,0.1c0,0,0.1,0,0.1,0
			c1-0.4,1.8-0.9,2.7-1.5c0.1,0,0.1-0.1,0.1-0.2C69.1,59.3,69.1,59.1,69.1,58.8z M51,63.3C50.9,63.4,50.9,63.4,51,63.3
			c0.4,0.3,0.1,0.6,0.1,0.9c0,0.1,0,0.1,0,0.2c0,0.1,0,0.2,0,0.2c0.1,0,0.2,0,0.3,0c0.3-0.2,0.6-0.3,0.9-0.5
			c0.1-0.1,0.3-0.2,0.4-0.3c0,0,0-0.1,0-0.1c-0.2,0-0.3-0.1-0.5-0.1c0,0-0.1-0.1-0.1-0.2C51.7,63.4,51.3,63.4,51,63.3z M55.1,61.5
			c0.9-0.4,2.5-1.7,2.7-2.3C56.7,59.7,55.9,60.6,55.1,61.5z M64.9,85.9c0.6-0.5,1.1-1,1.7-1.5c-0.7,0.3-1.4,0.6-2,0.8
			C64.6,85.5,64.7,85.7,64.9,85.9z M50.6,66.8c0.5-0.1,0.6-0.3,0.4-0.7c0.5,0.3,0.7-0.1,1-0.3c-0.3,0-0.5-0.1-0.6-0.1
			c-0.2,0.1-0.4,0.2-0.6,0C50.7,66.1,50.6,66.4,50.6,66.8z M57.1,60.8c-1,0.3-1.7,1.1-2.3,1.9c0.2-0.1,0.5-0.3,0.6-0.5
			c0.1-0.1,0.1-0.3,0.2-0.3c0.3-0.2,0.5-0.4,0.8-0.6C56.7,61.1,56.9,60.9,57.1,60.8z M53.2,65.9C53.2,65.9,53.2,65.9,53.2,65.9
			c0.5,0,1-0.2,1.5-0.3c0.3-0.1,0.5-0.3,0.7-0.5c0,0,0-0.1,0-0.1C54.6,65.3,53.9,65.6,53.2,65.9z M51.6,65.1
			C51.6,65.1,51.6,65.1,51.6,65.1c-0.2-0.1-0.3-0.4-0.6-0.3c-0.3,0.2-0.2,0.5-0.3,0.7c0,0,0,0,0.1,0C51.1,65.5,51.4,65.3,51.6,65.1z
			 M62.8,62.8c-0.5-0.5-1.2-0.7-1.9-0.6C61.5,62.4,62.1,62.6,62.8,62.8z M64,84.3c0.3-0.3,0.6-0.6,0.9-0.9c0,0,0,0,0,0
			c-0.4,0.2-0.7,0.4-1.1,0.5C63.8,84.1,63.9,84.2,64,84.3z M56.1,60.3C56.1,60.2,56.1,60.2,56.1,60.3c-0.5,0.2-1,0.5-1.3,1
			c0,0,0,0,0.1,0.1C55.4,61,55.8,60.6,56.1,60.3z M56,64.5c-0.1-0.2-0.4-0.4,0-0.6c-0.3,0-0.5,0-0.7,0c0,0,0,0.1,0,0.1
			C55.5,64.1,55.5,64.6,56,64.5z M68.2,63.6C68.2,63.6,68.2,63.7,68.2,63.6c0,0.1,0.1,0.1,0.2,0.1c0.1,0,0.3-0.1,0.4,0
			c0.2,0.1,0.3,0.2,0.4,0.3c0.1-0.1,0.2-0.3,0.2-0.4C69,63.6,68.6,63.6,68.2,63.6z M64.5,64.1c0.3-0.2,0.5-0.3,0.8-0.5
			C64.6,63.6,64.5,63.6,64.5,64.1z M56.2,59.4c-0.3,0.3-0.7,0.7-1,1c0,0,0.1,0.1,0.1,0.1C55.6,60.2,55.9,59.8,56.2,59.4z M53,62.2
			C53,62.3,53,62.3,53,62.2c0.3-0.1,0.5-0.3,0.7-0.6c0,0,0,0,0,0C53.4,61.8,53.2,62,53,62.2z M52.5,64.1c0,0,0,0.1,0.1,0.1
			c0.2-0.1,0.4-0.2,0.6-0.2c0,0,0-0.1-0.1-0.1C52.9,63.9,52.7,64,52.5,64.1z M65.7,63.6c0.2,0.3,0.4,0.2,0.6,0
			C66.1,63.6,65.9,63.6,65.7,63.6z"/>
		<path class="st1" d="M54.6,34.8c0.4-0.2,0.7-0.4,1-0.6c0.1-0.1,0.2-0.2,0.3-0.3c0-0.1,0.1-0.1,0.2-0.1c0.8-0.4,1.6-0.9,2.2-1.5
			c0.4-0.4,0.4-0.8,0.3-1.3c-0.2-0.7-0.4-1.5-0.5-2.2c-0.1-0.6-0.2-1-0.7-1.4c-0.7-0.4-0.8-1.1-0.8-1.9c0-0.5,0-0.5-0.5-0.6
			c-0.3-0.1-0.4-0.2-0.2-0.5c0.4-0.5,0.7-0.9,1.1-1.4c0.1-0.1,0.1-0.1,0.2-0.2c-0.6,0-1,0.5-1.5,0.4c0,0,0-0.1-0.1-0.1
			c0.5-0.6,1-1.2,1.5-1.7c-0.3-0.1-0.3-0.2,0-0.4c0.1-0.1,0.2-0.2,0.3-0.2c0,0,0,0,0,0c-0.1,0-0.2,0-0.3,0.1c0-0.1,0-0.1,0-0.2
			c-0.4,0-0.7,0.5-1.2,0.3c0.1-0.1,0.2-0.1,0.3-0.2c1-0.7,2-1.3,3-2c0.4-0.2,0.7-0.5,1.1-0.7c0.1,0,0.1-0.1,0.2-0.1
			c0.1,0,0.2,0,0.2,0.1c0,0.1-0.1,0.1-0.1,0.2c-0.4,0.2-0.7,0.4-1.1,0.7c0.5-0.1,0.8-0.5,1.3-0.5c0,0,0,0.1,0,0.1
			c-1.2,0.7-2.3,1.3-3.5,2c0.3,0.2,0.6-0.1,0.8,0.3c-0.3,0.2-0.5,0.3-0.8,0.5c0.1,0.1,0.1,0.1,0.2,0.2c-0.4,0.5-0.9,1-1.4,1.5
			c1.5-0.4,2.6-1.2,3.8-2c-0.2,0.1-0.4,0.2-0.5,0.2c-0.4,0.2-0.7,0.3-1.1,0.5c-0.1,0-0.2,0-0.4,0c-0.1,0-0.1-0.1-0.2-0.2
			c0,0,0.1-0.1,0.1-0.2c0.7-0.5,1.5-0.9,2.2-1.4c0.1-0.1,0.2-0.1,0.3-0.3c-0.1,0-0.2,0.1-0.3,0.1c-0.5,0.2-1,0.3-1.5,0.5
			c-0.1,0-0.3,0-0.4,0c0,0,0-0.1,0-0.1c0.1,0,0.2-0.1,0.3-0.1c1.1-0.4,2.3-0.7,3.3-1.2c0.4-0.2,0.8-0.4,1.2-0.5c0.1,0,0.1,0,0.2,0
			c0.2,0,0.4,0.1,0.4,0.2c0.1,0.1,0,0.3-0.1,0.4c-0.1,0.2-0.3,0.3-0.4,0.5c0,0.1,0,0.2,0,0.3c-0.4-0.2-0.7,0.1-1,0.3
			c-0.7,0.4-1.3,0.8-2,1.3c-0.1,0.1-0.2,0.1-0.2,0.2c0.6-0.2,1.1-0.4,1.7-0.7c0.2-0.1,0.4-0.2,0.6-0.3c0.1,0,0.3,0,0.4,0
			c0.1,0,0.1,0.1,0.2,0.2c-0.1,0.1-0.1,0.1-0.2,0.2c-0.6,0.3-1.2,0.6-1.8,0.9c0,0,0,0.1,0,0.1c0.1,0,0.1,0,0.2-0.1
			c0.9-0.4,1.8-0.8,2.7-1.1c0.2-0.1,0.3-0.3,0.1-0.7c0.2,0,0.3,0,0.3,0.3c0,0.2,0,0.3,0.2,0.4c0.2,0.1,0.2,0.2-0.1,0.4
			c0.2,0.1,0.3,0.1,0.4,0.2c0,0,0,0.1,0,0.1c-0.2,0-0.4-0.1-0.6-0.1c-0.1,0-0.2-0.1-0.3,0c-0.8,0.3-1.5,0.5-2.3,0.9
			c-1.2,0.5-2.3,1.1-3.4,1.6c-0.1,0-0.1,0.1-0.1,0.1c0,0.3,0.1,0.6,0.1,0.9c0,0.3,0,0.6,0.1,0.9c0.2,0.8,0.3,1.6,0.5,2.4
			c0,0.2,0,0.3,0,0.5c-0.5-0.8-0.5-1.7-0.8-2.6c0,0-0.1,0-0.1,0c0,0.1-0.1,0.2-0.1,0.3c0,0.3,0.1,0.6,0.2,0.8c0,0.1,0,0.2,0,0.3
			c-0.2,0-0.3-0.1-0.3-0.2c-0.1-0.4-0.2-0.9-0.3-1.3c0,0-0.1,0-0.1,0c0.1,0.5,0.1,1.1,0.2,1.6c0,0.1,0.1,0.2,0.2,0.3
			c0.4,0.3,0.6,0.6,0.6,1.1c0.1,0.6,0.2,1.2,0.3,1.9c0,0.1,0.1,0.2,0.2,0.2c0.1,0.1,0.2,0.2,0.2,0.3c0,0.9-0.2,1.8-0.9,2.5
			c-0.1,0.1-0.2,0.2-0.4,0.3c0.1-0.2,0.1-0.2,0.1-0.4c-0.5,0.3-1,0.6-1.5,0.9c0.1,0.2,0.2,0.3,0.4,0.5c0.1,0.2,0.3,0.3,0.4,0.5
			c0.4,0.5,0.7,0.9,1,1.4c0.1,0.1,0.1,0.3,0.1,0.4c0.5,0.5,1.1,0.7,1.8,0.8c1.2,0.1,2.2-0.4,3-1.3c0.5-0.6,1.1-1.2,1.6-1.7
			c0.1-0.1,0.2-0.2,0.3-0.3c-0.4-0.2-0.8-0.4-1.1-0.5c-0.2-0.1-0.4-0.2-0.4-0.4c-0.2-0.7-0.4-1.4-0.5-2.1c0-0.1,0-0.1,0-0.2
			c0.2-0.1,0.3,0,0.4,0.2c0.1,0.2,0.1,0.4,0.2,0.7c0.2,0.5,0.3,1,0.5,1.5c0,0.1,0.1,0.1,0.1,0.1c0.5,0.2,1,0.5,1.4,0.7
			c-0.4-0.4-0.9-0.8-1.3-1.3c0.3-0.1,0.6,0.1,0.7,0.3c0,0.1,0.1,0.2,0.1,0.2c0.8,0.7,1.6,1.4,2.6,1.9c0.1,0,0.2,0.1,0.3,0.1
			c-0.4-0.2-0.8-0.5-1.1-0.7c-0.1-0.1-0.3-0.2-0.4-0.3c-0.1-0.1-0.1-0.2-0.1-0.3c0.1,0,0.2-0.1,0.3-0.1c0.1,0,0.2,0.1,0.3,0.1
			c1,0.9,2.2,1.2,3.3,1.7c0.9,0.4,1.8,0.8,2.7,1.2c0.1,0.1,0.2,0.2,0.3,0.3c0,0,0,0.1-0.1,0.1c-1.3-0.5-2.6-1.1-3.8-1.6
			c0,0,0,0,0,0.1c0.2,0.1,0.5,0.3,0.7,0.4c1.1,0.5,2.2,1,3.3,1.6c0.3,0.2,0.7,0.4,1,0.6c0.1,0.1,0.1,0.1,0.2,0.2
			c0,0.1,0,0.1,0.1,0.2c-0.1,0-0.2,0.1-0.2,0c-0.1,0-0.3-0.1-0.4-0.2c-0.2-0.1-0.5-0.2-0.8-0.4c0,0.2,0,0.3,0,0.4
			c0,0.3,0.1,0.6,0.1,0.9c0,1.4,0,2.8,0,4.2c0,0.1,0.1,0.1,0.1,0.2c0.1,0.1,0.1,0.1,0.1,0.1c-0.1,0.4-0.3,0.7-0.4,1
			c0.1,0,0.1,0,0.1,0c0.1-0.1,0.2-0.1,0.3-0.2c0,0.1,0.1,0.3,0.1,0.4c-0.4,1.6-0.7,3.1-1.1,4.7c-0.3,1.2-0.5,2.4-0.8,3.6
			c-0.2,0.8-0.6,1.6-1.1,2.3c-0.3,0.4-0.5,0.8-0.7,1.3c-0.1,0.1-0.1,0.2-0.3,0.2c0,0-0.1,0-0.1,0c-0.4,0-0.9,0.1-1.3,0.2
			c0.2,0,0.4,0.1,0.6,0.1c0,0,0,0,0,0.1c-0.1,0-0.3,0.1-0.4,0.1c-1,0-2,0.1-3,0.1c-1.4,0-2.8,0-4.2,0.2c-1-0.2-2,0-2.9-0.1
			c-0.1,0-0.2-0.1-0.2-0.1c0,0,0-0.1,0-0.1c0.4-0.1,0.9-0.1,1.4-0.2c-0.9-0.1-1.7-0.2-2.5-0.3c0,0,0,0,0,0c0,0,0.1,0,0.1,0
			c0.3,0,0.5-0.1,0.8-0.1c0.6,0,1.2,0,1.8,0c0.4,0,0.8,0.1,1.1,0.1c2.3-0.2,4.7,0,7-0.1c0.3,0,0.6,0,0.9,0c0.5,0,0.8-0.2,1-0.7
			c-0.3,0-0.3-0.2-0.2-0.4c0.4-0.9,0.7-1.7,1.1-2.6c0-0.1,0.1-0.2,0.1-0.4c-0.2,0.2-0.3,0.4-0.5,0.5c0,0-0.1,0-0.1,0
			c0-0.1,0-0.3,0.1-0.4c0.2-0.6,0.4-1.1,0.6-1.7c0.2-0.5,0.3-0.9,0.3-1.4c0.1-0.8,0.3-1.5,0.4-2.3c0.3-1.4,0.6-2.8,0.6-4.3
			c0-1.4,0.4-2.6,0.7-3.9c0.1-0.4,0.2-0.7,0.3-1.1c0-0.1,0-0.3-0.1-0.3c-1.3-0.7-2.6-1.4-3.9-2.1c0,0,0,0-0.1,0
			c0.5,0.5,1.1,0.8,1.3,1.5c-0.1-0.1-0.2-0.1-0.2-0.2c-1.2-1.1-2.5-2.1-3.9-2.9c-0.2-0.1-0.5-0.2-0.8-0.3c-0.1,0-0.1,0-0.2,0.1
			c0,0,0.1,0,0.1,0c0.1,0.1,0.2,0.1,0.3,0.2c-0.1,0.1-0.1,0.2-0.2,0.3c-0.6,0.6-1.2,1.3-1.9,1.9c-0.1,0.1-0.2,0.2-0.4,0.3
			c0.2,0,0.4,0,0.6,0c0,0,0,0.1,0,0.1c-0.2,0.1-0.3,0.2-0.5,0.3c-0.4,0.1-0.7,0.2-1.1,0.3c-0.7,0.1-1.3,0.2-2,0.3
			c-0.2,0-0.3,0-0.5,0c-0.1,0-0.3-0.1-0.4-0.1c0,0,0-0.1,0-0.1c0.2,0,0.3-0.1,0.5-0.1c-0.4-0.1-0.8-0.2-1.2-0.3
			c-0.1,0-0.2-0.2-0.3-0.2c0,0-0.1-0.1-0.1-0.1c-0.7-0.5-1.2-1.2-1.5-2c-0.1-0.3-0.3-0.6-0.5-0.9c-0.4,0.2-0.7,0.4-1,0.6
			C54.9,35.1,54.7,35.1,54.6,34.8z M72.6,42.4c0,0,0.1,0,0.1,0c0,0.1,0,0.2,0,0.4c-0.1,0.8-0.2,1.5-0.3,2.3
			c-0.1,0.5-0.1,0.9-0.1,1.4c0,0,0.1,0,0.1,0c0.1-0.5,0.3-1,0.4-1.6c0.1-1.3,0.1-2.7,0.1-4c0,0,0-0.1,0-0.1c0,0-0.1,0-0.1,0
			c-0.2,0.7-0.3,1.4-0.5,2.2c0,0,0.1,0,0.1,0C72.4,42.7,72.5,42.6,72.6,42.4z M62.4,18.9c-0.7,0.4-1.3,0.8-1.9,1.3c0,0,0,0,0,0.1
			c0.9-0.4,1.8-0.8,2.6-1.3c0.2-0.1,0.3-0.3,0.4-0.4c0,0,0-0.1-0.1-0.1c-0.4,0-0.8,0.1-1.2,0.3C62.3,18.7,62.4,18.8,62.4,18.9z
			 M59,22.3c-0.9,0.3-1.8,0.6-2.3,1.6c0.1,0,0.1-0.1,0.1-0.1c0.2-0.2,0.3-0.4,0.5-0.5c0.3-0.2,0.5-0.4,0.8-0.5
			C58.4,22.7,58.7,22.5,59,22.3z M57.1,25c0,0-0.1,0-0.1-0.1c-0.1,0.1-0.2,0.2-0.2,0.3c0,0.3,0,0.5,0.1,0.8c0.1,0.3,0.2,0.6,0.2,0.9
			c0,0,0,0,0,0C57.1,26.2,57.1,25.6,57.1,25z M60.9,58C60.9,58,60.9,58,60.9,58c-0.7,0-1.3,0-2,0.1c0,0,0,0.1,0,0.1
			C59.5,58.2,60.2,58.4,60.9,58z M56.9,24.4C56.9,24.4,57,24.5,56.9,24.4c0.2,0,0.4-0.1,0.6-0.2c0.3-0.1,0.3-0.2,0.2-0.5
			C57.5,24,57.2,24.2,56.9,24.4z M70.5,54.8c0,0,0.1,0,0.1,0c0.3-0.5,0.4-1,0.5-1.5C70.9,53.8,70.7,54.3,70.5,54.8z M71.9,37.8
			C71.9,37.8,71.9,37.8,71.9,37.8c0.3,0.3,0.7,0.5,1.1,0.7c0,0,0-0.1,0.1-0.1C72.7,38.2,72.3,38,71.9,37.8z M57.7,32.9
			c0.3-0.1,0.6-0.1,0.7-0.6C58.1,32.5,57.9,32.7,57.7,32.9z M73.2,38.4C73.2,38.5,73.2,38.5,73.2,38.4c0.2,0.2,0.4,0.4,0.7,0.5
			c0,0,0-0.1,0-0.1C73.7,38.7,73.5,38.6,73.2,38.4z"/>
		<path class="st1" d="M80.3,46.3c0.1,0.3,0.3,0.5,0.4,0.8c0.6,1.2,1.3,2.4,1.9,3.6c0.1,0.2,0.2,0.5,0.2,0.7c0,0.1,0,0.3,0,0.4
			c0,0-0.1,0-0.1,0c-0.1-0.1-0.2-0.2-0.2-0.3c-0.3-1.2-1-2.2-1.6-3.2c-0.6-1-1.1-2.1-1.7-3.1c-0.1-0.2-0.2-0.3-0.3-0.5
			c-0.2-0.3-0.4-0.7-0.4-1c-0.1-0.5-0.2-0.9-0.5-1.3c-0.3-0.5-0.7-1-1.1-1.5c-0.5-0.6-1-1.2-1.3-1.9c-0.1-0.1-0.2-0.2-0.3-0.4
			c0,0,0.1-0.1,0.2-0.1c-0.3-0.4-0.6-0.8-0.9-1.1c-0.3-0.4-0.6-0.8-0.9-1.2c-0.3-0.3-0.6-0.5-0.9-0.8c-0.2-0.2-0.5-0.3-0.7-0.5
			c-1.5-1.3-3.2-2.1-5-2.6c-0.7-0.2-1.4-0.4-2.1-0.5c-0.1,0-0.2-0.1-0.3-0.2c0-0.1,0.1-0.1,0.1-0.2c0,0-0.1,0-0.2-0.1
			c0.1,0,0.2,0,0.2,0c1.2,0.1,2.3,0.5,3.5,0.9c1,0.4,2,0.7,3,1.1c0.7,0.3,1.4,0.7,2,1.2c2,1.8,4.2,3.2,6.3,4.9
			c0.7,0.5,1.3,1.1,2,1.7c0.2,0.1,0.2,0.3,0.4,0.5c0,0,0,0-0.1,0.1c-0.1-0.1-0.2-0.1-0.3-0.2c0,0,0,0,0,0c0.2,0.2,0.4,0.4,0.5,0.6
			c0.8,0.9,1.7,1.7,2.4,2.7c1,1.4,2.2,2.3,3.6,3.1c0.2,0.1,0.5,0.3,0.7,0.4c0.1,0,0.2,0.1,0.2,0.2c0,0,0,0.1,0,0.1
			c-0.3-0.1-0.6-0.2-0.9-0.4c0,0,0,0,0,0c0.3,0.2,0.7,0.4,1,0.5c1.8,1,3.6,2,5.4,2.9c0.8,0.4,1.6,0.7,2.5,1c0.7,0.3,1.5,0.5,2.3,0.7
			c0.2,0.1,0.3,0.2,0.5,0.3c0.1,0,0.1,0.1,0.2,0.1c0.9,0.4,1.7,0.7,2.6,1.1c1.3,0.5,2.4,1.4,3.5,2.2c0.4,0.3,0.7,0.6,0.9,1.1
			c0.2,0.5,0.5,0.8,1,0.9c1.9,0.7,3.8,1.4,5.7,2.1c0.4,0.1,0.8,0.3,1.1,0.5c0.1,0.1,0.2,0.2,0.4,0.3c0.1,0.1,0.3,0.1,0.5,0.2
			c-0.5,0-0.9,0-1.3,0c0,0,0,0,0,0.1c0.2,0,0.5,0.1,0.7,0.1c0,0,0,0.1,0,0.1c-0.1,0-0.2,0-0.3,0c-1.7-0.1-3.3-0.2-5-0.2
			c-2.1,0-4.3,0.1-6.4,0.2c-1.1,0.1-2.1,0.3-3.2,0.4c-0.1,0-0.2,0.1-0.4,0c-0.1,0-0.2-0.1-0.3-0.1c0,0,0-0.1,0-0.1
			c-0.5,0.1-1,0.2-1.5,0.3c-0.2,0-0.4-0.1-0.6-0.1c-0.1,0-0.2,0-0.3,0c-0.3,0.1-0.5,0.2-0.8,0.3c-0.2,0.1-0.3,0.1-0.5-0.2
			c0.3-0.1,0.5-0.3,0.8-0.4c0.8-0.2,1.6-0.4,2.5-0.5c1.4-0.2,2.9-0.3,4.3-0.5c1.5-0.1,3.1-0.2,4.6-0.2c1.4,0,2.8,0,4.2,0
			c-0.1,0-0.2-0.1-0.3-0.1c-1.1-0.3-2.2-0.6-3.4-1c-0.2-0.1-0.4-0.2-0.5-0.3c0,0,0-0.1,0-0.1c0.2,0.1,0.4,0.2,0.7,0.2c0,0,0,0,0,0
			c-0.3-0.2-0.7-0.4-1-0.6c-0.8-0.5-1.4-1.2-2.1-1.9c-0.4-0.4-0.7-0.8-1.2-1.1c-0.8-0.6-1.7-1.2-2.5-1.7c-0.9-0.6-1.9-0.8-3-0.9
			c-0.3-0.1-0.6,0-1-0.1c-0.1,0-0.3-0.1-0.4-0.1c0.3-0.3,0.6-0.2,0.9-0.3c-0.2-0.1-0.3-0.1-0.4-0.1c-1.6-0.6-3.3-1-4.8-1.9
			c-1.4-0.8-2.8-1.6-4.3-2.4c-0.7-0.4-1.4-0.8-2.1-1.2c-1.5-1-2.9-2-4.3-3.1c-0.5-0.4-1-1-1.5-1.5c-0.3-0.3-0.5-0.6-0.8-0.9
			c-1.1-1.1-2.1-2.2-3.2-3.2c-0.3-0.3-0.7-0.6-1.2-0.9c0.3,0.3,0.5,0.7,0.8,1c1,1.3,2,2.5,2.8,3.9c0.4,0.7,0.8,1.5,1,2.3
			C80.5,46.1,80.6,46.3,80.3,46.3z M77.5,38.8c0.2-0.2,0.3-0.1,0.4,0.1c0.1,0.2,0.2,0.3,0.4,0.5c0.4,0.4,0.8,0.7,1.2,1.1
			c0.4,0.3,0.8,0.6,1.3,1c0-0.1,0-0.1,0-0.1c-0.4-0.5-0.8-1.1-1.4-1.5c-0.8-0.5-1.5-1.3-2.5-1.7c-0.3-0.1-0.5-0.4-0.7-0.6
			c-0.5-0.4-1.1-0.9-1.6-1.3c0,0,0,0.1-0.1,0.1C75.5,37.1,76.5,37.9,77.5,38.8z M114.1,61.9c-2-0.8-4.1-1.5-6.1-2.3
			C108.4,60.1,113.3,61.9,114.1,61.9z M84.5,45.9c-1-0.9-2-1.8-2.9-2.7C82.3,44.4,83.4,45.1,84.5,45.9z M79.9,45.3
			C80,45.3,80,45.3,79.9,45.3c-0.4-0.9-0.8-1.8-1.3-2.6c0,0-0.1,0-0.1,0c0.2,0.6,0.5,1.2,0.7,1.8c0.1,0.2,0.2,0.4,0.3,0.6
			c0,0,0,0,0,0c0-0.1,0-0.1,0-0.3C79.8,45.1,79.9,45.2,79.9,45.3z M83,44c-0.4-0.6-1.6-1.8-2.1-2.1C81,42.3,82.2,43.5,83,44z
			 M72.9,34.9c-0.1-0.5-0.5-0.6-0.8-0.8c-0.3-0.2-0.6-0.4-1.1-0.3C71.7,34.2,72.2,34.5,72.9,34.9z M77,40.7
			C77.1,40.7,77.1,40.7,77,40.7c-0.3-0.6-0.7-1.1-1.1-1.7c0,0-0.1,0-0.1,0.1C76.3,39.6,76.6,40.2,77,40.7z M105.2,57.2
			c0.3,0.3,0.6,0.7,0.9,1C105.9,57.7,105.6,57.4,105.2,57.2z M109.9,62.2C109.9,62.2,109.9,62.2,109.9,62.2c-0.7,0-1.3,0-2,0
			c0,0,0,0,0,0C108.6,62.2,109.3,62.2,109.9,62.2z M78.7,40.3C78.7,40.2,78.7,40.2,78.7,40.3c-0.2-0.3-0.5-0.5-0.8-0.8c0,0,0,0,0,0
			C78.1,39.8,78.4,40,78.7,40.3z"/>
		<path class="st1" d="M33,62.5c-0.7,0.1-1.4,0.2-2,0.3c-1.2,0.1-2.3,0.1-3.5,0c-0.3,0-0.5-0.1-0.7-0.2c-0.9-0.3-1.9-0.4-2.9-0.4
			c-0.7,0-1.4-0.1-2-0.3c-0.8-0.3-1.6-0.3-2.4-0.4c-0.5-0.1-1.1-0.1-1.6-0.1c-0.9,0-1.9,0-2.8,0c-0.1,0-0.2,0-0.4-0.1
			c1-0.2,2.1-0.1,3.2-0.2c-0.1,0-0.2,0-0.2-0.1c-0.8-0.1-1.7-0.1-2.5-0.1c-1.5,0-3,0-4.5,0.1c-0.9,0-1.7,0.2-2.5,0.5
			c0,0-0.1,0-0.1,0c-0.2-0.2-0.5,0-0.7,0.1c-0.4,0.2-0.8,0.4-1.2,0.6c-0.1,0-0.3,0-0.4,0c0,0-0.1-0.2,0-0.2c0.3-0.3,0.5-0.6,0.9-0.7
			c0.8-0.3,1.6-0.6,2.4-0.9c1.1-0.4,2.3-0.6,3.5-0.7c0.8-0.1,1.6-0.1,2.4,0.1c0.2,0,0.3,0.1,0.5,0.1c1.1,0,2.2,0,3.2,0
			c1.8,0,3.5,0.4,5.3,0.7c2.1,0.4,4.1,0.8,6.2,0.9c0.4,0,0.7,0.1,1.1,0.1c0.1,0,0.2,0,0.3-0.1c1-0.8,2.1-1.6,3.1-2.5
			c1.5-1.2,2.7-2.6,3.6-4.3c0.7-1.3,1.4-2.7,2.1-4.1c0.2-0.5,0.5-0.9,0.8-1.4c0-0.1,0.1-0.2,0.1-0.3c0,0,0.1,0.1,0.1,0.1
			c-1.4,4.3-3,8.5-5.3,12.4c0.4-0.1,0.8-0.2,1.2-0.2c0.4-0.1,0.7,0,1,0.2c0.1,0,0.2,0.1,0.2,0.1c1.9-0.2,3.8,0.2,5.7,0.7
			c0.7,0.2,1.4,0.1,2.1,0c0.9-0.1,1.9-0.2,2.8-0.3c0,0,0.1,0,0.2,0c-0.2,0.1-0.4,0.2-0.5,0.2c-0.7,0.2-1.3,0.8-2.1,0.9
			c-1.7,0.2-3.3,0.3-4.9-0.2c-0.2-0.1-0.5-0.1-0.8-0.1c-0.1,0-0.1,0-0.2,0c-0.5-0.3-1-0.2-1.6-0.3c-0.5-0.1-1-0.1-1.4-0.2
			c-0.1,0-0.1,0-0.2,0c-0.4-0.3-0.8-0.1-1.1,0.1c-0.2,0.1-0.4,0.2-0.6,0.3c0,0-0.1,0-0.2,0c0.6-0.6,1.3-0.9,2.1-0.9c0,0,0-0.1,0-0.1
			c-0.2,0-0.4,0-0.7,0c-0.5,0.1-1,0.2-1.4,0.6c-0.1,0.1-0.3,0.2-0.4,0.3c-0.1,0-0.1,0.1-0.2,0c0,0-0.1-0.1-0.1-0.2
			c0-0.1,0-0.3,0.1-0.4c0.4-0.7,0.8-1.5,1.1-2.2c0.1-0.1,0.1-0.3,0.2-0.5c-0.1,0.1-0.2,0.1-0.2,0.1c0.7-0.8,1-1.7,1.5-2.6
			c0,0-0.1,0-0.1-0.1c-0.1,0.2-0.2,0.3-0.3,0.5c-0.6,0.9-1.3,1.9-1.9,2.7c-0.3,0.4-0.7,0.7-1,1c-0.5,0.4-1,0.8-1.4,1.2
			C33,62.1,33,62.2,33,62.3C33,62.4,33,62.4,33,62.5z M21.5,60.4c-1.4-0.4-7.6-0.4-8.6-0.2C15.6,60.5,18.5,60.2,21.5,60.4z
			 M37.7,56.3c-1.5,2.1-3.7,3.5-5.6,5.2C34.3,60.2,36.3,58.6,37.7,56.3z M35.1,59.8c-0.2,0.1-0.4,0.2-0.5,0.3
			c-0.6,0.4-1.2,0.9-1.8,1.4c-0.1,0-0.1,0.2-0.1,0.3c-0.4,0.1-0.8,0.1-1.3,0.2c0,0,0,0,0,0.1c0.2,0,0.3,0.1,0.5,0.1
			c-0.4,0.3-0.9,0-1.3,0.3c0.1,0,0.1,0,0.2,0c0.7,0,1.4-0.1,1.9-0.6c0-0.1,0.1-0.1,0.2-0.1C33.7,61.2,34.4,60.5,35.1,59.8z M19,60.9
			C19,61,19,61,19,60.9c0.8,0.2,1.5,0.3,2.3,0.4c-0.1-0.3,0.1-0.3,0.2-0.3c0.8,0.1,1.6,0.2,2.3,0.3c0.5,0.1,1.1,0.2,1.6,0.3
			c-0.1-0.1-0.1-0.1-0.2-0.1c-1.4-0.2-2.8-0.4-4.2-0.7c-0.2,0-0.5-0.1-0.7,0c-0.2,0.1-0.4,0.1-0.6,0.1C19.5,61,19.2,60.9,19,60.9z
			 M39.7,61.7c0.6,0.3,1.2,0.3,1.8,0.4c0.2,0,0.4,0.1,0.6,0.2c0,0,0.1,0.1,0.1,0.1c0.5,0,0.9,0,1.4,0c0,0,0-0.1,0-0.1
			C42.3,62,41,61.7,39.7,61.7z M27.2,62.4C27.2,62.4,27.2,62.4,27.2,62.4c0.3,0.1,0.7,0.1,1,0.1c0.6,0,1.2,0,1.9,0
			c0.2,0,0.4,0,0.4-0.3c-0.3,0-0.5,0-0.8-0.1c0,0.1,0,0.1,0.1,0.2c-0.3-0.1-0.6-0.2-0.9-0.2c0,0.1,0,0.2,0,0.3
			C28.3,62.4,27.8,62.4,27.2,62.4z M28.6,61.6C28.6,61.6,28.6,61.7,28.6,61.6c0.2,0.1,0.5,0.2,0.7,0.2c0.4,0.1,0.8,0.1,1.3,0.1
			c0.1,0,0.2-0.1,0.3-0.1c0,0,0,0,0-0.1C30.2,61.7,29.4,61.7,28.6,61.6z M10.4,60.2c0,0,0,0.1,0,0.1c0.4-0.1,0.8-0.2,1.2-0.3
			c0.4-0.1,0.8-0.1,1.2-0.2c0,0,0,0,0-0.1C12.1,60,11.3,60.1,10.4,60.2z M38.8,54.5C38.8,54.5,38.8,54.5,38.8,54.5
			c-0.2,0.3-0.4,0.6-0.6,0.9c0,0,0,0.1,0.1,0.1c0.1,0,0.2-0.1,0.2-0.1C38.6,55.1,38.7,54.8,38.8,54.5z"/>
		<path class="st1" d="M9.3,59.5c-0.9,0.5-1.8,1-2.8,1.5c0,0-0.1,0-0.1-0.1c0.1-0.1,0.2-0.1,0.3-0.2c1.5-1.3,3.2-2.1,5.1-2.7
			c1.6-0.5,3.2-0.9,4.8-1.5c2.5-0.8,5-1.7,7.5-2.6c0.9-0.3,1.8-0.8,2.4-1.5c0.9-1,2-1.7,3-2.6c0,0,0,0,0.1-0.1
			c-0.3-0.2-0.1-0.3,0-0.4c0.8-0.7,1.5-1.5,2.3-2.2c1.1-0.9,2.1-1.9,3.3-2.7c-0.3,0.2-0.6,0.3-0.9,0.4c-0.3,0.1-0.6,0.4-1,0.1
			c0.1-0.1,0.1-0.1,0.1-0.1c1-0.4,1.8-1,2.6-1.7c0.9-0.7,1.8-1.4,2.7-2.1c0.2-0.1,0.4-0.2,0.5-0.3c0.1-0.1,0.3-0.2,0.4-0.3
			c1.5-1.4,3-2.9,4.7-4.1c0.3-0.2,0.7-0.4,1-0.6c0.1,0,0.1-0.1,0.2-0.1c0.5-0.5,1.1-0.9,1.6-1.4c0,0,0.1-0.1,0.1-0.1
			c0-0.3,0.3-0.3,0.4-0.4c0.5-0.3,1-0.6,1.5-0.9c0.2-0.1,0.5-0.2,0.7-0.3c0.1,0,0.2,0,0.3,0c0,0,0,0.1,0,0.1
			c-0.2,0.1-0.4,0.3-0.6,0.4c0,0,0,0,0,0c0.2-0.1,0.5-0.2,0.7-0.3c1.2-0.5,2.4-0.8,3.6-1.1c0.2,0,0.4,0,0.5,0c0.1,0,0.3,0,0.4,0
			c0.4,0,0.8-0.2,1.1,0.2c0,0,0.2,0,0.2,0c0.2,0,0.5,0,0.7,0c0,0,0,0.1,0,0.1c-0.2,0-0.4,0.1-0.7,0.1c0.1,0.1,0.1,0.1,0.2,0.1
			c0,0,0,0,0,0c-0.3,0.1-0.6,0.1-0.8,0.3c0,0-0.1,0-0.2,0c-0.5,0-1,0-1.5,0.1c-1.1,0.1-2.2,0.2-3.2,0.6c-0.6,0.3-1.2,0.3-1.7,0.6
			c-0.5,0.3-1,0.7-1.6,1c-1.1,0.7-2.1,1.3-3.2,2c-0.2,0.1-0.3,0.2-0.5,0.3c-0.9,0.8-1.8,1.6-2.7,2.4c-0.1,0.1-0.2,0.3-0.3,0.4
			c-0.2,0.2-0.3,0.5-0.5,0.7c-1.2,1.2-2.5,2.4-3.9,3.4c-0.8,0.5-1.5,1-2.3,1.6c-0.5,0.4-0.9,0.8-1.4,1.2c0.2,0,0.2,0,0.3,0
			c-0.1,0.2-0.2,0.4-0.3,0.5c-0.7,0.7-1.4,1.3-2.1,1.9c-0.5,0.4-0.9,0.9-1.4,1.4c0,0-0.1,0.1-0.1,0.1c0.1,0.3-0.2,0.4-0.3,0.5
			c-0.4,0.3-0.7,0.6-1.1,0.8c-0.2,0.1-0.4,0.3-0.6,0.4c-0.1,0-0.1,0.1-0.1,0.2c0.3-0.1,0.6-0.3,1-0.4c1.4-0.5,2.7-1.4,3.8-2.4
			c0.9-0.8,1.9-1.6,2.9-2.5c0.2-0.1,0.4-0.2,0.5-0.4c0,0,0,0.1,0.1,0.1c-0.1,0.1-0.1,0.2-0.2,0.2c-1.1,1.2-2.4,2.3-3.7,3.3
			c-1.1,1-2.3,1.9-3.6,2.5c-0.4,0.2-0.8,0.5-1.2,0.4c-0.5,0-0.8,0.2-1.2,0.4c-0.4,0.2-0.9,0.4-1.3,0.6c0.1,0.2,0,0.3-0.2,0.4
			c-0.7,0.3-1.4,0.7-2.2,0.9c-0.8,0.3-1.7,0.6-2.5,0.9c0,0.1,0.1,0.1,0.2,0.2c-2.6,0.3-5,1.6-7.4,2.4c0,0,0-0.1-0.1-0.1
			c0.2-0.1,0.4-0.2,0.5-0.4c-1.3,0.3-2.6,0.8-3.8,1.5c0,0,0-0.1-0.1-0.1C8.8,60,9.1,59.8,9.3,59.5C9.3,59.5,9.3,59.5,9.3,59.5z
			 M38.5,41.7c-0.9,0.7-1.9,1.5-2.8,2.2C36.8,43.3,37.7,42.6,38.5,41.7z M55.4,31.9c0,0,0-0.1,0-0.1c-0.9,0.1-1.8,0.3-2.6,0.4
			c0,0,0,0,0,0.1C53.7,32.2,54.6,32.1,55.4,31.9z M47.2,34.5C47.2,34.6,47.2,34.6,47.2,34.5c0.4-0.2,0.8-0.5,1.2-0.7
			c0,0,0-0.1-0.1-0.1C47.9,34,47.5,34.3,47.2,34.5z M16.4,57.1C16.4,57.1,16.4,57.1,16.4,57.1c-0.4,0.1-0.8,0.2-1.2,0.3
			c0,0,0,0,0,0.1C15.6,57.3,16,57.2,16.4,57.1z"/>
		<path class="st1" d="M72.6,96c-0.5,0.6-0.9,1.2-1.3,1.8c0,0,0,0,0,0c0.1,0,0.1-0.1,0.2-0.1c0.3-0.1,0.5-0.1,0.7,0.1
			c0.2,0.2,0.2,0.4,0,0.6c-0.3,0.5-0.6,0.9-0.8,1.4c0,0.1-0.1,0.1-0.2,0.3c0.2,0,0.3-0.1,0.4-0.1c0.6-0.1,1,0.4,0.8,1
			c-0.1,0.4-0.3,0.7-0.7,0.9c-0.3,0.1-0.4,0-0.3-0.2c0-0.2,0.1-0.4,0.1-0.5c0.1-0.2,0.1-0.4,0.2-0.5c0,0,0,0-0.1-0.1
			c-0.3,0.1-0.5,0.3-0.8,0.4c-0.2,0.1-0.4,0.3-0.6,0.3c-0.1,0.1-0.3,0.1-0.5,0c-0.3-0.1-0.4-0.3-0.2-0.6c0.4-0.6,0.9-1.2,1.3-1.8
			c0.1-0.1,0.1-0.2,0.1-0.3c-0.2,0.2-0.4,0.4-0.7,0.5c-0.1,0.1-0.3,0.3-0.4,0.4c-0.2,0.2-0.4,0.1-0.6-0.1c-0.2-0.1-0.1-0.3,0-0.4
			c0.4-0.6,0.8-1.1,1.1-1.7c0-0.1,0.1-0.1,0.1-0.2c-0.3,0.2-0.5,0.3-0.8,0.5c-0.2,0.1-0.4,0.1-0.7,0c-0.2-0.2-0.3-0.3-0.1-0.5
			c0.3-0.4,0.7-0.8,1-1.2c0.1-0.1,0.2-0.3,0.3-0.4c-0.2,0.1-0.4,0.3-0.6,0.4c-0.2,0.1-0.5,0.2-0.7,0c-0.2-0.1-0.3-0.3-0.1-0.5
			c0.4-0.5,0.7-0.9,1.1-1.4c0.1-0.1,0.1-0.2,0.1-0.3c-0.3,0.2-0.5,0.3-0.8,0.5c-0.2,0.1-0.4,0.2-0.6,0.3c-0.2,0-0.4,0.1-0.6,0
			c-0.3-0.1-0.4-0.3-0.2-0.6c0.2-0.4,0.5-0.7,0.8-1c0.5-0.6,1-1.1,1.5-1.7c-0.1,0-0.2,0.1-0.2,0.1c-0.7,0.4-1.3,0.9-2,1.3
			c-0.2,0.1-0.4,0.2-0.6,0.3c-0.2,0-0.3,0-0.5,0c-0.4-0.1-0.4-0.4-0.2-0.7c0.5-0.6,1-1.1,1.5-1.7c0.1-0.1,0.1-0.1,0.2-0.2
			c-0.6,0-1.1,0.4-1.7,0.4c0,0,0-0.1,0-0.1c0.4-0.2,0.8-0.4,1.2-0.7c-0.1-0.1-0.1-0.1-0.1-0.2c-0.2-0.3-0.2-0.3,0-0.5
			c0.6-0.5,1.2-1,1.8-1.5c0.1-0.1,0.2-0.1,0.2-0.2c0,0-0.1-0.1-0.1-0.1c-0.1,0-0.2,0.1-0.2,0.1c-0.9,0.6-1.8,1.1-2.7,1.7
			c-0.3,0.2-0.5,0.3-0.8,0.4c-0.1,0-0.2,0-0.4,0c1.4-1.3,2.8-2.5,4.2-3.7c-0.2,0.3-0.4,0.5-0.6,0.7c-0.2,0.2-0.5,0.5-0.7,0.7
			c-0.2,0.2-0.4,0.4-0.7,0.6c-0.2,0.2-0.5,0.4-0.7,0.6c-0.2,0.2-0.5,0.4-0.7,0.6c0.2-0.1,0.3-0.2,0.5-0.3c1-0.6,1.9-1.2,2.9-1.8
			c0.1-0.1,0.2-0.1,0.4-0.2c0.1,0,0.2,0,0.2,0c0,0.1,0,0.2-0.1,0.2c-0.3,0.3-0.5,0.5-0.8,0.7c-0.5,0.5-1.1,1-1.7,1.4
			c0.1,0.1,0.1,0.2,0.2,0.4c0.9-0.6,1.9-1.2,2.8-1.7c-0.2-1-0.4-2.1-0.6-3.1c0-0.1,0-0.3,0-0.4c0-0.1,0-0.2,0.1-0.2
			c0.1,0,0.2,0,0.2,0c0.1,0.1,0.1,0.2,0.2,0.3c0.3,1.5,0.6,3,0.9,4.5c0,0.1,0.1,0.2,0.2,0.3c0.3,0.2,0.3,0.3,0.2,0.7
			c0,0.1,0,0.1,0,0.2c0.2,1,0.3,2.1,0.5,3.1c0.3,2.3,0.7,4.7,0.9,7c0,0.6,0.1,1.1,0.1,1.7c0,0.2-0.1,0.3-0.2,0.2
			c-0.1-0.1-0.2-0.2-0.2-0.3c-0.1-0.4-0.2-0.7-0.2-1.1c-0.2-1.6-0.3-3.3-0.4-4.9C72.6,96.2,72.6,96.1,72.6,96z M69.2,93.6
			C69.2,93.7,69.2,93.7,69.2,93.6c0.7-0.3,1.3-0.7,2-1.1c0.3-0.2,0.5-0.4,0.9-0.2c-0.1-0.5-0.1-1-0.2-1.5
			C70.9,91.7,69.9,92.6,69.2,93.6z M71.3,88.9c-1.1,0.9-2.1,1.8-3.1,2.8c0.1,0,0.1,0,0.1,0c1-0.6,2.1-1.3,3.1-2c0,0,0.1-0.1,0.1-0.2
			C71.5,89.4,71.4,89.2,71.3,88.9z M70.6,94.6C70.6,94.6,70.7,94.6,70.6,94.6c0.5-0.3,1-0.6,1.5-0.9c0,0,0.1-0.1,0.1-0.1
			c0-0.2-0.1-0.5-0.1-0.8C71.6,93.4,71.1,94,70.6,94.6z M72.4,94.6c-0.5,0.5-0.9,1-1.3,1.4c0.5-0.2,0.8-0.8,1.4-0.2
			C72.5,95.4,72.4,95,72.4,94.6z"/>
		<path class="st1" d="M54.5,33.1c-0.7,0.5-1.3,1-2,1.4c0.1,0.2,0.2,0.1,0.3,0c0.6-0.4,1.2-0.8,1.8-1.1c0.3-0.2,0.7-0.3,1.1-0.4
			c0.1,0,0.2-0.1,0.3,0c0.1,0,0.2,0.2,0.3,0.2c-0.1,0.1-0.1,0.2-0.2,0.2c-0.6,0.3-1.2,0.6-1.8,1c-1.2,0.8-2.4,1.7-3.6,2.6
			c-1.3,1-2.4,2.2-3.7,3.3c-0.2,0.1-0.4,0.3-0.5,0.4c0,0-0.1-0.1-0.1-0.1c0.2-0.3,0.4-0.5,0.6-0.8c-0.4,0.1-0.6,0.5-1,0.2
			c-0.3,0.2-0.4,0.5-0.3,0.8c0.1,0.8,0.1,1.6,0.2,2.3c0.2,1.5,0.4,3,0.6,4.4c0.2,0.9,0.5,1.7,0.8,2.6c0.5,1.4,1,2.8,1.7,4.1
			c0.3,0.6,0.8,1.2,1.1,1.8c0.1,0.1,0.1,0.2,0.1,0.4c-0.4-0.3-0.9-0.6-1.4-0.9c0,0.2,0,0.4,0,0.6c-0.1-0.1-0.2-0.1-0.2-0.2
			c-0.1-0.1-0.1-0.2-0.1-0.3c-0.1-0.5-0.3-0.9-0.7-1.3c-0.2-0.2-0.2-0.3,0-0.6c-0.3-0.5-0.5-1-0.8-1.5c-0.2-0.5-0.5-1-0.6-1.5
			c-0.2-1.2-0.7-2.2-1-3.3c-0.4-1.4-0.6-2.8-0.6-4.3c0-0.1-0.1-0.3-0.1-0.4c0-0.1,0-0.2,0-0.3c0.1-0.7,0.2-1.4,0.4-2.1
			c0.1-0.3,0.2-0.7,0.3-1c0.1,0,0.2-0.1,0.3-0.1c0.1,0,0.2-0.1,0.2,0c0.2,0.2,0.3,0,0.5-0.1c0.3-0.3,0.6-0.5,1-0.8c0,0,0,0,0-0.1
			c-0.2,0.1-0.3,0.2-0.5,0.3c-0.2,0.1-0.5,0.3-0.7,0.4c-0.1,0-0.2,0-0.3,0c0,0,0-0.1,0-0.1c0.3-0.2,0.5-0.4,0.8-0.6
			c-0.1-0.1-0.1-0.1-0.2-0.2c0.4-0.3,0.8-0.5,1.2-0.8c1.7-1.2,3.4-2.5,5.1-3.7c0.4-0.3,0.8-0.5,1.3-0.8
			C54.3,33.1,54.4,33.1,54.5,33.1C54.5,33.1,54.5,33.1,54.5,33.1z M46,47.4C46,47.4,46,47.4,46,47.4c0-0.8-0.1-1.5-0.2-2.3
			c0,0-0.1,0-0.1,0C45.7,45.9,45.9,46.6,46,47.4z M49.3,55.4c-0.3-0.6-0.6-1.1-0.8-1.4C48.7,54.2,48.7,55,49.3,55.4z"/>
		<path class="st1" d="M52.1,85.1c0.1,0,0.3,0,0.4-0.1c1-0.6,2.1-1.3,3.1-1.9c0.1-0.1,0.3-0.2,0.4,0.1c-1.3,1-2.6,2-4,3c0,0,0,0,0,0
			c0.1,0,0.2-0.1,0.2-0.1c1-0.6,2.1-1.1,3.1-1.7c0.2-0.1,0.3-0.1,0.5,0.1c-1.7,1.2-3.5,2.1-5.3,3.2c0.1,0,0.3-0.1,0.4-0.1
			c0.7-0.3,1.5-0.5,2.2-0.8c0.2-0.1,0.5-0.2,0.8-0.2c0.1,0,0.3,0,0.4,0c0,0,0,0,0,0.1c-0.1,0-0.1,0.1-0.2,0.1c-1,0.4-2,0.7-3,1.1
			c-0.3,0.1-0.6,0.2-1,0.3c-0.1,0-0.2,0-0.3,0c-0.1,0-0.1-0.1-0.2-0.1c0-0.1,0.1-0.1,0.1-0.2c0.2-0.1,0.4-0.2,0.6-0.4
			c-0.1-0.1-0.1-0.1-0.2-0.2c1.2-0.9,2.4-1.8,3.6-2.7c0,0,0,0,0-0.1c-0.3,0.2-0.6,0.4-0.9,0.5c-0.9,0.5-1.8,1-2.6,1.4
			c-0.4,0.2-0.7,0.5-0.9,0.9c0,0.1-0.1,0.2-0.1,0.3c0,0.3-0.2,0.3-0.3,0.2c-0.3-0.1-0.5-0.4-0.3-0.7c0.2-0.4,0.5-0.8,0.8-1.1
			c0.5-0.4,1.1-0.8,1.7-1.2c0.1-0.1,0.3-0.2,0.4-0.3c-0.1,0-0.2,0.1-0.2,0.1c-0.4,0.2-0.8,0.4-1.3,0.6c-0.1,0.1-0.3,0.1-0.4,0.1
			c-0.1,0-0.3-0.2-0.3-0.3c0-0.1,0.1-0.2,0.2-0.3c1-0.8,2-1.5,3-2.3c0.3-0.2,0.6-0.5,0.9-0.7c-0.1,0-0.2,0.1-0.3,0.1
			c-1.1,0.5-2.2,1.1-3.2,1.6c-0.2,0.1-0.3,0.2-0.5,0c0.2-0.1,0.4-0.3,0.6-0.4c2.2-1.4,4.4-2.6,6.8-3.7c0.2-0.1,0.4-0.1,0.6,0
			c0.3,0.2,0.3,0.3,0,0.5c-1,0.7-2.1,1.4-3.1,2.2c-0.8,0.5-1.5,1.1-2.2,1.7c0.4-0.2,0.8-0.5,1.2-0.7c0.4-0.2,0.9-0.5,1.3-0.7
			c0.3-0.1,0.5-0.1,0.7,0.1c0.2,0.1,0.2,0.3,0,0.5c-0.2,0.2-0.5,0.4-0.7,0.5C53.7,84.1,52.9,84.6,52.1,85.1
			c-0.4,0.2-0.8,0.5-1.2,0.7c0,0,0,0.1,0,0.1c0.4-0.2,0.7-0.4,1.1-0.6C52.1,85.2,52.1,85.1,52.1,85.1z"/>
		<path class="st1" d="M51,89.2c-0.9,0.4-1.7,0.9-2.6,1.3c-0.2,0.1-0.3,0.1-0.5-0.1c0.3-0.2,0.6-0.5,1-0.7c1.7-0.9,3.3-1.8,5-2.7
			c0.1-0.1,0.4-0.1,0.5,0c0.3,0.1,0.3,0.3,0.1,0.5c-0.1,0.1-0.1,0.2-0.2,0.4c-0.2,2.2-0.3,4.4-0.5,6.6c0,0.5-0.1,1-0.2,1.5
			c0,0.2-0.1,0.4-0.2,0.5c0,0-0.1,0-0.1,0c0-0.2-0.1-0.5-0.1-0.7c0.1-1.5,0.1-3,0.2-4.6c0-0.3,0-0.6,0-1c-1,0.8-1.9,1.6-2.9,2.4
			c0,0,0,0,0,0c0.1,0,0.1,0,0.2-0.1c0.4-0.1,0.7-0.3,1.1-0.4c0.2,0,0.3-0.1,0.5,0c0.5,0.1,0.6,0.5,0.3,0.9c-0.2,0.3-0.4,0.5-0.7,0.7
			c-0.8,0.7-1.6,1.4-2.4,2.1C49.7,96,49.5,96,49.3,96c-0.2-0.1-0.3-0.3-0.1-0.4c0.2-0.3,0.5-0.5,0.8-0.8c0.6-0.6,1.3-1.1,1.9-1.7
			c0.1-0.1,0.2-0.2,0.2-0.3c-0.1,0-0.3,0.1-0.4,0.1c-0.5,0.2-1,0.4-1.4,0.6c-0.3,0.1-0.5,0.1-0.8-0.1c-0.2-0.2-0.3-0.4-0.1-0.6
			c0.2-0.2,0.5-0.5,0.8-0.7c0.4-0.3,0.7-0.6,1.1-0.9c0,0,0,0,0-0.1c-0.1,0-0.2,0.1-0.2,0.1c-0.7,0.4-1.3,0.8-2,1.2
			c-0.2,0.1-0.5,0.2-0.7,0.1c-0.4-0.2-0.5-0.4-0.2-0.7c0.5-0.5,1-1.1,1.6-1.6C50.1,90,50.6,89.6,51,89.2C51,89.2,51,89.2,51,89.2z
			 M53.8,88.1c-0.5,0.2-3.9,3-4.1,3.3c0.2-0.1,0.3-0.2,0.4-0.3c0.7-0.4,1.5-0.9,2.2-1.3c0.4-0.2,0.9-0.5,1.3,0
			C53.7,89.2,53.8,88.7,53.8,88.1z"/>
		<path class="st1" d="M46.2,37.4c-0.2,0-0.4,0.1-0.5,0.1c0.2-0.4,0.4-0.5,0.7-0.3c0.1,0,0.2,0,0.2,0c0.2-0.1,0.4-0.3,0.5-0.4
			c0.1,0,0.2,0,0.3,0c-0.2,0.4-0.5,0.7-0.8,1C45,39.3,43.4,41,42.3,43c-0.1,0.2-0.3,0.4-0.4,0.7c-0.1-0.1-0.1-0.2-0.1-0.3
			c0,0.1-0.1,0.1-0.1,0.1c-0.5,0.9-1,1.8-1.5,2.8c-0.4,0.7-0.8,1.5-1.2,2.2c-0.3,0.5-0.7,1-1.2,1.4c-0.3,0.2-0.5,0.6-0.7,0.9
			c-0.5,0.7-1,1.5-1.6,2.1c-0.1,0.1-0.3,0.3-0.5,0.4c-0.1,0.1-0.3,0.1-0.4,0c-0.3,0-0.6-0.1-0.9,0.1c-0.1,0.1-0.3,0.1-0.4,0.1
			c0,0,0,0,0-0.1c0.1-0.1,0.1-0.1,0.2-0.2c0.9-0.9,1.9-1.7,2.8-2.6c0.1-0.1,0.2-0.3,0.3-0.4c0.4-0.9,0.7-1.8,1.2-2.6
			c0.6-1.1,1.3-2.2,2-3.3c0.1-0.2,0.1-0.3,0.2-0.5c0.2-0.3,0.3-0.6,0.5-0.9c1.4-1.7,3.1-3.2,4.8-4.6C45.5,38,45.8,37.8,46.2,37.4z"
			/>
		<path class="st1" d="M94,63.3c-0.3,0-0.6,0.1-0.9,0.1c-1,0-2.1-0.1-3.1-0.1c-1.7-0.1-3.4-0.2-5.1-0.3c-0.1,0-0.1,0-0.2-0.1
			c0.4,0,0.9,0,1.3,0c0,0,0,0,0,0c-0.7-0.1-1.5-0.2-2.2-0.3c-2.3-0.3-4.7-0.3-7.1-0.3c-0.2,0-0.4-0.1-0.6-0.1c-0.1,0-0.3,0-0.4,0
			c-0.8,0.1-1.6,0.3-2.4,0.5c-0.6,0.1-1.2,0.4-1.8,0.6c-0.3,0.1-0.4,0-0.5-0.3c0.2-0.1,0.5-0.2,0.7-0.3c2.4-1,4.8-1.6,7.4-1.9
			c2.6-0.3,5.1-0.1,7.6,0.6c0.7,0.2,1.3,0.5,2,0.7c1.2,0.3,2.5,0.6,3.7,0.9c0.4,0.1,0.8,0.1,1.2,0.2c0.1,0,0.3,0,0.4,0.1
			C94.1,63.2,94,63.3,94,63.3z M81.2,61.7c0.1,0.1,0.2,0.2,0.4,0.3c0.1,0.1,0.4,0.1,0.4,0c0.1-0.3,0.3-0.1,0.5-0.1
			c1.3,0.2,2.6,0.4,3.9,0.6c0.5,0.1,1,0.1,1.6,0.1c0-0.1,0-0.1,0-0.1c-0.1,0-0.2-0.1-0.3-0.1c-1.7-0.3-3.4-0.6-5.1-0.6
			c-0.2,0-0.3-0.1-0.5-0.1c0,0,0-0.1,0-0.1c0.2,0,0.3,0,0.5,0c1.2,0,2.3,0.1,3.5,0.3c0.7,0.1,1.4,0.3,2,0.4c0.2,0,0.3,0.2,0.5,0.3
			c-0.2,0.1-0.2,0.1-0.3,0.2c1.2,0.3,2.3,0.1,3.4,0.2c-0.1,0-0.1-0.1-0.2-0.1c-1.3-0.3-2.6-0.7-4-1c-1.3-0.3-2.6-0.8-4-0.5
			c-0.7,0.1-1.3,0.1-2,0.2C81.3,61.7,81.2,61.7,81.2,61.7z M81.6,61.5C81.6,61.5,81.6,61.4,81.6,61.5c-2,0-4.1-0.2-6.1,0.4
			C77.5,61.7,79.5,61.6,81.6,61.5z M83.4,61.1C83.4,61.1,83.4,61.1,83.4,61.1c-0.9,0-1.9,0-2.8,0c0,0,0,0,0,0
			C81.5,61.1,82.5,61.1,83.4,61.1z M80.2,62C80.2,62,80.2,62,80.2,62c-0.4,0-0.8,0-1.3,0c0,0,0,0,0,0C79.3,62,79.7,62,80.2,62z"/>
		<path class="st1" d="M49.9,97.9c-0.1,0.1-0.2,0.1-0.2,0.2c-0.7,0.5-1.3,1.1-2,1.6c-0.3,0.3-0.6,0.5-1.1,0.1c0,0.1,0,0.2,0,0.3
			c0,1.5-0.1,2.9-0.1,4.4c0,0.1,0,0.2,0,0.2c0.2,0.2,0.2,0.5,0.2,0.7c-0.2,1.4-0.1,2.9,0.1,4.3c0,0.2,0,0.4,0,0.6c0,0-0.1,0-0.1,0
			c-0.1-0.1-0.2-0.3-0.2-0.4c-0.1-0.8-0.2-1.6-0.3-2.4c-0.2-2.7-0.1-5.5,0-8.2c0-0.7,0.1-1.5,0.2-2.2c0-0.1,0.1-0.3,0.1-0.4
			c0,0,0.1,0,0.1,0c0,0.2,0.1,0.4,0.1,0.6c0,0.6,0,1.1-0.1,1.7c0,0.1,0,0.2,0,0.3c0.3-0.3,0.5-0.7,0.8-0.9c1-0.9,2.1-1.8,3.1-2.6
			c0.4-0.3,0.8-0.6,1.2-0.9c0.1-0.1,0.2-0.1,0.3-0.2c0.2-0.1,0.4,0,0.5,0.1c0,0.1,0,0.3-0.1,0.4c-0.3,0.3-0.6,0.5-0.9,0.8
			c-0.1,0.1-0.2,0.1-0.2,0.2c0.4-0.2,0.7-0.4,1.1-0.6c0.3-0.1,0.5-0.1,0.8,0.1c0.2,0.1,0.2,0.3,0.1,0.5c-0.4,0.4-0.8,0.8-1.2,1.2
			c-1,0.9-2,1.8-3,2.6c-0.2,0.2-0.4,0.4-0.5,0.6c-0.2,0.2-0.4,0.2-0.6,0c-0.2-0.2-0.2-0.3,0-0.5c0.6-0.6,1.2-1.2,1.8-1.8
			C49.8,98.1,49.9,98,49.9,97.9C49.9,97.9,49.9,97.9,49.9,97.9z"/>
		<path class="st1" d="M57.1,72.5c0.6-0.2,1.3-0.4,1.9-0.6c0.4-0.1,0.8-0.3,1.3-0.4c0.2,0,0.4,0,0.6,0.1c0.3,0.1,0.2,0.3,0,0.5
			c-0.9,0.5-1.8,1-2.7,1.5c-0.6,0.3-1.1,0.6-1.7,1c-0.2,0.1-0.3,0.3-0.4,0.4c-0.3,0.3-0.5,0.6-0.8,0.8c-0.4,0.3-0.9,0.6-1.4,0.8
			c-0.1,0.1-0.3,0.1-0.5,0c-0.5-0.1-0.6-0.4-0.2-0.8c0.7-0.5,1.4-1,2.1-1.5c0.6-0.4,1.2-0.7,1.8-1.1c0,0,0,0,0-0.1
			c-0.7,0.3-1.4,0.6-2.1,0.9c-1.4,0.7-2.7,1.6-3.9,2.6c-0.2,0.2-0.4,0.2-0.6,0.1c-0.2-0.1-0.2-0.3,0-0.4c0.6-0.5,1.3-1,1.9-1.5
			c2.1-1.6,4.4-2.9,6.7-4.2c0.1-0.1,0.3-0.1,0.5-0.1c0.1,0,0.2,0.1,0.2,0.2c0,0-0.1,0.1-0.2,0.2c-0.9,0.5-1.7,1-2.6,1.6
			C57.1,72.4,57.1,72.5,57.1,72.5C57.1,72.5,57.1,72.5,57.1,72.5z"/>
		<path class="st1" d="M56.5,76.1c-0.5,0.2-1,0.4-1.6,0.6c0.7-0.4,1.4-0.7,2.1-0.9c0,0.1,0,0.1,0.1,0.2c-1.7,1.1-3.4,1.9-5.1,2.9
			c0,0,0,0,0,0.1c1.5-0.7,3-1.3,4.5-2c0,0,0,0,0,0.1c-0.9,0.4-1.8,0.8-2.7,1.2c0,0,0,0,0,0c0.2-0.1,0.4-0.1,0.6-0.2
			c0.9-0.3,1.8-0.6,2.6-0.9c0.3-0.1,0.6-0.2,1,0c0.1-0.5,0.1-0.9,0.2-1.3c0-0.1,0-0.2,0.1-0.4c0-0.1,0-0.3,0.2-0.2
			c0.2,0,0.3,0.1,0.3,0.4c-0.4,2.8-0.7,5.6-1.7,8.3c-0.3,0.8-0.5,1.7-0.8,2.5c0,0.2-0.1,0.3-0.3,0.4c-0.1,0-0.1,0.1-0.2,0.2
			c-0.3,0.8-0.7,1.7-1,2.5c-0.1,0.2-0.3,0.4-0.4,0.6c0,0-0.1,0-0.1,0c0-0.1,0-0.2,0-0.3c0.1-0.2,0.1-0.5,0.2-0.7
			c0.9-2.2,1.5-4.5,2.3-6.8c0.5-1.6,0.8-3.1,1.1-4.7c0-0.1,0-0.2,0-0.3c-1.3,0.5-2.6,0.9-3.9,1.5c-1.4,0.6-2.8,1.3-4.2,1.9
			c-0.2,0.1-0.5,0.1-0.7,0c-0.2-0.2-0.2-0.3,0-0.4c0.6-0.3,1.1-0.5,1.7-0.8c0.1,0,0.2-0.1,0.3-0.1c-0.1,0-0.2-0.1-0.3-0.1
			c0,0,0-0.1,0-0.1C52.9,78.3,54.7,77.2,56.5,76.1C56.6,76.2,56.5,76.2,56.5,76.1z"/>
		<path class="st1" d="M69.9,106.1c-0.1-0.2-0.1-0.3-0.2-0.4c-0.5-2.8-1.3-5.6-2.1-8.4c-0.6-2.1-1.3-4.2-2.3-6.3
			c-0.2-0.4-0.5-0.8-0.6-1.3c-0.3-1-0.5-1.9-0.4-2.9c0-0.1,0.1-0.2,0.1-0.2c0.1,0.1,0.3,0.1,0.3,0.2c0.1,0.1,0,0.2,0,0.3
			c0.1,0.5,0.1,1,0.2,1.5c0,0.1,0.1,0.2,0.1,0.3c0.1-0.1,0.1-0.1,0.2-0.1c1.3-1.3,2.6-2.5,3.9-3.8c0.2-0.2,0.3-0.4,0.5-0.6
			c0,0,0.1-0.1,0.2-0.1c0,0.1,0,0.2,0,0.2c-0.4,0.5-0.9,0.9-1.3,1.4c-1,1-2.1,2-3.2,3c-0.2,0.2-0.2,0.3-0.2,0.5
			c0.1,0.4,0.3,0.8,0.5,1.2c0.9,1.7,1.5,3.5,2.1,5.4c0.4,1.5,0.9,3,1.3,4.4c0.4,1.5,0.7,3,1,4.5C70.1,105.7,70.1,105.9,69.9,106.1z"
			/>
		<path class="st1" d="M75.9,47.5c0.1,0.9,0.5,1.7,0.9,2.5c0,0,0-0.1,0-0.1c0-0.1,0-0.1-0.1-0.2c-0.3-0.9-0.5-1.7-0.4-2.7
			c0-0.3,0.2-0.4,0.3-0.2c0,0,0.1,0.1,0.1,0.2c-0.1,0.9,0,1.7,0.3,2.5c0.2,0.6,0.4,1.2,0.6,1.8c0.3,0.9,1,1.7,1.5,2.5
			c0.2,0.3,0.4,0.5,0.6,0.8c-1-2.2-2.1-4.4-2.9-6.7c0,0,0,0,0.1,0c0,0,0.1,0.1,0.1,0.1c0.5,1.1,0.9,2.3,1.4,3.4
			c0.5,1.2,1.1,2.3,1.7,3.5c0.2,0.4,0.5,0.8,0.7,1.2c0.1,0.2,0.2,0.4,0.2,0.6c-0.7-0.9-1.3-1.8-2-2.7c0,0-0.1,0-0.1,0.1
			c0.6,0.9,1.2,1.8,1.7,2.7c0,0,0,0-0.1,0c-0.6-0.9-1.2-1.7-1.8-2.6c0.7,1.6,1.8,3,3,4.3c0,0,0,0-0.1,0.1c-0.1-0.1-0.3-0.1-0.4-0.2
			c-0.3-0.3-0.6-0.6-0.9-0.9c-1.2-1.5-2.1-3.1-2.8-4.8c-0.4-0.9-0.8-1.7-1.3-2.6c-0.3-0.6-0.6-1.3-0.7-2
			C75.8,47.9,75.8,47.7,75.9,47.5C75.9,47.5,75.9,47.5,75.9,47.5z"/>
		<path class="st1" d="M65.5,21.7c0.3,1,0.6,1.9,0.8,2.9c0,0.1,0,0.3,0,0.4c0,0-0.1,0-0.1,0c-0.1-0.3-0.2-0.7-0.3-1.1
			c-0.3,0.3-0.5,0.6-0.7,0.8c0,0,0,0,0,0.1c0.1,0,0.2,0,0.3,0c0.3,0,0.4,0.2,0.2,0.5c0,0.1-0.1,0.1-0.2,0.2
			c-0.3,0.3-0.5,0.7-0.4,1.2c0,0.1,0,0.2-0.1,0.3c-0.3-0.2-0.3-0.6-0.2-0.9c0.1-0.3,0.3-0.6,0.5-0.9c0,0,0,0,0,0
			c-0.2-0.1-0.3-0.1-0.5-0.2c0.1-0.2,0.1-0.3,0.3-0.5c0.2-0.2,0.4-0.4,0.6-0.6c0.1-0.1,0.1-0.2,0.1-0.2c-0.1-0.4-0.3-0.8-0.4-1.3
			c-0.2,0.1-0.3,0.2-0.5,0.3c-0.5,0.4-1,0.8-1.5,1.2c-0.1,0.1-0.1,0.2-0.2,0.3c-0.1,0.1-0.2,0.2-0.3,0.2c-0.1,0-0.2-0.1-0.2-0.2
			c0,0,0-0.2,0.1-0.2c0.3-0.2,0.5-0.4,0.8-0.6c0.1-0.1,0.1-0.1,0.2-0.2c0,0,0,0,0-0.1c-0.4,0.2-0.8,0.5-1.2,0.7
			c-0.4,0.2-0.8,0.4-1.2,0.6c-0.2,0.1-0.3,0.1-0.4-0.1c1-0.7,2-1.4,3.1-2.1c0,0,0,0,0-0.1c-0.2,0.1-0.5,0.1-0.7,0.2
			c-1.5,0.6-3,1.2-4.4,1.8c-0.2,0.1-0.4,0.2-0.6,0c1.5-0.7,3.1-1.4,4.6-2.1c0,0,0,0,0,0.1c-0.1,0.1-0.2,0.2-0.3,0.2
			c0.8-0.2,1.6-0.6,2.6-0.6c-0.7,0.4-1.3,0.9-1.9,1.3c0,0,0,0.1,0,0.1c0.1,0,0.2-0.1,0.3-0.1c0.6-0.3,1.1-0.5,1.7-0.8
			C65.3,22,65.4,21.8,65.5,21.7z"/>
		<path class="st1" d="M45.4,100.9c0-0.4,0-0.8,0-1.2c0.1-2.1,0.5-4.1,0.9-6.1c0.3-1.5,0.7-3.1,1.1-4.6c0-0.2,0-0.4,0.3-0.3
			c0.2,0.1,0.3,0.2,0.3,0.4c-0.2,0.8-0.4,1.6-0.6,2.4c-0.4,1.8-0.7,3.6-1,5.5c-0.2,1.2-0.4,2.3-0.6,3.5c0,0.1-0.1,0.3-0.2,0.4
			C45.5,100.9,45.5,100.9,45.4,100.9z"/>
		<path class="st1" d="M52.7,51.6c-0.1,0.2-0.3,0.4-0.4,0.6c0,0-0.1,0-0.1,0c0-0.1,0-0.2,0-0.2c0.3-0.4,0.4-0.8,0.5-1.3
			c0.1-0.7,0.2-1.4,0.2-2.1c0-1,0-2.1,0-3.1c0-0.4,0.2-0.9,0.3-1.3c0-0.1,0.1-0.1,0.2-0.1c0.1,0,0.1,0.1,0.1,0.2
			c-0.1,0.9,0.1,1.8,0.2,2.7c0.1,1.6,0.3,3.2,0.5,4.8c0,0.1,0,0.1,0,0.2c0-0.1-0.1-0.2-0.1-0.4c0,0.2,0,0.2,0,0.3c0,0,0,0-0.1,0
			c-0.1-1.2-0.3-2.4-0.4-3.6c0,0,0,0-0.1,0c0,0.2,0,0.4,0,0.5c0,0.9,0,1.8,0,2.8c0,0.2,0,0.3-0.2,0.4c0,0-0.1,0.1,0,0.1
			c0.1,0.3,0,0.6,0.3,0.9c0.2,0.1,0.1,0.3,0,0.5c0,0.1-0.3,0-0.4-0.1c-0.1-0.2-0.2-0.4-0.3-0.6C52.8,52.3,52.8,51.9,52.7,51.6z"/>
		<path class="st1" d="M66.3,47.5c0-0.2,0.1-0.3,0.1-0.5c0.1-0.2,0.1-0.3,0.2-0.4c-0.1,0.5-0.2,1-0.2,1.5c-0.1,1.1-0.1,2.3,0.5,3.3
			c0,0.1,0,0.2,0.1,0.3c0.2-0.1,0.4-0.1,0.6-0.2c0,0,0,0.1,0.1,0.1c-0.6,0.7-0.9,1.6-1.6,2.2c0,0-0.1,0-0.1,0c0.3-0.5,0.5-1,0.8-1.5
			c0.1-0.1,0.1-0.2,0-0.3c-1-0.9-1.3-2.1-1.2-3.4c0.1-1.1,0.2-2.1,0.7-3.1c0.1-0.2,0.2-0.3,0.3-0.5c0.1-0.1,0.2-0.2,0.4-0.1
			c0.1,0.1,0.2,0.2,0.1,0.3C66.5,45.8,66.4,46.6,66.3,47.5z"/>
		<path class="st1" d="M54.8,53c0.1-0.1,0.2-0.2,0.3-0.2c2.2-1,4.5-1.8,6.9-2.1c0.5-0.1,1-0.1,1.5,0.1c0.2,0.1,0.5,0,0.7,0
			c0.2,0,0.5,0,0.7,0c0,0,0,0.1,0,0.1c-0.1,0-0.3,0.1-0.4,0.1c-0.8,0.1-1.7,0.2-2.5,0.4c-2.3,0.4-4.6,0.8-6.7,1.8
			C55.1,53.2,55,53.2,54.8,53z"/>
		<path class="st1" d="M60.4,42.2c-0.3,0.3-0.6,0.5-0.8,0.8c-0.2,0.2-0.4,0.2-0.7,0.2c-0.3-0.1-0.6,0-0.9,0c-0.1,0-0.2,0-0.3-0.1
			c0-0.1,0-0.2,0.1-0.3c0.8-0.8,1.7-1.6,2.6-2.5c0.2-0.2,0.5-0.4,0.7-0.6c0,0,0,0,0.1,0.1c0,0.1-0.1,0.1-0.1,0.2
			c1.1,0.6,1.8,1.7,2.4,2.8c-0.2,0-0.3,0.1-0.5,0.1c-0.6,0-1.2,0-1.8,0.1c-0.2,0-0.3-0.1-0.4-0.2C60.7,42.5,60.6,42.4,60.4,42.2z
			 M58.2,42.7c0.3,0,0.5,0.1,0.8,0.1c0.2,0,0.4,0,0.5-0.1c0.2-0.2,0.3-0.3,0.5-0.4c0.1,0,0.1-0.1,0.1-0.2c-0.1-0.2,0.1-0.2,0.2-0.3
			c0.1-0.1,0.3-0.1,0.4-0.1c0.2,0.3,0.3,0.6,0.4,0.9c0.6,0,1.1,0,1.7,0c-0.4-0.7-1.7-2.1-2.1-2.3c0-0.1,0-0.1,0.1-0.2
			c-0.1,0.1-0.2,0.1-0.2,0.1c-0.2,0.2-0.3,0.5-0.5,0.7c-0.4,0.4-0.8,0.8-1.2,1.2C58.8,42.3,58.5,42.5,58.2,42.7z"/>
		<path class="st1" d="M89.7,56.5c0.1,0,0.3,0,0.4,0c0,0,0,0,0,0c0-0.1,0.1-0.2,0.1-0.3c0.1,0.1,0.2,0.1,0.3,0.2
			c0.1,0.2,0.2,0.4,0.5,0.5c0,0,0.1,0,0.1,0.1c1.5,1.5,2.9,2.9,4.4,4.4c0,0,0,0,0,0.1c-0.2-0.1-0.4-0.3-0.5-0.4
			c0.2,0.4,0.3,0.7,0.5,1.1c0,0-0.1,0.1-0.1,0.1c-0.1-0.1-0.2-0.1-0.3-0.2c-0.3-0.3-0.6-0.6-0.9-0.9c-1.4-1.3-2.6-2.7-3.8-4.2
			C90.2,56.6,90,56.6,89.7,56.5z M91.3,57.2C91.2,57.2,91.2,57.3,91.3,57.2c0.5,0.6,1,1.1,1.6,1.7c0,0,0.1-0.1,0.1-0.1
			C92.4,58.3,91.8,57.7,91.3,57.2z M93.8,60.4C93.8,60.4,93.8,60.4,93.8,60.4c-0.3-0.3-0.6-0.6-0.8-0.8
			C93.3,59.8,93.5,60.1,93.8,60.4z"/>
		<path class="st1" d="M53.3,97.5c0,0.1,0,0.2,0,0.3c-0.6,2.3-1.2,4.5-2.3,6.6c-0.2,0.5-0.6,0.9-0.8,1.4c-0.4,0.9-0.9,1.8-1.3,2.7
			c0,0.1-0.1,0.1-0.2,0.2c-0.1-0.1-0.2-0.2-0.2-0.3c0-0.2,0.1-0.5,0.2-0.7c0.6-1.1,1.1-2.3,1.8-3.3c0.8-1.4,1.4-2.9,1.8-4.5
			c0.2-0.7,0.5-1.4,0.7-2.1C53.1,97.7,53.2,97.6,53.3,97.5C53.3,97.5,53.3,97.5,53.3,97.5z"/>
		<path class="st1" d="M60.8,33.2c0.1,0,0.1,0,0.2,0c0.3,0,0.5,0.2,0.5,0.6c0,0.2,0,0.5,0,0.7c0,0.2,0,0.4,0.3,0.5
			c0.1,0.1,0.2,0.2,0.3,0.3c-0.1,0-0.1,0.1-0.1,0.1c-0.3-0.1-0.5,0.1-0.7,0.3c-0.2,0.2-0.4,0.4-0.6,0.6c0,0-0.1,0.1-0.1,0.1
			c-0.2,0-0.4,0.1-0.5,0.1c-0.2-0.1,0-0.3,0.1-0.5c0.3-0.3,0.6-0.6,0.9-0.9c-0.4-0.4-0.1-0.9-0.1-1.4c-0.1,0-0.2,0.1-0.3,0.1
			c-0.1,0-0.3,0.1-0.4,0.1c-0.1,0-0.3-0.1-0.4-0.2c0.1-0.1,0.1-0.2,0.2-0.3c0.4-0.3,0.7-0.7,1.1-1c0.1-0.1,0.2-0.2,0.2-0.3
			c-0.4,0.2-0.8,0.3-1.2,0.4c-0.1,0-0.2,0.1-0.3,0c-0.1,0-0.2-0.1-0.3-0.2c0.1-0.1,0.1-0.1,0.2-0.1c0.6-0.2,1.1-0.4,1.7-0.6
			c0.1,0,0.3-0.1,0.4-0.1c0.1,0,0.2,0.1,0.2,0.2c0,0.1,0,0.2-0.1,0.2c-0.4,0.4-0.8,0.8-1.2,1.1C60.8,33.1,60.8,33.1,60.8,33.2
			C60.7,33.2,60.7,33.2,60.8,33.2z"/>
		<path class="st1" d="M61.5,46c0-0.1,0-0.2,0-0.3c0.5-0.4,1-0.9,1.6-1.3c0,0,0.1-0.1,0.2,0c-0.3,0.3-0.7,0.7-1,1
			c0.4,0,0.8,0.1,1.2,0.1c0.1,0,0.2,0,0.3-0.1c0.5-0.3,0.9-0.7,1.4-1.1c-0.4-0.3-0.7-0.7-1.1-1c0,0-0.1-0.1-0.2-0.1
			c-0.3,0-0.6,0-1,0c0.2,0.2,0.5,0.4,0.7,0.7c-0.3,0.4-0.5,0.2-0.6,0.1c-0.2-0.2-0.3-0.4-0.5-0.6c-0.1-0.1-0.2-0.2-0.4-0.3
			c0.2,0,0.3-0.1,0.5-0.1c0.5,0,0.9,0,1.4-0.1c0,0,0.1,0,0.1,0c0.2,0.2,0.4,0.3,0.6,0.5c0.2,0.2,0.5,0.4,0.7,0.6
			c0.1,0.1,0.1,0.1,0.2,0.2c-0.6,0.4-1.1,0.8-1.6,1.3c-0.2,0.2-0.4,0.3-0.7,0.2c-0.4-0.1-0.8-0.1-1.2-0.1
			C61.9,45.8,61.7,45.9,61.5,46L61.5,46z"/>
		<path class="st1" d="M50.7,99.8c-0.1,0.2-0.2,0.4-0.3,0.6c-0.4,0.6-0.9,1.1-1.2,1.6c-0.5,0.7-0.9,1.4-1.4,2.1
			c0,0.1-0.2,0.1-0.3,0.1c-0.1-0.1-0.2-0.2-0.2-0.3c0-0.2,0.1-0.4,0.3-0.6c0.5-0.6,1-1.3,1.5-1.9c0.5-0.6,0.9-1.3,1.1-2
			c0-0.1,0-0.3,0.2-0.3c0.2,0,0.3,0.2,0.3,0.4C50.7,99.6,50.7,99.7,50.7,99.8z"/>
		<path class="st1" d="M61.5,46c-0.1,0.1-0.2,0.2-0.3,0.2c0.7-0.3,1.4-0.1,2.2-0.3c0,0,0,0,0,0.1c0,0-0.1,0.1-0.1,0.1
			c0.1,0.1,0.1,0.1,0.2,0.2c-1.1,0.5-1.6,1.5-2.5,2.2c-0.2,0.1-0.3,0.3-0.5,0.4c0.8-0.8,1.5-1.6,2.4-2.4c-0.3,0-0.5-0.1-0.8-0.1
			c-0.2,0-0.5-0.1-0.7-0.1c-0.2,0-0.3,0.1-0.5,0.1c0.1,0.2,0,0.3-0.1,0.3c-0.2,0.1-0.4,0.1-0.6,0.1c0-0.1,0.1-0.1,0.1-0.2
			c-0.2-0.1-0.4-0.2-0.6-0.4c-0.1-0.1-0.2-0.2-0.1-0.4c0-0.1,0.1-0.1,0.2-0.2c0.2,0.2,0.5,0.3,0.7,0.5c0.2,0.1,0.3,0.1,0.4,0
			C61.1,46.2,61.3,46.1,61.5,46L61.5,46z"/>
		<path class="st1" d="M58,46.1c0.3,0.3,0.5,0.5,0.8,0.8c0.5,0.5,1.1,1,1.6,1.4c0.1,0,0.1,0.1,0.1,0.2c-0.1,0-0.2-0.1-0.3-0.1
			c0.1,0.1,0.1,0.1,0.1,0.2c0,0,0,0,0,0c-1-0.9-2.1-1.8-3.1-2.7c0.5-0.3,2-0.4,2.6-0.2c-0.2,0.1-0.3,0.1-0.5,0.1
			C58.8,45.9,58.4,45.9,58,46.1C58,46,58,46,58,46.1z"/>
		<path class="st1" d="M57.7,75c-2.4,1.4-4.9,2.7-7.4,4c0,0,0-0.1,0-0.1c2.5-1.3,4.9-2.7,7.4-4C57.7,74.9,57.7,75,57.7,75z"/>
		<path class="st1" d="M60.5,44.3c-0.2-0.3-0.6-0.3-0.7-0.7c0.3-0.2,0.6-0.1,1-0.2c0,0,0,0.1,0,0.1c-0.2,0.1-0.3,0.1-0.5,0.2
			c0.2,0.2,0.4,0.3,0.6,0.5c-0.4,0.3-0.7,0.5-1.1,0.8c0.7,0.2,1.2-0.1,1.6-0.6c0,0,0,0.1,0.1,0.1c-0.3,0.3-0.5,0.5-0.8,0.8
			c-0.1,0.1-0.2,0.1-0.4,0c-0.1-0.1-0.3,0-0.5,0c-0.2,0-0.4,0-0.5,0c0,0,0,0,0-0.1C59.7,44.9,60.1,44.6,60.5,44.3z"/>
		<path class="st1" d="M49.6,58.8c-0.1-0.1-0.2-0.1-0.2-0.2c-0.7-0.8-1.2-1.6-1.6-2.6c0-0.1-0.1-0.2-0.1-0.2c0-0.1,0-0.2,0-0.2
			c0,0,0.1,0,0.2,0c0.1,0,0.2,0.1,0.2,0.2c0.3,1,0.9,1.8,1.4,2.6C49.6,58.5,49.6,58.6,49.6,58.8C49.6,58.8,49.6,58.8,49.6,58.8z"/>
		<path class="st1" d="M59.1,43.9c0.1,0.2,0.2,0.4,0.3,0.5c-0.4,0.4-0.9,0.7-1.5,0.4c0.2-0.2,0.5-0.4,0.7-0.6
			c-0.1-0.1-0.3-0.3-0.4-0.4c0.6-0.4,1.1-0.2,1.3,0.5C59.5,44.2,59.3,44,59.1,43.9C59.2,43.9,59.2,43.9,59.1,43.9z M59.2,44.3
			c-0.2,0.1-0.5,0.3-0.7,0.4c0.4,0.1,0.6-0.1,0.9-0.2c-0.2-0.4-0.2-0.5-0.5-0.5C58.9,44.1,59,44.2,59.2,44.3z"/>
		<path class="st1" d="M65,27.6c0,0,0.1,0.1,0.1,0.1c0,0.1,0,0.1,0,0.2c-0.1,0.2-0.3,0.4-0.4,0.6c-0.3,0.6-0.6,1.2-1,1.8
			c-0.1,0.1-0.2,0.2-0.3,0.3c0-0.1,0-0.3,0.1-0.4c0.3-0.6,0.7-1.2,1-1.8c0.1-0.2,0.3-0.4,0.4-0.6C64.9,27.7,65,27.6,65,27.6z"/>
		<path class="st1" d="M60.8,43.7c0.3-0.3,0.5-0.2,0.6,0c0.2,0.2,0.3,0.4,0.5,0.6c0,0,0,0,0.1,0c-0.1,0-0.1,0-0.2,0c0,0,0,0.1,0,0.1
			c0,0,0,0-0.1,0C61.5,44.3,61.1,44,60.8,43.7z"/>
		<path class="st1" d="M52,78.3c-0.1,0.1-0.2,0.2-0.4,0.3c-0.4,0.2-0.8,0.5-1.3,0.7c0,0,0,0,0-0.1C50.9,78.8,51.5,78.6,52,78.3
			L52,78.3z"/>
		<path class="st1" d="M52,78.3c0.3-0.2,0.5-0.3,0.8-0.5c0,0,0,0.1,0,0.1C52.6,78,52.3,78.1,52,78.3C52,78.3,52,78.3,52,78.3z"/>
		<path class="st1" d="M80.2,62c-0.4,0-0.8,0-1.3,0c0,0,0,0,0,0C79.3,62,79.8,62,80.2,62C80.2,62,80.2,62,80.2,62z"/>
		<path class="st1" d="M58.7,66.5c0.4,0.1,0.8-0.2,1.2,0.2c-0.1-0.6-0.1-1.3-0.2-1.9c-0.1-0.3-0.1-0.5,0-0.8
			c0.1,0.1,0.1,0.1,0.1,0.2c0,0.2,0.1,0.2,0.3,0.2c0.2,0,0.4,0,0.6,0c0.2,0,0.3,0,0.5,0.1c0,0,0,0,0,0c0.1-0.1,0.1-0.2,0.2-0.3
			c0.1,0.1,0.2,0.2,0.2,0.3c0,0.8,0.1,1.6,0.1,2.3c0,0.1,0,0.1,0,0.2c-0.3,0.3-0.3,0.4-0.1,0.7c-0.4,0.4-0.9,0.5-1.3,0.2
			c-0.1,0-0.2-0.1-0.3-0.1c-0.5,0-0.9,0-1.4-0.1c-0.7-0.1-1.1-0.5-1.1-1.2c0-0.6,0-1.1,0-1.7c0-0.1,0-0.3-0.1-0.4
			c0.1-0.1,0.2-0.2,0-0.4c0.3,0,0.5-0.1,0.7-0.1c0.1,0,0.1,0.1,0.2,0.1c-0.1,0-0.1,0.1-0.2,0.1c-0.1,0-0.1,0-0.3,0
			c0.3,0.2,0.5,0.1,0.6-0.1c0,0,0.2-0.1,0.2,0c0.1,0.1,0.2,0.2,0.3,0.4c-0.1,0-0.1,0-0.2,0.1C58.7,65.3,58.7,65.9,58.7,66.5z
			 M58.5,66.9c0.6,0,1.1,0.1,1.7,0.1c0,0,0-0.1,0-0.1c-0.1,0-0.2-0.1-0.3,0c-0.5,0.1-0.9,0.1-1.4-0.2c0,0,0,0-0.1,0
			C58.5,66.8,58.5,66.8,58.5,66.9z M61,66.8C61,66.9,60.9,67,60.9,67c0,0.4-0.2,0.5-0.6,0.5C61,67.7,61.2,67.4,61,66.8z M57.8,67
			c-0.1,0.2,0.1,0.4,0.5,0.5c0-0.2,0-0.3-0.1-0.5c-0.1,0.1-0.1,0.2-0.1,0.2C58,67.2,57.9,67.1,57.8,67z M57.8,65.4
			C57.8,65.4,57.8,65.4,57.8,65.4c0.1-0.2,0.1-0.5,0.1-0.7c0,0-0.1,0-0.1,0C57.7,64.9,57.8,65.2,57.8,65.4z M60.2,65.3
			c0,0,0.1,0,0.1,0c0-0.2,0.1-0.4,0.1-0.6c0,0-0.1,0-0.1,0C60.1,64.9,60.3,65.1,60.2,65.3z M60.6,66.3
			C60.6,66.3,60.7,66.3,60.6,66.3c0.2-0.2,0.4-0.3,0.2-0.6C60.8,65.9,60.7,66.1,60.6,66.3z M58.2,65.3c0.2-0.6,0.2-0.6,0-0.6
			C58.2,64.9,58.2,65.1,58.2,65.3z M60.8,65c0,0-0.1,0-0.1,0c0,0.2-0.1,0.3-0.1,0.5c0,0,0.1,0,0.1,0C60.8,65.3,60.8,65.2,60.8,65z"
			/>
	</g>
</g>
</svg>
