<?xml version="1.0" encoding="utf-8"?>
<!-- Generator: Adobe Illustrator 23.0.1, SVG Export Plug-In . SVG Version: 6.00 Build 0)  -->
<svg version="1.1" id="Layer_1" xmlns="http://www.w3.org/2000/svg" xmlns:xlink="http://www.w3.org/1999/xlink" x="0px" y="0px"
	 viewBox="0 0 42 53" style="enable-background:new 0 0 42 53;" xml:space="preserve">
<style type="text/css">
	.st0{fill:#124A85;}
</style>
<g>
	<path class="st0" d="M39.6,42.5L21,44.1H21L2.4,42.5L0,48.3c0,0,5.9,4.7,21,4.7c0,0,0,0,0,0c0,0,0,0,0,0c15.1,0,21-4.7,21-4.7
		L39.6,42.5z M5.3,48.2c-0.9-0.3-1.6-0.6-2.2-0.9l1-2.4l2.1,0.2L5.3,48.2z M9.9,49.5c-0.9-0.2-1.7-0.4-2.4-0.6l1.1-3.6l2.2,0.2
		L9.9,49.5z M14.9,50.3c-1-0.1-1.9-0.2-2.8-0.4l0.9-4.2l2.3,0.2L14.9,50.3z M19.9,50.6c-0.9,0-1.8,0-2.7-0.1l0.4-4.3l2.3,0.2V50.6z
		 M22.1,50.6v-4.1l2.3-0.2l0.4,4.3C24,50.5,23.1,50.6,22.1,50.6z M27.1,50.3L26.7,46l2.3-0.2l0.9,4.2C29,50.1,28.1,50.2,27.1,50.3z
		 M32.1,49.5l-0.8-4l2.2-0.2l1.1,3.6C33.8,49.1,33,49.3,32.1,49.5z M36.7,48.2l-0.9-3.1l2.1-0.2l1,2.4
		C38.3,47.6,37.6,47.9,36.7,48.2z"/>
	<path class="st0" d="M10,3.1L10,3.1L8.4,4.2h0l0,0l1.4,1.2h0l0.5,0.4c0.8-0.1,1.6-0.2,2.5-0.3l-1.4-1.2l3.9-2.7h11.4l3.9,2.7
		l-1.4,1.2c0.9,0.1,1.7,0.2,2.5,0.3l0.5-0.4l1.4-1.2l0,0h0L32,3.1l0,0l-2.2-1.5h4.6V0H7.5v1.6h4.6L10,3.1z"/>
	<path class="st0" d="M2.3,41.1l18.8,1.6l18.6-1.6v-3.7c0.6-0.7,1-1.6,1-2.6c0-1-0.4-1.9-1-2.6V13.5c0-2.7-2.2-5-4.8-5.6
		c-2.9-0.6-5.9-1-9.8-1.1c-0.8-1.5-2.3-2.5-4.1-2.5c-1.8,0-3.3,1-4.1,2.5C13,6.9,10.1,7.2,7.2,7.9c-2.6,0.6-4.8,3-4.8,5.6v18.7
		c-0.6,0.7-1,1.6-1,2.6c0,1,0.4,1.9,1,2.6V41.1z M16.8,38.1c0,0.5,0.1,0.9-0.5,0.9h-0.5c-0.6,0-0.5-0.4-0.5-0.9v-0.9
		c0-0.5-0.1-0.9,0.5-0.9h0.5c0.6,0,0.5,0.4,0.5,0.9V38.1z M19.1,38.1c0,0.5,0.1,0.9-0.5,0.9h-0.5c-0.5,0-0.5-0.4-0.5-0.9v-0.9
		c0-0.5,0-0.9,0.5-0.9h0.5c0.6,0,0.5,0.4,0.5,0.9V38.1z M21.5,39.1h-0.9c-0.9,0-0.8-0.4-0.8-0.9v-0.9c0-0.5-0.1-0.9,0.8-0.9h0.9
		c0.9,0,0.8,0.4,0.8,0.9v0.9C22.3,38.7,22.4,39.1,21.5,39.1z M24.4,38.1c0,0.5,0,0.9-0.5,0.9h-0.5c-0.6,0-0.5-0.4-0.5-0.9v-0.9
		c0-0.5-0.1-0.9,0.5-0.9h0.5c0.6,0,0.5,0.4,0.5,0.9V38.1z M17.3,28.3c-0.9,0-1.6-0.7-1.6-1.6v-1.6c0-0.9,0.7-1.6,1.6-1.6h7.3
		c0.9,0,1.6,0.7,1.6,1.6v1.6c0,0.9-0.7,1.6-1.6,1.6H17.3z M26.7,38.1c0,0.5,0.1,0.9-0.5,0.9h-0.5c-0.5,0-0.5-0.4-0.5-0.9v-0.9
		c0-0.5,0-0.9,0.5-0.9h0.5c0.6,0,0.5,0.4,0.5,0.9V38.1z M39,34.8c0,1.4-1.1,2.5-2.5,2.5c-1.4,0-2.5-1.1-2.5-2.5
		c0-1.4,1.1-2.5,2.5-2.5C37.9,32.3,39,33.4,39,34.8z M37.3,13.3v9.3c0,0-9.8-0.3-14.8-0.4l-0.1-2.7V13L37.3,13.3z M21,6
		c1.6,0,3,1.3,3,3c0,1.6-1.3,3-3,3c-1.6,0-3-1.3-3-3C18,7.3,19.4,6,21,6z M4.8,13.2l14.9-0.3v6.5l-0.1,2.7c-5,0.2-14.9,0.4-14.9,0.4
		V13.2z M5.4,32.3c1.4,0,2.5,1.1,2.5,2.5c0,1.4-1.1,2.5-2.5,2.5c-1.4,0-2.5-1.1-2.5-2.5C3,33.4,4.1,32.3,5.4,32.3z"/>
</g>
</svg>
