<?xml version="1.0" encoding="utf-8"?>
<!-- Generator: Adobe Illustrator 23.0.1, SVG Export Plug-In . SVG Version: 6.00 Build 0)  -->
<svg version="1.1" id="Layer_1" xmlns="http://www.w3.org/2000/svg" xmlns:xlink="http://www.w3.org/1999/xlink" x="0px" y="0px"
	 viewBox="0 0 121 121" style="enable-background:new 0 0 121 121;" xml:space="preserve">
<style type="text/css">
	.st0{fill:#49C8F5;}
	.st1{fill:#FFFFFF;}
</style>
<g>
	<g>
		<path class="st0" d="M111.9,121H9.1c-5,0-9.1-4.1-9.1-9.1V9.1C0,4.1,4.1,0,9.1,0h102.9c5,0,9.1,4.1,9.1,9.1v102.9
			C121,116.9,116.9,121,111.9,121z"/>
		<path class="st1" d="M111.9,3c3.3,0,6.1,2.7,6.1,6.1v102.8c0,3.3-2.7,6.1-6.1,6.1H9.1c-3.3,0-6.1-2.7-6.1-6.1V9.1
			C3,5.7,5.7,3,9.1,3H111.9 M111.9,1.5H9.1c-4.2,0-7.6,3.4-7.6,7.6v102.8c0,4.2,3.4,7.6,7.6,7.6h102.8c4.2,0,7.6-3.4,7.6-7.6V9.1
			C119.5,4.9,116.1,1.5,111.9,1.5L111.9,1.5z"/>
	</g>
	<g>
		<path class="st1" d="M101.3,32.8c-0.4-0.3-0.8-0.6-1.2-1c-0.3-0.3-0.6-0.5-1-0.7c-1.4-0.8-2.9-1.4-4-2.6c-0.1-0.1-0.3-0.2-0.5-0.3
			c-1.3-0.5-2.7-0.9-4-1.4c-0.1,0-0.2,0-0.3-0.1c-0.4-0.5-1-0.4-1.6-0.4c-2,0.1-4.1,0.1-6.1,0.2c-2,0.1-3.9,0.7-5.7,1.5
			c-0.4,0.2-0.8,0.3-1.2,0.1c-0.1-0.1-0.4,0-0.5,0.1c-0.8,0.5-1.6,1.1-2.4,1.6c-1.5,1.1-2.9,2.1-4.3,3.2c-1.6,1.3-3.1,2.8-3.8,4.9
			c-0.4,1-0.4,2.2-0.6,3.2c-0.4,2.3-0.2,4.6,0.1,7c0,0.4-0.1,0.7-0.1,1.1c0,0.2,0.1,0.5,0.2,0.7c0,0.2,0,0.4,0,0.6
			c-0.2,0-0.4,0-0.6-0.1c-0.1,0-0.2-0.1-0.3-0.1c0.1,0.5,0.1,0.9,0.2,1.4c-0.2-0.1-0.4-0.1-0.5-0.2c0,0.1-0.1,0.3-0.1,0.4
			c0,0-0.1,0-0.1,0c-0.1-0.3-0.2-0.6-0.3-0.9c-0.5-2.6-0.6-5.3-0.4-7.9c0-0.5,0.2-1,0.3-1.5c0-0.3,0-0.7,0-1.1c0-0.1,0-0.3,0.1-0.4
			c0.5-1.2,0.9-2.3,1.4-3.5c0.1-0.2,0.2-0.3,0.3-0.5c-0.3-0.3-0.2-0.6,0.1-0.9c2.4-2.5,4.9-4.9,7.3-7.4c0.3-0.3,0.8-0.4,1.3-0.7
			c0.1-0.1,0.3-0.2,0.4-0.3c0.5-0.4,1-0.8,1.5-1.1c0.2-0.1,0.4,0,0.7,0c0,0.2,0,0.3-0.1,0.4c1.5-0.4,3.1-0.9,4.6-1.2
			c0.5-0.1,1,0.1,1.5,0.1c0.3,0,0.6,0,0.9,0c2.2-0.1,4.4-0.4,6.5-0.3c1.8,0.1,3.6,0.6,5.4,1c0.9,0.2,1.7,0.5,2.5,0.8
			c0.2,0.1,0.4,0.3,0.7,0.5c-0.3,0.1-0.4,0.1-0.5,0.1c0.1,0.1,0.1,0.1,0.2,0.1c0.6,0.3,1.2,0.6,1.9,1c0.1,0,0.2,0.1,0.3,0.1
			c0.7-0.4,1.1,0.1,1.4,0.5c1.1,1.3,2.1,2.6,3.2,3.9c1,1.3,1.9,2.7,2.9,4c0.8,1,1.4,2.1,1.5,3.4c0,0.1,0.1,0.3,0.2,0.3
			c0.7,0.1,0.7,0.7,0.8,1.2c0.1,1.4,0.2,2.8,0.4,4.2c0.1,0.8,0.2,1.6,0.2,2.4c0,0.7,0,1.3-0.1,2c-0.1,1.1-0.3,2.1-0.5,3.1
			c-0.3,2.1-0.9,4-2,5.8c-1.3,2.1-2.5,4.2-3.8,6.2c-0.8,1.2-1.8,2.2-2.7,3.3c-0.3,0.3-0.7,0.6-1.3,0.6c0.6-0.8,1-1.4,1.5-2.1
			c0,0,0,0-0.1-0.1c-0.7,0.6-1.4,1.2-2.1,1.8c-1.5,1.2-3,2.5-4.6,3.5c-1.7,1-3.4,2.3-5.4,2.7c-1,0.2-2,0.2-3,0.3c-0.1,0-0.2,0-0.2,0
			c-0.8-0.3-1.5-0.3-2.3,0c-0.4,0.1-0.8-0.2-0.8-0.6c0-0.3,0-0.6,0-0.9c0.1-0.3,0-0.4-0.2-0.6c-0.2-0.2-0.2-0.5-0.3-0.9
			c0.4,0,0.7,0,1,0c0.4,0,0.9,0,1.3-0.1c1.8-0.2,3.7-0.4,5.5-0.8c2-0.4,3.9-0.9,5.6-2.2c-0.6,0.3-1.2,0.5-1.8,0.8c0,0,0-0.1-0.1-0.1
			c0.2-0.1,0.3-0.2,0.5-0.3c1-0.5,2-0.8,2.9-1.4c2.8-1.9,4.9-4.5,6.7-7.4c0.5-0.9,1.1-1.8,1.7-2.8c-0.6-0.2-0.4-0.5-0.3-0.9
			c0.6-1.4,1.3-2.8,1.9-4.2c0.2-0.4,0.3-0.8,0.4-1.2c0.1-0.4,0-0.7,0.1-1.1c0-0.3,0.1-0.5,0.1-0.8c0.1-0.4,0.3-0.7,0.3-1.1
			c-0.1-2.7-0.1-5.3-0.9-7.9c-0.2-0.5-0.3-1-0.5-1.5c0-0.1-0.1-0.2-0.1-0.2c-0.3,0-0.6-0.1-0.5-0.6c0-0.3,0-0.5,0-0.9
			c-0.8-0.1-1.1-0.7-1.4-1.4c-0.3-0.6-0.6-1.2-0.9-1.7c-0.4-0.7-1-1.3-1.7-1.7c0.1,0,0.1,0,0.3,0c-0.7-0.8-1.2-1.5-1.8-2.3
			C100.3,31.6,100.8,32.2,101.3,32.8z M89.9,73.9c0,0,0-0.1,0-0.1c-1.7,0.1-3.3,0.3-5,0.4c0,0.1,0,0.1,0,0.2
			C86.6,74.6,88.3,74.8,89.9,73.9z M83,74.5c0.3,0,0.7,0,1,0c-0.2-0.2-0.3-0.3-0.5-0.5C83.2,73.8,83,73.9,83,74.5z"/>
		<path class="st1" d="M91.2,31.6c-1.5-0.3-3-0.3-4.5-0.4c0-0.1,0-0.1,0-0.2c1.1,0,2.2-0.1,3.3,0c1.4,0.1,2.8,0.6,4.2,1
			c1.1,0.3,1.8,1.1,2.7,1.7c0.4,0.2,0.6,0.8,0.9,1.2c0.6,0.6,1.3,1.1,1.9,1.6c0.4,0.3,0.7,0.7,1,1.2c0.5,0.9,1,1.8,1.5,2.7
			c0.2,0.3,0.3,0.6-0.3,0.7c0.3,0.7,0.7,1.3,1,2c0.5-0.3,1-0.2,0.9,0.3c-0.1,1.8-0.2,3.7-0.4,5.5c-0.1,0.8-0.4,1.5-0.7,2.3
			c-0.1,0.2-0.3,0.3-0.5,0.5c-0.1,0.1-0.3,0.3-0.4,0.5c-0.5,1.7-0.9,3.4-1.4,5.1c-0.2,0.8-0.4,1.7-0.9,2.4c-0.6,0.8-1.4,1.5-2.2,2.1
			c-2.4,1.7-4.8,3.4-7.2,5.1c-0.4,0.3-0.7,0.4-1.2,0.3c-0.3-0.1-0.6,0.1-0.9,0.2c-1.3,0.5-2.7,0.5-4.1,0.4c-0.5,0-0.7-0.3-0.6-0.8
			c-0.7-0.2-1.5-0.3-2.2-0.5c-0.2-0.1-0.4-0.2-0.7-0.3c0-0.1,0-0.1,0.1-0.2c0.3,0,0.5-0.1,0.8-0.1c0.4,0,0.9,0.1,1.3,0.1
			c0.6,0,0.8-0.1,0.9-0.8c0-0.1,0.1-0.1,0.1-0.3c0.2,0.4,0.2,1,0.9,0.8c-0.1-0.5,0.2-0.4,0.5-0.4c2.8,0.4,5.3-0.4,7.4-2.3
			c0.8-0.7,1.4-1.6,2.1-2.4c0.2-0.2,0.3-0.3,0.5-0.5c0,0,0.1,0.1,0.1,0.1c0,0.1-0.1,0.3-0.1,0.4c0.9-0.3,2.3-1.8,2.6-2.6
			c-0.2,0-0.5,0.1-0.8,0.1c-0.5-0.1-0.6-0.4-0.2-0.8c0.7-0.8,1.4-1.5,1.9-2.4c0.4-0.7,0.8-1.4,1-2.2c0.4-1.5,0.6-3,0.9-4.6
			c0-0.2,0.2-0.4,0.3-0.6c0.1,0.2,0.3,0.4,0.4,0.6c0.1,0.2,0,0.5,0,0.7c0.1,0,0.1,0,0.2,0c0.1-0.2,0.2-0.3,0.2-0.5
			c0.1-0.8,0.2-1.7,0.4-2.5c0-0.1,0-0.3,0-0.4c-0.7-2.7-1.4-5.4-3.3-7.6c-0.4-0.4-0.8-0.6-1.2-0.9c-1-0.8-1.9-1.7-2.9-2.5
			c-0.3-0.3-0.7-0.5-1.1-0.6c-0.7-0.2-1.5-0.4-2.2-0.6c-0.4-0.1-0.7-0.3-0.6-0.9c-0.8,0-1.6,0-2.4,0c-1.3,0.1-2.5,0.1-3.8,0.3
			c-1.2,0.1-2.3,0.4-3.3,1.1c-0.9,0.6-1.9,1-3,1c-0.2,0-0.4,0.1-0.5,0.2c-0.9,0.6-1.8,1.2-2.7,1.9c-0.1,0.1-0.2,0.2-0.2,0.3
			c0,0.7-0.5,0.9-1,1.2c-1.2,0.8-2.1,2-2.6,3.4c0.4,0.1,0.4,0.4,0.3,0.8c-0.5,2.3-0.9,4.6-1.3,7c-0.1,0.6-0.3,0.7-1,0.7
			c-0.4,0-0.8-0.4-0.8-0.8c0-0.3,0-0.5-0.1-0.8c-0.1,0-0.2,0-0.3,0c-0.1,1.3-0.2,2.7-0.4,4c-0.1,0-0.1,0-0.2,0
			c-0.1-0.2-0.2-0.4-0.2-0.6c0-0.8-0.1-1.7,0-2.5c0.3-2,0.1-4,1-5.9c0.2-0.5,0.4-1,0.7-1.5c1.5-2.5,2.9-5,5-7
			c0.8-0.8,1.7-1.4,2.8-1.8c0.7-0.3,1.3-0.7,1.9-0.9c0.9-0.3,1.8-0.7,2.7-0.9c1.6-0.2,3.2-0.3,4.8-0.4c0.2,0,0.4,0.2,0.6,0.4
			c0.1,0.1,0.3,0.1,0.4,0.1c1.5,0,2.9,0,4.4,0C91.2,31.7,91.2,31.7,91.2,31.6z M79.3,33.1c0,0,0,0.1,0,0.1c1.9-0.5,3.7-1,5.4-1.4
			C83,31.9,81.1,32.2,79.3,33.1z M102.3,48.2c0.1,0,0.1,0,0.2,0c0.4-0.8,0.5-4,0.2-4.4C102.5,45.3,102.4,46.7,102.3,48.2z
			 M94.7,34.2c0,0.1-0.1,0.1-0.1,0.2c1,0.8,1.9,1.7,2.9,2.5c0,0,0.1-0.1,0.1-0.1C96.6,35.9,95.8,34.8,94.7,34.2z M94.2,33.4
			c0,0,0-0.1,0-0.1c-0.5-0.2-1-0.4-1.5-0.6c0,0.1,0,0.1-0.1,0.2C93.2,33.1,93.7,33.2,94.2,33.4z"/>
		<path class="st1" d="M73.5,46.9c-0.1,0.1-0.2,0.2-0.3,0.4c-0.4-0.4-0.3-0.9-0.2-1.3c0.3-1.4,0.9-2.7,1.8-3.8
			c0.2-0.2,0.4-0.5,0.5-0.7c0.5-0.6,0.9-1.3,1.9-0.8c-0.2-0.8-0.2-0.9,0.6-1.2c1.7-0.7,3.4-1.2,5.2-1.3c1.7-0.1,3.4-0.3,5.1-0.3
			c1.8-0.1,3.4,0.6,4.8,1.7c0.5,0.4,1.1,0.9,1.5,1.4c0.8,0.9,1.2,2,1.3,3.1c0.1,0.9,0.5,1.8,0.6,2.7c0.1,0.7-0.1,1.3-0.1,2
			c0,0.3-0.1,0.6-0.1,0.9c-0.1,1.5-0.6,2.8-1.2,4.1c-0.6,1.4-1.9,2.1-2.8,3.1c-1,1-2.3,1.8-3.6,2.4c-1.3,0.6-2.7,1.1-4,1.4
			c-1,0.2-2.1,0-3.2-0.1c-0.3,0-0.5-0.3-0.7-0.4c0-0.1,0-0.1,0.1-0.2c1.5-0.2,2.9-0.4,4.4-0.6c-1-0.6-2.4-0.5-3.2-1.8
			c0.3,0,0.5,0,0.7,0.1c0.4,0.1,0.9,0.2,1.3,0.4c1.1,0.5,2.3,0.4,3.4,0.3c0.1-0.1,0.3-0.4,0.4-0.4c1-0.1,1.7-0.7,2.5-1.4
			c0.3-0.3,0.5-0.6,1-0.4c0.1,0,0.2-0.1,0.4-0.2c-0.6-0.3-0.4-0.5-0.1-0.7c1.3-1,2.1-2.4,2.8-4c0.4-0.9,0.5-1.8,0.3-2.7
			c-0.2-0.8-0.2-1.5-0.4-2.3c-0.1-0.3-0.2-0.5-0.3-0.7c-0.6-0.9-1.2-1.9-1.9-2.7c-1.3-1.6-2.7-3.1-5.1-2.9c-2.9,0.2-5.7,0.9-8.3,2.3
			c-1.3,0.7-2,1.6-2.4,2.9c-0.3,1.2-0.5,2.4-0.8,3.6c-0.1,0.7-0.3,1.4-0.4,2.1c-0.1,0.4-0.3,0.5-0.7,0.3c-0.5-0.2-0.7-0.7-0.7-1.2
			c0-1,0-1.9,0-2.9C73.6,46.9,73.5,46.9,73.5,46.9z M86.6,38.4c0.7,0.1,1.2,0.2,1.7,0.3c0.8,0.1,1.6,0.1,2.3,0.3
			c0.8,0.3,1.4,0.8,2.2,1.2c0.1,0.1,0.2,0.1,0.4,0.2C92.1,38.8,88.5,37.7,86.6,38.4z M94.3,43.6c0.1,0,0.1-0.1,0.2-0.1
			c-0.2-0.5-0.3-1-0.5-1.5c-0.2-0.5-0.2-0.5-0.7-0.4C93.6,42.3,93.9,43,94.3,43.6z M75.6,42.5c-0.9,0.9-1.6,2.4-1.5,3
			C74.6,44.5,75,43.5,75.6,42.5z"/>
		<path class="st1" d="M74.7,59.5c-0.9-0.1-1.7-0.2-2.5-0.3c-0.2,0-0.3,0-0.5,0c-0.6-0.1-0.7-0.3-0.8-1.1c0.1,0,0.3-0.1,0.4-0.1
			c1.7-0.1,3-1,4.4-1.9c1.4-0.9,2.9-1.8,4.3-2.7c0.2-0.1,0.5-0.1,0.7,0c0.4,0.2,0.6,0.1,0.9-0.2c0.3-0.3,0.7-0.5,1.1,0
			c-1.3,0.8-1.7,2.1-2.2,3.4c-0.6,1.4-1.1,2.8-1.6,4.2c-0.2,0.6-0.1,1.3-0.2,1.9c0,0.2-0.2,0.6-0.3,0.6c-0.4-0.1-0.8,0.2-1-0.4
			c-0.3-1-0.7-1.9-1.1-2.8c0-0.1-0.1-0.2-0.2-0.3c-0.3,0.4-0.6,0.7-0.9,1.1c-3.8,4.7-7.6,9.3-11.4,14c-0.5,0.7-1,1.4-1.5,2
			c-0.4,0.5-0.9,0.9-1.4,1.4c-0.2,0.2-0.5,0.4-0.3,0.8c0,0.1-0.1,0.3-0.2,0.3c-0.3,0.2-0.6,0.5-1,0.6C59.3,80,59.1,80.1,59,80
			c-0.5-0.2-0.9-0.5-1.2-0.8C63.4,72.7,69,66.2,74.7,59.5z"/>
		<path class="st1" d="M43.7,72.3c1.3,1.1,2.5,2,3.7,3.1c1.2,1,2.3,2.1,3.5,3.2c0.2,0.2,0.3,0.4,0.5,0.5c0,0.1-0.1,0.1-0.1,0.2
			c-0.3-0.1-0.5-0.3-0.9-0.5c0.2,0.3,0.4,0.5,0.5,0.7c-0.2,0.4-0.5,0.5-0.9,0.2c-1.7-1.5-3.4-3-4.9-4.6c-0.7-0.7-1.2-1.7-1.9-2.7
			c-0.8,0.2-1.8,0.4-2.8,0.7c-1,0.3-2,0.4-3,0.2c-1.8-0.3-3.5-2.3-3.5-4.1c0-0.4,0-0.8,0.3-1c0.8-0.9,1.6-1.8,2.9-1.7
			c1.4,0.1,2.9,0.1,4.3,0.7c0.4,0.1,0.8,0.2,1.1,0.4c0.2,0.1,0.5,0.4,0.5,0.7c0,0.6,0.3,1.1,0.6,1.6c0.4,0.6,0.7,1.2,1.5,1.4
			c0.2,0,0.4,0.3,0.4,0.5c0,0.1-0.3,0.3-0.4,0.4C44.5,72.1,44.2,72.1,43.7,72.3z M38.8,67.8c-0.2,0.1-0.3,0.1-0.4,0.2
			c-0.6,0.5-0.5,1.5,0.1,1.9c0.3,0.2,0.6,0.3,0.8,0.5c0.5,0.5,1,0.3,1.5,0c0.8-0.5,0.8-1.5-0.1-2C40.2,68.2,39.5,68,38.8,67.8z
			 M41.9,71.4c0-0.1-0.1-0.1-0.1-0.2c-0.4,0.2-0.8,0.3-1.2,0.5c0,0.1,0.1,0.2,0.1,0.2C41.1,71.7,41.5,71.6,41.9,71.4z"/>
		<path class="st1" d="M81.7,48.8c-0.2,1.1,0.2,1.9,0.9,2.6c0.8,0.7,1.7,0.9,2.7,0.9c0,0.1,0,0.1,0,0.2c-0.2,0.1-0.5,0.2-0.7,0.2
			c-1.4-0.1-2.5-0.8-3.2-2c-0.6-1.1-0.4-2.2,0.2-3.3c0.8-1.5,2-2.6,3.8-2.8c0.4,0,0.9,0,1.3,0c0.1,0,0.3,0.1,0.3,0.2
			c0.7,0.9,1.8,1.4,2.2,2.5c0.1,0.2,0.1,0.4,0.2,0.6c0.1,0.5,0.2,1.1,0.3,1.6c0.3,1-0.1,1.8-1.1,2.1c-1.7,0.5-3.4,0.4-5-0.6
			c-0.3-0.2-0.6-0.3-0.9-0.4c-0.5-0.2-0.8-0.5-0.8-1.1c0-0.3,0-0.6-0.1-0.9C81.8,48.8,81.7,48.8,81.7,48.8z M85.5,46.2
			c-0.2,0.1-0.4,0.1-0.5,0.2c0.3,0.1,0.6,0,1,0c0.3,0,0.7,0.1,1,0.2c-0.1-1.1-0.9-1.5-1.8-1.1C85.2,45.7,85.3,45.9,85.5,46.2z
			 M83.5,49.3c0,0.7,0.4,0.9,1,0.7C84.2,49.7,83.9,49.5,83.5,49.3z M86.1,50.3c-0.4,0.1-0.8,0.2-1.1,0.3
			C85.7,50.9,85.8,50.8,86.1,50.3z"/>
		<path class="st1" d="M50.9,87.1c0.7-0.2,1.3-0.3,2-0.5c-0.2-0.1-0.3-0.2-0.4-0.3c-0.8-0.5-1.1-1.2-1.4-2.1
			c-0.2-0.7-0.1-1.3,0.3-1.9c0.4-0.5,0.8-1,1.5-1.2c0.1,0,0.2,0,0.2-0.1c0.6-0.8,1.3-0.5,2-0.3c0.6,0.2,1.2,0.4,1.9,0.3
			c0.4-0.1,0.9,0.5,1.2,0.9c0.8,1,1.4,2,1.5,3.3c0.1,0.9-0.3,1.6-1.1,2c-1.3,0.6-2.5,0.4-3.8,0c-0.3-0.1-0.6-0.1-0.9-0.1
			c-0.5,0.1-1.1,0.3-1.6,0.4C51.8,87.6,51.3,87.6,50.9,87.1z M55.1,84.8c0.6-0.5,1.2-0.9,1.3-1.8c0.1-0.6-0.1-0.8-0.7-0.7
			C54.7,82.6,54.4,83.8,55.1,84.8z M51.9,84.3c0,0.9,0.6,1.7,1.4,1.8C52.8,85.5,52.4,84.9,51.9,84.3z M56.1,85.3c0,0,0,0.1,0.1,0.1
			c0.3-0.1,0.5-0.3,0.8-0.4c0.1,0,0.1-0.2,0.1-0.3c-0.1,0-0.2,0-0.3,0C56.5,84.9,56.3,85.1,56.1,85.3z M54.5,85.4
			c-0.2-0.3-0.4-0.6-0.7-0.9C53.6,85.1,53.9,85.3,54.5,85.4z"/>
		<path class="st1" d="M27.8,88.8c-0.1,0-0.2,0-0.4-0.1c-0.4-0.1-0.5-0.4-0.2-0.7c1-1.4,3.4-2.4,5.1-2c0.8,0.2,1.4,0.6,1.9,1.2
			c0.7,0.8,1.3,1.7,1.5,2.7c0.2,0.7,0,1.2-0.7,1.5c-0.1,0.1-0.3,0.1-0.4,0.2c-0.7,0.2-1.5,0.4-2.2,0.7c-1.4,0.6-3.4-0.4-3.9-1.8
			C28.4,90,28.1,89.4,27.8,88.8z M31.3,88.3c-0.1,0.1-0.1,0.1-0.2,0.2c-0.3-0.2-0.5-0.4-0.8-0.6c-0.4,0.4-0.6,1.5-0.2,1.7
			c0.5,0.2,1.1,0.5,1.7,0.5c0.9,0.1,1.7-0.8,1.7-1.8c0-0.9-0.7-1.4-1.8-1.4c0.2,0.8-0.7,0.2-0.8,0.6C31,87.8,31.2,88.1,31.3,88.3z
			 M34.3,90.7c0.8-0.2,0.9-1.1,0.2-1.7C34.5,89.6,34.4,90.1,34.3,90.7z M30.2,90.3c-0.1,0.7,0,0.9,0.8,0.9c-0.1-0.2-0.2-0.5-0.3-0.8
			C30.7,90.4,30.5,90.3,30.2,90.3z"/>
		<path class="st1" d="M19.2,85.4c-0.4,0-0.8,0-1.1,0c-1.2-0.1-2.2-0.6-2.7-1.8c-0.3-0.7-0.4-1.4-0.5-2.2c0-0.7,0.4-1.3,1.1-1.6
			c0.6-0.3,1.2-0.5,1.8-0.7c0.3-0.1,0.6-0.2,0.9,0.2c0.2,0.3,0.7,0.4,1,0.7c0.4,0.3,0.6,0.7,0.9,1.1c0.2,0.2,0.3,0.5,0.5,0.7
			c1.1,1.3,0.6,1.7-0.3,2.9C20.5,85.2,19.7,85.5,19.2,85.4z M17.8,84c1.2,0.1,1.9-0.4,1.8-1.4c0-0.5-0.3-1.2-0.7-1.5
			c-0.2-0.2-0.9,0.1-1.3,0.2c-0.1,0-0.3,0.4-0.2,0.6C17.4,82.7,17.6,83.4,17.8,84z"/>
		<path class="st1" d="M37.4,75.1c0.7-0.3,1.2-0.3,1.4,0.1c0.2,0.3,0,1-0.4,1.3c0-0.1-0.1-0.2-0.1-0.4c0-0.1,0-0.2-0.2-0.4
			c-0.2,0.4-0.5,0.9-0.6,1.3c-0.8,2.4-1.5,4.8-2.3,7.3c-0.1,0.3-0.2,0.6-0.7,0.5c-0.4-0.1-0.6-0.4-0.5-0.8c0-0.1,0-0.3,0-0.5
			c-0.1,0.3-0.2,0.6-0.4,0.9c-0.1,0.1-0.4,0.3-0.5,0.2c-0.2-0.1-0.3-0.4-0.3-0.6c0-0.3,0.1-0.5-0.1-0.7c-0.1-0.1,0-0.4,0-0.6
			c0.6-1.4,1.2-2.7,1.9-4.1c0.8-1.4,1.6-2.8,2.4-4.2c0.1-0.1,0.2-0.3,0.3-0.4c0.1-0.1,0.3-0.1,0.5-0.2c0,0.1,0,0.3,0,0.4
			C37.7,74.6,37.5,74.9,37.4,75.1z"/>
		<path class="st1" d="M8.9,96.4c-0.2-0.1-0.4-0.2-0.5-0.3c-0.2-0.2,0.2-0.6-0.2-0.9c-0.1,0,0.1-0.6,0.2-0.9
			c1.3-1.7,2.6-3.4,3.8-5.2c0.6-0.8,1.1-1.5,1.7-2.3c0.2-0.2,0.3-0.5,0.5-0.7c0.1-0.1,0.3-0.3,0.4-0.3c0.2,0,0.6,0.1,0.7,0.2
			c0.1,0.4,1.1,0.5,0.4,1.2c-1,1.1-2.1,2.2-3,3.3c-1.2,1.6-2.3,3.2-3.4,4.9C9.3,95.8,9.1,96.1,8.9,96.4z"/>
		<path class="st1" d="M27.8,87.2c-0.3-0.1-0.6-0.1-0.8-0.2c-0.4-0.2-0.7-0.5-1.2-0.2c0,0-0.1,0-0.1,0c-1.2-0.5-2.2-1.1-3.1-2
			c0.4-0.5,0.8-0.5,1.2-0.2c1.2,0.7,2.5,1.4,3.7,2.1c0.2,0.1,0.3,0.3,0.4,0.4C27.8,87.1,27.8,87.2,27.8,87.2z"/>
	</g>
</g>
</svg>
