<svg xmlns="http://www.w3.org/2000/svg"><symbol viewBox="0 0 106 80" id=":icon_11_years"><style type="text/css">.st0{fill:#124A85;}
	.st1{fill:#FFFFFF;}</style><path d="m64 53v9.7l-3.7 0.6v-9.7l-3.7 0.6v-3.2l11-1.9v3.2zm-17 6.9c0 0.9 0.2 1.3 0.6 1.5s0.9 0.4 1.5 0.2c0.2 0 0.6-0.2 1.3-0.4 0.4-0.2 1.1-0.6 1.5-1.3l2.2 2.2c-0.9 0.9-1.7 1.5-2.6 1.9s-1.7 0.6-2.6 0.9c-0.6 0.2-1.3 0.2-1.9 0-0.6 0-1.3-0.4-1.7-0.6-0.6-0.4-1.1-1.1-1.3-1.7-0.4-0.9-0.4-1.7-0.4-3s0.2-2.2 0.4-3 0.6-1.5 1.3-2.2c0.4-0.6 1.1-1.1 1.7-1.5s1.3-0.6 2.2-0.6c1.1-0.2 1.9-0.2 2.6 0 0.6 0.2 1.3 0.6 1.7 1.1 0.4 0.4 0.9 1.1 1.1 1.9s0.4 1.7 0.4 2.6v0.9zm3.8-2.8c0-0.6-0.2-1.1-0.6-1.3s-0.6-0.4-1.3-0.2c-0.4 0-0.9 0.2-1.3 0.6s-0.6 0.9-0.6 1.5zm-9.7-3.5v12l-3.5 0.6v-9.5l-2.6 0.4v2.4c0 1.1 0 1.9-0.2 2.8s-0.4 1.7-0.9 2.4c-0.4 0.6-0.9 1.3-1.5 1.7s-1.5 0.9-2.6 0.9l-0.4-2.4c0.6-0.2 1.1-0.4 1.3-0.6 0.4-0.2 0.6-0.6 0.6-1.1 0.2-0.4 0.2-0.9 0.2-1.3v-7.3zm-9.7-54-9.7 6.7v13l8.4-5.8v34l-30 4.9v28l106-17v-28l-34 5.5v-41h-11l-9.8 6.7v13l8.5-5.8v29l-17 2.7v-46zm72 37v24l-102 16v-24z"/></symbol><symbol viewBox="0 0 80 80" id=":icon_contract"><style type="text/css">
	.st0{fill:#124A85;}
</style><g>
	<g>
		<path class="st0" d="M80,80H0V0h80V80z M1.5,78.5h76.8v-77H1.5V78.5z"/>
	</g>
	<g>
		<g>
			<g>
				<path class="st0" d="M30.7,9.1c0.6,0,1.3,0.2,2.2,0.4c2.4,0.9,4.8,1.5,7.4,2.2c-0.4,0.2-0.9,0.4-1.5,0.6      c-1.5,0.6-2.8,1.3-4.3,1.9h-0.6c-1.9-1.1-3.9-2.4-5.6-3.5l-0.2-0.2c-0.2-0.2-0.2-0.4,0.2-0.6C28.8,9.3,29.8,9.1,30.7,9.1z"/>
			</g>
		</g>
		<g>
			<g>
				<path class="st0" d="M56,7.4c0.2,0,0.2,0,0.4,0c1.3,0,2.6,0.4,3.7,1.3l0.4,0.4c0.4,0.6,0.6,0.9-0.2,1.5c-1.1,0.6-1.9,1.5-3,1.9      c-2.8,1.5-5.6,2.8-8.2,4.1c-0.2,0.2-0.4,0.4-0.4,0.6c-2.2,4.5-4.1,9.1-6.3,13.4c-0.2,0.6-0.6,1.1-1.1,1.7      c-0.6,1.1-1.7,1.3-2.6,1.7h-0.2c-0.2,0-0.2-0.2-0.2-0.4c0-0.6,0.2-1.1,0.2-1.7c0.6-3.7,1.3-7.4,2.2-11v-0.4L40,20.8      c-3,1.3-6.1,2.8-9.3,3.7c-1.7,0.4-3.5,0.9-5.2,0.9c0,0,0,0-0.2,0c-0.6,0-1.1,0-1.7-0.2s-1.1-0.6-1.3-1.1c-1.1-2.2-1.9-4.5-3-6.7      c-0.2-0.6,0-1.1,0.6-1.3c0.2,0,0.4,0,0.6,0c0.4,0,0.9,0.2,1.1,0.4c1.1,0.9,1.9,1.5,3,2.2l0.6,0.4c0.6,0.2,1.1,0.4,1.3,0.4      c0.2,0,0.4,0,0.9-0.2c8-3.7,16-7.1,24-10.6C53,7.8,54.5,7.4,56,7.4z"/>
			</g>
		</g>
	</g>
	<g>
		<g>
			<path class="st0" d="M65.5,56.4c2.8,0,5,2.2,5,5c0,2.6-2.2,5-5,5c-2.8,0-5-2.2-5-5S62.7,56.4,65.5,56.4z"/>
		</g>
	</g>
	<g>
		<g>
			<rect x="17.1" y="47.8" class="st0" width="40.6" height="2.2"/>
		</g>
	</g>
	<g>
		<g>
			<rect x="9.5" y="41.9" class="st0" width="56" height="2.2"/>
		</g>
	</g>
</g></symbol><symbol viewBox="0 0 101.6 80" id=":icon_membership"><style type="text/css">
	.st0{fill:#124A85;}
</style><g>
	<g>
		<path class="st0" d="M57.1,79.8c-1.1,0-2.2-0.4-3-1.3l-1.1-1L20.6,46.7L13,39.4c-0.6-0.6-0.6-1.5,0-1.9l23.2-23.8    c0.2-0.4,0.6-0.6,0.9-0.6l10.6-0.6c0.4,0,0.9,0.2,1.1,0.4l37,36.6c0.9,0.9,1.3,1.7,1.3,3c0,1.1-0.4,2.2-1.3,3l-2.4,2.4    c-0.9,0.9-1.7,1.3-3,1.3s-2.2-0.4-3-1.3l-9.3-9.3l1.1-1.1l8.2,8.2c1.5,1.5,4.1,1.5,5.6,0l1.5-1.5c0.4-0.4,0.6-1.1,0.6-1.7    s-0.2-1.3-0.6-1.7L83,49.3L47.8,14.5c-0.2-0.2-0.6-0.4-1.1-0.4l-9.3,0.6c-0.4,0-0.6,0.2-0.9,0.4L15.4,37.2c-0.6,0.6-0.4,1.5,0,1.9    l6.3,6.3l32.7,30.9l0,0c1.5,1.5,4.1,1.5,5.6,0l1.5-1.5c0.9-0.9,0.9-2.6,0-3.5l1.1-1.1c0.9,0.9,1.3,1.7,1.3,3s-0.4,2.2-1.3,3    l-2.4,2.4C59.3,79.4,58.2,79.8,57.1,79.8z"/>
	</g>
	<g>
		<path class="st0" d="M27.7,34l5.8-12.1l10.6-5.2l19-4.3c0.6-0.2,1.3,0,1.9,0.4L89,37c0.9,0.9,0.9,1.9,0,2.8l-6.7,6.5l-19-19    l-19.7,0.4C43.7,27.9,35.7,40,27.7,34z"/>
	</g>
	<g>
		<path class="st0" d="M74.9,67.7c-1.1,0-2.2-0.4-3-1.3L61,55.6l1.1-1.1l10.8,10.8c1.1,1.1,2.6,1.1,3.5,0l2.4-2.4    c1.1-1.1,1.1-2.6,0-3.5L77.9,58l1.1-1.1l1.3,1.3c1.7,1.7,1.7,4.3,0,5.8l-2.4,2.4C77,67.3,75.9,67.7,74.9,67.7z"/>
	</g>
	<g>
		<path class="st0" d="M20.1,59.7l-1.5-1.5c-1.3-1.3-1.3-3.5,0-4.8l9.3-9.3c1.3-1.3,3.5-1.3,4.8,0l1.5,1.5c1.3,1.3,1.3,3.5,0,4.8    l-9.3,9.3C23.6,61,21.4,61,20.1,59.7z"/>
	</g>
	<g>
		<path class="st0" d="M26.4,68.4l-1.5-1.5c-1.3-1.3-1.3-3.5,0-4.8l10-10c1.3-1.3,3.5-1.3,4.8,0l1.5,1.5c1.3,1.3,1.3,3.5,0,4.8    l-10,10C29.9,69.7,27.7,69.7,26.4,68.4z"/>
	</g>
	<g>
		<path class="st0" d="M34.8,74.6l-1.5-1.5c-1.3-1.3-1.3-3.5,0-4.8l10.6-10.6c1.3-1.3,3.5-1.3,4.8,0l1.5,1.5c1.3,1.3,1.3,3.5,0,4.8    L39.6,74.6C38.1,75.9,36.1,75.9,34.8,74.6z"/>
	</g>
	<g>
		<path class="st0" d="M90.7,35.5L67.5,12.1c-1.3-1.3-1.3-3.5,0-4.8l5.2-5.2c1.3-1.3,3.5-1.3,4.8,0l23.2,23.2c1.3,1.3,1.3,3.5,0,4.8    l-5.2,5.2C94.1,36.8,92,36.8,90.7,35.5z"/>
	</g>
	<g>
		<path class="st0" d="M9.5,36.8c-1.1,0-2.2-0.4-3-1.3l-5.2-5.2C0.4,29.6,0,28.6,0,27.5s0.4-2.2,1.3-3L24.4,1.3    c0.9-0.9,1.9-1.3,3-1.3s2.2,0.4,3,1.3l5.2,5.2c1.7,1.7,1.7,4.3,0,5.8L12.3,35.5C11.5,36.3,10.4,36.8,9.5,36.8z M27.5,1.7    c-0.6,0-1.3,0.2-1.7,0.6L2.4,25.5c-0.4,0.4-0.6,1.1-0.6,1.7s0.2,1.3,0.6,1.7l5.2,5.2c0.9,0.9,2.6,0.9,3.5,0L34.4,11    c1.1-1.1,1.1-2.6,0-3.5l-5.2-5.2C28.8,1.9,28.1,1.7,27.5,1.7z"/>
	</g>
	<g>
		<path class="st0" d="M65.3,73.8c-1.1,0-2.2-0.4-3-1.3l-7.1-7.1l1.1-1.1l7.1,7.1c1.1,1.1,2.6,1.1,3.5,0l3.2-3.2    c1.1-1.1,1.1-2.6,0-3.5l-0.9-0.9l1.1-1.1l0.9,0.9c1.7,1.7,1.7,4.3,0,5.8L68,72.6C67.5,73.6,66.4,73.8,65.3,73.8z"/>
	</g>
	<g>
		<path class="st0" d="M45.2,79.2l-1.5-1.5c-1.3-1.3-1.3-3.5,0-4.8l5.6-5.6c1.3-1.3,3.5-1.3,4.8,0l1.5,1.5c1.3,1.3,1.3,3.5,0,4.8    L50,79.2C48.7,80.3,46.5,80.3,45.2,79.2z"/>
	</g>
</g></symbol><symbol viewBox="0 0 80 80" id=":icon_5_years"><style type="text/css">.st0{fill:#124A85;}</style><g>
  <path d="m22 34c-0.4-0.4-0.4-0.4-1.5-0.4-1.1-0.2-0.4 0.2-0.9 0-0.4-0.2-0.6-0.2-1.1 0-0.4 0.2 0 0.4 0.4 0.4s0.2 0.2 0.2 0.4-0.2 0.2-0.4 0.2-0.4 0.2-1.3 0.2 0 0.4 0 0.4 0.4 0.2 1.3 0.2c0.8 0 0.5-0.2 1.2 0h0.1c0.2 0 0.4-0.4 0.6-0.6s0.2 0.2 0.9 0c0.4-0.2 0-0.2 0.9 0.2 0.6 0.4 0.6 0.2 0.9-0.2s-0.8-0.6-1.3-0.8zm21-29c0.6 0 0.9 0.2 1.1 0.2 0 0-1.5-0.9-1.7-0.9h-1.1l0.2 0.6c0.2-0.2 0.9-0.2 1.5 0.1zm-8.6 7.1c-0.2 0-0.2 0-0.2 0.2-0.2 0-0.2 0.2-0.2 0v-0.4l-0.2 0.2s-0.2 0-0.2 0.2v0.2c0 0.2 0.2 0 0.2 0.2v0.2l0.8-0.4v-0.2s0-0.2-0.2-0.2zm-5.4 0.2c0-0.4-0.2 0-0.2 0l-0.4 0.4v0.4c0 0.2 0.2 0.2 0.4 0.2s0 0 0.2-0.2l0.2 0.2h0.2c0.2 0 0.2-0.2 0.2-0.2s-0.2 0-0.4-0.2 0 0.1-0.2-0.6zm-14 18c0.2 0 0.4 0 0.4-0.4s-0.4-0.9-0.6-0.9c-0.4 0-1.1-0.2-0.4 0.6 0.6 0.9 0.4 0.7 0.6 0.7zm10 5.2h-0.6c-0.6 0-0.4 0.4 0 0.4s0.2 0 0.6 0.2 0.2 0 0.4-0.2c0.2 0 0.6-0.2 0.6-0.2s-0.2 0-0.6-0.2c-0.1 0 0.1 0.2-0.4 0zm-7.3-1.9c-0.2-0.2-0.6-0.2-0.9-0.4-0.4-0.2 0-0.2-0.4-0.2-0.2 0-0.6-0.2-1.1-0.4-0.4-0.2-0.4 0-0.9-0.4s0-0.2-1.1-0.2c-1.1-0.2-0.6-0.2-0.6-0.2l-1.3-0.8h-1.3s-1.1 0.2-1.3 0.4-0.2 0.4-0.6 0.4c-0.2 0 0 0.2 0.2 0.2s0.2 0 0.6-0.4 0.2-0.2 0.9-0.2c0.6-0.2 0.2-0.2 0.6-0.2s0.6 0.2 0.4 0.2-0.2 0 0.2 0.2 0.2 0.2 0.6 0c0.4 0 0.2 0.2 0.6 0.2s0.4 0.2 0.9 0.2c0.6 0 0.2 0 0.4 0.2 0 0.2 0.2 0.4 0.9 0.6 0.6 0.4-0.4 0.9-0.2 0.9h2.4c1.9 0.1 1 0.1 1-0.1zm41-7.4c-0.6-1.1-1.5-1.7-2.8-2.4-1.1-0.6-2.6-0.9-4.3-0.9-0.9 0-1.7 0.2-2.8 0.4s-1.9 0.6-2.6 1.3v-5.4h14v-6.7h-21v20h6.7c0.4-1.1 1.1-1.7 1.7-2.2 0.6-0.4 1.3-0.6 1.9-0.6 0.9 0 1.5 0.2 1.9 0.4 0.6 0.2 1.1 0.6 1.3 1.1 0.4 0.4 0.4 1.1 0.6 1.7s0.2 1.3 0.2 1.9-0.2 1.3-0.2 1.9c-0.2 0.9-0.4 1.3-0.6 1.9l-1.3 1.3c-0.4 0.4-1.1 0.6-1.9 0.6-1.1 0-1.9-0.2-2.6-0.6-0.6-0.4-1.1-1.5-1.3-2.8l-7.4 1.1c0.2 1.9 0.6 3.5 1.5 4.5 0.9 1.3 1.7 2.2 2.8 2.8s2.2 1.1 3.5 1.3c1.1 0.2 2.4 0.4 3.5 0.4 1.9 0 3.5-0.2 5-0.9 1.3-0.4 2.6-1.5 3.5-2.6 1.1-1.3 1.7-2.6 2.2-4.3 0.4-1.7 0.6-3.5 0.6-5.6 0-1.5-0.2-3-0.6-4.3-0.2-1-0.9-2.1-1.5-3.2zm-18-26c-22 0-40 18-40 40s18 40 40 40 40-18 40-40-18-40-40-40zm-2.1 78 0.2-0.2h0.2s0.1 0.1 0.1 0.2h-0.5zm2.1 0.1h-1.5c0.1-0.2 0.2-0.4 0.4-0.6 0.4-0.4 0.6-0.6 1.1-0.9 0.6-0.2 0.2-0.4 0.4-1.1 0.2-0.6 0-0.6 0.4-1.1 0.2-0.6 0.4-0.2 0.9-0.6s0.6-0.6 1.3-0.9c0.6-0.2 0.4-0.4 0.9-0.4s0.2 0 0.6-0.4 0.9-0.2 1.7-0.2c0.9 0 0.2-0.2 0.6-0.4s0.4-0.2 0.4-0.6 0.2-0.6 0.6-0.9c0.4-0.2 0.4-0.2 0.4-0.6 0.2-0.2 0.4-0.4 0.6-0.9 0.2-0.4 0.2-0.9 0.4-0.6 0 0.2 0-0.2 0.4-0.9 0.4-0.4 0.4-1.1 0.4-1.5s0.2-1.3 0.4-1.9c0.2-0.4 0.4-0.4 0.4 0 0 0.2 0.2-0.4 0.6-1.1 0.4-0.6 0.6-1.1 0.9-1.3 0.2-0.2 0.4-0.4 0.6-0.9 0.4-0.4 0.4-0.9 0.9-1.7 0.4-0.4 0-1.3 0-1.9s-0.4-0.6-1.1-0.6c-0.6 0-0.6 0-1.5-0.9s-1.5-0.9-1.9-0.9h-1.1c0-0.2-0.2-0.2-0.4 0s-0.2 0-0.9-0.2c-0.6-0.2-0.4 0-0.9 0.2l-0.6 0.6v-0.2s0-0.2 0.2-0.4 0-0.4-0.2-0.6-0.4-0.2-0.6-0.2 0-0.2-0.2-0.4-0.9-0.2-1.5-0.4-0.9-0.2-1.1 0-0.2 0.6-0.6 0.9c-0.4 0.2-0.6 0.4-0.4 0.2 0 0-0.2-0.2 0-0.2s0.2-0.2 0.4-0.4 0.2-0.4 0.2-0.6c0.2-0.4 0-0.2-0.4-0.2s-0.9-0.4-1.3-0.6-0.4 0.4-0.4 0.4-0.4 0-0.6 0.4c-0.2 0.2-0.4 0.4-0.4 0.9 0 0.2-0.4 0.2-0.2 0 0-0.2 0.2-0.4 0.6-1.1 0.4-0.6 0.2 0 0.4-0.2s0.2 0 0.2-0.2 0.6-0.6 0.6-0.9c0-0.2-0.2 0-0.4 0s-0.4-0.4-0.6-0.9c-0.2-0.6-0.2-1.3-0.6-1.3-0.2 0-0.6 0-0.6-0.2 0 0 0.2-0.2 0-0.2-0.4-0.2-0.2 0-0.4-0.4s-0.2-0.2-0.4-0.4c-0.2 0-0.4-0.2-0.6-0.2s-0.2 0-0.4-0.2c-0.4-0.2-0.6 0-0.6 0s-0.6-0.2-0.9 0.2c-0.2 0.2-0.2 0-0.9 0h-0.4v-0.2c-0.2-0.2-0.9-0.4-1.3-0.4s0-0.2 0-0.4 0-0.2-0.2-0.4-0.4-0.2-0.6-0.4c0 0-0.2 0-0.2-0.2-0.4-0.2-0.4 0-0.6-0.2-0.2 0 0-0.2-0.2-0.4v-0.2c0-0.2-0.4-0.4-0.6-0.4h-0.2c-0.2 0-0.9-0.2-0.9-0.2-0.2 0-0.2-0.4-0.2-0.6-0.2-0.2-0.2 0-1.1 0s-0.6 0-0.6 0.2 0 0.2-0.4 0.4-0.4 0.2-0.9 0c-0.4 0-0.9-0.4-1.1-0.6s-0.2 0-0.6 0.2c-0.2 0.2-0.4 0.2-0.9 0-0.4 0-0.2-0.2-0.2-0.6s-0.4-0.4-1.3-0.4c-1.1-0.2-0.9 0.2-1.3 0.4-0.6 0-0.4 0-0.4 0.2s0.4 0.9 0.4 1.3 0 0.2-0.4 0.4c-0.2 0-0.4 0.2-0.4 0s-0.2-0.2-0.2-0.4c-0.2-0.2 0-0.2 0.2-0.4 0-0.2 0.2-0.2 0.2-0.2 0.2-0.2 0-0.4 0-0.6s-0.2-0.2-0.2-0.4c-0.2-0.2 0-0.2 0.4-0.2 0.2 0 0.2-0.2 0.4-0.4 0.2-0.4-0.2-0.2-0.6-0.2-0.4 0.2-0.2 0.6-0.4 0.4s-0.4-0.2-0.4 0.2-0.4 0.4-0.6 0.2c-0.2 0-0.4-0.2-0.4 0 0 0 0 0.4-0.4 0.2-0.2 0-0.2 0-0.6 0.2s-0.4 0.6-0.4 1.3c0 0.4-0.4 0-0.6 0.4s-0.6 0-0.6 0.6-0.2 0.2-0.2 0.2v-0.2l-0.8-0.8c-0.8-1.1-0.8-1.1-0.9-1.1v-0.3c0-0.2-0.9-0.6-1.1-0.4-0.2 0-0.2 0.4-0.4 0.4-0.2 0.2-0.6 0.2-0.6 0.2l0.1 0.2c-0.4 0.1-0.6 0.2-0.9 0.3l-0.1-0.1c-0.2-0.2-0.2-0.2-0.4-0.2h-0.3c-0.1 0-0.1-0.1-0.1 0-0.2-0.1-0.3-0.1-0.3-0.1 0-0.1 0-0.1-0.2-0.1h-0.2c-0.2 0-0.2-0.2-0.4-0.4 0-0.2-0.2-0.2-0.2-0.4s-0.2-0.4-0.2-0.4 0-0.2-0.2-0.4c0-0.2 0-0.2 0.2-0.4s0 0 0-0.4c0-0.2 0-0.2 0.4-0.4 0.2-0.2 0-0.4 0-0.6-0.1-0.5-0.1-0.5 0.1-0.7s0.2-0.2 0.4-0.6c0.2-0.2-0.2-0.4-0.2-0.4h-0.6c-0.2 0 0.2 0 0.4-0.2s0.2 0 0.4-0.2 0-0.2 0-0.2c-0.2 0-0.2-0.2-0.4-0.2-0.4-1.1-0.6-1.1-0.9-1.1-0.2-0.2-0.4 0.2-0.6 0s-0.2 0-0.6 0c-0.4 0.2-0.6 0-1.1-0.2-0.4-0.2-0.4 0.2-0.4 0-0.2-0.2 0 0-0.4 0-0.2 0-0.2-0.2-0.4-0.2 0 0 0.4-0.2 0.6-0.4 0.4-0.2 0.2-0.6 0.2-0.9 0-0.4 0.2-0.4 0.4-0.4s0 0 0-0.2c0 0 0-0.2 0.2-0.6 0.4-0.6 0.2-0.4 0.2-0.6s0-0.4 0.2-0.6c0.4 0 0.9-0.2 0.9-0.6 0.2-0.2 0.2-0.4-0.2-0.4s-0.4 0.2-0.6 0-0.9 0-1.5 0c-0.4 0-0.6 0.2-0.6 0.9-0.2 0.4-0.4 1.1-0.6 1.3-0.1 0.1-0.3 0.3-0.6 0.4 0.5-3.1 1.4-6 2.5-8.8 0.2 0 0.4 0 0.4-0.2 0.2-0.2 0.2 0 0.2 0.2 0.2 0.2 0-0.2 0-0.4-0.2-0.2 0-0.2 0-0.4s0-0.1-0.2 0c0-0.1 0.1-0.2 0.1-0.3 0-0.5 0.1-0.5 0.4-0.5 0.6 0 0.4 0 0.6-0.2v0.2c0 0.2 0.2 0 0.6 0s0.2-0.2 0.9 0c0.6 0.2 0 0.4 0.6 0.6s0.4-0.2 0.9-0.2 0.4 0 0.6 0.4c0.2 0.2 0.4 0.2 0.6 0.4 0 0.4-0.2 0.4-0.2 0.9s0 0.9 0.2 0.9 0 0.2 0.2 0.4c0 0.2 0.4 0.9 0.6 0.9s0.4 0.2 0.6-0.2 0.4-1.1 0.2-1.5c-0.2-0.2 0-0.4 0-0.6s0-0.2-0.2-0.6-0.2-0.6-0.2-0.9c0-0.2-0.2-0.2 0-0.6 0.2-0.2 0.4-0.6 0.6-0.9 0.2-0.2 0.2-0.2 0.9-0.6 0.6-0.4 0.6-0.4 1.1-0.6 0.4-0.2 0.9-0.2 0.9-0.4s0.2-0.2 0.6-0.2c0.4-0.2 0.2-0.2 0.6-0.2 0.4-0.2 0.6-0.4 0.2-0.6-0.4-0.6 0-0.6 0.4-0.6 0.6 0 0-0.2-0.2-0.4s-0.2-0.2 0-0.6c0-0.2 0.2-0.2 0-0.6 0-0.4 0-0.4 0.4-0.6 0.2-0.2 0 0 0 0.4 0 0.2 0 0.2 0.2 0.4s0.2 0.2 0.2 0 0-0.4 0.2-0.6c0-0.2 0 0 0.2 0.2s0.2 0 0.4-0.2 0.2-0.2 0.2-0.4c0 0-0.2-0.2 0.2-0.2s0-0.2 0.2-0.2c0.2-0.2 0.2 0 0.6 0 0.6 0 0.6 0 0.6-0.2 0.2-0.2 0 0 0.4 0.2 0.2 0.2 0.4-0.2 0.4-0.4 0 0-0.2-0.2-0.2-0.4s0-0.4 0.6-0.6c0.6-0.4 0.4 0 0.6-0.2s0.2-0.2 0.4-0.2h0.4c0.2 0 0.2-0.2 0.6-0.2s0.2 0 0.2-0.2 0 0 0.4-0.2c0.4 0 0.6-0.2 1.1-0.2 0.4-0.2 0 0.2 0 0.2h0.6c0.4 0 0 0 0 0.2h-0.4-0.4c-0.2 0-0.6 0.2-0.6 0.2l-0.2 0.2c-0.2 0.2-0.2 0.2-0.2 0.4s0.2 0.2 0.2 0.2c0.2 0 0.4 0 0.6-0.2 0.2 0 0.4-0.2 0.4-0.4 0.2 0 0 0 0-0.2s0.2 0 0.2 0h0.2 0.4c0.2 0 0.2 0 0.4-0.2s0 0 0.6-0.2c0.4 0 0.2-0.2 0-0.4l-0.2-0.2c-0.2-0.2 0 0-0.2 0h-0.6c-0.4 0 0.4-1 0.4-1 0-0.2 0-0.2-0.4-0.2s-0.2-0.2-0.2-0.4 0 0-0.2 0 0 0 0-0.2l0.2-0.2c0-0.2-0.2 0-0.4 0-0.2 0.2-0.2 0-0.4 0 0-0.2-0.2-0.2-0.4-0.2h0.2 0.2 0.4s0.2 0 0.6-0.2c0.4 0 0.2-0.2 0-0.2 0.4-0.2 0.4-0.4 0-0.4h-1.6s-0.4 0.2-0.6 0.2-0.4 0.2-0.6 0.4-0.4 0-0.2-0.2 0.4-0.2 0.9-0.6c0.4-0.2 0.4 0 0.6 0 0.4 0 0.2 0 0.6-0.4 0.2-0.4 0.2-0.2 0.6-0.2h1.1s0.9 0 1.9 0.2c1.1 0 0.6-0.2 1.3-0.4 0.6-0.4 0.4-0.4 1.1-0.4 0 0.2-0.2 0.4-0.2 0.4l-0.4 0.6-0.2 0.4v0.2c-0.2 0-0.6 0-0.4 0.2 0.4 0 0.6 0 0.2 0.2s-0.9 0.2-0.4 0.2h1.5 0.4l0.4 0.2s0.4-0.2 0.6-0.2c0 0 0 0.2-0.2 0.2-0.2 0.4-0.6 0.2-0.4 0.4s0.2 0.2 0.4 0c0.2 0 0.2-0.2 0.4-0.4h0.4s0-0.2 0.2-0.2 0.2-0.2 0.2-0.2 0.2 0 0-0.2-0.6 0-0.4-0.2 0.9-0.2 0.2-0.4c-0.6-0.2-0.6-0.2-0.9-0.2-0.2 0 0 0.2-0.4 0-0.6-0.2-0.9-0.2-0.6-0.4 0.2-0.2 0.6-0.6 0.4-0.6 0-0.1 0-0.1-0.1-0.2 0 0 0.1 0 0.1-0.1 0.2-0.2-0.2 0 0-0.4 0-0.2 0-0.2-0.2-0.4s-0.4 0-0.4-0.2 0 0-0.6 0-0.6 0.2-0.9 0.2h-0.4c-0.2 0 0.2-0.2 0.2-0.2h0.6c0.2 0 0.2 0 0.4-0.2 0.2 0 0.4 0 0.2-0.2-0.2 0 0-0.2-0.4 0-0.4 0-0.4 0-0.6-0.2 0-0.2 0 0-0.4 0s-0.4-0.1-0.4-0.3-0.4 0-0.6 0-0.2-0.2 0-0.4 0 0 0-0.2 0-0.2-0.6-0.4c-0.4-0.2-0.6-0.4-1.1-0.6-0.4-0.4-0.2 0-0.2 0s-0.2 0.4-0.4 0.4c0 0.2-0.2 0-0.6 0.2s-0.4 0-0.4 0-0.6-0.2-1.1-0.2l-0.2-0.2c-0.2-0.2-0.1-0.2 0-0.4 0.4-0.2 0.8-0.4 1.2-0.5h0.2 0.2l-0.1-0.1c1.9-0.8 3.9-1.5 6-2 0 0.2 0 0-0.2 0.2s0 0 0.2 0.2 0.6 0.4 0.9 0.6c0.2 0.2 1.7 0.9 1.7 0.9h1.1s0.4 0 1.1 0.2c0.4 0.2 0.2 0.2 0.4 0.2s0.9 0.2 0.9 0c0 0-0.2-0.4-0.4-0.9-0.2-0.2 0-0.4 0-0.4v-0.3s-0.2-0.4 0-0.6 0.2 0 1.1 0 0.2 0 0-0.4c-0.2-0.2 0-0.2 0.2-0.2h0.4 0.6c0.4 0 0.6 0 0.2-0.2-0.2-0.2-0.6-0.3-1.3-0.4 0.7 0 1.4-0.1 2.1-0.1 10 0 20 4.2 27 11-0.2 0.1-1.3-0.2-1.3 0 0.2 0.2 1.3 0.6 1.3 1.3 0 0.4 0.2 1.1 0.2 1.1s0.2 0.4 0.4 0.4c0.2 0.2 1.1 1.1 1.3 1.1s0.4 0.6 0.4 0 0.2-0.4 0-0.6c0-0.4-0.2-0.6-0.4-0.9-0.2-0.2-0.4-0.2-0.4-0.6v-0.1c0.9 1 1.7 2 2.5 3l-0.3 0.3c-0.4 0-0.6 0.2-0.6 0-0.2-0.2-0.4-0.6-0.4-0.4s0.4 0.9 0.4 1.1v0.9c0 0.2 0.4 1.3 0.4 1.3s0.4 0.2 0.4 0.6 0 0.6-0.2 0.9c0 0.2-0.2 0-0.2 0.4 0.6 0 1.3 0.2 1.3 0.2s0.2 0.2 0.6 0.4c0 0-0.2 0.2 0 0.4 0 0.2 0 0.4-0.2 0.4s-0.9-0.6-0.6-0.2c0.2 0.4 0.6 0.6 0.4 1.1-0.2 0.4-0.4-0.4-0.2 0.2s0.9 1.3 0.4 1.3c-0.2 0-0.9-0.2-1.5 0 0.2 0.4 0.2 0.6 0.4 0.9 0.2 0.2-0.2 0.4 0.2 0.9s0.4 1.1 0.4 1.3v0.6 0.2c0.2 0.4 0 0.6-0.2 0.9 0 0.2 0 0 0.2 0.6 0.2 0.4 0.4 0.2 0.4 0.6-0.2 0.4 0 0.6 0.2 0.9 0.2 0.2 0.4 0 0.4 0.4 0 0.2 0.2 0.4 0.2 0.4 0.2 0 0.2 0.2 0.2 0.2s0.6 0.4 0.6 0.9 0.2 1.1 1.1 1.9c0.6 0.9 0.9 1.9 1.3 1.5s0.9-0.6 1.1-0.6c0 0 0-0.2 0.4-0.2 0.2 0 0.4 0 0.4-0.2 0-0.1 0.1-0.2 0.1-0.3 0.1 0.9 0.1 1.8 0.1 2.7 0 21-17 38-38 38z"/>
 </g></symbol></svg>