<?xml version="1.0" encoding="utf-8"?>
<!-- Generator: Adobe Illustrator 21.0.0, SVG Export Plug-In . SVG Version: 6.00 Build 0)  -->
<svg version="1.1" id="Layer_1" xmlns="http://www.w3.org/2000/svg" xmlns:xlink="http://www.w3.org/1999/xlink" x="0px" y="0px"
	 width="32px" height="32px" viewBox="0 0 32 32" style="enable-background:new 0 0 32 32;" xml:space="preserve">
<style type="text/css">
	.st0{fill:#8ED9FF;}
</style>
<g>
	<path class="st0" d="M27.2,6.8c-0.2-0.2-0.5-0.2-0.7-0.1c-0.2,0.2-0.2,0.6,0,0.8c4.4,5.4,4,13.2-0.9,18.1c-3.9,3.9-9.9,5-14.9,2.9
		l1.8-1.1L6.1,26l3.4,5.5l0.5-2.2c1.9,0.9,3.9,1.3,6,1.3c3.8,0,7.5-1.5,10.3-4.2C31.5,21,31.9,12.6,27.2,6.8z"/>
	<path class="st0" d="M6.5,6.4c3.9-3.9,9.9-5,14.9-2.9l-1.8,1.1L26,6l-3.5-5.5L22,2.7c-5.4-2.5-12-1.3-16.3,3
		C0.4,11,0,19.3,4.7,25.1c0.1,0.1,0.2,0.2,0.4,0.2c0.1,0,0.2,0,0.3-0.1c0.3-0.1,0.3-0.5,0.1-0.7C1.1,19.1,1.5,11.3,6.5,6.4z"/>
</g>
</svg>
