<?xml version="1.0" encoding="utf-8"?>
<!-- Generator: Adobe Illustrator 21.0.0, SVG Export Plug-In . SVG Version: 6.00 Build 0)  -->
<svg version="1.1" id="Layer_1" xmlns="http://www.w3.org/2000/svg" xmlns:xlink="http://www.w3.org/1999/xlink" x="0px" y="0px"
	 width="20.7px" height="26px" viewBox="0 0 20.7 26" style="enable-background:new 0 0 20.7 26;" xml:space="preserve">
<style type="text/css">
	.st0{fill:#8ED9FF;}
</style>
<g>
	<path class="st0" d="M13.8,17.5c-1,1.2-1.9,2.1-2.6,2.8c-0.5,0.5-1.2,0.5-1.7,0c-0.7-0.5-1.7-1.6-2.6-2.8C6.5,17.2,6,17,5.6,17.3
		c-2.3,1.2-4,3.1-5.2,4.5c-0.9,1-0.3,2.6,0.9,2.9c2.1,0.5,5.4,1.2,9,1.2s6.9-0.7,9-1.2c1.4-0.3,1.7-1.9,0.9-2.9
		c-1.2-1.4-3.1-3.3-5.2-4.5C14.5,17,14.1,17.2,13.8,17.5z"/>
	<path class="st0" d="M17.2,7.8c0,5.2-3.8,9.5-6.9,9.5c-2.8,0-6.9-4.3-6.9-9.5S6.5,0,10.3,0S17.2,2.6,17.2,7.8z"/>
</g>
</svg>
