<?xml version="1.0" encoding="utf-8"?>
<!-- Generator: Adobe Illustrator 21.0.0, SVG Export Plug-In . SVG Version: 6.00 Build 0)  -->
<svg version="1.1" id="Layer_1" xmlns="http://www.w3.org/2000/svg" xmlns:xlink="http://www.w3.org/1999/xlink" x="0px" y="0px"
	 width="20px" height="25px" viewBox="0 0 20 25" style="enable-background:new 0 0 20 25;" xml:space="preserve">
<style type="text/css">
	.st0{fill:#FFCB05;}
</style>
<g>
	<path class="st0" d="M12.8,16.1c-0.8,0.9-1.5,1.7-2.1,2.2c-0.4,0.4-0.9,0.4-1.4,0c-0.5-0.4-1.4-1.3-2.1-2.2C7,15.9,6.6,15.7,6.3,16
		c-1.8,0.9-3.2,2.5-4.2,3.6c-0.7,0.8-0.3,2.1,0.7,2.4c1.7,0.5,4.3,1,7.2,1s5.6-0.5,7.2-0.9c1.1-0.3,1.4-1.5,0.7-2.4
		c-0.9-1.1-2.5-2.6-4.2-3.6C13.4,15.7,13.1,15.9,12.8,16.1z"/>
	<path class="st0" d="M15.6,8.3c0,4.2-3,7.7-5.6,7.7c-2.2,0-5.6-3.5-5.6-7.7S7,2.1,10,2.1S15.6,4.2,15.6,8.3z"/>
</g>
</svg>
