<svg width="78" height="78" viewBox="0 0 78 78" fill="none" xmlns="http://www.w3.org/2000/svg">
<circle cx="38.9333" cy="38.6345" r="37.6345" fill="#001063" fill-opacity="0.15" stroke="white" stroke-width="2"/>
<path d="M45.0339 28.2515C45.8281 27.4158 46.3182 26.279 46.3182 25.0268C46.3182 22.4683 44.2754 20.3869 41.7643 20.3869C40.8404 20.3869 39.9809 20.6695 39.2621 21.1529L34.9555 17.204C34.8425 17.1003 34.6957 17.043 34.5438 17.043H18.1335C16.7084 17.043 15.5488 18.2244 15.5488 19.6764V22.3793C15.5488 22.7258 15.8243 23.0064 16.1643 23.0064C16.504 23.0064 16.7798 22.7258 16.7798 22.3793V19.6764C16.7798 18.9157 17.3869 18.2971 18.1335 18.2971H34.3077L38.3296 21.9853C37.6336 22.8004 37.2104 23.8639 37.2104 25.0268C37.2104 27.1355 38.5987 28.9186 40.4924 29.4809V51.1098C40.4924 51.8705 39.8853 52.4891 39.1386 52.4891H18.1335C17.3869 52.4891 16.7798 51.8705 16.7798 51.1098V25.3886C16.7798 25.0424 16.504 24.7618 16.1643 24.7618C15.8243 24.7618 15.5488 25.0424 15.5488 25.3886V51.1098C15.5488 52.5618 16.7084 53.7433 18.1335 53.7433H20.1437V57.129C20.1437 58.5809 21.3033 59.7624 22.7284 59.7624H43.7335C45.1586 59.7624 46.3182 58.5809 46.3182 57.129V29.7084C46.3182 29.5307 46.2443 29.3612 46.1144 29.2423L45.0339 28.2515ZM38.4413 25.0268C38.4413 23.1599 39.932 21.6411 41.7643 21.6411C43.5966 21.6411 45.0873 23.1599 45.0873 25.0268C45.0873 26.8937 43.5966 28.4125 41.7643 28.4125C39.932 28.4125 38.4413 26.8937 38.4413 25.0268ZM45.0873 57.129C45.0873 57.8897 44.4801 58.5083 43.7335 58.5083H22.7284C21.9818 58.5083 21.3746 57.8897 21.3746 57.129V53.7433H39.1386C40.5637 53.7433 41.7233 52.5618 41.7233 51.1098V29.6653C41.7371 29.6657 41.7505 29.6666 41.7643 29.6666C42.5973 29.6666 43.3781 29.4365 44.0505 29.037L45.0873 29.9877V57.129Z" fill="white"/>
<path d="M34.5448 47.7243C35.97 47.7243 37.1295 46.5428 37.1295 45.0908V35.7277C37.1295 34.2757 35.97 33.0942 34.5448 33.0942H22.7295C21.3044 33.0942 20.1448 34.2757 20.1448 35.7277V45.0908C20.1448 46.5428 21.3044 47.7243 22.7295 47.7243H34.5448ZM21.3757 37.6924H35.8986V43.1262H21.3757V37.6924ZM29.2526 36.4382V34.3484H31.9602V36.4382H29.2526ZM28.0217 36.4382H25.3142V34.3484H28.0217V36.4382ZM31.9602 44.3803V46.4284C31.9602 46.4424 31.9614 46.4565 31.9624 46.4701H29.2526V44.3803H31.9602ZM34.5448 46.4701H33.1888C33.1898 46.4565 33.1911 46.4424 33.1911 46.4284V44.3803H35.8986V45.0908C35.8986 45.8515 35.2915 46.4701 34.5448 46.4701ZM35.8986 35.7277V36.4382H33.1911V34.3484H34.5448C35.2915 34.3484 35.8986 34.967 35.8986 35.7277ZM22.7295 34.3484H24.0832V36.4382H21.3757V35.7277C21.3757 34.967 21.9829 34.3484 22.7295 34.3484ZM21.3757 45.0908V44.3803H28.0217V46.4701H22.7295C21.9829 46.4701 21.3757 45.8515 21.3757 45.0908Z" fill="white"/>
<path d="M44.1697 23.2456C43.9292 23.0008 43.5395 23.0008 43.2993 23.2456L41.1087 25.4775L40.2313 24.5835C39.9907 24.3387 39.6011 24.3387 39.3608 24.5835C39.1206 24.8283 39.1206 25.2252 39.3608 25.47L40.6737 26.8076C40.9107 27.0491 41.3067 27.0491 41.5441 26.8076L44.1697 24.1324C44.41 23.8877 44.41 23.4907 44.1697 23.2456Z" fill="white"/>
<line x1="40.7651" y1="32.2568" x2="59.7485" y2="32.2568" stroke="white"/>
<line x1="62.7146" y1="32.2568" x2="69.2401" y2="32.2568" stroke="white"/>
<circle cx="61.5282" cy="32.1635" r="1.87292" stroke="white"/>
<line x1="51.4434" y1="41.1558" x2="69.2403" y2="41.1558" stroke="white"/>
<line x1="40.7651" y1="41.1558" x2="47.8839" y2="41.1558" stroke="white"/>
<circle cx="49.6637" cy="41.0624" r="1.87292" stroke="white"/>
<line x1="40.7651" y1="50.0542" x2="55.5959" y2="50.0542" stroke="white"/>
<line x1="59.1553" y1="50.0542" x2="69.2402" y2="50.0542" stroke="white"/>
<circle cx="57.3756" cy="49.9608" r="1.87292" stroke="white"/>
</svg>
