<?xml version="1.0" encoding="utf-8"?>
<!-- Generator: Adobe Illustrator 21.0.0, SVG Export Plug-In . SVG Version: 6.00 Build 0)  -->
<svg version="1.1" id="Layer_1" xmlns="http://www.w3.org/2000/svg" xmlns:xlink="http://www.w3.org/1999/xlink" x="0px" y="0px"
	 width="80px" height="80px" viewbox="0 0 80 80" style="enable-background:new 0 0 80 80;" xml:space="preserve">
<style type="text/css">
	.st0{fill:#124A85;}
</style>
<g>
	<path class="st0" d="M40,0C17.9,0,0,17.9,0,40s17.9,40,40,40s40-17.9,40-40S62.1,0,40,0z M37.9,78.2l0.2-0.2h0.2
		c0,0,0.1,0.1,0.1,0.2C38.2,78.2,38.1,78.2,37.9,78.2z M40,78.3c-0.5,0-1,0-1.5,0c0.1-0.2,0.2-0.4,0.4-0.6c0.4-0.4,0.6-0.6,1.1-0.9
		c0.6-0.2,0.2-0.4,0.4-1.1c0.2-0.6,0-0.6,0.4-1.1c0.2-0.6,0.4-0.2,0.9-0.6s0.6-0.6,1.3-0.9c0.6-0.2,0.4-0.4,0.9-0.4s0.2,0,0.6-0.4
		s0.9-0.2,1.7-0.2c0.9,0,0.2-0.2,0.6-0.4c0.4-0.2,0.4-0.2,0.4-0.6s0.2-0.6,0.6-0.9c0.4-0.2,0.4-0.2,0.4-0.6c0.2-0.2,0.4-0.4,0.6-0.9
		c0.2-0.4,0.2-0.9,0.4-0.6c0,0.2,0-0.2,0.4-0.9c0.4-0.4,0.4-1.1,0.4-1.5s0.2-1.3,0.4-1.9c0.2-0.4,0.4-0.4,0.4,0
		c0,0.2,0.2-0.4,0.6-1.1c0.4-0.6,0.6-1.1,0.9-1.3c0.2-0.2,0.4-0.4,0.6-0.9c0.4-0.4,0.4-0.9,0.9-1.7c0.4-0.4,0-1.3,0-1.9
		c0-0.6-0.4-0.6-1.1-0.6c-0.6,0-0.6,0-1.5-0.9s-1.5-0.9-1.9-0.9s-1.1,0-1.1,0c0-0.2-0.2-0.2-0.4,0s-0.2,0-0.9-0.2
		c-0.6-0.2-0.4,0-0.9,0.2c-0.2,0.2-0.6,0.6-0.6,0.6v-0.2c0,0,0-0.2,0.2-0.4s0-0.4-0.2-0.6c-0.2-0.2-0.4-0.2-0.6-0.2
		c-0.2,0,0-0.2-0.2-0.4s-0.9-0.2-1.5-0.4s-0.9-0.2-1.1,0c-0.2,0.2-0.2,0.6-0.6,0.9C41,54,40.8,54.2,41,54c0,0-0.2-0.2,0-0.2
		s0.2-0.2,0.4-0.4s0.2-0.4,0.2-0.6c0.2-0.4,0-0.2-0.4-0.2s-0.9-0.4-1.3-0.6c-0.4-0.2-0.4,0.4-0.4,0.4s-0.4,0-0.6,0.4
		c-0.2,0.2-0.4,0.4-0.4,0.9c0,0.2-0.4,0.2-0.2,0c0-0.2,0.2-0.4,0.6-1.1c0.4-0.6,0.2,0,0.4-0.2s0.2,0,0.2-0.2s0.6-0.6,0.6-0.9
		c0-0.2-0.2,0-0.4,0s-0.4-0.4-0.6-0.9c-0.2-0.6-0.2-1.3-0.6-1.3c-0.2,0-0.6,0-0.6-0.2c0,0,0.2-0.2,0-0.2c-0.4-0.2-0.2,0-0.4-0.4
		s-0.2-0.2-0.4-0.4c-0.2,0-0.4-0.2-0.6-0.2c-0.2,0-0.2,0-0.4-0.2c-0.4-0.2-0.6,0-0.6,0s-0.6-0.2-0.9,0.2c-0.2,0.2-0.2,0-0.9,0
		c-0.4,0-0.4,0-0.4,0v-0.2c-0.2-0.2-0.9-0.4-1.3-0.4s0-0.2,0-0.4s0-0.2-0.2-0.4s-0.4-0.2-0.6-0.4c0,0-0.2,0-0.2-0.2
		c-0.4-0.2-0.4,0-0.6-0.2c-0.2,0,0-0.2-0.2-0.4c0,0,0,0,0-0.2s-0.4-0.4-0.6-0.4s-0.2,0-0.2,0c-0.2,0-0.9-0.2-0.9-0.2
		c-0.2,0-0.2-0.4-0.2-0.6c-0.2-0.2-0.2,0-1.1,0s-0.6,0-0.6,0.2s0,0.2-0.4,0.4s-0.4,0.2-0.9,0c-0.4,0-0.9-0.4-1.1-0.6
		c-0.2-0.2-0.2,0-0.6,0.2c-0.2,0.2-0.4,0.2-0.9,0c-0.4,0-0.2-0.2-0.2-0.6s-0.4-0.4-1.3-0.4c-1.1-0.2-0.9,0.2-1.3,0.4
		c-0.6,0-0.4,0-0.4,0.2s0.4,0.9,0.4,1.3s0,0.2-0.4,0.4c-0.2,0-0.4,0.2-0.4,0s-0.2-0.2-0.2-0.4c-0.2-0.2,0-0.2,0.2-0.4
		c0-0.2,0.2-0.2,0.2-0.2c0.2-0.2,0-0.4,0-0.6c0-0.2-0.2-0.2-0.2-0.4c-0.2-0.2,0-0.2,0.4-0.2c0.2,0,0.2-0.2,0.4-0.4
		c0.2-0.4-0.2-0.2-0.6-0.2c-0.4,0.2-0.2,0.6-0.4,0.4c-0.2-0.2-0.4-0.2-0.4,0.2s-0.4,0.4-0.6,0.2c-0.2,0-0.4-0.2-0.4,0
		c0,0,0,0.4-0.4,0.2c-0.2,0-0.2,0-0.6,0.2s-0.4,0.6-0.4,1.3c0,0.4-0.4,0-0.6,0.4c-0.2,0.4-0.6,0-0.6,0.6s-0.2,0.2-0.2,0.2s0,0,0-0.2
		l-0.2-0.2c-0.2-0.2-0.2-0.2-0.6-0.6C13.1,44,13.1,44,13,44c0-0.1,0-0.2,0-0.3c0-0.2-0.9-0.6-1.1-0.4c-0.2,0-0.2,0.4-0.4,0.4
		c-0.2,0.2-0.6,0.2-0.6,0.2l0.1,0.2c-0.4,0.1-0.6,0.2-0.9,0.3L10,44.3c-0.2-0.2-0.2-0.2-0.4-0.2c-0.1,0-0.2,0-0.3,0s-0.1-0.1-0.1,0
		C9,44,8.9,44,8.9,44c0-0.1,0-0.1-0.2-0.1c0,0,0,0-0.2,0s-0.2-0.2-0.4-0.4c0-0.2-0.2-0.2-0.2-0.4s-0.2-0.4-0.2-0.4s0-0.2-0.2-0.4
		c0-0.2,0-0.2,0.2-0.4s0,0,0-0.4c0-0.2,0-0.2,0.4-0.4c0.2-0.2,0-0.4,0-0.6C8,40,8,40,8.2,39.8s0.2-0.2,0.4-0.6
		c0.2-0.2-0.2-0.4-0.2-0.4s-0.4,0-0.6,0s0.2,0,0.4-0.2c0.2-0.2,0.2,0,0.4-0.2s0-0.2,0-0.2c-0.2,0-0.2-0.2-0.4-0.2
		c-0.4-1.1-0.6-1.1-0.9-1.1c-0.2-0.2-0.4,0.2-0.6,0s-0.2,0-0.6,0c-0.4,0.2-0.6,0-1.1-0.2c-0.4-0.2-0.4,0.2-0.4,0c-0.2-0.2,0,0-0.4,0
		c-0.2,0-0.2-0.2-0.4-0.2c0,0,0.4-0.2,0.6-0.4c0.4-0.2,0.2-0.6,0.2-0.9c0-0.4,0.2-0.4,0.4-0.4c0.2,0,0,0,0-0.2c0,0,0-0.2,0.2-0.6
		c0.4-0.6,0.2-0.4,0.2-0.6c0-0.2,0-0.4,0.2-0.6c0.4,0,0.9-0.2,0.9-0.6c0.2-0.2,0.2-0.4-0.2-0.4s-0.4,0.2-0.6,0s-0.9,0-1.5,0
		c-0.4,0-0.6,0.2-0.6,0.9C3.4,33.1,3.2,33.8,3,34c-0.1,0.1-0.3,0.3-0.6,0.4c0.5-3.1,1.4-6,2.5-8.8c0.2,0,0.4,0,0.4-0.2
		c0.2-0.2,0.2,0,0.2,0.2c0.2,0.2,0-0.2,0-0.4c-0.2-0.2,0-0.2,0-0.4c0-0.2,0-0.1-0.2,0c0-0.1,0.1-0.2,0.1-0.3C5.4,24,5.5,24,5.8,24
		c0.6,0,0.4,0,0.6-0.2c0,0,0,0,0,0.2s0.2,0,0.6,0s0.2-0.2,0.9,0c0.6,0.2,0,0.4,0.6,0.6s0.4-0.2,0.9-0.2s0.4,0,0.6,0.4
		c0.2,0.2,0.4,0.2,0.6,0.4c0,0.4-0.2,0.4-0.2,0.9s0,0.9,0.2,0.9s0,0.2,0.2,0.4c0,0.2,0.4,0.9,0.6,0.9c0.2,0,0.4,0.2,0.6-0.2
		c0.2-0.4,0.4-1.1,0.2-1.5c-0.2-0.2,0-0.4,0-0.6s0-0.2-0.2-0.6s-0.2-0.6-0.2-0.9c0-0.2-0.2-0.2,0-0.6c0.2-0.2,0.4-0.6,0.6-0.9
		c0.2-0.2,0.2-0.2,0.9-0.6c0.6-0.4,0.6-0.4,1.1-0.6c0.4-0.2,0.9-0.2,0.9-0.4c0-0.2,0.2-0.2,0.6-0.2c0.4-0.2,0.2-0.2,0.6-0.2
		c0.4-0.2,0.6-0.4,0.2-0.6c-0.4-0.6,0-0.6,0.4-0.6c0.6,0,0-0.2-0.2-0.4c-0.2-0.2-0.2-0.2,0-0.6c0-0.2,0.2-0.2,0-0.6
		c0-0.4,0-0.4,0.4-0.6c0.2-0.2,0,0,0,0.4c0,0.2,0,0.2,0.2,0.4c0.2,0.2,0.2,0.2,0.2,0s0-0.4,0.2-0.6c0-0.2,0,0,0.2,0.2s0.2,0,0.4-0.2
		c0.2-0.2,0.2-0.2,0.2-0.4c0,0-0.2-0.2,0.2-0.2s0-0.2,0.2-0.2c0.2-0.2,0.2,0,0.6,0c0.6,0,0.6,0,0.6-0.2c0.2-0.2,0,0,0.4,0.2
		c0.2,0.2,0.4-0.2,0.4-0.4c0,0-0.2-0.2-0.2-0.4c0-0.2,0-0.4,0.6-0.6c0.6-0.4,0.4,0,0.6-0.2s0.2-0.2,0.4-0.2c0.2,0,0.2,0,0.4,0
		c0.2,0,0.2-0.2,0.6-0.2s0.2,0,0.2-0.2s0,0,0.4-0.2c0.4,0,0.6-0.2,1.1-0.2c0.4-0.2,0,0.2,0,0.2s0.2,0,0.6,0s0,0,0,0.2
		c0,0-0.2,0-0.4,0c-0.2,0-0.2,0-0.4,0c-0.2,0-0.6,0.2-0.6,0.2s0,0-0.2,0.2S24,15.4,24,15.6s0.2,0.2,0.2,0.2c0.2,0,0.4,0,0.6-0.2
		c0.2,0,0.4-0.2,0.4-0.4c0.2,0,0,0,0-0.2s0.2,0,0.2,0h0.2c0.2,0,0,0,0.4,0c0.2,0,0.2,0,0.4-0.2c0.2-0.2,0,0,0.6-0.2
		c0.4,0,0.2-0.2,0-0.4s0,0-0.2-0.2s0,0-0.2,0s-0.2,0-0.6,0s0.4-1,0.4-1c0-0.2,0-0.2-0.4-0.2s-0.2-0.2-0.2-0.4s0,0-0.2,0s0,0,0-0.2
		c0.2-0.2,0.2-0.2,0.2-0.2c0-0.2-0.2,0-0.4,0c-0.2,0.2-0.2,0-0.4,0c0-0.2-0.2-0.2-0.4-0.2c0,0,0,0,0.2,0s0.2,0,0.2,0h0.4
		c0,0,0.2,0,0.6-0.2c0.4,0,0.2-0.2,0-0.2c0.4-0.2,0.4-0.4,0-0.4s-1.6,0-1.6,0s-0.4,0.2-0.6,0.2s-0.4,0.2-0.6,0.4s-0.4,0-0.2-0.2
		c0.2-0.2,0.4-0.2,0.9-0.6c0.4-0.2,0.4,0,0.6,0c0.4,0,0.2,0,0.6-0.4c0.2-0.4,0.2-0.2,0.6-0.2c0.2,0,1.1,0,1.1,0s0.9,0,1.9,0.2
		c1.1,0,0.6-0.2,1.3-0.4c0.6-0.4,0.4-0.4,1.1-0.4c0,0.2-0.2,0.4-0.2,0.4l-0.4,0.6L30.3,11c0,0,0,0,0,0.2c-0.2,0-0.6,0-0.4,0.2
		c0.4,0,0.6,0,0.2,0.2s-0.9,0.2-0.4,0.2s1.5,0,1.5,0h0.4L32,12c0,0,0.4-0.2,0.6-0.2c0,0,0,0.2-0.2,0.2c-0.2,0.4-0.6,0.2-0.4,0.4
		c0.2,0.2,0.2,0.2,0.4,0c0.2,0,0.2-0.2,0.4-0.4c0.2,0,0.2,0,0.4,0c0,0,0-0.2,0.2-0.2s0.2-0.2,0.2-0.2s0.2,0,0-0.2s-0.6,0-0.4-0.2
		c0.2-0.2,0.9-0.2,0.2-0.4c-0.6-0.2-0.6-0.2-0.9-0.2c-0.2,0,0,0.2-0.4,0c-0.6-0.2-0.9-0.2-0.6-0.4c0.2-0.2,0.6-0.6,0.4-0.6
		c0-0.1,0-0.1-0.1-0.2c0,0,0.1,0,0.1-0.1c0.2-0.2-0.2,0,0-0.4c0-0.2,0-0.2-0.2-0.4s-0.4,0-0.4-0.2s0,0-0.6,0s-0.6,0.2-0.9,0.2
		c-0.2,0-0.2,0-0.4,0c-0.2,0,0.2-0.2,0.2-0.2s0.4,0,0.6,0s0.2,0,0.4-0.2c0.2,0,0.4,0,0.2-0.2c-0.2,0,0-0.2-0.4,0
		c-0.4,0-0.4,0-0.6-0.2c0-0.2,0,0-0.4,0S29,7.6,29,7.4s-0.4,0-0.6,0s-0.2-0.2,0-0.4c0.2-0.2,0,0,0-0.2s0-0.2-0.6-0.4
		c-0.4-0.2-0.6-0.4-1.1-0.6c-0.4-0.4-0.2,0-0.2,0s-0.2,0.4-0.4,0.4c0,0.2-0.2,0-0.6,0.2s-0.4,0-0.4,0S24.5,6.2,24,6.2
		c-0.2-0.2,0,0-0.2-0.2s-0.1-0.2,0-0.4c0.4-0.2,0.8-0.4,1.2-0.5h0.2c0,0,0.1,0,0.2,0L25.3,5c1.9-0.8,3.9-1.5,6-2c0,0.2,0,0-0.2,0.2
		s0,0,0.2,0.2s0.6,0.4,0.9,0.6c0.2,0.2,1.7,0.9,1.7,0.9H35c0,0,0.4,0,1.1,0.2c0.4,0.2,0.2,0.2,0.4,0.2s0.9,0.2,0.9,0
		c0,0-0.2-0.4-0.4-0.9C36.8,4.2,37,4,37,4V3.7c0,0-0.2-0.4,0-0.6s0.2,0,1.1,0s0.2,0,0-0.4c-0.2-0.2,0-0.2,0.2-0.2s0.2,0,0.4,0
		c0,0,0.2,0,0.6,0s0.6,0,0.2-0.2c-0.2-0.2-0.6-0.3-1.3-0.4c0.7,0,1.4-0.1,2.1-0.1c10.4,0,19.9,4.2,26.8,11.1c-0.2,0.1-1.3-0.2-1.3,0
		c0.2,0.2,1.3,0.6,1.3,1.3c0,0.4,0.2,1.1,0.2,1.1s0.2,0.4,0.4,0.4c0.2,0.2,1.1,1.1,1.3,1.1c0.2,0,0.4,0.6,0.4,0s0.2-0.4,0-0.6
		c0-0.4-0.2-0.6-0.4-0.9c-0.2-0.2-0.4-0.2-0.4-0.6v-0.1c0.9,1,1.7,2,2.5,3c-0.2,0.2-0.3,0.3-0.3,0.3c-0.4,0-0.6,0.2-0.6,0
		c-0.2-0.2-0.4-0.6-0.4-0.4s0.4,0.9,0.4,1.1s0,0.4,0,0.9c0,0.2,0.4,1.3,0.4,1.3S71,21,71,21.4s0,0.6-0.2,0.9c0,0.2-0.2,0-0.2,0.4
		c0.6,0,1.3,0.2,1.3,0.2s0.2,0.2,0.6,0.4c0,0-0.2,0.2,0,0.4c0,0.2,0,0.4-0.2,0.4s-0.9-0.6-0.6-0.2c0.2,0.4,0.6,0.6,0.4,1.1
		c-0.2,0.4-0.4-0.4-0.2,0.2c0.2,0.6,0.9,1.3,0.4,1.3c-0.2,0-0.9-0.2-1.5,0c0.2,0.4,0.2,0.6,0.4,0.9c0.2,0.2-0.2,0.4,0.2,0.9
		s0.4,1.1,0.4,1.3c0,0.2,0,0.4,0,0.6v0.2c0.2,0.4,0,0.6-0.2,0.9c0,0.2,0,0,0.2,0.6c0.2,0.4,0.4,0.2,0.4,0.6c-0.2,0.4,0,0.6,0.2,0.9
		c0.2,0.2,0.4,0,0.4,0.4c0,0.2,0.2,0.4,0.2,0.4c0.2,0,0.2,0.2,0.2,0.2s0.6,0.4,0.6,0.9s0.2,1.1,1.1,1.9c0.6,0.9,0.9,1.9,1.3,1.5
		s0.9-0.6,1.1-0.6c0,0,0-0.2,0.4-0.2c0.2,0,0.4,0,0.4-0.2c0-0.1,0.1-0.2,0.1-0.3c0.1,0.9,0.1,1.8,0.1,2.7C78.3,61.2,61,78.3,40,78.3
		z"/>
	<path class="st0" d="M58.2,25.5c-0.6-1.1-1.5-1.7-2.8-2.4c-1.1-0.6-2.6-0.9-4.3-0.9c-0.9,0-1.7,0.2-2.8,0.4
		c-1.1,0.2-1.9,0.6-2.6,1.3v-5.4h13.6v-6.7H38.7v19.9h6.7c0.4-1.1,1.1-1.7,1.7-2.2c0.6-0.4,1.3-0.6,1.9-0.6c0.9,0,1.5,0.2,1.9,0.4
		c0.6,0.2,1.1,0.6,1.3,1.1c0.4,0.4,0.4,1.1,0.6,1.7C53,32.7,53,33.4,53,34c0,0.6-0.2,1.3-0.2,1.9c-0.2,0.9-0.4,1.3-0.6,1.9
		c-0.4,0.4-0.9,0.9-1.3,1.3c-0.4,0.4-1.1,0.6-1.9,0.6c-1.1,0-1.9-0.2-2.6-0.6c-0.6-0.4-1.1-1.5-1.3-2.8l-7.4,1.1
		c0.2,1.9,0.6,3.5,1.5,4.5c0.9,1.3,1.7,2.2,2.8,2.8s2.2,1.1,3.5,1.3c1.1,0.2,2.4,0.4,3.5,0.4c1.9,0,3.5-0.2,5-0.9
		c1.3-0.4,2.6-1.5,3.5-2.6c1.1-1.3,1.7-2.6,2.2-4.3c0.4-1.7,0.6-3.5,0.6-5.6c0-1.5-0.2-3-0.6-4.3C59.5,27.7,58.8,26.6,58.2,25.5z"/>
	<path class="st0" d="M17.3,32.9c-0.2-0.2-0.6-0.2-0.9-0.4c-0.4-0.2,0-0.2-0.4-0.2c-0.2,0-0.6-0.2-1.1-0.4c-0.4-0.2-0.4,0-0.9-0.4
		s0-0.2-1.1-0.2c-1.1-0.2-0.6-0.2-0.6-0.2L11,30.3H9.7c0,0-1.1,0.2-1.3,0.4c-0.2,0.2-0.2,0.4-0.6,0.4c-0.2,0,0,0.2,0.2,0.2
		c0.2,0,0.2,0,0.6-0.4s0.2-0.2,0.9-0.2c0.6-0.2,0.2-0.2,0.6-0.2s0.6,0.2,0.4,0.2c-0.2,0-0.2,0,0.2,0.2s0.2,0.2,0.6,0
		c0.4,0,0.2,0.2,0.6,0.2s0.4,0.2,0.9,0.2c0.6,0,0.2,0,0.4,0.2c0,0.2,0.2,0.4,0.9,0.6c0.6,0.4-0.4,0.9-0.2,0.9s0.6,0,2.4,0
		C18.2,33.1,17.3,33.1,17.3,32.9z"/>
	<path class="st0" d="M24.6,34.8c-0.4,0-0.2,0-0.6,0c-0.6,0-0.4,0.4,0,0.4s0.2,0,0.6,0.2s0.2,0,0.4-0.2c0.2,0,0.6-0.2,0.6-0.2
		s-0.2,0-0.6-0.2C24.9,34.8,25.1,35,24.6,34.8z"/>
	<path class="st0" d="M14.5,29.6c0.2,0,0.4,0,0.4-0.4s-0.4-0.9-0.6-0.9c-0.4,0-1.1-0.2-0.4,0.6C14.5,29.8,14.3,29.6,14.5,29.6z"/>
	<path class="st0" d="M29,12.1c0-0.4-0.2,0-0.2,0l-0.4,0.4c0,0,0,0.2,0,0.4s0.2,0.2,0.4,0.2c0.2,0,0,0,0.2-0.2l0.2,0.2
		c0,0,0,0,0.2,0s0.2-0.2,0.2-0.2s-0.2,0-0.4-0.2C29,12.5,29.2,12.8,29,12.1z"/>
	<path class="st0" d="M34.4,11.9c-0.2,0-0.2,0-0.2,0.2c-0.2,0-0.2,0.2-0.2,0v-0.4c-0.2,0.2-0.2,0.2-0.2,0.2s-0.2,0-0.2,0.2
		s0,0.2,0,0.2c0,0.2,0.2,0,0.2,0.2s0,0.2,0,0.2l0.4-0.2l0.4-0.2v-0.2C34.6,12.1,34.6,11.9,34.4,11.9z"/>
	<path class="st0" d="M43,4.8c0.6,0,0.9,0.2,1.1,0.2c0,0-1.5-0.9-1.7-0.9c-0.4,0-1.1,0-1.1,0l0.2,0.6C41.7,4.5,42.4,4.5,43,4.8z"/>
	<path class="st0" d="M21.8,34.2c-0.4-0.4-0.4-0.4-1.5-0.4c-1.1-0.2-0.4,0.2-0.9,0c-0.4-0.2-0.6-0.2-1.1,0c-0.4,0.2,0,0.4,0.4,0.4
		s0.2,0.2,0.2,0.4s-0.2,0.2-0.4,0.2c-0.2,0-0.4,0.2-1.3,0.2s0,0.4,0,0.4s0.4,0.2,1.3,0.2c0.8,0,0.5-0.2,1.2,0h0.1
		c0.2,0,0.4-0.4,0.6-0.6c0.2-0.2,0.2,0.2,0.9,0c0.4-0.2,0-0.2,0.9,0.2c0.6,0.4,0.6,0.2,0.9-0.2C23.4,34.6,22.3,34.4,21.8,34.2z"/>
</g>
</svg>
