<?xml version="1.0" encoding="utf-8"?>
<!-- Generator: Adobe Illustrator 21.0.0, SVG Export Plug-In . SVG Version: 6.00 Build 0)  -->
<svg version="1.1" id="Layer_1" xmlns="http://www.w3.org/2000/svg" xmlns:xlink="http://www.w3.org/1999/xlink" x="0px" y="0px"
	 width="101.6px" height="80px" viewBox="0 0 101.6 80" style="enable-background:new 0 0 101.6 80;" xml:space="preserve">
<style type="text/css">
	.st0{fill:#124A85;}
</style>
<g>
	<g>
		<path class="st0" d="M57.1,79.8c-1.1,0-2.2-0.4-3-1.3l-1.1-1L20.6,46.7L13,39.4c-0.6-0.6-0.6-1.5,0-1.9l23.2-23.8
			c0.2-0.4,0.6-0.6,0.9-0.6l10.6-0.6c0.4,0,0.9,0.2,1.1,0.4l37,36.6c0.9,0.9,1.3,1.7,1.3,3c0,1.1-0.4,2.2-1.3,3l-2.4,2.4
			c-0.9,0.9-1.7,1.3-3,1.3s-2.2-0.4-3-1.3l-9.3-9.3l1.1-1.1l8.2,8.2c1.5,1.5,4.1,1.5,5.6,0l1.5-1.5c0.4-0.4,0.6-1.1,0.6-1.7
			s-0.2-1.3-0.6-1.7L83,49.3L47.8,14.5c-0.2-0.2-0.6-0.4-1.1-0.4l-9.3,0.6c-0.4,0-0.6,0.2-0.9,0.4L15.4,37.2c-0.6,0.6-0.4,1.5,0,1.9
			l6.3,6.3l32.7,30.9l0,0c1.5,1.5,4.1,1.5,5.6,0l1.5-1.5c0.9-0.9,0.9-2.6,0-3.5l1.1-1.1c0.9,0.9,1.3,1.7,1.3,3s-0.4,2.2-1.3,3
			l-2.4,2.4C59.3,79.4,58.2,79.8,57.1,79.8z"/>
	</g>
	<g>
		<path class="st0" d="M27.7,34l5.8-12.1l10.6-5.2l19-4.3c0.6-0.2,1.3,0,1.9,0.4L89,37c0.9,0.9,0.9,1.9,0,2.8l-6.7,6.5l-19-19
			l-19.7,0.4C43.7,27.9,35.7,40,27.7,34z"/>
	</g>
	<g>
		<path class="st0" d="M74.9,67.7c-1.1,0-2.2-0.4-3-1.3L61,55.6l1.1-1.1l10.8,10.8c1.1,1.1,2.6,1.1,3.5,0l2.4-2.4
			c1.1-1.1,1.1-2.6,0-3.5L77.9,58l1.1-1.1l1.3,1.3c1.7,1.7,1.7,4.3,0,5.8l-2.4,2.4C77,67.3,75.9,67.7,74.9,67.7z"/>
	</g>
	<g>
		<path class="st0" d="M20.1,59.7l-1.5-1.5c-1.3-1.3-1.3-3.5,0-4.8l9.3-9.3c1.3-1.3,3.5-1.3,4.8,0l1.5,1.5c1.3,1.3,1.3,3.5,0,4.8
			l-9.3,9.3C23.6,61,21.4,61,20.1,59.7z"/>
	</g>
	<g>
		<path class="st0" d="M26.4,68.4l-1.5-1.5c-1.3-1.3-1.3-3.5,0-4.8l10-10c1.3-1.3,3.5-1.3,4.8,0l1.5,1.5c1.3,1.3,1.3,3.5,0,4.8
			l-10,10C29.9,69.7,27.7,69.7,26.4,68.4z"/>
	</g>
	<g>
		<path class="st0" d="M34.8,74.6l-1.5-1.5c-1.3-1.3-1.3-3.5,0-4.8l10.6-10.6c1.3-1.3,3.5-1.3,4.8,0l1.5,1.5c1.3,1.3,1.3,3.5,0,4.8
			L39.6,74.6C38.1,75.9,36.1,75.9,34.8,74.6z"/>
	</g>
	<g>
		<path class="st0" d="M90.7,35.5L67.5,12.1c-1.3-1.3-1.3-3.5,0-4.8l5.2-5.2c1.3-1.3,3.5-1.3,4.8,0l23.2,23.2c1.3,1.3,1.3,3.5,0,4.8
			l-5.2,5.2C94.1,36.8,92,36.8,90.7,35.5z"/>
	</g>
	<g>
		<path class="st0" d="M9.5,36.8c-1.1,0-2.2-0.4-3-1.3l-5.2-5.2C0.4,29.6,0,28.6,0,27.5s0.4-2.2,1.3-3L24.4,1.3
			c0.9-0.9,1.9-1.3,3-1.3s2.2,0.4,3,1.3l5.2,5.2c1.7,1.7,1.7,4.3,0,5.8L12.3,35.5C11.5,36.3,10.4,36.8,9.5,36.8z M27.5,1.7
			c-0.6,0-1.3,0.2-1.7,0.6L2.4,25.5c-0.4,0.4-0.6,1.1-0.6,1.7s0.2,1.3,0.6,1.7l5.2,5.2c0.9,0.9,2.6,0.9,3.5,0L34.4,11
			c1.1-1.1,1.1-2.6,0-3.5l-5.2-5.2C28.8,1.9,28.1,1.7,27.5,1.7z"/>
	</g>
	<g>
		<path class="st0" d="M65.3,73.8c-1.1,0-2.2-0.4-3-1.3l-7.1-7.1l1.1-1.1l7.1,7.1c1.1,1.1,2.6,1.1,3.5,0l3.2-3.2
			c1.1-1.1,1.1-2.6,0-3.5l-0.9-0.9l1.1-1.1l0.9,0.9c1.7,1.7,1.7,4.3,0,5.8L68,72.6C67.5,73.6,66.4,73.8,65.3,73.8z"/>
	</g>
	<g>
		<path class="st0" d="M45.2,79.2l-1.5-1.5c-1.3-1.3-1.3-3.5,0-4.8l5.6-5.6c1.3-1.3,3.5-1.3,4.8,0l1.5,1.5c1.3,1.3,1.3,3.5,0,4.8
			L50,79.2C48.7,80.3,46.5,80.3,45.2,79.2z"/>
	</g>
</g>
</svg>
