<svg xmlns="http://www.w3.org/2000/svg"><symbol viewBox="0 0 32 32" id=":arrows_for_phone"><style type="text/css">
	.st0{fill:#8ED9FF;}
</style><g>
	<path class="st0" d="M27.2,6.8c-0.2-0.2-0.5-0.2-0.7-0.1c-0.2,0.2-0.2,0.6,0,0.8c4.4,5.4,4,13.2-0.9,18.1c-3.9,3.9-9.9,5-14.9,2.9   l1.8-1.1L6.1,26l3.4,5.5l0.5-2.2c1.9,0.9,3.9,1.3,6,1.3c3.8,0,7.5-1.5,10.3-4.2C31.5,21,31.9,12.6,27.2,6.8z"/>
	<path class="st0" d="M6.5,6.4c3.9-3.9,9.9-5,14.9-2.9l-1.8,1.1L26,6l-3.5-5.5L22,2.7c-5.4-2.5-12-1.3-16.3,3   C0.4,11,0,19.3,4.7,25.1c0.1,0.1,0.2,0.2,0.4,0.2c0.1,0,0.2,0,0.3-0.1c0.3-0.1,0.3-0.5,0.1-0.7C1.1,19.1,1.5,11.3,6.5,6.4z"/>
</g></symbol><symbol viewBox="0 0 20.7 26" id=":cabinet"><path class="st0" d="m13.8 17.5c-1 1.2-1.9 2.1-2.6 2.8-0.5 0.5-1.2 0.5-1.7 0-0.7-0.5-1.7-1.6-2.6-2.8-0.4-0.3-0.9-0.5-1.3-0.2-2.3 1.2-4 3.1-5.2 4.5-0.9 1-0.3 2.6 0.9 2.9 2.1 0.5 5.4 1.2 9 1.2s6.9-0.7 9-1.2c1.4-0.3 1.7-1.9 0.9-2.9-1.2-1.4-3.1-3.3-5.2-4.5-0.5-0.3-0.9-0.1-1.2 0.2z"/><path class="st0" d="m17.2 7.8c0 5.2-3.8 9.5-6.9 9.5-2.8 0-6.9-4.3-6.9-9.5s3.1-7.8 6.9-7.8 6.9 2.6 6.9 7.8z"/></symbol><symbol viewBox="0 0 21 15" id=":mail">
<path class="st0" d="M0,0v15h21V0H0z M20,1v1.7l-9.5,6.2L1,2.7V1H20z M1,14V4l9.5,6.2L20,4v10H1z"/></symbol><symbol viewBox="0 0 11 21" id=":phone"><path d="m9.1066 20.577c-2.9418 0.47818-3.8128 1.4995-7.2391-4.8369-1.277-3.539-2.1161-5.8425-1.7121-10.894 0.54595-3.7332 1.4337-3.8284 3.5067-4.3063 3.6502-0.79009 3.2321-0.88128 3.0841 2.42 0.22985 7.1017-4.1408-0.73356-2.4228 8.2968 1.3542 7.0532 3.4994 0.47195 5.5228 5.5336 1.3016 2.4945 1.9011 3.1616-0.73965 3.7868z"/></symbol><symbol viewBox="0 0 15.256 15.296" id=":search"><g transform="translate(-.1566 -.15609)" fill="none"  stroke-width="1.602">
  <circle cx="6.2843" cy="6.2843" r="5.3267"/>
  <path d="m14.603 14.643-4.4389-4.4389" stroke-linecap="round"/>
 </g></symbol><symbol viewBox="0 0 11.58 11.581" id=":skype"><g><path d="m3.2373 1.2893e-5a3.2151 3.2229 0 0 0-2.289 0.95041 3.2166 3.2243 0 0 0-0.94835 2.2948c0 0.55136 0.14136 1.0938 0.40722 1.573 0.00338-0.020072 0.00603-0.040144 0.00965-0.059444l0.020011 0.11487c-0.010374-0.017756-0.019289-0.037056-0.029663-0.054812a5.5072 5.5205 0 0 0-0.082274 0.94485c0 0.74004 0.14453 1.4578 0.42992 2.1334a5.4419 5.455 0 0 0 1.1715 1.7424 5.4395 5.4525 0 0 0 1.7384 1.1743 5.4214 5.4344 0 0 0 2.1283 0.43124c0.32134 0 0.64341-0.02934 0.95776-0.08515-0.018335-0.01081-0.037172-0.0193-0.055748-0.03088l0.11677 0.02084c-0.020265 0.0077-0.04052 0.0077-0.061027 0.01004a3.2339 3.2417 0 0 0 1.5922 0.42074 3.2134 3.2212 0 0 0 2.2887-0.95041 3.2142 3.2219 0 0 0 0.94813-2.2945c0-0.55352-0.14235-1.0976-0.40989-1.5787-0.0036 0.02007-6e-3 0.04092-0.01014 0.06176l-0.01955-0.1168c0.01062 0.01853 0.01956 0.03706 0.02968 0.05558 0.05983-0.32594 0.0912-0.65991 0.0912-0.99341 0-0.74004-0.14475-1.458-0.43014-2.1337a5.4426 5.4557 0 0 0-1.172-1.7424 5.4469 5.46 0 0 0-3.866-1.605c-0.34788 0-0.69627 0.032424-1.0355 0.097967-7.161e-4 0-0.00168 0-0.00241 5.404e-4 0.018817 0.010036 0.038365 0.018528 0.05694 0.029336l-0.11507-0.018528 0.05789-0.01158a3.2407 3.2485 0 0 0-1.5177-0.38044zm2.4651 2.1818c1.1959 0 2.6055 0.66214 2.6055 1.5453 0 0.3782-0.32664 0.59822-0.70009 0.59822-0.70951 0-0.57901-0.98422-2.0079-0.98422-0.70927 0-1.1023 0.32162-1.1023 0.78258 0 0.45949 0.56017 0.60648 1.0465 0.7175l1.2791 0.28464c1.4007 0.31266 1.7558 1.1328 1.7558 1.9049 0 1.1961-0.91552 2.0891-2.764 2.0891-1.9428 0-2.8118-0.95736-2.8118-1.6749 0-0.36809 0.27092-0.62609 0.64461-0.62609 0.83135 0 0.61593 1.1968 2.1672 1.1968 0.79371 0 1.2325-0.43232 1.2325-0.87468 0-0.26603-0.13099-0.56078-0.65378-0.68994l-1.7281-0.4324c-1.3915-0.34964-1.6439-1.104-1.6439-1.8127 0-1.4717 1.3824-2.0241 2.6805-2.0241z" stroke-width=".011322"/></g></symbol><symbol viewBox="0 0 17.228 15" id=":telegram"><g id="XMLID_496_" transform="matrix(.057427 0 0 .057427 -6.6149e-6 -1.1141)">
  <path id="XMLID_497_" d="m5.299 144.64 69.126 25.8 26.756 86.047c1.712 5.511 8.451 7.548 12.924 3.891l38.532-31.412c4.039-3.291 9.792-3.455 14.013-0.391l69.498 50.457c4.785 3.478 11.564 0.856 12.764-4.926l50.911-244.89c1.31-6.316-4.896-11.585-10.91-9.259l-283.7 109.44c-7.001 2.7-6.94 12.612 0.081 15.243zm91.57 12.066 135.1-83.207c2.428-1.491 4.926 1.792 2.841 3.726l-111.5 103.64c-3.919 3.648-6.447 8.53-7.163 13.829l-3.798 28.146c-0.503 3.758-5.782 4.131-6.819 0.494l-14.607-51.325c-1.673-5.854 0.765-12.107 5.943-15.303z"/>
 </g></symbol><symbol viewBox="-.001 .001 1158.8 1e3" id=":vimeo-icon"><title>Layer 1</title><path d="m1158.2 231.33c-5.193 112.53-83.965 266.61-236.31 462.24-157.54 204.28-290.85 306.43-399.92 306.43-67.519 0-124.65-62.324-171.39-186.97l-93.486-342.78c-34.625-124.65-71.847-186.97-111.66-186.97-8.656 0-38.953 18.178-90.891 54.534l-54.533-70.115a14812 14812 0 0 0 168.8-150.62c76.174-65.787 133.3-100.41 171.39-103.87 90.024-8.656 145.42 52.803 166.2 184.38 22.506 141.96 38.087 230.25 46.742 264.88 25.969 117.72 54.534 176.59 85.696 176.59 24.237 0 60.594-38.087 109.07-114.26 48.475-76.175 74.443-134.17 77.905-173.99 6.925-65.787-19.043-98.68-77.905-98.68-27.7 0-56.266 6.06-85.696 18.178 57.131-185.24 166.2-275.27 327.2-270.07 119.46 3.463 175.72 80.503 168.8 231.12l2e-3 -2e-3z"/></symbol></svg>
