<?xml version="1.0" encoding="utf-8"?>
<!-- Generator: Adobe Illustrator 21.0.0, SVG Export Plug-In . SVG Version: 6.00 Build 0)  -->
<svg version="1.1" id="Layer_1" xmlns="http://www.w3.org/2000/svg" xmlns:xlink="http://www.w3.org/1999/xlink" x="0px" y="0px"
	 width="80px" height="80px" viewBox="0 0 80 80" style="enable-background:new 0 0 80 80;" xml:space="preserve">
<style type="text/css">
	.st0{fill:#124A85;}
</style>
<g>
	<g>
		<path class="st0" d="M80,80H0V0h80V80z M1.5,78.5h76.8v-77H1.5V78.5z"/>
	</g>
	<g>
		<g>
			<g>
				<path class="st0" d="M30.7,9.1c0.6,0,1.3,0.2,2.2,0.4c2.4,0.9,4.8,1.5,7.4,2.2c-0.4,0.2-0.9,0.4-1.5,0.6
					c-1.5,0.6-2.8,1.3-4.3,1.9h-0.6c-1.9-1.1-3.9-2.4-5.6-3.5l-0.2-0.2c-0.2-0.2-0.2-0.4,0.2-0.6C28.8,9.3,29.8,9.1,30.7,9.1z"/>
			</g>
		</g>
		<g>
			<g>
				<path class="st0" d="M56,7.4c0.2,0,0.2,0,0.4,0c1.3,0,2.6,0.4,3.7,1.3l0.4,0.4c0.4,0.6,0.6,0.9-0.2,1.5c-1.1,0.6-1.9,1.5-3,1.9
					c-2.8,1.5-5.6,2.8-8.2,4.1c-0.2,0.2-0.4,0.4-0.4,0.6c-2.2,4.5-4.1,9.1-6.3,13.4c-0.2,0.6-0.6,1.1-1.1,1.7
					c-0.6,1.1-1.7,1.3-2.6,1.7h-0.2c-0.2,0-0.2-0.2-0.2-0.4c0-0.6,0.2-1.1,0.2-1.7c0.6-3.7,1.3-7.4,2.2-11v-0.4L40,20.8
					c-3,1.3-6.1,2.8-9.3,3.7c-1.7,0.4-3.5,0.9-5.2,0.9c0,0,0,0-0.2,0c-0.6,0-1.1,0-1.7-0.2s-1.1-0.6-1.3-1.1c-1.1-2.2-1.9-4.5-3-6.7
					c-0.2-0.6,0-1.1,0.6-1.3c0.2,0,0.4,0,0.6,0c0.4,0,0.9,0.2,1.1,0.4c1.1,0.9,1.9,1.5,3,2.2l0.6,0.4c0.6,0.2,1.1,0.4,1.3,0.4
					c0.2,0,0.4,0,0.9-0.2c8-3.7,16-7.1,24-10.6C53,7.8,54.5,7.4,56,7.4z"/>
			</g>
		</g>
	</g>
	<g>
		<g>
			<path class="st0" d="M65.5,56.4c2.8,0,5,2.2,5,5c0,2.6-2.2,5-5,5c-2.8,0-5-2.2-5-5S62.7,56.4,65.5,56.4z"/>
		</g>
	</g>
	<g>
		<g>
			<rect x="17.1" y="47.8" class="st0" width="40.6" height="2.2"/>
		</g>
	</g>
	<g>
		<g>
			<rect x="9.5" y="41.9" class="st0" width="56" height="2.2"/>
		</g>
	</g>
</g>
</svg>
