<?xml version="1.0" encoding="utf-8"?>
<!-- Generator: Adobe Illustrator 21.0.0, SVG Export Plug-In . SVG Version: 6.00 Build 0)  -->
<svg version="1.1" id="Layer_1" xmlns="http://www.w3.org/2000/svg" xmlns:xlink="http://www.w3.org/1999/xlink" x="0px" y="0px"
	 width="105px" height="30px" viewBox="0 0 105 30" style="enable-background:new 0 0 105 30;" xml:space="preserve">
<style type="text/css">
	.Drop_x0020_Shadow{fill:none;}
	.Round_x0020_Corners_x0020_2_x0020_pt{fill:#FFFFFF;stroke:#000000;stroke-miterlimit:10;}
	.Live_x0020_Reflect_x0020_X{fill:none;}
	.Bevel_x0020_Soft{fill:url(#SVGID_1_);}
	.Dusk{fill:#FFFFFF;}
	.Foliage_GS{fill:#FFDD00;}
	.Pompadour_GS{fill-rule:evenodd;clip-rule:evenodd;fill:#44ADE2;}
	.st0{fill:#FFFFFF;}
</style>
<linearGradient id="SVGID_1_" gradientUnits="userSpaceOnUse" x1="-28.5" y1="0" x2="-27.7929" y2="0.7071">
	<stop  offset="0" style="stop-color:#DEDFE3"/>
	<stop  offset="0.1738" style="stop-color:#D8D9DD"/>
	<stop  offset="0.352" style="stop-color:#C9CACD"/>
	<stop  offset="0.5323" style="stop-color:#B4B5B8"/>
	<stop  offset="0.7139" style="stop-color:#989A9C"/>
	<stop  offset="0.8949" style="stop-color:#797C7E"/>
	<stop  offset="1" style="stop-color:#656B6C"/>
</linearGradient>
<g>
	<polygon class="st0" points="94.5,21 105,10.5 94.5,0 81.9,0 78.7,0 89.2,10.5 78.7,21 81.9,21 	"/>
	<g>
		<path class="st0" d="M52.7,16.7c-0.1-0.2-0.1-0.4-0.1-0.6H40V13h12.4V8H35.1v13h20.1C54,19.8,53.1,18.4,52.7,16.7z"/>
		<path class="st0" d="M16.1,14.5c0,1.1-0.3,1.6-1,1.6H6c-0.7,0-1.1-0.5-1.1-1.6V0H0v14.5c0,1.8,0.6,3.3,1.7,4.6
			C2.8,20.4,4.2,21,6,21H15c1.7,0,3.2-0.6,4.3-1.9c1.1-1.3,1.7-2.8,1.7-4.6V8h-4.9V14.5z"/>
		<path class="st0" d="M55.2,0h-14H40l0,0h-6.2H22.3h-6.2l0,0v4.9H21h1.3h3.3V21h4.9V4.9h3.3h1.3H40h0h1.3h11.3
			c0-0.2,0.1-0.4,0.1-0.6C53.1,2.6,54,1.2,55.2,0z"/>
		<path class="st0" d="M58.8,0.7c-0.5,0.2-0.9,0.5-1.3,0.8c-0.2,0.1-0.3,0.3-0.5,0.4c-0.9,0.9-1.5,1.9-1.8,3
			c-0.1,0.4-0.2,0.9-0.2,1.3c0,0.1,0,0.3,0,0.4v0.1V8V13v1.3v0.1c0,0.1,0,0.3,0,0.4c0,0.5,0.1,0.9,0.2,1.3c0.3,1.1,0.9,2.2,1.8,3
			c0.1,0.1,0.3,0.3,0.4,0.4c0.4,0.3,0.9,0.6,1.3,0.8c0.9,0.4,2,0.7,3.1,0.7h14.2v-4.9H61.9c-1.3,0-2-0.6-2-1.7V6.7
			c0-1.2,0.7-1.7,2-1.7h14.2V0H61.9C60.8,0,59.8,0.2,58.8,0.7z"/>
	</g>
	<g>
		<g>
			<path class="st0" d="M4.5,30H0v-4.5h1V29h3.5V30z"/>
			<path class="st0" d="M16.3,28.6c0,0.4-0.1,0.7-0.4,1c-0.3,0.3-0.6,0.4-1,0.4h-2.6c-0.4,0-0.8-0.1-1-0.4c-0.3-0.3-0.4-0.6-0.4-1
				v-1.7c0-0.4,0.1-0.7,0.4-1c0.3-0.3,0.6-0.4,1-0.4h2.6c0.4,0,0.8,0.1,1,0.4c0.3,0.3,0.4,0.6,0.4,1V28.6z M15.3,28.6v-1.6
				c0-0.3-0.1-0.4-0.4-0.4h-2.6c-0.3,0-0.4,0.1-0.4,0.4v1.6c0,0.2,0.1,0.4,0.4,0.4h2.6C15.1,29,15.3,28.8,15.3,28.6z"/>
			<path class="st0" d="M27.5,30H24c-0.4,0-0.8-0.1-1-0.4c-0.3-0.3-0.4-0.6-0.4-1v-1.7c0-0.4,0.1-0.7,0.4-1c0.3-0.3,0.6-0.4,1-0.4
				h3.5v1.1H24c-0.3,0-0.4,0.1-0.4,0.4v1.6c0,0.2,0.1,0.4,0.4,0.4h2.4v-0.7H25v-1h2.5V30z"/>
			<path class="st0" d="M34.7,30h-1.1v-4.5h1.1V30z"/>
			<path class="st0" d="M46.3,28.6c0,0.4-0.1,0.7-0.3,1C45.7,29.9,45.4,30,45,30h-3.9v-1H45c0.1,0,0.2-0.1,0.2-0.3
				c0-0.2-0.1-0.3-0.2-0.3h-2.8c-0.4,0-0.7-0.1-0.9-0.4c-0.2-0.3-0.4-0.6-0.4-1c0-0.4,0.1-0.7,0.4-1c0.2-0.3,0.5-0.4,0.9-0.4h3.9
				v1.1h-3.9c-0.1,0-0.2,0.1-0.2,0.3c0,0.2,0.1,0.3,0.2,0.3H45c0.4,0,0.7,0.1,0.9,0.4C46.2,27.9,46.3,28.2,46.3,28.6z"/>
			<path class="st0" d="M57.6,26.6h-2V30h-1v-3.4h-2v-1.1h5.1V26.6z"/>
			<path class="st0" d="M64.8,30h-1.1v-4.5h1.1V30z"/>
			<path class="st0" d="M76,30h-3.5c-0.4,0-0.8-0.1-1-0.4c-0.3-0.3-0.4-0.6-0.4-1v-1.7c0-0.4,0.1-0.7,0.4-1c0.3-0.3,0.6-0.4,1-0.4
				H76v1.1h-3.5c-0.3,0-0.4,0.1-0.4,0.4v1.6c0,0.2,0.1,0.4,0.4,0.4H76V30z"/>
			<path class="st0" d="M87.6,28.6c0,0.4-0.1,0.7-0.3,1C87,29.9,86.7,30,86.3,30h-3.9v-1h3.9c0.1,0,0.2-0.1,0.2-0.3
				c0-0.2-0.1-0.3-0.2-0.3h-2.8c-0.4,0-0.7-0.1-0.9-0.4c-0.2-0.3-0.4-0.6-0.4-1c0-0.4,0.1-0.7,0.4-1c0.2-0.3,0.5-0.4,0.9-0.4h3.9
				v1.1h-3.9c-0.1,0-0.2,0.1-0.2,0.3c0,0.2,0.1,0.3,0.2,0.3h2.8c0.4,0,0.7,0.1,0.9,0.4C87.5,27.9,87.6,28.2,87.6,28.6z"/>
		</g>
	</g>
</g>
</svg>
