<?xml version="1.0" encoding="utf-8"?>
<!-- Generator: Adobe Illustrator 21.0.0, SVG Export Plug-In . SVG Version: 6.00 Build 0)  -->
<svg version="1.1" id="Layer_1" xmlns="http://www.w3.org/2000/svg" xmlns:xlink="http://www.w3.org/1999/xlink" x="0px" y="0px"
	 width="134px" height="38.3px" viewBox="0 0 134 38.3" style="enable-background:new 0 0 134 38.3;" xml:space="preserve">
<style type="text/css">
	.st0{fill:#00A1D8;}
	.st1{fill:#124A85;}
</style>
<g>
	<polygon class="st0" points="120.6,26.8 134,13.4 120.6,0 104.5,0 100.5,0 113.9,13.4 100.5,26.8 104.5,26.8 	"/>
	<g>
		<path class="st1" d="M67.3,21.4c-0.1-0.3-0.1-0.5-0.2-0.8h-16v-4h15.8v-6.3H44.8v16.5h25.7C68.9,25.3,67.8,23.4,67.3,21.4z"/>
		<path class="st1" d="M20.6,18.5c0,1.4-0.4,2-1.3,2H7.6c-0.9,0-1.4-0.7-1.4-2V0H0v18.5c0,2.3,0.7,4.2,2.1,5.8
			c1.4,1.6,3.2,2.4,5.5,2.4h11.6c2.2,0,4-0.8,5.5-2.4c1.4-1.6,2.1-3.6,2.1-5.8v-8.2h-6.3v8.2H20.6z"/>
		<path class="st1" d="M70.5,0H52.7H51l0,0h-7.9H28.5h-7.9l0,0v6.3h6.3h1.7h4.2v20.5h6.3V6.3h4.2H45h6h0.1h1.6h14.4
			c0-0.3,0.1-0.6,0.2-0.8C67.8,3.4,68.9,1.5,70.5,0z"/>
		<path class="st1" d="M75.1,0.8c-0.6,0.3-1.1,0.6-1.7,1C73.2,2,73,2.2,72.8,2.4c-1.2,1.1-1.9,2.4-2.3,3.8c-0.1,0.5-0.2,1.1-0.3,1.7
			c0,0.2,0,0.4,0,0.6v0.1v1.7v6.3v1.7v0.1c0,0.2,0,0.4,0,0.5c0,0.6,0.1,1.1,0.3,1.7c0.4,1.5,1.1,2.7,2.3,3.8
			c0.2,0.2,0.4,0.3,0.6,0.5c0.5,0.4,1.1,0.8,1.7,1.1c1.2,0.6,2.5,0.9,4,0.9h18.1v-6.3H79c-1.7,0-2.5-0.7-2.5-2.2V8.5
			c0-1.5,0.8-2.2,2.5-2.2h18.1V0H79C77.6,0,76.3,0.3,75.1,0.8z"/>
	</g>
	<g>
		<g>
			<path class="st0" d="M5.8,38.3H0v-5.7h1.3V37h4.4v1.3H5.8z"/>
			<path class="st0" d="M20.8,36.5c0,0.5-0.2,1-0.5,1.3c-0.4,0.3-0.8,0.5-1.3,0.5h-3.4c-0.5,0-1-0.2-1.3-0.5
				c-0.4-0.3-0.5-0.8-0.5-1.3v-2.1c0-0.5,0.2-1,0.5-1.3c0.4-0.3,0.8-0.5,1.3-0.5H19c0.5,0,1,0.2,1.3,0.5c0.4,0.3,0.5,0.8,0.5,1.3
				V36.5z M19.5,36.5v-2.1c0-0.3-0.2-0.5-0.5-0.5h-3.4c-0.4,0-0.5,0.2-0.5,0.5v2.1c0,0.3,0.2,0.5,0.5,0.5H19
				C19.3,36.9,19.5,36.8,19.5,36.5z"/>
			<path class="st0" d="M35.1,38.3h-4.4c-0.5,0-1-0.2-1.3-0.5c-0.4-0.3-0.5-0.8-0.5-1.3v-2.1c0-0.5,0.2-1,0.5-1.3
				c0.4-0.3,0.8-0.5,1.3-0.5h4.4v1.3h-4.4c-0.4,0-0.5,0.2-0.5,0.5v2.1c0,0.3,0.2,0.5,0.5,0.5h3.1v-0.9H32v-1.3h3.2v3.5H35.1z"/>
			<path class="st0" d="M44.3,38.3H43v-5.7h1.3V38.3z"/>
			<path class="st0" d="M59.1,36.5c0,0.5-0.1,0.9-0.4,1.2c-0.3,0.4-0.7,0.5-1.2,0.5h-5v-1.3h5c0.2,0,0.3-0.1,0.3-0.4
				c0-0.3-0.1-0.4-0.3-0.4h-3.6c-0.5,0-0.9-0.2-1.2-0.5s-0.4-0.7-0.4-1.2s0.2-0.9,0.5-1.3c0.3-0.4,0.7-0.5,1.2-0.5h5v1.3h-5
				c-0.2,0-0.3,0.1-0.3,0.4c0,0.3,0.1,0.4,0.3,0.4h3.6c0.5,0,0.9,0.2,1.2,0.5C59,35.6,59.1,36,59.1,36.5z"/>
			<path class="st0" d="M73.6,33.9H71v4.4h-1.3v-4.4H67v-1.3h6.5L73.6,33.9L73.6,33.9z"/>
			<path class="st0" d="M82.7,38.3h-1.3v-5.7h1.3V38.3z"/>
			<path class="st0" d="M97,38.3h-4.4c-0.5,0-1-0.2-1.3-0.5c-0.4-0.3-0.5-0.8-0.5-1.3v-2.1c0-0.5,0.2-1,0.5-1.3
				c0.4-0.3,0.8-0.5,1.3-0.5H97v1.3h-4.4c-0.4,0-0.5,0.2-0.5,0.5v2.1c0,0.3,0.2,0.5,0.5,0.5H97V38.3z"/>
			<path class="st0" d="M111.8,36.5c0,0.5-0.1,0.9-0.4,1.2c-0.3,0.4-0.7,0.5-1.2,0.5h-5v-1.3h5c0.2,0,0.3-0.1,0.3-0.4
				c0-0.3-0.1-0.4-0.3-0.4h-3.6c-0.5,0-0.9-0.2-1.2-0.5c-0.3-0.3-0.4-0.7-0.4-1.2s0.2-0.9,0.5-1.3c0.3-0.4,0.7-0.5,1.2-0.5h5v1.3h-5
				c-0.2,0-0.3,0.1-0.3,0.4c0,0.3,0.1,0.4,0.3,0.4h3.6c0.5,0,0.9,0.2,1.2,0.5C111.6,35.6,111.8,36,111.8,36.5z"/>
		</g>
	</g>
</g>
</svg>
