<svg xmlns="http://www.w3.org/2000/svg"><symbol viewBox="0 0 134 38" id=":logo_utec_lo"><polygon class="st0" points="121 27 134 13 121 0 104 0 100 0 114 13 100 27 104 27" fill="#00a1d8"/><g fill="#124a85">
  <path class="st1" d="m67 21c-0.1-0.3-0.1-0.5-0.2-0.8h-16v-4h16v-6.3h-22v16h26c-1.6-1.5-2.7-3.4-3.2-5.4z"/>
  <path class="st1" d="m21 18c0 1.4-0.4 2-1.3 2h-12c-0.9 0-1.4-0.7-1.4-2v-18h-6.2v18c0 2.3 0.7 4.2 2.1 5.8s3.2 2.4 5.5 2.4h12c2.2 0 4-0.8 5.5-2.4 1.4-1.6 2.1-3.6 2.1-5.8v-8.2h-6.3v8.2h0.1z"/>
  <path class="st1" d="m70 0h-50v6.3h12v20h6.3v-20h28c0-0.3 0.1-0.6 0.2-0.8 0.5-2.1 1.6-4 3.2-5.5z"/>
  <path class="st1" d="m75 0.8c-0.6 0.3-1.1 0.6-1.7 1l-0.6 0.6c-1.2 1.1-1.9 2.4-2.3 3.8-0.1 0.5-0.2 1.1-0.3 1.7v11c0 0.6 0.1 1.1 0.3 1.7 0.4 1.5 1.1 2.7 2.3 3.8 0.2 0.2 0.4 0.3 0.6 0.5 0.5 0.4 1.1 0.8 1.7 1.1 1.2 0.6 2.5 0.9 4 0.9h18v-6.3h-18c-1.7 0-2.5-0.7-2.5-2.2v-9.9c0-1.5 0.8-2.2 2.5-2.2h18v-6.3h-18c-1.4 0-2.7 0.3-3.9 0.8z"/>
 </g><g fill="#00a1d8">
  <path class="st0" d="M5.8,38.3H0v-5.7h1.3V37h4.4v1.3H5.8z"/>
  <path class="st0" d="m21 36c0 0.5-0.2 1-0.5 1.3-0.4 0.3-0.8 0.5-1.3 0.5h-3.4c-0.5 0-1-0.2-1.3-0.5-0.4-0.3-0.5-0.8-0.5-1.3v-2.1c0-0.5 0.2-1 0.5-1.3 0.4-0.3 0.8-0.5 1.3-0.5h3.4c0.5 0 1 0.2 1.3 0.5 0.4 0.3 0.5 0.8 0.5 1.3v2.1zm-1.3 0v-2.1c0-0.3-0.2-0.5-0.5-0.5h-3.4c-0.4 0-0.5 0.2-0.5 0.5v2.1c0 0.3 0.2 0.5 0.5 0.5h3.4c0.3-0.1 0.5-0.2 0.5-0.5z"/>
  <path class="st0" d="m35 38h-4.4c-0.5 0-1-0.2-1.3-0.5-0.4-0.3-0.5-0.8-0.5-1.3v-2.1c0-0.5 0.2-1 0.5-1.3 0.4-0.3 0.8-0.5 1.3-0.5h4.4v1.3h-4.4c-0.4 0-0.5 0.2-0.5 0.5v2.1c0 0.3 0.2 0.5 0.5 0.5h3.1v-0.9h-1.8v-1.3h3.2v3.5h-0.1z"/>
  <path class="st0" d="m44 38h-1.3v-5.7h1.3v5.7z"/>
  <path class="st0" d="m59 36c0 0.5-0.1 0.9-0.4 1.2-0.3 0.4-0.7 0.5-1.2 0.5h-5v-1.3h5c0.2 0 0.3-0.1 0.3-0.4s-0.1-0.4-0.3-0.4h-3.6c-0.5 0-0.9-0.2-1.2-0.5s-0.4-0.7-0.4-1.2 0.2-0.9 0.5-1.3 0.7-0.5 1.2-0.5h5v1.3h-5c-0.2 0-0.3 0.1-0.3 0.4s0.1 0.4 0.3 0.4h3.6c0.5 0 0.9 0.2 1.2 0.5 0.2 0.4 0.3 0.8 0.3 1.3z"/>
  <path class="st0" d="m74 34h-2.6v4.4h-1.3v-4.4h-2.7v-1.3h6.5l0.1 1.3z"/>
  <path class="st0" d="m83 38h-1.3v-5.7h1.3v5.7z"/>
  <path class="st0" d="m97 38h-4.4c-0.5 0-1-0.2-1.3-0.5-0.4-0.3-0.5-0.8-0.5-1.3v-2.1c0-0.5 0.2-1 0.5-1.3 0.4-0.3 0.8-0.5 1.3-0.5h4.4v1.3h-4.4c-0.4 0-0.5 0.2-0.5 0.5v2.1c0 0.3 0.2 0.5 0.5 0.5h4.4v1.3z"/>
  <path class="st0" d="m112 36c0 0.5-0.1 0.9-0.4 1.2-0.3 0.4-0.7 0.5-1.2 0.5h-5v-1.3h5c0.2 0 0.3-0.1 0.3-0.4s-0.1-0.4-0.3-0.4h-3.6c-0.5 0-0.9-0.2-1.2-0.5s-0.4-0.7-0.4-1.2 0.2-0.9 0.5-1.3 0.7-0.5 1.2-0.5h5v1.3h-5c-0.2 0-0.3 0.1-0.3 0.4s0.1 0.4 0.3 0.4h3.6c0.5 0 0.9 0.2 1.2 0.5 0.1 0.4 0.3 0.8 0.3 1.3z"/>
 </g></symbol>
 <symbol viewBox="0 0 105 30" id=":logo_u_white">
	<polygon class="st0" points="94.5,21 105,10.5 94.5,0 81.9,0 78.7,0 89.2,10.5 78.7,21 81.9,21  "/>
	<g>
		<path class="st0" d="M52.7,16.7c-0.1-0.2-0.1-0.4-0.1-0.6H40V13h12.4V8H35.1v13h20.1C54,19.8,53.1,18.4,52.7,16.7z"/>
		<path class="st0" d="M16.1,14.5c0,1.1-0.3,1.6-1,1.6H6c-0.7,0-1.1-0.5-1.1-1.6V0H0v14.5c0,1.8,0.6,3.3,1.7,4.6    C2.8,20.4,4.2,21,6,21H15c1.7,0,3.2-0.6,4.3-1.9c1.1-1.3,1.7-2.8,1.7-4.6V8h-4.9V14.5z"/>
		<path class="st0" d="M55.2,0h-14H40l0,0h-6.2H22.3h-6.2l0,0v4.9H21h1.3h3.3V21h4.9V4.9h3.3h1.3H40h0h1.3h11.3    c0-0.2,0.1-0.4,0.1-0.6C53.1,2.6,54,1.2,55.2,0z"/>
		<path class="st0" d="M58.8,0.7c-0.5,0.2-0.9,0.5-1.3,0.8c-0.2,0.1-0.3,0.3-0.5,0.4c-0.9,0.9-1.5,1.9-1.8,3    c-0.1,0.4-0.2,0.9-0.2,1.3c0,0.1,0,0.3,0,0.4v0.1V8V13v1.3v0.1c0,0.1,0,0.3,0,0.4c0,0.5,0.1,0.9,0.2,1.3c0.3,1.1,0.9,2.2,1.8,3    c0.1,0.1,0.3,0.3,0.4,0.4c0.4,0.3,0.9,0.6,1.3,0.8c0.9,0.4,2,0.7,3.1,0.7h14.2v-4.9H61.9c-1.3,0-2-0.6-2-1.7V6.7    c0-1.2,0.7-1.7,2-1.7h14.2V0H61.9C60.8,0,59.8,0.2,58.8,0.7z"/>
	</g>
	<g>
		<g>
			<path class="st0" d="M4.5,30H0v-4.5h1V29h3.5V30z"/>
			<path class="st0" d="M16.3,28.6c0,0.4-0.1,0.7-0.4,1c-0.3,0.3-0.6,0.4-1,0.4h-2.6c-0.4,0-0.8-0.1-1-0.4c-0.3-0.3-0.4-0.6-0.4-1     v-1.7c0-0.4,0.1-0.7,0.4-1c0.3-0.3,0.6-0.4,1-0.4h2.6c0.4,0,0.8,0.1,1,0.4c0.3,0.3,0.4,0.6,0.4,1V28.6z M15.3,28.6v-1.6     c0-0.3-0.1-0.4-0.4-0.4h-2.6c-0.3,0-0.4,0.1-0.4,0.4v1.6c0,0.2,0.1,0.4,0.4,0.4h2.6C15.1,29,15.3,28.8,15.3,28.6z"/>
			<path class="st0" d="M27.5,30H24c-0.4,0-0.8-0.1-1-0.4c-0.3-0.3-0.4-0.6-0.4-1v-1.7c0-0.4,0.1-0.7,0.4-1c0.3-0.3,0.6-0.4,1-0.4     h3.5v1.1H24c-0.3,0-0.4,0.1-0.4,0.4v1.6c0,0.2,0.1,0.4,0.4,0.4h2.4v-0.7H25v-1h2.5V30z"/>
			<path class="st0" d="M34.7,30h-1.1v-4.5h1.1V30z"/>
			<path class="st0" d="M46.3,28.6c0,0.4-0.1,0.7-0.3,1C45.7,29.9,45.4,30,45,30h-3.9v-1H45c0.1,0,0.2-0.1,0.2-0.3     c0-0.2-0.1-0.3-0.2-0.3h-2.8c-0.4,0-0.7-0.1-0.9-0.4c-0.2-0.3-0.4-0.6-0.4-1c0-0.4,0.1-0.7,0.4-1c0.2-0.3,0.5-0.4,0.9-0.4h3.9     v1.1h-3.9c-0.1,0-0.2,0.1-0.2,0.3c0,0.2,0.1,0.3,0.2,0.3H45c0.4,0,0.7,0.1,0.9,0.4C46.2,27.9,46.3,28.2,46.3,28.6z"/>
			<path class="st0" d="M57.6,26.6h-2V30h-1v-3.4h-2v-1.1h5.1V26.6z"/>
			<path class="st0" d="M64.8,30h-1.1v-4.5h1.1V30z"/>
			<path class="st0" d="M76,30h-3.5c-0.4,0-0.8-0.1-1-0.4c-0.3-0.3-0.4-0.6-0.4-1v-1.7c0-0.4,0.1-0.7,0.4-1c0.3-0.3,0.6-0.4,1-0.4     H76v1.1h-3.5c-0.3,0-0.4,0.1-0.4,0.4v1.6c0,0.2,0.1,0.4,0.4,0.4H76V30z"/>
			<path class="st0" d="M87.6,28.6c0,0.4-0.1,0.7-0.3,1C87,29.9,86.7,30,86.3,30h-3.9v-1h3.9c0.1,0,0.2-0.1,0.2-0.3     c0-0.2-0.1-0.3-0.2-0.3h-2.8c-0.4,0-0.7-0.1-0.9-0.4c-0.2-0.3-0.4-0.6-0.4-1c0-0.4,0.1-0.7,0.4-1c0.2-0.3,0.5-0.4,0.9-0.4h3.9     v1.1h-3.9c-0.1,0-0.2,0.1-0.2,0.3c0,0.2,0.1,0.3,0.2,0.3h2.8c0.4,0,0.7,0.1,0.9,0.4C87.5,27.9,87.6,28.2,87.6,28.6z"/>
		</g>
	</g>
</g></symbol></svg>