<?xml version="1.0" encoding="utf-8"?>
<!-- Generator: Adobe Illustrator 21.0.0, SVG Export Plug-In . SVG Version: 6.00 Build 0)  -->
<svg version="1.1" id="Layer_1" xmlns="http://www.w3.org/2000/svg" xmlns:xlink="http://www.w3.org/1999/xlink" x="0px" y="0px"
	 width="1242px" height="352px" viewBox="0 0 1242 352" style="enable-background:new 0 0 1242 352;" xml:space="preserve">
<style type="text/css">
	.st0{fill:#FFFFFF;}
</style>
<polygon class="st0" points="1112.2,246.4 1235.3,123.2 1112.2,0 964.3,0 927.3,0 1050.5,123.2 927.3,246.4 964.3,246.4 "/>
<g>
	<g>
		<g>
			<path class="st0" d="M621.8,196.4c-0.6-2.5-1.1-5-1.6-7.6H472.8V152h145.6V94.5H415.3v152h236.1
				C636.6,232.4,626.7,215.6,621.8,196.4z"/>
		</g>
		<g>
			<path class="st0" d="M192.3,170.2c0,12.5-4,18.7-12,18.7H73.4c-8.3,0-12.5-6.2-12.5-18.7V0H3.3v170.2c0,20.8,6.5,38.7,19.4,53.7
				c13,15,29.8,22.5,50.6,22.5h106.5c20.5,0,37.2-7.5,50.4-22.5c13.1-15,19.7-32.9,19.7-53.7V94.5h-57.5V170.2z"/>
		</g>
		<g>
			<path class="st0" d="M651.4,0H487.7h-15.4l0,0h-72.4H265.3h-72.9l0,0v57.5h57.5h15.4h38.3v188.9h57.5V57.5h38.8h15.4h57h0.5h14.9
				h132.5c0.4-2.6,1-5.1,1.6-7.6C626.7,30.8,636.7,14,651.4,0z"/>
		</g>
		<g>
			<path class="st0" d="M693.8,7.7c-5.4,2.6-10.6,5.8-15.4,9.6c-1.9,1.6-3.9,3.2-5.7,5c-10.6,10-17.6,21.8-21,35.3
				c-1.3,4.9-2,10-2.3,15.4c-0.1,1.7-0.1,3.4-0.1,5.1v1.1v15.4V152v15.4v1c0,1.7,0.1,3.4,0.1,5c0.3,5.4,1.1,10.5,2.3,15.4
				c3.4,13.5,10.4,25.3,21,35.3c1.7,1.6,3.5,3.2,5.3,4.6c4.8,3.9,10,7.2,15.4,9.8c10.9,5.3,23,7.9,36.3,7.9h166.8v-57.5H729.7
				c-15.3,0-23-6.8-23-20.5V78.1c0-13.7,7.7-20.5,23-20.5h166.8V0H729.7C716.6,0,704.7,2.6,693.8,7.7z"/>
		</g>
	</g>
</g>
<g>
	<g>
		<path class="st0" d="M56.2,352H3.3v-52.8h12.3v40.5h40.6V352z"/>
		<path class="st0" d="M194.6,335.3c0,4.8-1.7,8.8-5,12c-3.4,3.2-7.4,4.7-12.2,4.7h-31c-4.8,0-8.9-1.6-12.2-4.7c-3.4-3.2-5-7.2-5-12
			v-19.4c0-4.8,1.7-8.8,5-11.9c3.3-3.2,7.4-4.8,12.2-4.8h31c4.8,0,8.9,1.6,12.2,4.8c3.4,3.2,5,7.2,5,11.9V335.3z M182.3,335.3V316
			c0-2.9-1.6-4.4-4.9-4.4h-31c-3.3,0-4.9,1.5-4.9,4.4v19.3c0,2.9,1.6,4.4,4.9,4.4h31C180.7,339.7,182.3,338.2,182.3,335.3z"/>
		<path class="st0" d="M325.6,352h-40.9c-4.8,0-8.9-1.6-12.2-4.7c-3.3-3.2-5-7.2-5-12v-19.4c0-4.8,1.7-8.8,5-11.9
			c3.4-3.2,7.4-4.8,12.2-4.8h40.9v12.3h-40.9c-3.3,0-4.9,1.5-4.9,4.4v19.3c0,2.9,1.7,4.4,4.9,4.4h28.6v-7.9h-16.7v-12.3h29V352z"/>
		<path class="st0" d="M410.9,352h-12.3v-52.8h12.3V352z"/>
		<path class="st0" d="M546.8,335.7c0,4.4-1.3,8.2-4,11.4c-2.9,3.3-6.5,4.9-10.9,4.9h-45.6v-12.3h45.6c1.7,0,2.6-1.3,2.6-4
			c0-2.6-0.9-4-2.6-4h-33.2c-4.4,0-8-1.6-10.8-4.9c-2.8-3.1-4.1-6.8-4.1-11.3c0-4.5,1.4-8.3,4.2-11.5c2.8-3.2,6.4-4.8,10.8-4.8h45.6
			v12.3h-45.7c-1.7,0-2.6,1.3-2.6,4c0,2.6,0.9,3.9,2.6,3.9h33.2c4.4,0,8,1.6,10.9,4.9C545.5,327.5,546.8,331.3,546.8,335.7z"/>
		<path class="st0" d="M679.6,311.6h-23.8V352h-12.3v-40.4h-23.8v-12.3h60V311.6z"/>
		<path class="st0" d="M764.2,352h-12.3v-52.8h12.3V352z"/>
		<path class="st0" d="M895.1,352h-40.9c-4.8,0-8.9-1.6-12.2-4.7c-3.3-3.2-5-7.2-5-12v-19.4c0-4.8,1.7-8.8,5-11.9
			c3.3-3.2,7.5-4.8,12.2-4.8h40.9v12.3h-40.9c-3.3,0-4.9,1.5-4.9,4.4v19.3c0,2.9,1.6,4.4,4.9,4.4h40.9V352z"/>
		<path class="st0" d="M1031.1,335.7c0,4.4-1.3,8.2-4,11.4c-2.9,3.3-6.5,4.9-10.9,4.9h-45.6v-12.3h45.6c1.7,0,2.5-1.3,2.5-4
			c0-2.6-0.8-4-2.5-4H983c-4.4,0-8-1.6-10.9-4.9c-2.7-3.1-4.1-6.8-4.1-11.3c0-4.5,1.4-8.3,4.2-11.5c2.8-3.2,6.4-4.8,10.8-4.8h45.6
			v12.3h-45.7c-1.7,0-2.6,1.3-2.6,4c0,2.6,0.8,3.9,2.6,3.9h33.2c4.4,0,8,1.6,10.9,4.9C1029.8,327.5,1031.1,331.3,1031.1,335.7z"/>
	</g>
</g>
</svg>
