<?xml version="1.0" encoding="utf-8"?>
<!-- Generator: Adobe Illustrator 21.0.0, SVG Export Plug-In . SVG Version: 6.00 Build 0)  -->
<svg version="1.1" id="Layer_1" xmlns="http://www.w3.org/2000/svg" xmlns:xlink="http://www.w3.org/1999/xlink" x="0px" y="0px"
	 width="11px" height="21px" viewBox="0 0 11 21" style="enable-background:new 0 0 11 21;" xml:space="preserve">
<style type="text/css">
	.st0{fill:#FFFFFF;}
</style>
<path class="st0" d="M10.9,19.7c-0.1,0.3-0.3,0.4-0.6,0.5l-3.5,0.7c-0.2,0-0.3,0.1-0.5,0c-0.2,0-0.4-0.1-0.5-0.1c0,0,0,0-0.1-0.1
	c-0.1,0-0.1-0.1-0.2-0.1c-0.2-0.1-0.5-0.4-0.9-0.7c-0.4-0.4-0.8-0.9-1.3-1.6s-1-1.6-1.4-2.6c-0.5-1.1-0.9-2.4-1.2-3.9
	C0.3,10.6,0.1,9.5,0,8.5c0-1,0-1.9,0.1-2.6c0.1-0.8,0.2-1.4,0.3-2s0.3-1,0.5-1.4C1,2.2,1.1,1.9,1.3,1.7c0.1-0.2,0.2-0.3,0.2-0.3
	C1.6,1.3,1.7,1.1,1.9,1s0.3-0.2,0.5-0.2L5.9,0c0.2,0,0.5,0,0.7,0.2c0.1,0.1,0.2,0.2,0.3,0.4c0,0.1,0,0.2,0,0.4L6.6,5.3
	c0,0.2-0.1,0.4-0.3,0.6C6.1,6.1,5.9,6.2,5.7,6.3L4.4,6.5c0,0-0.1,0-0.1,0.1L4.2,6.7C4.1,7,4,7.3,4,7.7C4,8,4,8.4,4,9s0.1,1.2,0.3,2
	c0.2,0.8,0.3,1.4,0.5,2c0.2,0.5,0.4,0.9,0.5,1.2c0.2,0.3,0.3,0.5,0.4,0.6L6,14.9h0.1c0.1,0,0.1,0,0.1,0l1.5-0.3c0.3,0,0.6,0,0.8,0.2
	C8.8,14.9,8.9,15,9,15.1l0,0l1.9,3.8C11,19.2,11,19.4,10.9,19.7z"/>
</svg>
