<?xml version="1.0" encoding="utf-8"?>
<!-- Generator: Adobe Illustrator 21.0.0, SVG Export Plug-In . SVG Version: 6.00 Build 0)  -->
<svg version="1.1" id="Layer_1" xmlns="http://www.w3.org/2000/svg" xmlns:xlink="http://www.w3.org/1999/xlink" x="0px" y="0px"
	 width="11.5px" height="22px" viewBox="0 0 11.5 22" style="enable-background:new 0 0 11.5 22;" xml:space="preserve">
<style type="text/css">
	.st0{fill:#FFFFFF;}
</style>
<path class="st0" d="M11.5,20.6c-0.1,0.3-0.3,0.4-0.6,0.5l-3.7,0.7c-0.2,0-0.3,0.1-0.5,0c-0.2,0-0.4-0.1-0.5-0.1c0,0,0,0-0.1-0.1
	c-0.1,0-0.1-0.1-0.2-0.1c-0.2-0.1-0.5-0.4-0.9-0.7c-0.4-0.4-0.8-0.9-1.4-1.7c-0.5-0.7-1-1.7-1.5-2.7c-0.8-2-1.5-4-1.8-6.2
	C-0.2,7.9-0.1,4.8,1,2.6C1.1,2.3,1.2,2,1.4,1.8c0.1-0.2,0.2-0.3,0.2-0.3C1.7,1.4,1.8,1.2,2,1s0.3-0.2,0.5-0.2L6.2,0
	C6.4,0,6.7,0,7,0.2c0.1,0.1,0.2,0.2,0.3,0.4c0,0.1,0,0.2,0,0.4L7,5.6C7,5.8,6.8,6,6.6,6.2C6.4,6.4,6.2,6.5,6,6.6L4.6,6.8
	c0,0-0.1,0-0.1,0.1L4.4,7C4.3,7.3,4.2,7.6,4.2,8c0,0.3,0,0.7,0,1.4c0,0.6,0.1,1.3,0.3,2.1C4.7,12.3,4.8,13,5,13.6
	c0.2,0.5,0.4,0.9,0.5,1.3c0.2,0.3,0.3,0.5,0.4,0.6l0.3,0.1h0.1c0.1,0,0.1,0,0.1,0L8,15.3c0.3,0,0.6,0,0.8,0.2
	c0.3,0.1,0.4,0.2,0.5,0.3l2,4C11.6,20.1,11.6,20.3,11.5,20.6z"/>
</svg>
